{
  "accessors": [
    {
      "name": "RightShoulder_1_0_positions",
      "componentType": 5126,
      "count": 95,
      "min": [
        0.6304510235786438,
        -0.23450100421905518,
        -0.18471799790859222
      ],
      "max": [
        0.7558410167694092,
        0.1954990029335022,
        0.5752819776535034
      ],
      "type": "VEC3",
      "bufferView": 0,
      "byteOffset": 0
    },
    {
      "name": "RightShoulder_1_0_indices",
      "componentType": 5123,
      "count": 480,
      "min": [
        0
      ],
      "max": [
        94
      ],
      "type": "SCALAR",
      "bufferView": 1,
      "byteOffset": 0
    },
    {
      "name": "Base_1_0_positions",
      "componentType": 5126,
      "count": 32,
      "min": [
        0.0003589999978430569,
        -0.4200960099697113,
        -0.14061599969863892
      ],
      "max": [
        0.7146869897842407,
        -0.22009600698947906,
        0.5328900218009949
      ],
      "type": "VEC3",
      "bufferView": 0,
      "byteOffset": 1140
    },
    {
      "name": "Base_1_0_indices",
      "componentType": 5123,
      "count": 144,
      "min": [
        0
      ],
      "max": [
        31
      ],
      "type": "SCALAR",
      "bufferView": 1,
      "byteOffset": 960
    },
    {
      "name": "Pillow_1_0_positions",
      "componentType": 5126,
      "count": 266,
      "min": [
        0.050857000052928925,
        -0.007451999932527542,
        -0.13114599883556366
      ],
      "max": [
        0.6646019816398621,
        0.3489939868450165,
        0.027506999671459198
      ],
      "type": "VEC3",
      "bufferView": 0,
      "byteOffset": 1524
    },
    {
      "name": "Pillow_1_0_indices",
      "componentType": 5123,
      "count": 1584,
      "min": [
        0
      ],
      "max": [
        265
      ],
      "type": "SCALAR",
      "bufferView": 1,
      "byteOffset": 1248
    },
    {
      "name": "Seat_1_0_positions",
      "componentType": 5126,
      "count": 180,
      "min": [
        0.07535699754953384,
        -0.12208600342273712,
        -0.10165700316429138
      ],
      "max": [
        0.6402609944343567,
        0.0050760000012815,
        0.5935879945755005
      ],
      "type": "VEC3",
      "bufferView": 0,
      "byteOffset": 4716
    },
    {
      "name": "Seat_1_0_indices",
      "componentType": 5123,
      "count": 1068,
      "min": [
        0
      ],
      "max": [
        179
      ],
      "type": "SCALAR",
      "bufferView": 1,
      "byteOffset": 4416
    },
    {
      "name": "Bottom_1_0_positions",
      "componentType": 5126,
      "count": 34,
      "min": [
        0.05189900100231171,
        -0.23499999940395355,
        -0.1842159926891327
      ],
      "max": [
        0.6628730297088623,
        0.29499998688697815,
        0.5757840275764465
      ],
      "type": "VEC3",
      "bufferView": 0,
      "byteOffset": 6876
    },
    {
      "name": "Bottom_1_0_indices",
      "componentType": 5123,
      "count": 192,
      "min": [
        0
      ],
      "max": [
        33
      ],
      "type": "SCALAR",
      "bufferView": 1,
      "byteOffset": 6552
    },
    {
      "name": "LeftShoulder_1_0_positions",
      "componentType": 5126,
      "count": 95,
      "min": [
        -0.04156399890780449,
        -0.23450100421905518,
        -0.18471799790859222
      ],
      "max": [
        0.08382599800825119,
        0.1954990029335022,
        0.5752819776535034
      ],
      "type": "VEC3",
      "bufferView": 0,
      "byteOffset": 7284
    },
    {
      "name": "LeftShoulder_1_0_indices",
      "componentType": 5123,
      "count": 480,
      "min": [
        0
      ],
      "max": [
        94
      ],
      "type": "SCALAR",
      "bufferView": 1,
      "byteOffset": 6936
    }
  ],
  "asset": {
    "generator": "obj2gltf",
    "version": "2.0"
  },
  "buffers": [
    {
      "name": "armchair2",
      "byteLength": 16320,
      "uri": "data:application/octet-stream;base64,"
    }
  ],
  "bufferViews": [
    {
      "name": "bufferView_0",
      "buffer": 0,
      "byteLength": 8424,
      "byteOffset": 0,
      "byteStride": 12,
      "target": 34962
    },
    {
      "name": "bufferView_1",
      "buffer": 0,
      "byteLength": 7896,
      "byteOffset": 8424,
      "target": 34963
    }
  ],
  "materials": [
    {
      "name": "flgrey",
      "pbrMetallicRoughness": {
        "baseColorFactor": [
          0.5,
          0.5,
          0.5,
          1
        ],
        "metallicFactor": 0,
        "roughnessFactor": 1
      },
      "emissiveFactor": [
        0,
        0,
        0
      ],
      "alphaMode": "OPAQUE",
      "doubleSided": false
    },
    {
      "name": "flblonde",
      "pbrMetallicRoughness": {
        "baseColorFactor": [
          0.5,
          0.5,
          0.5,
          1
        ],
        "metallicFactor": 0,
        "roughnessFactor": 1
      },
      "emissiveFactor": [
        0,
        0,
        0
      ],
      "alphaMode": "OPAQUE",
      "doubleSided": false
    }
  ],
  "meshes": [
    {
      "name": "RightShoulder_1",
      "primitives": [
        {
          "attributes": {
            "POSITION": 0
          },
          "indices": 1,
          "material": 0,
          "mode": 4
        }
      ]
    },
    {
      "name": "Base_1",
      "primitives": [
        {
          "attributes": {
            "POSITION": 2
          },
          "indices": 3,
          "material": 1,
          "mode": 4
        }
      ]
    },
    {
      "name": "Pillow_1",
      "primitives": [
        {
          "attributes": {
            "POSITION": 4
          },
          "indices": 5,
          "material": 0,
          "mode": 4
        }
      ]
    },
    {
      "name": "Seat_1",
      "primitives": [
        {
          "attributes": {
            "POSITION": 6
          },
          "indices": 7,
          "material": 0,
          "mode": 4
        }
      ]
    },
    {
      "name": "Bottom_1",
      "primitives": [
        {
          "attributes": {
            "POSITION": 8
          },
          "indices": 9,
          "material": 0,
          "mode": 4
        }
      ]
    },
    {
      "name": "LeftShoulder_1",
      "primitives": [
        {
          "attributes": {
            "POSITION": 10
          },
          "indices": 11,
          "material": 0,
          "mode": 4
        }
      ]
    }
  ],
  "nodes": [
    {
      "name": "RightShoulder",
      "mesh": 0
    },
    {
      "name": "Base",
      "mesh": 1
    },
    {
      "name": "Pillow",
      "mesh": 2
    },
    {
      "name": "Seat",
      "mesh": 3
    },
    {
      "name": "Bottom",
      "mesh": 4
    },
    {
      "name": "LeftShoulder",
      "mesh": 5
    }
  ],
  "scene": 0,
  "scenes": [
    {
      "nodes": [
        0,
        1,
        2,
        3,
        4,
        5
      ]
    }
  ]
}
