{
  "accessors": [
    {
      "name": "Accoudoir_1_1_0_positions",
      "componentType": 5126,
      "count": 658,
      "min": [
        -0.9229840040206909,
        -0.901449978351593,
        -0.88823002576828
      ],
      "max": [
        -0.604964017868042,
        0.244609996676445,
        0.9692500233650208
      ],
      "type": "VEC3",
      "bufferView": 0,
      "byteOffset": 0
    },
    {
      "name": "Accoudoir_1_1_0_indices",
      "componentType": 5123,
      "count": 3936,
      "min": [
        0
      ],
      "max": [
        657
      ],
      "type": "SCALAR",
      "bufferView": 1,
      "byteOffset": 0
    },
    {
      "name": "Accoudoir_1_0_positions",
      "componentType": 5126,
      "count": 658,
      "min": [
        0.6377869844436646,
        -0.901449978351593,
        -0.88823002576828
      ],
      "max": [
        0.9558069705963135,
        0.244609996676445,
        0.9692500233650208
      ],
      "type": "VEC3",
      "bufferView": 0,
      "byteOffset": 7896
    },
    {
      "name": "Accoudoir_1_0_indices",
      "componentType": 5123,
      "count": 3936,
      "min": [
        0
      ],
      "max": [
        657
      ],
      "type": "SCALAR",
      "bufferView": 1,
      "byteOffset": 7872
    },
    {
      "name": "Assise_&_Dossier_1_0_positions",
      "componentType": 5126,
      "count": 681,
      "min": [
        -0.7894700169563293,
        -0.7158799767494202,
        -1.0353399515151978
      ],
      "max": [
        0.7932900190353394,
        1.0933619737625122,
        1.0592299699783325
      ],
      "type": "VEC3",
      "bufferView": 0,
      "byteOffset": 15792
    },
    {
      "name": "Assise_&_Dossier_1_0_indices",
      "componentType": 5123,
      "count": 3708,
      "min": [
        0
      ],
      "max": [
        680
      ],
      "type": "SCALAR",
      "bufferView": 1,
      "byteOffset": 15744
    }
  ],
  "asset": {
    "generator": "obj2gltf",
    "version": "2.0"
  },
  "buffers": [
    {
      "name": "armchair",
      "byteLength": 47124,
      "uri": "data:application/octet-stream;base64,"
    }
  ],
  "bufferViews": [
    {
      "name": "bufferView_0",
      "buffer": 0,
      "byteLength": 23964,
      "byteOffset": 0,
      "byteStride": 12,
      "target": 34962
    },
    {
      "name": "bufferView_1",
      "buffer": 0,
      "byteLength": 23160,
      "byteOffset": 23964,
      "target": 34963
    }
  ],
  "materials": [
    {
      "name": "iris",
      "pbrMetallicRoughness": {
        "baseColorFactor": [
          0.5,
          0.5,
          0.5,
          1
        ],
        "metallicFactor": 0,
        "roughnessFactor": 1
      },
      "emissiveFactor": [
        0,
        0,
        0
      ],
      "alphaMode": "OPAQUE",
      "doubleSided": false
    }
  ],
  "meshes": [
    {
      "name": "Accoudoir_1_1",
      "primitives": [
        {
          "attributes": {
            "POSITION": 0
          },
          "indices": 1,
          "material": 0,
          "mode": 4
        }
      ]
    },
    {
      "name": "Accoudoir_1",
      "primitives": [
        {
          "attributes": {
            "POSITION": 2
          },
          "indices": 3,
          "material": 0,
          "mode": 4
        }
      ]
    },
    {
      "name": "Assise_&_Dossier_1",
      "primitives": [
        {
          "attributes": {
            "POSITION": 4
          },
          "indices": 5,
          "material": 0,
          "mode": 4
        }
      ]
    }
  ],
  "nodes": [
    {
      "name": "Accoudoir_1",
      "mesh": 0
    },
    {
      "name": "Accoudoir",
      "mesh": 1
    },
    {
      "name": "Assise_&_Dossier",
      "mesh": 2
    }
  ],
  "scene": 0,
  "scenes": [
    {
      "nodes": [
        0,
        1,
        2
      ]
    }
  ]
}
