{
  "accessors": [
    {
      "name": "sweethome3d_hinge_1_1_0_positions",
      "componentType": 5126,
      "count": 8,
      "min": [
        0.1882999986410141,
        -0.10154999792575836,
        0.28999999165534973
      ],
      "max": [
        0.19030000269412994,
        -0.06804999709129333,
        0.3230000138282776
      ],
      "type": "VEC3",
      "bufferView": 0,
      "byteOffset": 0
    },
    {
      "name": "sweethome3d_hinge_1_1_0_indices",
      "componentType": 5123,
      "count": 36,
      "min": [
        0
      ],
      "max": [
        7
      ],
      "type": "SCALAR",
      "bufferView": 1,
      "byteOffset": 0
    },
    {
      "name": "Pannel_1_0_positions",
      "componentType": 5126,
      "count": 64,
      "min": [
        -0.30000001192092896,
        0.27649998664855957,
        0.30000001192092896
      ],
      "max": [
        0.30000001192092896,
        0.3865000009536743,
        0.3199999928474426
      ],
      "type": "VEC3",
      "bufferView": 0,
      "byteOffset": 96
    },
    {
      "name": "Pannel_1_0_indices",
      "componentType": 5123,
      "count": 372,
      "min": [
        0
      ],
      "max": [
        63
      ],
      "type": "SCALAR",
      "bufferView": 1,
      "byteOffset": 72
    },
    {
      "name": "Body_1_0_positions",
      "componentType": 5126,
      "count": 152,
      "min": [
        -0.30000001192092896,
        -0.46299999952316284,
        -0.30000001192092896
      ],
      "max": [
        0.30000001192092896,
        0.3869999945163727,
        0.30000001192092896
      ],
      "type": "VEC3",
      "bufferView": 0,
      "byteOffset": 864
    },
    {
      "name": "Body_1_0_indices",
      "componentType": 5123,
      "count": 858,
      "min": [
        0
      ],
      "max": [
        151
      ],
      "type": "SCALAR",
      "bufferView": 1,
      "byteOffset": 816
    },
    {
      "name": "Body_1_1_positions",
      "componentType": 5126,
      "count": 32,
      "min": [
        -0.23000000417232513,
        -0.3248000144958496,
        -0.2199999988079071
      ],
      "max": [
        0.23000000417232513,
        0.15520000457763672,
        0.23999999463558197
      ],
      "type": "VEC3",
      "bufferView": 0,
      "byteOffset": 2688
    },
    {
      "name": "Body_1_1_indices",
      "componentType": 5123,
      "count": 138,
      "min": [
        0
      ],
      "max": [
        31
      ],
      "type": "SCALAR",
      "bufferView": 1,
      "byteOffset": 2532
    },
    {
      "name": "sweethome3d_opening_on_hinge_1_doorFront_1_0_positions",
      "componentType": 5126,
      "count": 96,
      "min": [
        -0.19155000150203705,
        -0.2763499915599823,
        0.3288100063800812
      ],
      "max": [
        0.19155000150203705,
        0.1067499965429306,
        0.33118999004364014
      ],
      "type": "VEC3",
      "bufferView": 0,
      "byteOffset": 3072
    },
    {
      "name": "sweethome3d_opening_on_hinge_1_doorFront_1_0_indices",
      "componentType": 5123,
      "count": 384,
      "min": [
        0
      ],
      "max": [
        95
      ],
      "type": "SCALAR",
      "bufferView": 1,
      "byteOffset": 2808
    },
    {
      "name": "sweethome3d_window_pane_on_hinge_1_1_0_positions",
      "componentType": 5126,
      "count": 32,
      "min": [
        -0.11999999731779099,
        -0.20479999482631683,
        0.30000001192092896
      ],
      "max": [
        0.11999999731779099,
        0.03519999980926514,
        0.3100000023841858
      ],
      "type": "VEC3",
      "bufferView": 0,
      "byteOffset": 4224
    },
    {
      "name": "sweethome3d_window_pane_on_hinge_1_1_0_indices",
      "componentType": 5123,
      "count": 84,
      "min": [
        0
      ],
      "max": [
        31
      ],
      "type": "SCALAR",
      "bufferView": 1,
      "byteOffset": 3576
    },
    {
      "name": "Button1_1_0_positions",
      "componentType": 5126,
      "count": 32,
      "min": [
        0.09693600237369537,
        0.3047490119934082,
        0.31797000765800476
      ],
      "max": [
        0.14693599939346313,
        0.35474899411201477,
        0.3279710114002228
      ],
      "type": "VEC3",
      "bufferView": 0,
      "byteOffset": 4608
    },
    {
      "name": "Button1_1_0_indices",
      "componentType": 5123,
      "count": 180,
      "min": [
        0
      ],
      "max": [
        31
      ],
      "type": "SCALAR",
      "bufferView": 1,
      "byteOffset": 3744
    },
    {
      "name": "Button2_1_0_positions",
      "componentType": 5126,
      "count": 32,
      "min": [
        0.1890459954738617,
        0.3047490119934082,
        0.31797000765800476
      ],
      "max": [
        0.23904600739479065,
        0.35474899411201477,
        0.3279710114002228
      ],
      "type": "VEC3",
      "bufferView": 0,
      "byteOffset": 4992
    },
    {
      "name": "Button2_1_0_indices",
      "componentType": 5123,
      "count": 180,
      "min": [
        0
      ],
      "max": [
        31
      ],
      "type": "SCALAR",
      "bufferView": 1,
      "byteOffset": 4104
    },
    {
      "name": "sweethome3d_opening_on_hinge_1_door_1_0_positions",
      "componentType": 5126,
      "count": 192,
      "min": [
        -0.19499999284744263,
        -0.2797999978065491,
        0.29100000858306885
      ],
      "max": [
        0.19499999284744263,
        0.11020000278949738,
        0.3288100063800812
      ],
      "type": "VEC3",
      "bufferView": 0,
      "byteOffset": 5376
    },
    {
      "name": "sweethome3d_opening_on_hinge_1_door_1_0_indices",
      "componentType": 5123,
      "count": 960,
      "min": [
        0
      ],
      "max": [
        191
      ],
      "type": "SCALAR",
      "bufferView": 1,
      "byteOffset": 4464
    }
  ],
  "asset": {
    "generator": "obj2gltf",
    "version": "2.0"
  },
  "buffers": [
    {
      "name": "clothesWasher",
      "byteLength": 14064,
      "uri": "data:application/octet-stream;base64,"
    }
  ],
  "bufferViews": [
    {
      "name": "bufferView_0",
      "buffer": 0,
      "byteLength": 7680,
      "byteOffset": 0,
      "byteStride": 12,
      "target": 34962
    },
    {
      "name": "bufferView_1",
      "buffer": 0,
      "byteLength": 6384,
      "byteOffset": 7680,
      "target": 34963
    }
  ],
  "materials": [
    {
      "name": "silver",
      "pbrMetallicRoughness": {
        "baseColorFactor": [
          0.5,
          0.5,
          0.5,
          1
        ],
        "metallicFactor": 0,
        "roughnessFactor": 1
      },
      "emissiveFactor": [
        0,
        0,
        0
      ],
      "alphaMode": "OPAQUE",
      "doubleSided": false
    },
    {
      "name": "white",
      "pbrMetallicRoughness": {
        "baseColorFactor": [
          0.5,
          0.5,
          0.5,
          1
        ],
        "metallicFactor": 0,
        "roughnessFactor": 1
      },
      "emissiveFactor": [
        0,
        0,
        0
      ],
      "alphaMode": "OPAQUE",
      "doubleSided": false
    },
    {
      "name": "flltgrey",
      "pbrMetallicRoughness": {
        "baseColorFactor": [
          0.5,
          0.5,
          0.5,
          1
        ],
        "metallicFactor": 0,
        "roughnessFactor": 1
      },
      "emissiveFactor": [
        0,
        0,
        0
      ],
      "alphaMode": "OPAQUE",
      "doubleSided": false
    },
    {
      "name": "flwhite1",
      "pbrMetallicRoughness": {
        "baseColorFactor": [
          0.5,
          0.5,
          0.5,
          1
        ],
        "metallicFactor": 0,
        "roughnessFactor": 1
      },
      "emissiveFactor": [
        0,
        0,
        0
      ],
      "alphaMode": "OPAQUE",
      "doubleSided": false
    }
  ],
  "meshes": [
    {
      "name": "sweethome3d_hinge_1_1",
      "primitives": [
        {
          "attributes": {
            "POSITION": 0
          },
          "indices": 1,
          "material": 0,
          "mode": 4
        }
      ]
    },
    {
      "name": "Pannel_1",
      "primitives": [
        {
          "attributes": {
            "POSITION": 2
          },
          "indices": 3,
          "material": 1,
          "mode": 4
        }
      ]
    },
    {
      "name": "Body_1",
      "primitives": [
        {
          "attributes": {
            "POSITION": 4
          },
          "indices": 5,
          "material": 1,
          "mode": 4
        },
        {
          "attributes": {
            "POSITION": 6
          },
          "indices": 7,
          "material": 0,
          "mode": 4
        }
      ]
    },
    {
      "name": "sweethome3d_opening_on_hinge_1_doorFront_1",
      "primitives": [
        {
          "attributes": {
            "POSITION": 8
          },
          "indices": 9,
          "material": 0,
          "mode": 4
        }
      ]
    },
    {
      "name": "sweethome3d_window_pane_on_hinge_1_1",
      "primitives": [
        {
          "attributes": {
            "POSITION": 10
          },
          "indices": 11,
          "material": 2,
          "mode": 4
        }
      ]
    },
    {
      "name": "Button1_1",
      "primitives": [
        {
          "attributes": {
            "POSITION": 12
          },
          "indices": 13,
          "material": 3,
          "mode": 4
        }
      ]
    },
    {
      "name": "Button2_1",
      "primitives": [
        {
          "attributes": {
            "POSITION": 14
          },
          "indices": 15,
          "material": 3,
          "mode": 4
        }
      ]
    },
    {
      "name": "sweethome3d_opening_on_hinge_1_door_1",
      "primitives": [
        {
          "attributes": {
            "POSITION": 16
          },
          "indices": 17,
          "material": 0,
          "mode": 4
        }
      ]
    }
  ],
  "nodes": [
    {
      "name": "sweethome3d_hinge_1",
      "mesh": 0
    },
    {
      "name": "Pannel",
      "mesh": 1
    },
    {
      "name": "Body",
      "mesh": 2
    },
    {
      "name": "sweethome3d_opening_on_hinge_1_doorFront",
      "mesh": 3
    },
    {
      "name": "sweethome3d_window_pane_on_hinge_1",
      "mesh": 4
    },
    {
      "name": "Button1",
      "mesh": 5
    },
    {
      "name": "Button2",
      "mesh": 6
    },
    {
      "name": "sweethome3d_opening_on_hinge_1_door",
      "mesh": 7
    }
  ],
  "scene": 0,
  "scenes": [
    {
      "nodes": [
        0,
        1,
        2,
        3,
        4,
        5,
        6,
        7
      ]
    }
  ]
}
