{
  "accessors": [
    {
      "name": "sweethome3d_hinge_1_1_0_positions",
      "componentType": 5126,
      "count": 8,
      "min": [
        -0.33000001311302185,
        0.24500000476837158,
        0.18199999630451202
      ],
      "max": [
        -0.32499998807907104,
        0.2549999952316284,
        0.18700000643730164
      ],
      "type": "VEC3",
      "bufferView": 0,
      "byteOffset": 0
    },
    {
      "name": "sweethome3d_hinge_1_1_0_indices",
      "componentType": 5123,
      "count": 18,
      "min": [
        0
      ],
      "max": [
        7
      ],
      "type": "SCALAR",
      "bufferView": 1,
      "byteOffset": 0
    },
    {
      "name": "sweethome3d_hinge_3_1_0_positions",
      "componentType": 5126,
      "count": 8,
      "min": [
        -0.33000001311302185,
        -0.11500000208616257,
        0.18199999630451202
      ],
      "max": [
        -0.32499998807907104,
        -0.10499999672174454,
        0.18700000643730164
      ],
      "type": "VEC3",
      "bufferView": 0,
      "byteOffset": 96
    },
    {
      "name": "sweethome3d_hinge_3_1_0_indices",
      "componentType": 5123,
      "count": 18,
      "min": [
        0
      ],
      "max": [
        7
      ],
      "type": "SCALAR",
      "bufferView": 1,
      "byteOffset": 36
    },
    {
      "name": "sweethome3d_hinge_4_1_0_positions",
      "componentType": 5126,
      "count": 8,
      "min": [
        0.32499998807907104,
        -0.11500000208616257,
        0.18199999630451202
      ],
      "max": [
        0.33000001311302185,
        -0.10499999672174454,
        0.18700000643730164
      ],
      "type": "VEC3",
      "bufferView": 0,
      "byteOffset": 192
    },
    {
      "name": "sweethome3d_hinge_4_1_0_indices",
      "componentType": 5123,
      "count": 18,
      "min": [
        0
      ],
      "max": [
        7
      ],
      "type": "SCALAR",
      "bufferView": 1,
      "byteOffset": 72
    },
    {
      "name": "sweethome3d_hinge_2_1_0_positions",
      "componentType": 5126,
      "count": 8,
      "min": [
        0.32499998807907104,
        0.24500000476837158,
        0.18199999630451202
      ],
      "max": [
        0.33000001311302185,
        0.2549999952316284,
        0.18700000643730164
      ],
      "type": "VEC3",
      "bufferView": 0,
      "byteOffset": 288
    },
    {
      "name": "sweethome3d_hinge_2_1_0_indices",
      "componentType": 5123,
      "count": 18,
      "min": [
        0
      ],
      "max": [
        7
      ],
      "type": "SCALAR",
      "bufferView": 1,
      "byteOffset": 108
    },
    {
      "name": "sweethome3d_unique_rail_1_0_positions",
      "componentType": 5126,
      "count": 16,
      "min": [
        -0.010999999940395355,
        0.06499999761581421,
        -0.14000000059604645
      ],
      "max": [
        0.010999999940395355,
        0.1404999941587448,
        0.1599999964237213
      ],
      "type": "VEC3",
      "bufferView": 0,
      "byteOffset": 384
    },
    {
      "name": "sweethome3d_unique_rail_1_0_indices",
      "componentType": 5123,
      "count": 84,
      "min": [
        0
      ],
      "max": [
        15
      ],
      "type": "SCALAR",
      "bufferView": 1,
      "byteOffset": 144
    },
    {
      "name": "Shelf4_1_0_positions",
      "componentType": 5126,
      "count": 16,
      "min": [
        -0.3339790105819702,
        -0.22784200310707092,
        -0.16162100434303284
      ],
      "max": [
        0.3340210020542145,
        -0.21184100210666656,
        0.16818499565124512
      ],
      "type": "VEC3",
      "bufferView": 0,
      "byteOffset": 576
    },
    {
      "name": "Shelf4_1_0_indices",
      "componentType": 5123,
      "count": 48,
      "min": [
        0
      ],
      "max": [
        15
      ],
      "type": "SCALAR",
      "bufferView": 1,
      "byteOffset": 312
    },
    {
      "name": "Shelf5_1_0_positions",
      "componentType": 5126,
      "count": 16,
      "min": [
        -0.3339790105819702,
        -0.45284199714660645,
        -0.16162100434303284
      ],
      "max": [
        0.3340210020542145,
        -0.4368410110473633,
        0.16818499565124512
      ],
      "type": "VEC3",
      "bufferView": 0,
      "byteOffset": 768
    },
    {
      "name": "Shelf5_1_0_indices",
      "componentType": 5123,
      "count": 48,
      "min": [
        0
      ],
      "max": [
        15
      ],
      "type": "SCALAR",
      "bufferView": 1,
      "byteOffset": 408
    },
    {
      "name": "sweethome3d_window_pane_on_hinge_2_1_0_positions",
      "componentType": 5126,
      "count": 8,
      "min": [
        0.051973000168800354,
        0.2066430002450943,
        0.18040500581264496
      ],
      "max": [
        0.2839759886264801,
        1.1082990169525146,
        0.18849100172519684
      ],
      "type": "VEC3",
      "bufferView": 0,
      "byteOffset": 960
    },
    {
      "name": "sweethome3d_window_pane_on_hinge_2_1_0_indices",
      "componentType": 5123,
      "count": 36,
      "min": [
        0
      ],
      "max": [
        7
      ],
      "type": "SCALAR",
      "bufferView": 1,
      "byteOffset": 504
    },
    {
      "name": "sweethome3d_window_pane_on_hinge_1_1_0_positions",
      "componentType": 5126,
      "count": 8,
      "min": [
        -0.28377100825309753,
        0.2066430002450943,
        0.18040500581264496
      ],
      "max": [
        -0.05176800116896629,
        1.1082990169525146,
        0.18849100172519684
      ],
      "type": "VEC3",
      "bufferView": 0,
      "byteOffset": 1056
    },
    {
      "name": "sweethome3d_window_pane_on_hinge_1_1_0_indices",
      "componentType": 5123,
      "count": 36,
      "min": [
        0
      ],
      "max": [
        7
      ],
      "type": "SCALAR",
      "bufferView": 1,
      "byteOffset": 576
    },
    {
      "name": "sweethome3d_opening_on_hinge_4_rightDoor_1_0_positions",
      "componentType": 5126,
      "count": 124,
      "min": [
        0.0020779999904334545,
        -0.6392589807510376,
        0.1765259951353073
      ],
      "max": [
        0.3335779905319214,
        -0.01915000006556511,
        0.21030600368976593
      ],
      "type": "VEC3",
      "bufferView": 0,
      "byteOffset": 1152
    },
    {
      "name": "sweethome3d_opening_on_hinge_4_rightDoor_1_0_indices",
      "componentType": 5123,
      "count": 654,
      "min": [
        0
      ],
      "max": [
        123
      ],
      "type": "SCALAR",
      "bufferView": 1,
      "byteOffset": 648
    },
    {
      "name": "sweethome3d_opening_on_hinge_3_leftDoor_1_0_positions",
      "componentType": 5126,
      "count": 124,
      "min": [
        -0.333389014005661,
        -0.6392589807510376,
        0.1765259951353073
      ],
      "max": [
        -0.0018889999482780695,
        -0.01915000006556511,
        0.21030600368976593
      ],
      "type": "VEC3",
      "bufferView": 0,
      "byteOffset": 2640
    },
    {
      "name": "sweethome3d_opening_on_hinge_3_leftDoor_1_0_indices",
      "componentType": 5123,
      "count": 654,
      "min": [
        0
      ],
      "max": [
        123
      ],
      "type": "SCALAR",
      "bufferView": 1,
      "byteOffset": 1956
    },
    {
      "name": "LowerCabinet_1_0_positions",
      "componentType": 5126,
      "count": 88,
      "min": [
        -0.349947988986969,
        -0.7997919917106628,
        -0.17707699537277222
      ],
      "max": [
        0.35005199909210205,
        0.0004419999895617366,
        0.19253699481487274
      ],
      "type": "VEC3",
      "bufferView": 0,
      "byteOffset": 4128
    },
    {
      "name": "LowerCabinet_1_0_indices",
      "componentType": 5123,
      "count": 384,
      "min": [
        0
      ],
      "max": [
        87
      ],
      "type": "SCALAR",
      "bufferView": 1,
      "byteOffset": 3264
    },
    {
      "name": "sweethome3d_opening_on_rail_1_leftDrawer_1_0_positions",
      "componentType": 5126,
      "count": 60,
      "min": [
        -0.33351200819015503,
        0.0014550000196322799,
        -0.1599999964237213
      ],
      "max": [
        -0.0018980000168085098,
        0.13945500552654266,
        0.21030600368976593
      ],
      "type": "VEC3",
      "bufferView": 0,
      "byteOffset": 5184
    },
    {
      "name": "sweethome3d_opening_on_rail_1_leftDrawer_1_0_indices",
      "componentType": 5123,
      "count": 306,
      "min": [
        0
      ],
      "max": [
        59
      ],
      "type": "SCALAR",
      "bufferView": 1,
      "byteOffset": 4032
    },
    {
      "name": "Shelf3_1_0_positions",
      "componentType": 5126,
      "count": 16,
      "min": [
        -0.3339790105819702,
        0.427157998085022,
        -0.16162100434303284
      ],
      "max": [
        0.3340210020542145,
        0.4431590139865875,
        0.16818499565124512
      ],
      "type": "VEC3",
      "bufferView": 0,
      "byteOffset": 5904
    },
    {
      "name": "Shelf3_1_0_indices",
      "componentType": 5123,
      "count": 48,
      "min": [
        0
      ],
      "max": [
        15
      ],
      "type": "SCALAR",
      "bufferView": 1,
      "byteOffset": 4644
    },
    {
      "name": "Shelf1_1_0_positions",
      "componentType": 5126,
      "count": 16,
      "min": [
        -0.3339790105819702,
        0.877157986164093,
        -0.16162100434303284
      ],
      "max": [
        0.3340210020542145,
        0.8931589722633362,
        0.16818499565124512
      ],
      "type": "VEC3",
      "bufferView": 0,
      "byteOffset": 6096
    },
    {
      "name": "Shelf1_1_0_indices",
      "componentType": 5123,
      "count": 48,
      "min": [
        0
      ],
      "max": [
        15
      ],
      "type": "SCALAR",
      "bufferView": 1,
      "byteOffset": 4740
    },
    {
      "name": "Shelf2_1_0_positions",
      "componentType": 5126,
      "count": 16,
      "min": [
        -0.3339790105819702,
        0.6521580219268799,
        -0.16162100434303284
      ],
      "max": [
        0.3340210020542145,
        0.668159008026123,
        0.16818499565124512
      ],
      "type": "VEC3",
      "bufferView": 0,
      "byteOffset": 6288
    },
    {
      "name": "Shelf2_1_0_indices",
      "componentType": 5123,
      "count": 48,
      "min": [
        0
      ],
      "max": [
        15
      ],
      "type": "SCALAR",
      "bufferView": 1,
      "byteOffset": 4836
    },
    {
      "name": "UpperCabinet_1_0_positions",
      "componentType": 5126,
      "count": 88,
      "min": [
        -0.349947988986969,
        0.00044100001105107367,
        -0.17707699537277222
      ],
      "max": [
        0.35005199909210205,
        1.182440996170044,
        0.19253699481487274
      ],
      "type": "VEC3",
      "bufferView": 0,
      "byteOffset": 6480
    },
    {
      "name": "UpperCabinet_1_0_indices",
      "componentType": 5123,
      "count": 396,
      "min": [
        0
      ],
      "max": [
        87
      ],
      "type": "SCALAR",
      "bufferView": 1,
      "byteOffset": 4932
    },
    {
      "name": "sweethome3d_opening_on_hinge_1_leftGlassDoor_1_0_positions",
      "componentType": 5126,
      "count": 140,
      "min": [
        -0.333389014005661,
        0.15699699521064758,
        0.1765259951353073
      ],
      "max": [
        -0.0018889999482780695,
        1.156999945640564,
        0.21030600368976593
      ],
      "type": "VEC3",
      "bufferView": 0,
      "byteOffset": 7536
    },
    {
      "name": "sweethome3d_opening_on_hinge_1_leftGlassDoor_1_0_indices",
      "componentType": 5123,
      "count": 750,
      "min": [
        0
      ],
      "max": [
        139
      ],
      "type": "SCALAR",
      "bufferView": 1,
      "byteOffset": 5724
    },
    {
      "name": "sweethome3d_opening_on_hinge_2_rightGlassDoor_1_0_positions",
      "componentType": 5126,
      "count": 140,
      "min": [
        0.002094999887049198,
        0.15699699521064758,
        0.1765259951353073
      ],
      "max": [
        0.3335779905319214,
        1.156999945640564,
        0.21030600368976593
      ],
      "type": "VEC3",
      "bufferView": 0,
      "byteOffset": 9216
    },
    {
      "name": "sweethome3d_opening_on_hinge_2_rightGlassDoor_1_0_indices",
      "componentType": 5123,
      "count": 750,
      "min": [
        0
      ],
      "max": [
        139
      ],
      "type": "SCALAR",
      "bufferView": 1,
      "byteOffset": 7224
    },
    {
      "name": "sweethome3d_opening_on_rail_2_rightDrawer_1_0_positions",
      "componentType": 5126,
      "count": 60,
      "min": [
        0.0018850000342354178,
        0.0014540000120177865,
        -0.1599999964237213
      ],
      "max": [
        0.333499014377594,
        0.13945400714874268,
        0.21030600368976593
      ],
      "type": "VEC3",
      "bufferView": 0,
      "byteOffset": 10896
    },
    {
      "name": "sweethome3d_opening_on_rail_2_rightDrawer_1_0_indices",
      "componentType": 5123,
      "count": 306,
      "min": [
        0
      ],
      "max": [
        59
      ],
      "type": "SCALAR",
      "bufferView": 1,
      "byteOffset": 8724
    }
  ],
  "asset": {
    "generator": "obj2gltf",
    "version": "2.0"
  },
  "buffers": [
    {
      "name": "glassDoorCabinet",
      "byteLength": 20952,
      "uri": "data:application/octet-stream;base64,"
    }
  ],
  "bufferViews": [
    {
      "name": "bufferView_0",
      "buffer": 0,
      "byteLength": 11616,
      "byteOffset": 0,
      "byteStride": 12,
      "target": 34962
    },
    {
      "name": "bufferView_1",
      "buffer": 0,
      "byteLength": 9336,
      "byteOffset": 11616,
      "target": 34963
    }
  ],
  "materials": [
    {
      "name": "flltgrey",
      "pbrMetallicRoughness": {
        "baseColorFactor": [
          0.5,
          0.5,
          0.5,
          1
        ],
        "metallicFactor": 0,
        "roughnessFactor": 1
      },
      "emissiveFactor": [
        0,
        0,
        0
      ],
      "alphaMode": "OPAQUE",
      "doubleSided": false
    },
    {
      "name": "bone",
      "pbrMetallicRoughness": {
        "baseColorFactor": [
          0.5,
          0.5,
          0.5,
          1
        ],
        "metallicFactor": 0,
        "roughnessFactor": 1
      },
      "emissiveFactor": [
        0,
        0,
        0
      ],
      "alphaMode": "OPAQUE",
      "doubleSided": false
    }
  ],
  "meshes": [
    {
      "name": "sweethome3d_hinge_1_1",
      "primitives": [
        {
          "attributes": {
            "POSITION": 0
          },
          "indices": 1,
          "material": 0,
          "mode": 4
        }
      ]
    },
    {
      "name": "sweethome3d_hinge_3_1",
      "primitives": [
        {
          "attributes": {
            "POSITION": 2
          },
          "indices": 3,
          "material": 0,
          "mode": 4
        }
      ]
    },
    {
      "name": "sweethome3d_hinge_4_1",
      "primitives": [
        {
          "attributes": {
            "POSITION": 4
          },
          "indices": 5,
          "material": 0,
          "mode": 4
        }
      ]
    },
    {
      "name": "sweethome3d_hinge_2_1",
      "primitives": [
        {
          "attributes": {
            "POSITION": 6
          },
          "indices": 7,
          "material": 0,
          "mode": 4
        }
      ]
    },
    {
      "name": "sweethome3d_unique_rail_1",
      "primitives": [
        {
          "attributes": {
            "POSITION": 8
          },
          "indices": 9,
          "material": 1,
          "mode": 4
        }
      ]
    },
    {
      "name": "Shelf4_1",
      "primitives": [
        {
          "attributes": {
            "POSITION": 10
          },
          "indices": 11,
          "material": 1,
          "mode": 4
        }
      ]
    },
    {
      "name": "Shelf5_1",
      "primitives": [
        {
          "attributes": {
            "POSITION": 12
          },
          "indices": 13,
          "material": 1,
          "mode": 4
        }
      ]
    },
    {
      "name": "sweethome3d_window_pane_on_hinge_2_1",
      "primitives": [
        {
          "attributes": {
            "POSITION": 14
          },
          "indices": 15,
          "material": 0,
          "mode": 4
        }
      ]
    },
    {
      "name": "sweethome3d_window_pane_on_hinge_1_1",
      "primitives": [
        {
          "attributes": {
            "POSITION": 16
          },
          "indices": 17,
          "material": 0,
          "mode": 4
        }
      ]
    },
    {
      "name": "sweethome3d_opening_on_hinge_4_rightDoor_1",
      "primitives": [
        {
          "attributes": {
            "POSITION": 18
          },
          "indices": 19,
          "material": 1,
          "mode": 4
        }
      ]
    },
    {
      "name": "sweethome3d_opening_on_hinge_3_leftDoor_1",
      "primitives": [
        {
          "attributes": {
            "POSITION": 20
          },
          "indices": 21,
          "material": 1,
          "mode": 4
        }
      ]
    },
    {
      "name": "LowerCabinet_1",
      "primitives": [
        {
          "attributes": {
            "POSITION": 22
          },
          "indices": 23,
          "material": 1,
          "mode": 4
        }
      ]
    },
    {
      "name": "sweethome3d_opening_on_rail_1_leftDrawer_1",
      "primitives": [
        {
          "attributes": {
            "POSITION": 24
          },
          "indices": 25,
          "material": 1,
          "mode": 4
        }
      ]
    },
    {
      "name": "Shelf3_1",
      "primitives": [
        {
          "attributes": {
            "POSITION": 26
          },
          "indices": 27,
          "material": 1,
          "mode": 4
        }
      ]
    },
    {
      "name": "Shelf1_1",
      "primitives": [
        {
          "attributes": {
            "POSITION": 28
          },
          "indices": 29,
          "material": 1,
          "mode": 4
        }
      ]
    },
    {
      "name": "Shelf2_1",
      "primitives": [
        {
          "attributes": {
            "POSITION": 30
          },
          "indices": 31,
          "material": 1,
          "mode": 4
        }
      ]
    },
    {
      "name": "UpperCabinet_1",
      "primitives": [
        {
          "attributes": {
            "POSITION": 32
          },
          "indices": 33,
          "material": 1,
          "mode": 4
        }
      ]
    },
    {
      "name": "sweethome3d_opening_on_hinge_1_leftGlassDoor_1",
      "primitives": [
        {
          "attributes": {
            "POSITION": 34
          },
          "indices": 35,
          "material": 1,
          "mode": 4
        }
      ]
    },
    {
      "name": "sweethome3d_opening_on_hinge_2_rightGlassDoor_1",
      "primitives": [
        {
          "attributes": {
            "POSITION": 36
          },
          "indices": 37,
          "material": 1,
          "mode": 4
        }
      ]
    },
    {
      "name": "sweethome3d_opening_on_rail_2_rightDrawer_1",
      "primitives": [
        {
          "attributes": {
            "POSITION": 38
          },
          "indices": 39,
          "material": 1,
          "mode": 4
        }
      ]
    }
  ],
  "nodes": [
    {
      "name": "sweethome3d_hinge_1",
      "mesh": 0
    },
    {
      "name": "sweethome3d_hinge_3",
      "mesh": 1
    },
    {
      "name": "sweethome3d_hinge_4",
      "mesh": 2
    },
    {
      "name": "sweethome3d_hinge_2",
      "mesh": 3
    },
    {
      "name": "sweethome3d_unique_rail",
      "mesh": 4
    },
    {
      "name": "Shelf4",
      "mesh": 5
    },
    {
      "name": "Shelf5",
      "mesh": 6
    },
    {
      "name": "sweethome3d_window_pane_on_hinge_2",
      "mesh": 7
    },
    {
      "name": "sweethome3d_window_pane_on_hinge_1",
      "mesh": 8
    },
    {
      "name": "sweethome3d_opening_on_hinge_4_rightDoor",
      "mesh": 9
    },
    {
      "name": "sweethome3d_opening_on_hinge_3_leftDoor",
      "mesh": 10
    },
    {
      "name": "LowerCabinet",
      "mesh": 11
    },
    {
      "name": "sweethome3d_opening_on_rail_1_leftDrawer",
      "mesh": 12
    },
    {
      "name": "Shelf3",
      "mesh": 13
    },
    {
      "name": "Shelf1",
      "mesh": 14
    },
    {
      "name": "Shelf2",
      "mesh": 15
    },
    {
      "name": "UpperCabinet",
      "mesh": 16
    },
    {
      "name": "sweethome3d_opening_on_hinge_1_leftGlassDoor",
      "mesh": 17
    },
    {
      "name": "sweethome3d_opening_on_hinge_2_rightGlassDoor",
      "mesh": 18
    },
    {
      "name": "sweethome3d_opening_on_rail_2_rightDrawer",
      "mesh": 19
    }
  ],
  "scene": 0,
  "scenes": [
    {
      "nodes": [
        0,
        1,
        2,
        3,
        4,
        5,
        6,
        7,
        8,
        9,
        10,
        11,
        12,
        13,
        14,
        15,
        16,
        17,
        18,
        19
      ]
    }
  ]
}
