{
  "accessors": [
    {
      "name": "Base_1_0_positions",
      "componentType": 5126,
      "count": 40,
      "min": [
        0.06666599959135056,
        -0.4200960099697113,
        -0.18237300217151642
      ],
      "max": [
        1.8388559818267822,
        -0.22009600698947906,
        0.5328900218009949
      ],
      "type": "VEC3",
      "bufferView": 0,
      "byteOffset": 0
    },
    {
      "name": "Base_1_0_indices",
      "componentType": 5123,
      "count": 180,
      "min": [
        0
      ],
      "max": [
        39
      ],
      "type": "SCALAR",
      "bufferView": 1,
      "byteOffset": 0
    },
    {
      "name": "RightPillow_1_0_positions",
      "componentType": 5126,
      "count": 266,
      "min": [
        0.9499840140342712,
        0.010065999813377857,
        -0.22059400379657745
      ],
      "max": [
        1.838034987449646,
        0.4596549868583679,
        -0.053328000009059906
      ],
      "type": "VEC3",
      "bufferView": 0,
      "byteOffset": 480
    },
    {
      "name": "RightPillow_1_0_indices",
      "componentType": 5123,
      "count": 1584,
      "min": [
        0
      ],
      "max": [
        265
      ],
      "type": "SCALAR",
      "bufferView": 1,
      "byteOffset": 360
    },
    {
      "name": "LeftPillow_1_0_positions",
      "componentType": 5126,
      "count": 266,
      "min": [
        0.06040399894118309,
        0.010065999813377857,
        -0.22059400379657745
      ],
      "max": [
        0.9489970207214355,
        0.4596549868583679,
        -0.053328000009059906
      ],
      "type": "VEC3",
      "bufferView": 0,
      "byteOffset": 3672
    },
    {
      "name": "LeftPillow_1_0_indices",
      "componentType": 5123,
      "count": 1584,
      "min": [
        0
      ],
      "max": [
        265
      ],
      "type": "SCALAR",
      "bufferView": 1,
      "byteOffset": 3528
    },
    {
      "name": "RightSeat_1_0_positions",
      "componentType": 5126,
      "count": 180,
      "min": [
        0.9472029805183411,
        -0.12208600342273712,
        -0.17219600081443787
      ],
      "max": [
        1.8401219844818115,
        0.029983999207615852,
        0.6112220287322998
      ],
      "type": "VEC3",
      "bufferView": 0,
      "byteOffset": 6864
    },
    {
      "name": "RightSeat_1_0_indices",
      "componentType": 5123,
      "count": 1068,
      "min": [
        0
      ],
      "max": [
        179
      ],
      "type": "SCALAR",
      "bufferView": 1,
      "byteOffset": 6696
    },
    {
      "name": "LeftSeat_1_0_positions",
      "componentType": 5126,
      "count": 180,
      "min": [
        0.06018200144171715,
        -0.12208600342273712,
        -0.17219600081443787
      ],
      "max": [
        0.9491029977798462,
        0.029983999207615852,
        0.6112220287322998
      ],
      "type": "VEC3",
      "bufferView": 0,
      "byteOffset": 9024
    },
    {
      "name": "LeftSeat_1_0_indices",
      "componentType": 5123,
      "count": 1068,
      "min": [
        0
      ],
      "max": [
        179
      ],
      "type": "SCALAR",
      "bufferView": 1,
      "byteOffset": 8832
    },
    {
      "name": "Bottom_1_0_positions",
      "componentType": 5126,
      "count": 34,
      "min": [
        0.060134999454021454,
        -0.23499999940395355,
        -0.2542159855365753
      ],
      "max": [
        1.8381750583648682,
        0.26499998569488525,
        0.5757840275764465
      ],
      "type": "VEC3",
      "bufferView": 0,
      "byteOffset": 11184
    },
    {
      "name": "Bottom_1_0_indices",
      "componentType": 5123,
      "count": 192,
      "min": [
        0
      ],
      "max": [
        33
      ],
      "type": "SCALAR",
      "bufferView": 1,
      "byteOffset": 10968
    },
    {
      "name": "RightShoulder_1_0_positions",
      "componentType": 5126,
      "count": 95,
      "min": [
        1.8382619619369507,
        -0.23450100421905518,
        -0.22471800446510315
      ],
      "max": [
        1.9500139951705933,
        0.2654989957809448,
        0.5752819776535034
      ],
      "type": "VEC3",
      "bufferView": 0,
      "byteOffset": 11592
    },
    {
      "name": "RightShoulder_1_0_indices",
      "componentType": 5123,
      "count": 480,
      "min": [
        0
      ],
      "max": [
        94
      ],
      "type": "SCALAR",
      "bufferView": 1,
      "byteOffset": 11352
    },
    {
      "name": "LeftShoulder_1_0_positions",
      "componentType": 5126,
      "count": 95,
      "min": [
        -0.05001400038599968,
        -0.23450100421905518,
        -0.22471800446510315
      ],
      "max": [
        0.05999999865889549,
        0.2654989957809448,
        0.5752819776535034
      ],
      "type": "VEC3",
      "bufferView": 0,
      "byteOffset": 12732
    },
    {
      "name": "LeftShoulder_1_0_indices",
      "componentType": 5123,
      "count": 480,
      "min": [
        0
      ],
      "max": [
        94
      ],
      "type": "SCALAR",
      "bufferView": 1,
      "byteOffset": 12312
    }
  ],
  "asset": {
    "generator": "obj2gltf",
    "version": "2.0"
  },
  "buffers": [
    {
      "name": "sofa2",
      "byteLength": 27144,
      "uri": "data:application/octet-stream;base64,"
    }
  ],
  "bufferViews": [
    {
      "name": "bufferView_0",
      "buffer": 0,
      "byteLength": 13872,
      "byteOffset": 0,
      "byteStride": 12,
      "target": 34962
    },
    {
      "name": "bufferView_1",
      "buffer": 0,
      "byteLength": 13272,
      "byteOffset": 13872,
      "target": 34963
    }
  ],
  "materials": [
    {
      "name": "flblonde",
      "pbrMetallicRoughness": {
        "baseColorFactor": [
          0.5,
          0.5,
          0.5,
          1
        ],
        "metallicFactor": 0,
        "roughnessFactor": 1
      },
      "emissiveFactor": [
        0,
        0,
        0
      ],
      "alphaMode": "OPAQUE",
      "doubleSided": false
    },
    {
      "name": "flgrey",
      "pbrMetallicRoughness": {
        "baseColorFactor": [
          0.5,
          0.5,
          0.5,
          1
        ],
        "metallicFactor": 0,
        "roughnessFactor": 1
      },
      "emissiveFactor": [
        0,
        0,
        0
      ],
      "alphaMode": "OPAQUE",
      "doubleSided": false
    }
  ],
  "meshes": [
    {
      "name": "Base_1",
      "primitives": [
        {
          "attributes": {
            "POSITION": 0
          },
          "indices": 1,
          "material": 0,
          "mode": 4
        }
      ]
    },
    {
      "name": "RightPillow_1",
      "primitives": [
        {
          "attributes": {
            "POSITION": 2
          },
          "indices": 3,
          "material": 1,
          "mode": 4
        }
      ]
    },
    {
      "name": "LeftPillow_1",
      "primitives": [
        {
          "attributes": {
            "POSITION": 4
          },
          "indices": 5,
          "material": 1,
          "mode": 4
        }
      ]
    },
    {
      "name": "RightSeat_1",
      "primitives": [
        {
          "attributes": {
            "POSITION": 6
          },
          "indices": 7,
          "material": 1,
          "mode": 4
        }
      ]
    },
    {
      "name": "LeftSeat_1",
      "primitives": [
        {
          "attributes": {
            "POSITION": 8
          },
          "indices": 9,
          "material": 1,
          "mode": 4
        }
      ]
    },
    {
      "name": "Bottom_1",
      "primitives": [
        {
          "attributes": {
            "POSITION": 10
          },
          "indices": 11,
          "material": 1,
          "mode": 4
        }
      ]
    },
    {
      "name": "RightShoulder_1",
      "primitives": [
        {
          "attributes": {
            "POSITION": 12
          },
          "indices": 13,
          "material": 1,
          "mode": 4
        }
      ]
    },
    {
      "name": "LeftShoulder_1",
      "primitives": [
        {
          "attributes": {
            "POSITION": 14
          },
          "indices": 15,
          "material": 1,
          "mode": 4
        }
      ]
    }
  ],
  "nodes": [
    {
      "name": "Base",
      "mesh": 0
    },
    {
      "name": "RightPillow",
      "mesh": 1
    },
    {
      "name": "LeftPillow",
      "mesh": 2
    },
    {
      "name": "RightSeat",
      "mesh": 3
    },
    {
      "name": "LeftSeat",
      "mesh": 4
    },
    {
      "name": "Bottom",
      "mesh": 5
    },
    {
      "name": "RightShoulder",
      "mesh": 6
    },
    {
      "name": "LeftShoulder",
      "mesh": 7
    }
  ],
  "scene": 0,
  "scenes": [
    {
      "nodes": [
        0,
        1,
        2,
        3,
        4,
        5,
        6,
        7
      ]
    }
  ]
}
