{
  "accessors": [
    {
      "name": "sweethome3d_hinge_2_1_0_positions",
      "componentType": 5126,
      "count": 8,
      "min": [
        0.4922870099544525,
        0.7827249765396118,
        0.3064500093460083
      ],
      "max": [
        0.49728700518608093,
        0.7927250266075134,
        0.3114500045776367
      ],
      "type": "VEC3",
      "bufferView": 0,
      "byteOffset": 0
    },
    {
      "name": "sweethome3d_hinge_2_1_0_indices",
      "componentType": 5123,
      "count": 18,
      "min": [
        0
      ],
      "max": [
        7
      ],
      "type": "SCALAR",
      "bufferView": 1,
      "byteOffset": 0
    },
    {
      "name": "sweethome3d_hinge_1_1_0_positions",
      "componentType": 5126,
      "count": 8,
      "min": [
        -0.49728700518608093,
        0.7827249765396118,
        0.3064500093460083
      ],
      "max": [
        -0.4922870099544525,
        0.7927250266075134,
        0.3114500045776367
      ],
      "type": "VEC3",
      "bufferView": 0,
      "byteOffset": 96
    },
    {
      "name": "sweethome3d_hinge_1_1_0_indices",
      "componentType": 5123,
      "count": 18,
      "min": [
        0
      ],
      "max": [
        7
      ],
      "type": "SCALAR",
      "bufferView": 1,
      "byteOffset": 36
    },
    {
      "name": "sweethome3d_opening_on_hinge_1_door_1_0_positions",
      "componentType": 5126,
      "count": 8,
      "min": [
        -0.49950000643730164,
        0.09799999743700027,
        0.30250000953674316
      ],
      "max": [
        -0.0005000000237487257,
        0.847000002861023,
        0.3125
      ],
      "type": "VEC3",
      "bufferView": 0,
      "byteOffset": 192
    },
    {
      "name": "sweethome3d_opening_on_hinge_1_door_1_0_indices",
      "componentType": 5123,
      "count": 36,
      "min": [
        0
      ],
      "max": [
        7
      ],
      "type": "SCALAR",
      "bufferView": 1,
      "byteOffset": 72
    },
    {
      "name": "Robinet_gauche_1_0_positions",
      "componentType": 5126,
      "count": 18,
      "min": [
        -0.14459499716758728,
        0.8586639761924744,
        -0.35481199622154236
      ],
      "max": [
        -0.0826840028166771,
        0.9171599745750427,
        -0.296315997838974
      ],
      "type": "VEC3",
      "bufferView": 0,
      "byteOffset": 288
    },
    {
      "name": "Robinet_gauche_1_0_indices",
      "componentType": 5123,
      "count": 96,
      "min": [
        0
      ],
      "max": [
        17
      ],
      "type": "SCALAR",
      "bufferView": 1,
      "byteOffset": 144
    },
    {
      "name": "Robinet_droit_1_0_positions",
      "componentType": 5126,
      "count": 18,
      "min": [
        0.08566900342702866,
        0.8586639761924744,
        -0.35481199622154236
      ],
      "max": [
        0.14584599435329437,
        0.9171599745750427,
        -0.296315997838974
      ],
      "type": "VEC3",
      "bufferView": 0,
      "byteOffset": 504
    },
    {
      "name": "Robinet_droit_1_0_indices",
      "componentType": 5123,
      "count": 96,
      "min": [
        0
      ],
      "max": [
        17
      ],
      "type": "SCALAR",
      "bufferView": 1,
      "byteOffset": 336
    },
    {
      "name": "Robinet_1_0_positions",
      "componentType": 5126,
      "count": 60,
      "min": [
        -0.017403999343514442,
        0.8617309927940369,
        -0.34824201464653015
      ],
      "max": [
        0.01723800040781498,
        1.0951000452041626,
        -0.13220499455928802
      ],
      "type": "VEC3",
      "bufferView": 0,
      "byteOffset": 720
    },
    {
      "name": "Robinet_1_0_indices",
      "componentType": 5123,
      "count": 348,
      "min": [
        0
      ],
      "max": [
        59
      ],
      "type": "SCALAR",
      "bufferView": 1,
      "byteOffset": 528
    },
    {
      "name": "sweethome3d_opening_on_hinge_1_handle_1_0_positions",
      "componentType": 5126,
      "count": 98,
      "min": [
        -0.10000000149011612,
        0.7204999923706055,
        0.31245601177215576
      ],
      "max": [
        -0.05999999865889549,
        0.7605000138282776,
        0.3408600091934204
      ],
      "type": "VEC3",
      "bufferView": 0,
      "byteOffset": 1440
    },
    {
      "name": "sweethome3d_opening_on_hinge_1_handle_1_0_indices",
      "componentType": 5123,
      "count": 576,
      "min": [
        0
      ],
      "max": [
        97
      ],
      "type": "SCALAR",
      "bufferView": 1,
      "byteOffset": 1224
    },
    {
      "name": "Corps_1_0_positions",
      "componentType": 5126,
      "count": 48,
      "min": [
        -0.5,
        -0.0020000000949949026,
        -0.4205000102519989
      ],
      "max": [
        0.5,
        0.8479999899864197,
        0.2994999885559082
      ],
      "type": "VEC3",
      "bufferView": 0,
      "byteOffset": 2616
    },
    {
      "name": "Corps_1_0_indices",
      "componentType": 5123,
      "count": 288,
      "min": [
        0
      ],
      "max": [
        47
      ],
      "type": "SCALAR",
      "bufferView": 1,
      "byteOffset": 2376
    },
    {
      "name": "sweethome3d_opening_on_hinge_2_handle_1_0_positions",
      "componentType": 5126,
      "count": 98,
      "min": [
        0.05997699871659279,
        0.7204999923706055,
        0.31245601177215576
      ],
      "max": [
        0.09997700154781342,
        0.7605000138282776,
        0.3408600091934204
      ],
      "type": "VEC3",
      "bufferView": 0,
      "byteOffset": 3192
    },
    {
      "name": "sweethome3d_opening_on_hinge_2_handle_1_0_indices",
      "componentType": 5123,
      "count": 576,
      "min": [
        0
      ],
      "max": [
        97
      ],
      "type": "SCALAR",
      "bufferView": 1,
      "byteOffset": 2952
    },
    {
      "name": "sweethome3d_opening_on_hinge_2_door_1_0_positions",
      "componentType": 5126,
      "count": 8,
      "min": [
        0.0005000000237487257,
        0.09799999743700027,
        0.30250000953674316
      ],
      "max": [
        0.49950000643730164,
        0.847000002861023,
        0.3125
      ],
      "type": "VEC3",
      "bufferView": 0,
      "byteOffset": 4368
    },
    {
      "name": "sweethome3d_opening_on_hinge_2_door_1_0_indices",
      "componentType": 5123,
      "count": 36,
      "min": [
        0
      ],
      "max": [
        7
      ],
      "type": "SCALAR",
      "bufferView": 1,
      "byteOffset": 4104
    },
    {
      "name": "Lavabo_1_0_positions",
      "componentType": 5126,
      "count": 842,
      "min": [
        -0.4729999899864197,
        0.6572089791297913,
        -0.40283000469207764
      ],
      "max": [
        0.4732699990272522,
        0.8670499920845032,
        0.2724500000476837
      ],
      "type": "VEC3",
      "bufferView": 0,
      "byteOffset": 4464
    },
    {
      "name": "Lavabo_1_0_indices",
      "componentType": 5123,
      "count": 5040,
      "min": [
        0
      ],
      "max": [
        841
      ],
      "type": "SCALAR",
      "bufferView": 1,
      "byteOffset": 4176
    }
  ],
  "asset": {
    "generator": "obj2gltf",
    "version": "2.0"
  },
  "buffers": [
    {
      "name": "washbasinWithCabinet",
      "byteLength": 28824,
      "uri": "data:application/octet-stream;base64,"
    }
  ],
  "bufferViews": [
    {
      "name": "bufferView_0",
      "buffer": 0,
      "byteLength": 14568,
      "byteOffset": 0,
      "byteStride": 12,
      "target": 34962
    },
    {
      "name": "bufferView_1",
      "buffer": 0,
      "byteLength": 14256,
      "byteOffset": 14568,
      "target": 34963
    }
  ],
  "materials": [
    {
      "name": "white",
      "pbrMetallicRoughness": {
        "baseColorFactor": [
          0.5,
          0.5,
          0.5,
          1
        ],
        "metallicFactor": 0,
        "roughnessFactor": 1
      },
      "emissiveFactor": [
        0,
        0,
        0
      ],
      "alphaMode": "OPAQUE",
      "doubleSided": false
    },
    {
      "name": "silver",
      "pbrMetallicRoughness": {
        "baseColorFactor": [
          0.5,
          0.5,
          0.5,
          1
        ],
        "metallicFactor": 0,
        "roughnessFactor": 1
      },
      "emissiveFactor": [
        0,
        0,
        0
      ],
      "alphaMode": "OPAQUE",
      "doubleSided": false
    }
  ],
  "meshes": [
    {
      "name": "sweethome3d_hinge_2_1",
      "primitives": [
        {
          "attributes": {
            "POSITION": 0
          },
          "indices": 1,
          "material": 0,
          "mode": 4
        }
      ]
    },
    {
      "name": "sweethome3d_hinge_1_1",
      "primitives": [
        {
          "attributes": {
            "POSITION": 2
          },
          "indices": 3,
          "material": 0,
          "mode": 4
        }
      ]
    },
    {
      "name": "sweethome3d_opening_on_hinge_1_door_1",
      "primitives": [
        {
          "attributes": {
            "POSITION": 4
          },
          "indices": 5,
          "material": 0,
          "mode": 4
        }
      ]
    },
    {
      "name": "Robinet_gauche_1",
      "primitives": [
        {
          "attributes": {
            "POSITION": 6
          },
          "indices": 7,
          "material": 1,
          "mode": 4
        }
      ]
    },
    {
      "name": "Robinet_droit_1",
      "primitives": [
        {
          "attributes": {
            "POSITION": 8
          },
          "indices": 9,
          "material": 1,
          "mode": 4
        }
      ]
    },
    {
      "name": "Robinet_1",
      "primitives": [
        {
          "attributes": {
            "POSITION": 10
          },
          "indices": 11,
          "material": 1,
          "mode": 4
        }
      ]
    },
    {
      "name": "sweethome3d_opening_on_hinge_1_handle_1",
      "primitives": [
        {
          "attributes": {
            "POSITION": 12
          },
          "indices": 13,
          "material": 0,
          "mode": 4
        }
      ]
    },
    {
      "name": "Corps_1",
      "primitives": [
        {
          "attributes": {
            "POSITION": 14
          },
          "indices": 15,
          "material": 0,
          "mode": 4
        }
      ]
    },
    {
      "name": "sweethome3d_opening_on_hinge_2_handle_1",
      "primitives": [
        {
          "attributes": {
            "POSITION": 16
          },
          "indices": 17,
          "material": 0,
          "mode": 4
        }
      ]
    },
    {
      "name": "sweethome3d_opening_on_hinge_2_door_1",
      "primitives": [
        {
          "attributes": {
            "POSITION": 18
          },
          "indices": 19,
          "material": 0,
          "mode": 4
        }
      ]
    },
    {
      "name": "Lavabo_1",
      "primitives": [
        {
          "attributes": {
            "POSITION": 20
          },
          "indices": 21,
          "material": 0,
          "mode": 4
        }
      ]
    }
  ],
  "nodes": [
    {
      "name": "sweethome3d_hinge_2",
      "mesh": 0
    },
    {
      "name": "sweethome3d_hinge_1",
      "mesh": 1
    },
    {
      "name": "sweethome3d_opening_on_hinge_1_door",
      "mesh": 2
    },
    {
      "name": "Robinet_gauche",
      "mesh": 3
    },
    {
      "name": "Robinet_droit",
      "mesh": 4
    },
    {
      "name": "Robinet",
      "mesh": 5
    },
    {
      "name": "sweethome3d_opening_on_hinge_1_handle",
      "mesh": 6
    },
    {
      "name": "Corps",
      "mesh": 7
    },
    {
      "name": "sweethome3d_opening_on_hinge_2_handle",
      "mesh": 8
    },
    {
      "name": "sweethome3d_opening_on_hinge_2_door",
      "mesh": 9
    },
    {
      "name": "Lavabo",
      "mesh": 10
    }
  ],
  "scene": 0,
  "scenes": [
    {
      "nodes": [
        0,
        1,
        2,
        3,
        4,
        5,
        6,
        7,
        8,
        9,
        10
      ]
    }
  ]
}
