{
  "accessors": [
    {
      "name": "sweethome3d_opening_on_hinge_2_door_1_0_positions",
      "componentType": 5126,
      "count": 80,
      "min": [
        0.29158899188041687,
        0.08576600253582001,
        0.21713800728321075
      ],
      "max": [
        0.8019160032272339,
        0.5942819714546204,
        0.22876200079917908
      ],
      "type": "VEC3",
      "bufferView": 0,
      "byteOffset": 0
    },
    {
      "name": "sweethome3d_opening_on_hinge_2_door_1_0_indices",
      "componentType": 5123,
      "count": 468,
      "min": [
        0
      ],
      "max": [
        79
      ],
      "type": "SCALAR",
      "bufferView": 1,
      "byteOffset": 0
    },
    {
      "name": "sweethome3d_opening_on_hinge_1_door_1_0_positions",
      "componentType": 5126,
      "count": 80,
      "min": [
        -0.803659975528717,
        0.08576600253582001,
        0.21713800728321075
      ],
      "max": [
        -0.2933340072631836,
        0.5942819714546204,
        0.22876200079917908
      ],
      "type": "VEC3",
      "bufferView": 0,
      "byteOffset": 960
    },
    {
      "name": "sweethome3d_opening_on_hinge_1_door_1_0_indices",
      "componentType": 5123,
      "count": 468,
      "min": [
        0
      ],
      "max": [
        79
      ],
      "type": "SCALAR",
      "bufferView": 1,
      "byteOffset": 936
    },
    {
      "name": "sweethome3d_hinge_1_1_0_positions",
      "componentType": 5126,
      "count": 32,
      "min": [
        -0.8069999814033508,
        0.13501299917697906,
        0.2254980057477951
      ],
      "max": [
        -0.800599992275238,
        0.5425800085067749,
        0.2318979948759079
      ],
      "type": "VEC3",
      "bufferView": 0,
      "byteOffset": 1920
    },
    {
      "name": "sweethome3d_hinge_1_1_0_indices",
      "componentType": 5123,
      "count": 132,
      "min": [
        0
      ],
      "max": [
        31
      ],
      "type": "SCALAR",
      "bufferView": 1,
      "byteOffset": 1872
    },
    {
      "name": "sweethome3d_opening_on_hinge_1_handle_1_0_positions",
      "componentType": 5126,
      "count": 72,
      "min": [
        -0.30916500091552734,
        0.29871299862861633,
        0.2288070023059845
      ],
      "max": [
        -0.3025450110435486,
        0.4126119911670685,
        0.24940000474452972
      ],
      "type": "VEC3",
      "bufferView": 0,
      "byteOffset": 2304
    },
    {
      "name": "sweethome3d_opening_on_hinge_1_handle_1_0_indices",
      "componentType": 5123,
      "count": 384,
      "min": [
        0
      ],
      "max": [
        71
      ],
      "type": "SCALAR",
      "bufferView": 1,
      "byteOffset": 2136
    },
    {
      "name": "sweethome3d_hinge_2_1_0_positions",
      "componentType": 5126,
      "count": 32,
      "min": [
        0.800599992275238,
        0.13501299917697906,
        0.2254980057477951
      ],
      "max": [
        0.8069999814033508,
        0.5425800085067749,
        0.2318979948759079
      ],
      "type": "VEC3",
      "bufferView": 0,
      "byteOffset": 3168
    },
    {
      "name": "sweethome3d_hinge_2_1_0_indices",
      "componentType": 5123,
      "count": 132,
      "min": [
        0
      ],
      "max": [
        31
      ],
      "type": "SCALAR",
      "bufferView": 1,
      "byteOffset": 2904
    },
    {
      "name": "dresser_1_0_positions",
      "componentType": 5126,
      "count": 104,
      "min": [
        -0.8389999866485596,
        0.0005239999736659229,
        -0.25
      ],
      "max": [
        0.8389999866485596,
        0.6225240230560303,
        0.2370000034570694
      ],
      "type": "VEC3",
      "bufferView": 0,
      "byteOffset": 3552
    },
    {
      "name": "dresser_1_0_indices",
      "componentType": 5123,
      "count": 588,
      "min": [
        0
      ],
      "max": [
        103
      ],
      "type": "SCALAR",
      "bufferView": 1,
      "byteOffset": 3168
    },
    {
      "name": "top_1_0_positions",
      "componentType": 5126,
      "count": 20,
      "min": [
        -0.8500000238418579,
        0.6225000023841858,
        -0.25
      ],
      "max": [
        0.8500000238418579,
        0.6474999785423279,
        0.25
      ],
      "type": "VEC3",
      "bufferView": 0,
      "byteOffset": 4800
    },
    {
      "name": "top_1_0_indices",
      "componentType": 5123,
      "count": 108,
      "min": [
        0
      ],
      "max": [
        19
      ],
      "type": "SCALAR",
      "bufferView": 1,
      "byteOffset": 4344
    },
    {
      "name": "sweethome3d_opening_on_hinge_2_handle_1_0_positions",
      "componentType": 5126,
      "count": 72,
      "min": [
        0.30192500352859497,
        0.29871299862861633,
        0.2288230061531067
      ],
      "max": [
        0.3085460066795349,
        0.4126119911670685,
        0.24941599369049072
      ],
      "type": "VEC3",
      "bufferView": 0,
      "byteOffset": 5040
    },
    {
      "name": "sweethome3d_opening_on_hinge_2_handle_1_0_indices",
      "componentType": 5123,
      "count": 384,
      "min": [
        0
      ],
      "max": [
        71
      ],
      "type": "SCALAR",
      "bufferView": 1,
      "byteOffset": 4560
    }
  ],
  "asset": {
    "generator": "obj2gltf",
    "version": "2.0"
  },
  "buffers": [
    {
      "name": "dresser",
      "byteLength": 11232,
      "uri": "data:application/octet-stream;base64,"
    }
  ],
  "bufferViews": [
    {
      "name": "bufferView_0",
      "buffer": 0,
      "byteLength": 5904,
      "byteOffset": 0,
      "byteStride": 12,
      "target": 34962
    },
    {
      "name": "bufferView_1",
      "buffer": 0,
      "byteLength": 5328,
      "byteOffset": 5904,
      "target": 34963
    }
  ],
  "materials": [
    {
      "name": "archwhite",
      "pbrMetallicRoughness": {
        "baseColorFactor": [
          0.5,
          0.5,
          0.5,
          1
        ],
        "metallicFactor": 0,
        "roughnessFactor": 1
      },
      "emissiveFactor": [
        0,
        0,
        0
      ],
      "alphaMode": "OPAQUE",
      "doubleSided": false
    },
    {
      "name": "dkgrey",
      "pbrMetallicRoughness": {
        "baseColorFactor": [
          0.5,
          0.5,
          0.5,
          1
        ],
        "metallicFactor": 0,
        "roughnessFactor": 1
      },
      "emissiveFactor": [
        0,
        0,
        0
      ],
      "alphaMode": "OPAQUE",
      "doubleSided": false
    },
    {
      "name": "brzskin",
      "pbrMetallicRoughness": {
        "baseColorFactor": [
          0.5,
          0.5,
          0.5,
          1
        ],
        "metallicFactor": 0,
        "roughnessFactor": 1
      },
      "emissiveFactor": [
        0,
        0,
        0
      ],
      "alphaMode": "OPAQUE",
      "doubleSided": false
    }
  ],
  "meshes": [
    {
      "name": "sweethome3d_opening_on_hinge_2_door_1",
      "primitives": [
        {
          "attributes": {
            "POSITION": 0
          },
          "indices": 1,
          "material": 0,
          "mode": 4
        }
      ]
    },
    {
      "name": "sweethome3d_opening_on_hinge_1_door_1",
      "primitives": [
        {
          "attributes": {
            "POSITION": 2
          },
          "indices": 3,
          "material": 0,
          "mode": 4
        }
      ]
    },
    {
      "name": "sweethome3d_hinge_1_1",
      "primitives": [
        {
          "attributes": {
            "POSITION": 4
          },
          "indices": 5,
          "material": 1,
          "mode": 4
        }
      ]
    },
    {
      "name": "sweethome3d_opening_on_hinge_1_handle_1",
      "primitives": [
        {
          "attributes": {
            "POSITION": 6
          },
          "indices": 7,
          "material": 1,
          "mode": 4
        }
      ]
    },
    {
      "name": "sweethome3d_hinge_2_1",
      "primitives": [
        {
          "attributes": {
            "POSITION": 8
          },
          "indices": 9,
          "material": 1,
          "mode": 4
        }
      ]
    },
    {
      "name": "dresser_1",
      "primitives": [
        {
          "attributes": {
            "POSITION": 10
          },
          "indices": 11,
          "material": 0,
          "mode": 4
        }
      ]
    },
    {
      "name": "top_1",
      "primitives": [
        {
          "attributes": {
            "POSITION": 12
          },
          "indices": 13,
          "material": 2,
          "mode": 4
        }
      ]
    },
    {
      "name": "sweethome3d_opening_on_hinge_2_handle_1",
      "primitives": [
        {
          "attributes": {
            "POSITION": 14
          },
          "indices": 15,
          "material": 1,
          "mode": 4
        }
      ]
    }
  ],
  "nodes": [
    {
      "name": "sweethome3d_opening_on_hinge_2_door",
      "mesh": 0
    },
    {
      "name": "sweethome3d_opening_on_hinge_1_door",
      "mesh": 1
    },
    {
      "name": "sweethome3d_hinge_1",
      "mesh": 2
    },
    {
      "name": "sweethome3d_opening_on_hinge_1_handle",
      "mesh": 3
    },
    {
      "name": "sweethome3d_hinge_2",
      "mesh": 4
    },
    {
      "name": "dresser",
      "mesh": 5
    },
    {
      "name": "top",
      "mesh": 6
    },
    {
      "name": "sweethome3d_opening_on_hinge_2_handle",
      "mesh": 7
    }
  ],
  "scene": 0,
  "scenes": [
    {
      "nodes": [
        0,
        1,
        2,
        3,
        4,
        5,
        6,
        7
      ]
    }
  ]
}
