{
  "accessors": [
    {
      "name": "Control_1_0_positions",
      "componentType": 5126,
      "count": 132,
      "min": [
        -0.34049999713897705,
        0.8855000138282776,
        0.013473999686539173
      ],
      "max": [
        -0.3294999897480011,
        1.6281839609146118,
        0.02449999935925007
      ],
      "type": "VEC3",
      "bufferView": 0,
      "byteOffset": 0
    },
    {
      "name": "Control_1_0_indices",
      "componentType": 5123,
      "count": 759,
      "min": [
        0
      ],
      "max": [
        131
      ],
      "type": "SCALAR",
      "bufferView": 1,
      "byteOffset": 0
    },
    {
      "name": "Strings_1_0_positions",
      "componentType": 5126,
      "count": 356,
      "min": [
        -0.2506659924983978,
        -0.019999999552965164,
        -0.014503000304102898
      ],
      "max": [
        0.2506659924983978,
        1.6269999742507935,
        0.014503000304102898
      ],
      "type": "VEC3",
      "bufferView": 0,
      "byteOffset": 1584
    },
    {
      "name": "Strings_1_0_indices",
      "componentType": 5123,
      "count": 1572,
      "min": [
        0
      ],
      "max": [
        355
      ],
      "type": "SCALAR",
      "bufferView": 1,
      "byteOffset": 1520
    },
    {
      "name": "Top_1_0_positions",
      "componentType": 5126,
      "count": 20,
      "min": [
        -0.4000000059604645,
        1.626999020576477,
        -0.013500000350177288
      ],
      "max": [
        0.4000000059604645,
        1.6489989757537842,
        0.020500000566244125
      ],
      "type": "VEC3",
      "bufferView": 0,
      "byteOffset": 5856
    },
    {
      "name": "Top_1_0_indices",
      "componentType": 5123,
      "count": 108,
      "min": [
        0
      ],
      "max": [
        19
      ],
      "type": "SCALAR",
      "bufferView": 1,
      "byteOffset": 4664
    },
    {
      "name": "Bottom_1_0_positions",
      "componentType": 5126,
      "count": 32,
      "min": [
        -0.4000000059604645,
        -0.033799998462200165,
        -0.010999999940395355
      ],
      "max": [
        0.4000000059604645,
        -0.018799999728798866,
        0.010999999940395355
      ],
      "type": "VEC3",
      "bufferView": 0,
      "byteOffset": 6096
    },
    {
      "name": "Bottom_1_0_indices",
      "componentType": 5123,
      "count": 180,
      "min": [
        0
      ],
      "max": [
        31
      ],
      "type": "SCALAR",
      "bufferView": 1,
      "byteOffset": 4880
    },
    {
      "name": "Blades_1_0_positions",
      "componentType": 5126,
      "count": 592,
      "min": [
        -0.40003401041030884,
        -0.009472000412642956,
        -0.012298000045120716
      ],
      "max": [
        0.40003401041030884,
        1.6154710054397583,
        0.012298000045120716
      ],
      "type": "VEC3",
      "bufferView": 0,
      "byteOffset": 6480
    },
    {
      "name": "Blades_1_0_indices",
      "componentType": 5123,
      "count": 2664,
      "min": [
        0
      ],
      "max": [
        591
      ],
      "type": "SCALAR",
      "bufferView": 1,
      "byteOffset": 5240
    }
  ],
  "asset": {
    "generator": "obj2gltf",
    "version": "2.0"
  },
  "buffers": [
    {
      "name": "blind",
      "byteLength": 24152,
      "uri": "data:application/octet-stream;base64,"
    }
  ],
  "bufferViews": [
    {
      "name": "bufferView_0",
      "buffer": 0,
      "byteLength": 13584,
      "byteOffset": 0,
      "byteStride": 12,
      "target": 34962
    },
    {
      "name": "bufferView_1",
      "buffer": 0,
      "byteLength": 10568,
      "byteOffset": 13584,
      "target": 34963
    }
  ],
  "materials": [
    {
      "name": "flblonde",
      "pbrMetallicRoughness": {
        "baseColorFactor": [
          0.5,
          0.5,
          0.5,
          1
        ],
        "metallicFactor": 0,
        "roughnessFactor": 1
      },
      "emissiveFactor": [
        0,
        0,
        0
      ],
      "alphaMode": "OPAQUE",
      "doubleSided": false
    },
    {
      "name": "fltan",
      "pbrMetallicRoughness": {
        "baseColorFactor": [
          0.5,
          0.5,
          0.5,
          1
        ],
        "metallicFactor": 0,
        "roughnessFactor": 1
      },
      "emissiveFactor": [
        0,
        0,
        0
      ],
      "alphaMode": "OPAQUE",
      "doubleSided": false
    },
    {
      "name": "tan",
      "pbrMetallicRoughness": {
        "baseColorFactor": [
          0.5,
          0.5,
          0.5,
          1
        ],
        "metallicFactor": 0,
        "roughnessFactor": 1
      },
      "emissiveFactor": [
        0,
        0,
        0
      ],
      "alphaMode": "OPAQUE",
      "doubleSided": false
    }
  ],
  "meshes": [
    {
      "name": "Control_1",
      "primitives": [
        {
          "attributes": {
            "POSITION": 0
          },
          "indices": 1,
          "material": 0,
          "mode": 4
        }
      ]
    },
    {
      "name": "Strings_1",
      "primitives": [
        {
          "attributes": {
            "POSITION": 2
          },
          "indices": 3,
          "material": 0,
          "mode": 4
        }
      ]
    },
    {
      "name": "Top_1",
      "primitives": [
        {
          "attributes": {
            "POSITION": 4
          },
          "indices": 5,
          "material": 1,
          "mode": 4
        }
      ]
    },
    {
      "name": "Bottom_1",
      "primitives": [
        {
          "attributes": {
            "POSITION": 6
          },
          "indices": 7,
          "material": 1,
          "mode": 4
        }
      ]
    },
    {
      "name": "Blades_1",
      "primitives": [
        {
          "attributes": {
            "POSITION": 8
          },
          "indices": 9,
          "material": 2,
          "mode": 4
        }
      ]
    }
  ],
  "nodes": [
    {
      "name": "Control",
      "mesh": 0
    },
    {
      "name": "Strings",
      "mesh": 1
    },
    {
      "name": "Top",
      "mesh": 2
    },
    {
      "name": "Bottom",
      "mesh": 3
    },
    {
      "name": "Blades",
      "mesh": 4
    }
  ],
  "scene": 0,
  "scenes": [
    {
      "nodes": [
        0,
        1,
        2,
        3,
        4
      ]
    }
  ]
}
