{
  "accessors": [
    {
      "name": "sweethome3d_hinge_1_1_0_positions",
      "componentType": 5126,
      "count": 10,
      "min": [
        -0.25,
        -0.4950309991836548,
        0.2989479899406433
      ],
      "max": [
        0.25,
        -0.49217700958251953,
        0.30166101455688477
      ],
      "type": "VEC3",
      "bufferView": 0,
      "byteOffset": 0
    },
    {
      "name": "sweethome3d_hinge_1_1_0_indices",
      "componentType": 5123,
      "count": 48,
      "min": [
        0
      ],
      "max": [
        9
      ],
      "type": "SCALAR",
      "bufferView": 1,
      "byteOffset": 0
    },
    {
      "name": "Feu_1_0_positions",
      "componentType": 5126,
      "count": 34,
      "min": [
        -0.22750000655651093,
        0.24300000071525574,
        -0.23000000417232513
      ],
      "max": [
        -0.06750000268220901,
        0.2630000114440918,
        -0.07000000029802322
      ],
      "type": "VEC3",
      "bufferView": 0,
      "byteOffset": 120
    },
    {
      "name": "Feu_1_0_indices",
      "componentType": 5123,
      "count": 192,
      "min": [
        0
      ],
      "max": [
        33
      ],
      "type": "SCALAR",
      "bufferView": 1,
      "byteOffset": 96
    },
    {
      "name": "Corps_1_0_positions",
      "componentType": 5126,
      "count": 8,
      "min": [
        -0.25,
        -0.46000000834465027,
        -0.2549999952316284
      ],
      "max": [
        0.25,
        0.11999999731779099,
        0.30000001192092896
      ],
      "type": "VEC3",
      "bufferView": 0,
      "byteOffset": 528
    },
    {
      "name": "Corps_1_0_indices",
      "componentType": 5123,
      "count": 30,
      "min": [
        0
      ],
      "max": [
        7
      ],
      "type": "SCALAR",
      "bufferView": 1,
      "byteOffset": 480
    },
    {
      "name": "Corps_1_1_positions",
      "componentType": 5126,
      "count": 152,
      "min": [
        -0.30000001192092896,
        -0.5920000076293945,
        -0.30000001192092896
      ],
      "max": [
        0.30000001192092896,
        0.257999986410141,
        0.30000001192092896
      ],
      "type": "VEC3",
      "bufferView": 0,
      "byteOffset": 624
    },
    {
      "name": "Corps_1_1_indices",
      "componentType": 5123,
      "count": 894,
      "min": [
        0
      ],
      "max": [
        151
      ],
      "type": "SCALAR",
      "bufferView": 1,
      "byteOffset": 540
    },
    {
      "name": "sweethome3d_opening_on_hinge_1_window_1_0_positions",
      "componentType": 5126,
      "count": 16,
      "min": [
        -0.20000000298023224,
        -0.3392600119113922,
        0.28064998984336853
      ],
      "max": [
        0.20000000298023224,
        -0.03925999999046326,
        0.3006899952888489
      ],
      "type": "VEC3",
      "bufferView": 0,
      "byteOffset": 2448
    },
    {
      "name": "sweethome3d_opening_on_hinge_1_window_1_0_indices",
      "componentType": 5123,
      "count": 72,
      "min": [
        0
      ],
      "max": [
        15
      ],
      "type": "SCALAR",
      "bufferView": 1,
      "byteOffset": 2328
    },
    {
      "name": "sweethome3d_opening_on_hinge_1_door_1_0_positions",
      "componentType": 5126,
      "count": 20,
      "min": [
        -0.30000001192092896,
        -0.49375998973846436,
        0.2806900143623352
      ],
      "max": [
        0.30000001192092896,
        0.15423999726772308,
        0.3106899857521057
      ],
      "type": "VEC3",
      "bufferView": 0,
      "byteOffset": 2640
    },
    {
      "name": "sweethome3d_opening_on_hinge_1_door_1_0_indices",
      "componentType": 5123,
      "count": 96,
      "min": [
        0
      ],
      "max": [
        19
      ],
      "type": "SCALAR",
      "bufferView": 1,
      "byteOffset": 2472
    },
    {
      "name": "sweethome3d_opening_on_hinge_1_door_1_1_positions",
      "componentType": 5126,
      "count": 12,
      "min": [
        -0.24500000476837158,
        -0.45500001311302185,
        0.2806900143623352
      ],
      "max": [
        0.24500000476837158,
        0.11500000208616257,
        0.3006899952888489
      ],
      "type": "VEC3",
      "bufferView": 0,
      "byteOffset": 2880
    },
    {
      "name": "sweethome3d_opening_on_hinge_1_door_1_1_indices",
      "componentType": 5123,
      "count": 48,
      "min": [
        0
      ],
      "max": [
        11
      ],
      "type": "SCALAR",
      "bufferView": 1,
      "byteOffset": 2664
    },
    {
      "name": "Reglage_1_1_0_positions",
      "componentType": 5126,
      "count": 32,
      "min": [
        -0.12293999642133713,
        0.18871499598026276,
        0.3100000023841858
      ],
      "max": [
        -0.07293999940156937,
        0.23871499300003052,
        0.3199999928474426
      ],
      "type": "VEC3",
      "bufferView": 0,
      "byteOffset": 3024
    },
    {
      "name": "Reglage_1_1_0_indices",
      "componentType": 5123,
      "count": 180,
      "min": [
        0
      ],
      "max": [
        31
      ],
      "type": "SCALAR",
      "bufferView": 1,
      "byteOffset": 2760
    },
    {
      "name": "Panneau_1_0_positions",
      "componentType": 5126,
      "count": 8,
      "min": [
        -0.3009999990463257,
        0.15825000405311584,
        0.30000001192092896
      ],
      "max": [
        0.29899999499320984,
        0.25824999809265137,
        0.3100000023841858
      ],
      "type": "VEC3",
      "bufferView": 0,
      "byteOffset": 3408
    },
    {
      "name": "Panneau_1_0_indices",
      "componentType": 5123,
      "count": 36,
      "min": [
        0
      ],
      "max": [
        7
      ],
      "type": "SCALAR",
      "bufferView": 1,
      "byteOffset": 3120
    },
    {
      "name": "Feu_4_1_0_positions",
      "componentType": 5126,
      "count": 216,
      "min": [
        0.07625000178813934,
        0.2468400001525879,
        -0.22201000154018402
      ],
      "max": [
        0.2217700034379959,
        0.2644999921321869,
        -0.07648999989032745
      ],
      "type": "VEC3",
      "bufferView": 0,
      "byteOffset": 3504
    },
    {
      "name": "Feu_4_1_0_indices",
      "componentType": 5123,
      "count": 1200,
      "min": [
        0
      ],
      "max": [
        215
      ],
      "type": "SCALAR",
      "bufferView": 1,
      "byteOffset": 3192
    },
    {
      "name": "Reglage_1_0_positions",
      "componentType": 5126,
      "count": 32,
      "min": [
        -0.22293999791145325,
        0.18871499598026276,
        0.3100000023841858
      ],
      "max": [
        -0.17294000089168549,
        0.23871499300003052,
        0.3199999928474426
      ],
      "type": "VEC3",
      "bufferView": 0,
      "byteOffset": 6096
    },
    {
      "name": "Reglage_1_0_indices",
      "componentType": 5123,
      "count": 180,
      "min": [
        0
      ],
      "max": [
        31
      ],
      "type": "SCALAR",
      "bufferView": 1,
      "byteOffset": 5592
    },
    {
      "name": "Feu_3_1_0_positions",
      "componentType": 5126,
      "count": 216,
      "min": [
        0.062369998544454575,
        0.24669000506401062,
        0.06401000171899796
      ],
      "max": [
        0.23604999482631683,
        0.2644999921321869,
        0.2376900017261505
      ],
      "type": "VEC3",
      "bufferView": 0,
      "byteOffset": 6480
    },
    {
      "name": "Feu_3_1_0_indices",
      "componentType": 5123,
      "count": 1200,
      "min": [
        0
      ],
      "max": [
        215
      ],
      "type": "SCALAR",
      "bufferView": 1,
      "byteOffset": 5952
    },
    {
      "name": "Feu_1_1_0_positions",
      "componentType": 5126,
      "count": 34,
      "min": [
        -0.25699999928474426,
        0.24300000071525574,
        0.03500000014901161
      ],
      "max": [
        -0.03700000047683716,
        0.2630000114440918,
        0.2549999952316284
      ],
      "type": "VEC3",
      "bufferView": 0,
      "byteOffset": 9072
    },
    {
      "name": "Feu_1_1_0_indices",
      "componentType": 5123,
      "count": 192,
      "min": [
        0
      ],
      "max": [
        33
      ],
      "type": "SCALAR",
      "bufferView": 1,
      "byteOffset": 8352
    },
    {
      "name": "Reglage_2_1_0_positions",
      "componentType": 5126,
      "count": 32,
      "min": [
        -0.022940000519156456,
        0.18871499598026276,
        0.3100000023841858
      ],
      "max": [
        0.027060000225901604,
        0.23871499300003052,
        0.3199999928474426
      ],
      "type": "VEC3",
      "bufferView": 0,
      "byteOffset": 9480
    },
    {
      "name": "Reglage_2_1_0_indices",
      "componentType": 5123,
      "count": 180,
      "min": [
        0
      ],
      "max": [
        31
      ],
      "type": "SCALAR",
      "bufferView": 1,
      "byteOffset": 8736
    },
    {
      "name": "Reglage_3_1_0_positions",
      "componentType": 5126,
      "count": 32,
      "min": [
        0.07705999910831451,
        0.18871499598026276,
        0.3100000023841858
      ],
      "max": [
        0.12705999612808228,
        0.23871499300003052,
        0.3199999928474426
      ],
      "type": "VEC3",
      "bufferView": 0,
      "byteOffset": 9864
    },
    {
      "name": "Reglage_3_1_0_indices",
      "componentType": 5123,
      "count": 180,
      "min": [
        0
      ],
      "max": [
        31
      ],
      "type": "SCALAR",
      "bufferView": 1,
      "byteOffset": 9096
    },
    {
      "name": "Reglage_4_1_0_positions",
      "componentType": 5126,
      "count": 32,
      "min": [
        0.17705999314785004,
        0.18871499598026276,
        0.3100000023841858
      ],
      "max": [
        0.227060005068779,
        0.23871499300003052,
        0.3199999928474426
      ],
      "type": "VEC3",
      "bufferView": 0,
      "byteOffset": 10248
    },
    {
      "name": "Reglage_4_1_0_indices",
      "componentType": 5123,
      "count": 180,
      "min": [
        0
      ],
      "max": [
        31
      ],
      "type": "SCALAR",
      "bufferView": 1,
      "byteOffset": 9456
    }
  ],
  "asset": {
    "generator": "obj2gltf",
    "version": "2.0"
  },
  "buffers": [
    {
      "name": "cooker",
      "byteLength": 20448,
      "uri": "data:application/octet-stream;base64,"
    }
  ],
  "bufferViews": [
    {
      "name": "bufferView_0",
      "buffer": 0,
      "byteLength": 10632,
      "byteOffset": 0,
      "byteStride": 12,
      "target": 34962
    },
    {
      "name": "bufferView_1",
      "buffer": 0,
      "byteLength": 9816,
      "byteOffset": 10632,
      "target": 34963
    }
  ],
  "materials": [
    {
      "name": "flwhite1",
      "pbrMetallicRoughness": {
        "baseColorFactor": [
          0.5,
          0.5,
          0.5,
          1
        ],
        "metallicFactor": 0,
        "roughnessFactor": 1
      },
      "emissiveFactor": [
        0,
        0,
        0
      ],
      "alphaMode": "OPAQUE",
      "doubleSided": false
    },
    {
      "name": "dkgrey",
      "pbrMetallicRoughness": {
        "baseColorFactor": [
          0.5,
          0.5,
          0.5,
          1
        ],
        "metallicFactor": 0,
        "roughnessFactor": 1
      },
      "emissiveFactor": [
        0,
        0,
        0
      ],
      "alphaMode": "OPAQUE",
      "doubleSided": false
    },
    {
      "name": "white",
      "pbrMetallicRoughness": {
        "baseColorFactor": [
          0.5,
          0.5,
          0.5,
          1
        ],
        "metallicFactor": 0,
        "roughnessFactor": 1
      },
      "emissiveFactor": [
        0,
        0,
        0
      ],
      "alphaMode": "OPAQUE",
      "doubleSided": false
    },
    {
      "name": "grey",
      "pbrMetallicRoughness": {
        "baseColorFactor": [
          0.5,
          0.5,
          0.5,
          1
        ],
        "metallicFactor": 0,
        "roughnessFactor": 1
      },
      "emissiveFactor": [
        0,
        0,
        0
      ],
      "alphaMode": "OPAQUE",
      "doubleSided": false
    }
  ],
  "meshes": [
    {
      "name": "sweethome3d_hinge_1_1",
      "primitives": [
        {
          "attributes": {
            "POSITION": 0
          },
          "indices": 1,
          "material": 0,
          "mode": 4
        }
      ]
    },
    {
      "name": "Feu_1",
      "primitives": [
        {
          "attributes": {
            "POSITION": 2
          },
          "indices": 3,
          "material": 1,
          "mode": 4
        }
      ]
    },
    {
      "name": "Corps_1",
      "primitives": [
        {
          "attributes": {
            "POSITION": 4
          },
          "indices": 5,
          "material": 1,
          "mode": 4
        },
        {
          "attributes": {
            "POSITION": 6
          },
          "indices": 7,
          "material": 2,
          "mode": 4
        }
      ]
    },
    {
      "name": "sweethome3d_opening_on_hinge_1_window_1",
      "primitives": [
        {
          "attributes": {
            "POSITION": 8
          },
          "indices": 9,
          "material": 3,
          "mode": 4
        }
      ]
    },
    {
      "name": "sweethome3d_opening_on_hinge_1_door_1",
      "primitives": [
        {
          "attributes": {
            "POSITION": 10
          },
          "indices": 11,
          "material": 0,
          "mode": 4
        },
        {
          "attributes": {
            "POSITION": 12
          },
          "indices": 13,
          "material": 1,
          "mode": 4
        }
      ]
    },
    {
      "name": "Reglage_1_1",
      "primitives": [
        {
          "attributes": {
            "POSITION": 14
          },
          "indices": 15,
          "material": 0,
          "mode": 4
        }
      ]
    },
    {
      "name": "Panneau_1",
      "primitives": [
        {
          "attributes": {
            "POSITION": 16
          },
          "indices": 17,
          "material": 0,
          "mode": 4
        }
      ]
    },
    {
      "name": "Feu_4_1",
      "primitives": [
        {
          "attributes": {
            "POSITION": 18
          },
          "indices": 19,
          "material": 1,
          "mode": 4
        }
      ]
    },
    {
      "name": "Reglage_1",
      "primitives": [
        {
          "attributes": {
            "POSITION": 20
          },
          "indices": 21,
          "material": 0,
          "mode": 4
        }
      ]
    },
    {
      "name": "Feu_3_1",
      "primitives": [
        {
          "attributes": {
            "POSITION": 22
          },
          "indices": 23,
          "material": 1,
          "mode": 4
        }
      ]
    },
    {
      "name": "Feu_1_1",
      "primitives": [
        {
          "attributes": {
            "POSITION": 24
          },
          "indices": 25,
          "material": 1,
          "mode": 4
        }
      ]
    },
    {
      "name": "Reglage_2_1",
      "primitives": [
        {
          "attributes": {
            "POSITION": 26
          },
          "indices": 27,
          "material": 0,
          "mode": 4
        }
      ]
    },
    {
      "name": "Reglage_3_1",
      "primitives": [
        {
          "attributes": {
            "POSITION": 28
          },
          "indices": 29,
          "material": 0,
          "mode": 4
        }
      ]
    },
    {
      "name": "Reglage_4_1",
      "primitives": [
        {
          "attributes": {
            "POSITION": 30
          },
          "indices": 31,
          "material": 0,
          "mode": 4
        }
      ]
    }
  ],
  "nodes": [
    {
      "name": "sweethome3d_hinge_1",
      "mesh": 0
    },
    {
      "name": "Feu",
      "mesh": 1
    },
    {
      "name": "Corps",
      "mesh": 2
    },
    {
      "name": "sweethome3d_opening_on_hinge_1_window",
      "mesh": 3
    },
    {
      "name": "sweethome3d_opening_on_hinge_1_door",
      "mesh": 4
    },
    {
      "name": "Reglage_1",
      "mesh": 5
    },
    {
      "name": "Panneau",
      "mesh": 6
    },
    {
      "name": "Feu_4",
      "mesh": 7
    },
    {
      "name": "Reglage",
      "mesh": 8
    },
    {
      "name": "Feu_3",
      "mesh": 9
    },
    {
      "name": "Feu_1",
      "mesh": 10
    },
    {
      "name": "Reglage_2",
      "mesh": 11
    },
    {
      "name": "Reglage_3",
      "mesh": 12
    },
    {
      "name": "Reglage_4",
      "mesh": 13
    }
  ],
  "scene": 0,
  "scenes": [
    {
      "nodes": [
        0,
        1,
        2,
        3,
        4,
        5,
        6,
        7,
        8,
        9,
        10,
        11,
        12,
        13
      ]
    }
  ]
}
