{
  "accessors": [
    {
      "name": "sweethome3d_unique_rail_1_0_positions",
      "componentType": 5126,
      "count": 8,
      "min": [
        -0.6796240210533142,
        -0.7597770094871521,
        -0.3050000071525574
      ],
      "max": [
        -0.21562400460243225,
        -0.7397770285606384,
        0.3050000071525574
      ],
      "type": "VEC3",
      "bufferView": 0,
      "byteOffset": 0
    },
    {
      "name": "sweethome3d_unique_rail_1_0_indices",
      "componentType": 5123,
      "count": 36,
      "min": [
        0
      ],
      "max": [
        7
      ],
      "type": "SCALAR",
      "bufferView": 1,
      "byteOffset": 0
    },
    {
      "name": "sweethome3d_opening_on_rail_3_drawer_1_0_positions",
      "componentType": 5126,
      "count": 24,
      "min": [
        -0.6796240210533142,
        -0.7160710096359253,
        -0.3080280125141144
      ],
      "max": [
        -0.21562400460243225,
        -0.4840709865093231,
        0.32448500394821167
      ],
      "type": "VEC3",
      "bufferView": 0,
      "byteOffset": 96
    },
    {
      "name": "sweethome3d_opening_on_rail_3_drawer_1_0_indices",
      "componentType": 5123,
      "count": 120,
      "min": [
        0
      ],
      "max": [
        23
      ],
      "type": "SCALAR",
      "bufferView": 1,
      "byteOffset": 72
    },
    {
      "name": "sweethome3d_opening_on_rail_2_drawer_1_0_positions",
      "componentType": 5126,
      "count": 24,
      "min": [
        -0.6796240210533142,
        -0.4804230034351349,
        -0.3080280125141144
      ],
      "max": [
        -0.21562400460243225,
        -0.2484229952096939,
        0.32448500394821167
      ],
      "type": "VEC3",
      "bufferView": 0,
      "byteOffset": 384
    },
    {
      "name": "sweethome3d_opening_on_rail_2_drawer_1_0_indices",
      "componentType": 5123,
      "count": 120,
      "min": [
        0
      ],
      "max": [
        23
      ],
      "type": "SCALAR",
      "bufferView": 1,
      "byteOffset": 312
    },
    {
      "name": "sweethome3d_opening_on_rail_2_handle_1_0_positions",
      "componentType": 5126,
      "count": 72,
      "min": [
        -0.5210649967193604,
        -0.3674609959125519,
        0.3232020139694214
      ],
      "max": [
        -0.3810650110244751,
        -0.35746100544929504,
        0.3530009984970093
      ],
      "type": "VEC3",
      "bufferView": 0,
      "byteOffset": 672
    },
    {
      "name": "sweethome3d_opening_on_rail_2_handle_1_0_indices",
      "componentType": 5123,
      "count": 384,
      "min": [
        0
      ],
      "max": [
        71
      ],
      "type": "SCALAR",
      "bufferView": 1,
      "byteOffset": 552
    },
    {
      "name": "sweethome3d_opening_on_rail_3_handle_1_0_positions",
      "componentType": 5126,
      "count": 72,
      "min": [
        -0.5210649967193604,
        -0.608119010925293,
        0.3232020139694214
      ],
      "max": [
        -0.3810650110244751,
        -0.5981190204620361,
        0.3530009984970093
      ],
      "type": "VEC3",
      "bufferView": 0,
      "byteOffset": 1536
    },
    {
      "name": "sweethome3d_opening_on_rail_3_handle_1_0_indices",
      "componentType": 5123,
      "count": 384,
      "min": [
        0
      ],
      "max": [
        71
      ],
      "type": "SCALAR",
      "bufferView": 1,
      "byteOffset": 1320
    },
    {
      "name": "sweethome3d_opening_on_rail_1_handle_1_0_positions",
      "componentType": 5126,
      "count": 72,
      "min": [
        -0.5210649967193604,
        -0.12680399417877197,
        0.3232020139694214
      ],
      "max": [
        -0.3810650110244751,
        -0.11680400371551514,
        0.3530009984970093
      ],
      "type": "VEC3",
      "bufferView": 0,
      "byteOffset": 2400
    },
    {
      "name": "sweethome3d_opening_on_rail_1_handle_1_0_indices",
      "componentType": 5123,
      "count": 384,
      "min": [
        0
      ],
      "max": [
        71
      ],
      "type": "SCALAR",
      "bufferView": 1,
      "byteOffset": 2088
    },
    {
      "name": "sweethome3d_opening_on_rail_1_drawer_1_0_positions",
      "componentType": 5126,
      "count": 24,
      "min": [
        -0.6796240210533142,
        -0.24477599561214447,
        -0.3080280125141144
      ],
      "max": [
        -0.21562400460243225,
        -0.012775000184774399,
        0.32448500394821167
      ],
      "type": "VEC3",
      "bufferView": 0,
      "byteOffset": 3264
    },
    {
      "name": "sweethome3d_opening_on_rail_1_drawer_1_0_indices",
      "componentType": 5123,
      "count": 120,
      "min": [
        0
      ],
      "max": [
        23
      ],
      "type": "SCALAR",
      "bufferView": 1,
      "byteOffset": 2856
    },
    {
      "name": "Bottom_1_0_positions",
      "componentType": 5126,
      "count": 40,
      "min": [
        -0.699999988079071,
        -0.7599999904632568,
        -0.32499998807907104
      ],
      "max": [
        0.699999988079071,
        -0.009422999806702137,
        0.32499998807907104
      ],
      "type": "VEC3",
      "bufferView": 0,
      "byteOffset": 3552
    },
    {
      "name": "Bottom_1_0_indices",
      "componentType": 5123,
      "count": 180,
      "min": [
        0
      ],
      "max": [
        39
      ],
      "type": "SCALAR",
      "bufferView": 1,
      "byteOffset": 3096
    },
    {
      "name": "Desk_1_0_positions",
      "componentType": 5126,
      "count": 24,
      "min": [
        -0.699999988079071,
        -0.009999999776482582,
        -0.32499998807907104
      ],
      "max": [
        0.699999988079071,
        0.009999999776482582,
        0.32499998807907104
      ],
      "type": "VEC3",
      "bufferView": 0,
      "byteOffset": 4032
    },
    {
      "name": "Desk_1_0_indices",
      "componentType": 5123,
      "count": 132,
      "min": [
        0
      ],
      "max": [
        23
      ],
      "type": "SCALAR",
      "bufferView": 1,
      "byteOffset": 3456
    }
  ],
  "asset": {
    "generator": "obj2gltf",
    "version": "2.0"
  },
  "buffers": [
    {
      "name": "desk",
      "byteLength": 8040,
      "uri": "data:application/octet-stream;base64,"
    }
  ],
  "bufferViews": [
    {
      "name": "bufferView_0",
      "buffer": 0,
      "byteLength": 4320,
      "byteOffset": 0,
      "byteStride": 12,
      "target": 34962
    },
    {
      "name": "bufferView_1",
      "buffer": 0,
      "byteLength": 3720,
      "byteOffset": 4320,
      "target": 34963
    }
  ],
  "materials": [
    {
      "name": "archwhite2",
      "pbrMetallicRoughness": {
        "baseColorFactor": [
          0.5,
          0.5,
          0.5,
          1
        ],
        "metallicFactor": 0,
        "roughnessFactor": 1
      },
      "emissiveFactor": [
        0,
        0,
        0
      ],
      "alphaMode": "OPAQUE",
      "doubleSided": false
    },
    {
      "name": "silver",
      "pbrMetallicRoughness": {
        "baseColorFactor": [
          0.5,
          0.5,
          0.5,
          1
        ],
        "metallicFactor": 0,
        "roughnessFactor": 1
      },
      "emissiveFactor": [
        0,
        0,
        0
      ],
      "alphaMode": "OPAQUE",
      "doubleSided": false
    },
    {
      "name": "lighttan",
      "pbrMetallicRoughness": {
        "baseColorFactor": [
          0.5,
          0.5,
          0.5,
          1
        ],
        "metallicFactor": 0,
        "roughnessFactor": 1
      },
      "emissiveFactor": [
        0,
        0,
        0
      ],
      "alphaMode": "OPAQUE",
      "doubleSided": false
    }
  ],
  "meshes": [
    {
      "name": "sweethome3d_unique_rail_1",
      "primitives": [
        {
          "attributes": {
            "POSITION": 0
          },
          "indices": 1,
          "material": 0,
          "mode": 4
        }
      ]
    },
    {
      "name": "sweethome3d_opening_on_rail_3_drawer_1",
      "primitives": [
        {
          "attributes": {
            "POSITION": 2
          },
          "indices": 3,
          "material": 0,
          "mode": 4
        }
      ]
    },
    {
      "name": "sweethome3d_opening_on_rail_2_drawer_1",
      "primitives": [
        {
          "attributes": {
            "POSITION": 4
          },
          "indices": 5,
          "material": 0,
          "mode": 4
        }
      ]
    },
    {
      "name": "sweethome3d_opening_on_rail_2_handle_1",
      "primitives": [
        {
          "attributes": {
            "POSITION": 6
          },
          "indices": 7,
          "material": 1,
          "mode": 4
        }
      ]
    },
    {
      "name": "sweethome3d_opening_on_rail_3_handle_1",
      "primitives": [
        {
          "attributes": {
            "POSITION": 8
          },
          "indices": 9,
          "material": 1,
          "mode": 4
        }
      ]
    },
    {
      "name": "sweethome3d_opening_on_rail_1_handle_1",
      "primitives": [
        {
          "attributes": {
            "POSITION": 10
          },
          "indices": 11,
          "material": 1,
          "mode": 4
        }
      ]
    },
    {
      "name": "sweethome3d_opening_on_rail_1_drawer_1",
      "primitives": [
        {
          "attributes": {
            "POSITION": 12
          },
          "indices": 13,
          "material": 0,
          "mode": 4
        }
      ]
    },
    {
      "name": "Bottom_1",
      "primitives": [
        {
          "attributes": {
            "POSITION": 14
          },
          "indices": 15,
          "material": 0,
          "mode": 4
        }
      ]
    },
    {
      "name": "Desk_1",
      "primitives": [
        {
          "attributes": {
            "POSITION": 16
          },
          "indices": 17,
          "material": 2,
          "mode": 4
        }
      ]
    }
  ],
  "nodes": [
    {
      "name": "sweethome3d_unique_rail",
      "mesh": 0
    },
    {
      "name": "sweethome3d_opening_on_rail_3_drawer",
      "mesh": 1
    },
    {
      "name": "sweethome3d_opening_on_rail_2_drawer",
      "mesh": 2
    },
    {
      "name": "sweethome3d_opening_on_rail_2_handle",
      "mesh": 3
    },
    {
      "name": "sweethome3d_opening_on_rail_3_handle",
      "mesh": 4
    },
    {
      "name": "sweethome3d_opening_on_rail_1_handle",
      "mesh": 5
    },
    {
      "name": "sweethome3d_opening_on_rail_1_drawer",
      "mesh": 6
    },
    {
      "name": "Bottom",
      "mesh": 7
    },
    {
      "name": "Desk",
      "mesh": 8
    }
  ],
  "scene": 0,
  "scenes": [
    {
      "nodes": [
        0,
        1,
        2,
        3,
        4,
        5,
        6,
        7,
        8
      ]
    }
  ]
}
