{
  "accessors": [
    {
      "name": "upperWindow_1_0_positions",
      "componentType": 5126,
      "count": 17,
      "min": [
        -0.38999998569488525,
        1.5219999551773071,
        0.003000000026077032
      ],
      "max": [
        0.38999998569488525,
        2.1519999504089355,
        0.0430000014603138
      ],
      "type": "VEC3",
      "bufferView": 0,
      "byteOffset": 0
    },
    {
      "name": "upperWindow_1_0_indices",
      "componentType": 5123,
      "count": 102,
      "min": [
        0
      ],
      "max": [
        16
      ],
      "type": "SCALAR",
      "bufferView": 1,
      "byteOffset": 0
    },
    {
      "name": "frame_1_0_positions",
      "componentType": 5126,
      "count": 17,
      "min": [
        -0.4050000011920929,
        0.9391199946403503,
        -0.13099999725818634
      ],
      "max": [
        0.4050000011920929,
        2.21835994720459,
        0.13899999856948853
      ],
      "type": "VEC3",
      "bufferView": 0,
      "byteOffset": 204
    },
    {
      "name": "frame_1_0_indices",
      "componentType": 5123,
      "count": 102,
      "min": [
        0
      ],
      "max": [
        16
      ],
      "type": "SCALAR",
      "bufferView": 1,
      "byteOffset": 204
    },
    {
      "name": "sweethome3d_opening_on_rail_1_1_0_positions",
      "componentType": 5126,
      "count": 16,
      "min": [
        -0.38999998569488525,
        0.9520000219345093,
        -0.0430000014603138
      ],
      "max": [
        0.38999998569488525,
        1.5820000171661377,
        -0.003000000026077032
      ],
      "type": "VEC3",
      "bufferView": 0,
      "byteOffset": 408
    },
    {
      "name": "sweethome3d_opening_on_rail_1_1_0_indices",
      "componentType": 5123,
      "count": 96,
      "min": [
        0
      ],
      "max": [
        15
      ],
      "type": "SCALAR",
      "bufferView": 1,
      "byteOffset": 408
    },
    {
      "name": "sweethome3d_window_pane_on_rail_1_1_0_positions",
      "componentType": 5126,
      "count": 8,
      "min": [
        -0.35499998927116394,
        0.9919999837875366,
        -0.02800000086426735
      ],
      "max": [
        0.35499998927116394,
        1.5420000553131104,
        -0.017999999225139618
      ],
      "type": "VEC3",
      "bufferView": 0,
      "byteOffset": 600
    },
    {
      "name": "sweethome3d_window_pane_on_rail_1_1_0_indices",
      "componentType": 5123,
      "count": 36,
      "min": [
        0
      ],
      "max": [
        7
      ],
      "type": "SCALAR",
      "bufferView": 1,
      "byteOffset": 600
    },
    {
      "name": "sweethome3d_unique_rail_1_0_positions",
      "componentType": 5126,
      "count": 16,
      "min": [
        -0.4000000059604645,
        0.942300021648407,
        -0.04899999871850014
      ],
      "max": [
        0.4000000059604645,
        2.1623001098632812,
        0.050999999046325684
      ],
      "type": "VEC3",
      "bufferView": 0,
      "byteOffset": 696
    },
    {
      "name": "sweethome3d_unique_rail_1_0_indices",
      "componentType": 5123,
      "count": 96,
      "min": [
        0
      ],
      "max": [
        15
      ],
      "type": "SCALAR",
      "bufferView": 1,
      "byteOffset": 672
    },
    {
      "name": "sweethome3d_window_pane_1_0_positions",
      "componentType": 5126,
      "count": 8,
      "min": [
        -0.35499998927116394,
        1.562000036239624,
        0.017999999225139618
      ],
      "max": [
        0.35499998927116394,
        2.111999988555908,
        0.02800000086426735
      ],
      "type": "VEC3",
      "bufferView": 0,
      "byteOffset": 888
    },
    {
      "name": "sweethome3d_window_pane_1_0_indices",
      "componentType": 5123,
      "count": 36,
      "min": [
        0
      ],
      "max": [
        7
      ],
      "type": "SCALAR",
      "bufferView": 1,
      "byteOffset": 864
    }
  ],
  "asset": {
    "generator": "obj2gltf",
    "version": "2.0"
  },
  "buffers": [
    {
      "name": "doubleHungWindow80x122",
      "byteLength": 1920,
      "uri": "data:application/octet-stream;base64,"
    }
  ],
  "bufferViews": [
    {
      "name": "bufferView_0",
      "buffer": 0,
      "byteLength": 984,
      "byteOffset": 0,
      "byteStride": 12,
      "target": 34962
    },
    {
      "name": "bufferView_1",
      "buffer": 0,
      "byteLength": 936,
      "byteOffset": 984,
      "target": 34963
    }
  ],
  "materials": [
    {
      "name": "white",
      "pbrMetallicRoughness": {
        "baseColorFactor": [
          0.5,
          0.5,
          0.5,
          1
        ],
        "metallicFactor": 0,
        "roughnessFactor": 1
      },
      "emissiveFactor": [
        0,
        0,
        0
      ],
      "alphaMode": "OPAQUE",
      "doubleSided": false
    },
    {
      "name": "flltgrey",
      "pbrMetallicRoughness": {
        "baseColorFactor": [
          0.5,
          0.5,
          0.5,
          1
        ],
        "metallicFactor": 0,
        "roughnessFactor": 1
      },
      "emissiveFactor": [
        0,
        0,
        0
      ],
      "alphaMode": "OPAQUE",
      "doubleSided": false
    }
  ],
  "meshes": [
    {
      "name": "upperWindow_1",
      "primitives": [
        {
          "attributes": {
            "POSITION": 0
          },
          "indices": 1,
          "material": 0,
          "mode": 4
        }
      ]
    },
    {
      "name": "frame_1",
      "primitives": [
        {
          "attributes": {
            "POSITION": 2
          },
          "indices": 3,
          "material": 0,
          "mode": 4
        }
      ]
    },
    {
      "name": "sweethome3d_opening_on_rail_1_1",
      "primitives": [
        {
          "attributes": {
            "POSITION": 4
          },
          "indices": 5,
          "material": 0,
          "mode": 4
        }
      ]
    },
    {
      "name": "sweethome3d_window_pane_on_rail_1_1",
      "primitives": [
        {
          "attributes": {
            "POSITION": 6
          },
          "indices": 7,
          "material": 1,
          "mode": 4
        }
      ]
    },
    {
      "name": "sweethome3d_unique_rail_1",
      "primitives": [
        {
          "attributes": {
            "POSITION": 8
          },
          "indices": 9,
          "material": 0,
          "mode": 4
        }
      ]
    },
    {
      "name": "sweethome3d_window_pane_1",
      "primitives": [
        {
          "attributes": {
            "POSITION": 10
          },
          "indices": 11,
          "material": 1,
          "mode": 4
        }
      ]
    }
  ],
  "nodes": [
    {
      "name": "upperWindow",
      "mesh": 0
    },
    {
      "name": "frame",
      "mesh": 1
    },
    {
      "name": "sweethome3d_opening_on_rail_1",
      "mesh": 2
    },
    {
      "name": "sweethome3d_window_pane_on_rail_1",
      "mesh": 3
    },
    {
      "name": "sweethome3d_unique_rail",
      "mesh": 4
    },
    {
      "name": "sweethome3d_window_pane",
      "mesh": 5
    }
  ],
  "scene": 0,
  "scenes": [
    {
      "nodes": [
        0,
        1,
        2,
        3,
        4,
        5
      ]
    }
  ]
}
