{
  "accessors": [
    {
      "name": "sweethome3d_hinge_1_1_1_0_positions",
      "componentType": 5126,
      "count": 18,
      "min": [
        -0.4330799877643585,
        2.0143299102783203,
        -0.007499999832361937
      ],
      "max": [
        -0.41308000683784485,
        2.0543301105499268,
        0.012500000186264515
      ],
      "type": "VEC3",
      "bufferView": 0,
      "byteOffset": 0
    },
    {
      "name": "sweethome3d_hinge_1_1_1_0_indices",
      "componentType": 5123,
      "count": 96,
      "min": [
        0
      ],
      "max": [
        17
      ],
      "type": "SCALAR",
      "bufferView": 1,
      "byteOffset": 0
    },
    {
      "name": "sweethome3d_window_pane_on_hinge_1_1_0_positions",
      "componentType": 5126,
      "count": 8,
      "min": [
        -0.3449999988079071,
        0.6140000224113464,
        -0.02250000089406967
      ],
      "max": [
        0.14499999582767487,
        2.0840001106262207,
        -0.012500000186264515
      ],
      "type": "VEC3",
      "bufferView": 0,
      "byteOffset": 216
    },
    {
      "name": "sweethome3d_window_pane_on_hinge_1_1_0_indices",
      "componentType": 5123,
      "count": 36,
      "min": [
        0
      ],
      "max": [
        7
      ],
      "type": "SCALAR",
      "bufferView": 1,
      "byteOffset": 192
    },
    {
      "name": "sweethome3d_opening_on_hinge_2_1_0_positions",
      "componentType": 5126,
      "count": 25,
      "min": [
        0.20800000429153442,
        0.5339999794960022,
        -0.04749999940395355
      ],
      "max": [
        0.824999988079071,
        2.1640000343322754,
        0.012500000186264515
      ],
      "type": "VEC3",
      "bufferView": 0,
      "byteOffset": 312
    },
    {
      "name": "sweethome3d_opening_on_hinge_2_1_0_indices",
      "componentType": 5123,
      "count": 150,
      "min": [
        0
      ],
      "max": [
        24
      ],
      "type": "SCALAR",
      "bufferView": 1,
      "byteOffset": 264
    },
    {
      "name": "sweethome3d_hinge_1_3_1_0_positions",
      "componentType": 5126,
      "count": 18,
      "min": [
        -0.4330799877643585,
        0.692330002784729,
        -0.007499999832361937
      ],
      "max": [
        -0.41308000683784485,
        0.7323300242424011,
        0.012500000186264515
      ],
      "type": "VEC3",
      "bufferView": 0,
      "byteOffset": 612
    },
    {
      "name": "sweethome3d_hinge_1_3_1_0_indices",
      "componentType": 5123,
      "count": 96,
      "min": [
        0
      ],
      "max": [
        17
      ],
      "type": "SCALAR",
      "bufferView": 1,
      "byteOffset": 564
    },
    {
      "name": "sweethome3d_hinge_2_3_1_0_positions",
      "componentType": 5126,
      "count": 18,
      "min": [
        0.822920024394989,
        0.692330002784729,
        -0.007499999832361937
      ],
      "max": [
        0.8429200053215027,
        0.7323300242424011,
        0.012500000186264515
      ],
      "type": "VEC3",
      "bufferView": 0,
      "byteOffset": 828
    },
    {
      "name": "sweethome3d_hinge_2_3_1_0_indices",
      "componentType": 5123,
      "count": 96,
      "min": [
        0
      ],
      "max": [
        17
      ],
      "type": "SCALAR",
      "bufferView": 1,
      "byteOffset": 756
    },
    {
      "name": "sweethome3d_opening_on_hinge_1_1_0_positions",
      "componentType": 5126,
      "count": 28,
      "min": [
        -0.41499999165534973,
        0.5339999794960022,
        -0.04749999940395355
      ],
      "max": [
        0.2199999988079071,
        2.1640000343322754,
        0.012500000186264515
      ],
      "type": "VEC3",
      "bufferView": 0,
      "byteOffset": 1044
    },
    {
      "name": "sweethome3d_opening_on_hinge_1_1_0_indices",
      "componentType": 5123,
      "count": 165,
      "min": [
        0
      ],
      "max": [
        27
      ],
      "type": "SCALAR",
      "bufferView": 1,
      "byteOffset": 948
    },
    {
      "name": "sweethome3d_window_pane_on_hinge_2_1_0_positions",
      "componentType": 5126,
      "count": 8,
      "min": [
        0.26499998569488525,
        0.6140000224113464,
        -0.02250000089406967
      ],
      "max": [
        0.7549999952316284,
        2.0840001106262207,
        -0.012500000186264515
      ],
      "type": "VEC3",
      "bufferView": 0,
      "byteOffset": 1380
    },
    {
      "name": "sweethome3d_window_pane_on_hinge_2_1_0_indices",
      "componentType": 5123,
      "count": 36,
      "min": [
        0
      ],
      "max": [
        7
      ],
      "type": "SCALAR",
      "bufferView": 1,
      "byteOffset": 1280
    },
    {
      "name": "sweethome3d_hinge_2_1_1_0_positions",
      "componentType": 5126,
      "count": 18,
      "min": [
        0.822920024394989,
        2.0143299102783203,
        -0.007499999832361937
      ],
      "max": [
        0.8429200053215027,
        2.0543301105499268,
        0.012500000186264515
      ],
      "type": "VEC3",
      "bufferView": 0,
      "byteOffset": 1476
    },
    {
      "name": "sweethome3d_hinge_2_1_1_0_indices",
      "componentType": 5123,
      "count": 96,
      "min": [
        0
      ],
      "max": [
        17
      ],
      "type": "SCALAR",
      "bufferView": 1,
      "byteOffset": 1352
    },
    {
      "name": "sweethome3d_hinge_2_2_1_0_positions",
      "componentType": 5126,
      "count": 18,
      "min": [
        0.8230000138282776,
        1.3530000448226929,
        -0.007499999832361937
      ],
      "max": [
        0.8429999947547913,
        1.3930000066757202,
        0.012500000186264515
      ],
      "type": "VEC3",
      "bufferView": 0,
      "byteOffset": 1692
    },
    {
      "name": "sweethome3d_hinge_2_2_1_0_indices",
      "componentType": 5123,
      "count": 96,
      "min": [
        0
      ],
      "max": [
        17
      ],
      "type": "SCALAR",
      "bufferView": 1,
      "byteOffset": 1544
    },
    {
      "name": "sweethome3d_hinge_1_2_1_0_positions",
      "componentType": 5126,
      "count": 18,
      "min": [
        -0.43299999833106995,
        1.3530000448226929,
        -0.007499999832361937
      ],
      "max": [
        -0.4129999876022339,
        1.3930000066757202,
        0.012500000186264515
      ],
      "type": "VEC3",
      "bufferView": 0,
      "byteOffset": 1908
    },
    {
      "name": "sweethome3d_hinge_1_2_1_0_indices",
      "componentType": 5123,
      "count": 96,
      "min": [
        0
      ],
      "max": [
        17
      ],
      "type": "SCALAR",
      "bufferView": 1,
      "byteOffset": 1736
    },
    {
      "name": "frame_1_0_positions",
      "componentType": 5126,
      "count": 18,
      "min": [
        -0.45500001311302185,
        0.4749999940395355,
        -0.27421000599861145
      ],
      "max": [
        0.8650000095367432,
        2.2149999141693115,
        -0.004209999926388264
      ],
      "type": "VEC3",
      "bufferView": 0,
      "byteOffset": 2124
    },
    {
      "name": "frame_1_0_indices",
      "componentType": 5123,
      "count": 108,
      "min": [
        0
      ],
      "max": [
        17
      ],
      "type": "SCALAR",
      "bufferView": 1,
      "byteOffset": 1928
    },
    {
      "name": "sweethome3d_opening_on_hinge_1_handle_1_0_positions",
      "componentType": 5126,
      "count": 92,
      "min": [
        0.16516999900341034,
        1.0447100400924683,
        0.006539999973028898
      ],
      "max": [
        0.18682999908924103,
        1.1735899448394775,
        0.07485000044107437
      ],
      "type": "VEC3",
      "bufferView": 0,
      "byteOffset": 2340
    },
    {
      "name": "sweethome3d_opening_on_hinge_1_handle_1_0_indices",
      "componentType": 5123,
      "count": 540,
      "min": [
        0
      ],
      "max": [
        91
      ],
      "type": "SCALAR",
      "bufferView": 1,
      "byteOffset": 2144
    }
  ],
  "asset": {
    "generator": "obj2gltf",
    "version": "2.0"
  },
  "buffers": [
    {
      "name": "doubleWindow126x163",
      "byteLength": 6668,
      "uri": "data:application/octet-stream;base64,"
    }
  ],
  "bufferViews": [
    {
      "name": "bufferView_0",
      "buffer": 0,
      "byteLength": 3444,
      "byteOffset": 0,
      "byteStride": 12,
      "target": 34962
    },
    {
      "name": "bufferView_1",
      "buffer": 0,
      "byteLength": 3224,
      "byteOffset": 3444,
      "target": 34963
    }
  ],
  "materials": [
    {
      "name": "white",
      "pbrMetallicRoughness": {
        "baseColorFactor": [
          0.5,
          0.5,
          0.5,
          1
        ],
        "metallicFactor": 0,
        "roughnessFactor": 1
      },
      "emissiveFactor": [
        0,
        0,
        0
      ],
      "alphaMode": "OPAQUE",
      "doubleSided": false
    },
    {
      "name": "flltgrey",
      "pbrMetallicRoughness": {
        "baseColorFactor": [
          0.5,
          0.5,
          0.5,
          1
        ],
        "metallicFactor": 0,
        "roughnessFactor": 1
      },
      "emissiveFactor": [
        0,
        0,
        0
      ],
      "alphaMode": "OPAQUE",
      "doubleSided": false
    }
  ],
  "meshes": [
    {
      "name": "sweethome3d_hinge_1_1_1",
      "primitives": [
        {
          "attributes": {
            "POSITION": 0
          },
          "indices": 1,
          "material": 0,
          "mode": 4
        }
      ]
    },
    {
      "name": "sweethome3d_window_pane_on_hinge_1_1",
      "primitives": [
        {
          "attributes": {
            "POSITION": 2
          },
          "indices": 3,
          "material": 1,
          "mode": 4
        }
      ]
    },
    {
      "name": "sweethome3d_opening_on_hinge_2_1",
      "primitives": [
        {
          "attributes": {
            "POSITION": 4
          },
          "indices": 5,
          "material": 0,
          "mode": 4
        }
      ]
    },
    {
      "name": "sweethome3d_hinge_1_3_1",
      "primitives": [
        {
          "attributes": {
            "POSITION": 6
          },
          "indices": 7,
          "material": 0,
          "mode": 4
        }
      ]
    },
    {
      "name": "sweethome3d_hinge_2_3_1",
      "primitives": [
        {
          "attributes": {
            "POSITION": 8
          },
          "indices": 9,
          "material": 0,
          "mode": 4
        }
      ]
    },
    {
      "name": "sweethome3d_opening_on_hinge_1_1",
      "primitives": [
        {
          "attributes": {
            "POSITION": 10
          },
          "indices": 11,
          "material": 0,
          "mode": 4
        }
      ]
    },
    {
      "name": "sweethome3d_window_pane_on_hinge_2_1",
      "primitives": [
        {
          "attributes": {
            "POSITION": 12
          },
          "indices": 13,
          "material": 1,
          "mode": 4
        }
      ]
    },
    {
      "name": "sweethome3d_hinge_2_1_1",
      "primitives": [
        {
          "attributes": {
            "POSITION": 14
          },
          "indices": 15,
          "material": 0,
          "mode": 4
        }
      ]
    },
    {
      "name": "sweethome3d_hinge_2_2_1",
      "primitives": [
        {
          "attributes": {
            "POSITION": 16
          },
          "indices": 17,
          "material": 0,
          "mode": 4
        }
      ]
    },
    {
      "name": "sweethome3d_hinge_1_2_1",
      "primitives": [
        {
          "attributes": {
            "POSITION": 18
          },
          "indices": 19,
          "material": 0,
          "mode": 4
        }
      ]
    },
    {
      "name": "frame_1",
      "primitives": [
        {
          "attributes": {
            "POSITION": 20
          },
          "indices": 21,
          "material": 0,
          "mode": 4
        }
      ]
    },
    {
      "name": "sweethome3d_opening_on_hinge_1_handle_1",
      "primitives": [
        {
          "attributes": {
            "POSITION": 22
          },
          "indices": 23,
          "material": 0,
          "mode": 4
        }
      ]
    }
  ],
  "nodes": [
    {
      "name": "sweethome3d_hinge_1_1",
      "mesh": 0
    },
    {
      "name": "sweethome3d_window_pane_on_hinge_1",
      "mesh": 1
    },
    {
      "name": "sweethome3d_opening_on_hinge_2",
      "mesh": 2
    },
    {
      "name": "sweethome3d_hinge_1_3",
      "mesh": 3
    },
    {
      "name": "sweethome3d_hinge_2_3",
      "mesh": 4
    },
    {
      "name": "sweethome3d_opening_on_hinge_1",
      "mesh": 5
    },
    {
      "name": "sweethome3d_window_pane_on_hinge_2",
      "mesh": 6
    },
    {
      "name": "sweethome3d_hinge_2_1",
      "mesh": 7
    },
    {
      "name": "sweethome3d_hinge_2_2",
      "mesh": 8
    },
    {
      "name": "sweethome3d_hinge_1_2",
      "mesh": 9
    },
    {
      "name": "frame",
      "mesh": 10
    },
    {
      "name": "sweethome3d_opening_on_hinge_1_handle",
      "mesh": 11
    }
  ],
  "scene": 0,
  "scenes": [
    {
      "nodes": [
        0,
        1,
        2,
        3,
        4,
        5,
        6,
        7,
        8,
        9,
        10,
        11
      ]
    }
  ]
}
