{
  "accessors": [
    {
      "name": "Robinet_droit_1_0_positions",
      "componentType": 5126,
      "count": 18,
      "min": [
        0.16495299339294434,
        1.0407079458236694,
        -1.7551000118255615
      ],
      "max": [
        0.27811500430107117,
        1.1507079601287842,
        -1.6450999975204468
      ],
      "type": "VEC3",
      "bufferView": 0,
      "byteOffset": 0
    },
    {
      "name": "Robinet_droit_1_0_indices",
      "componentType": 5123,
      "count": 96,
      "min": [
        0
      ],
      "max": [
        17
      ],
      "type": "SCALAR",
      "bufferView": 1,
      "byteOffset": 0
    },
    {
      "name": "Robinet_gauche_1_0_positions",
      "componentType": 5126,
      "count": 18,
      "min": [
        -0.26667699217796326,
        1.0407079458236694,
        -1.7551000118255615
      ],
      "max": [
        -0.1502549946308136,
        1.1507079601287842,
        -1.6450999975204468
      ],
      "type": "VEC3",
      "bufferView": 0,
      "byteOffset": 216
    },
    {
      "name": "Robinet_gauche_1_0_indices",
      "componentType": 5123,
      "count": 96,
      "min": [
        0
      ],
      "max": [
        17
      ],
      "type": "SCALAR",
      "bufferView": 1,
      "byteOffset": 192
    },
    {
      "name": "Robinet_1_0_positions",
      "componentType": 5126,
      "count": 35,
      "min": [
        -0.041510000824928284,
        1.0005300045013428,
        -1.76397705078125
      ],
      "max": [
        0.053599998354911804,
        1.1924999952316284,
        -1.3522900342941284
      ],
      "type": "VEC3",
      "bufferView": 0,
      "byteOffset": 432
    },
    {
      "name": "Robinet_1_0_indices",
      "componentType": 5123,
      "count": 198,
      "min": [
        0
      ],
      "max": [
        34
      ],
      "type": "SCALAR",
      "bufferView": 1,
      "byteOffset": 384
    },
    {
      "name": "Baignore_1_0_positions",
      "componentType": 5126,
      "count": 1473,
      "min": [
        -0.7726100087165833,
        0.11841999739408493,
        -1.6775599718093872
      ],
      "max": [
        0.7822200059890747,
        1.0635499954223633,
        1.5571999549865723
      ],
      "type": "VEC3",
      "bufferView": 0,
      "byteOffset": 852
    },
    {
      "name": "Baignore_1_0_indices",
      "componentType": 5123,
      "count": 8640,
      "min": [
        0
      ],
      "max": [
        1472
      ],
      "type": "SCALAR",
      "bufferView": 1,
      "byteOffset": 780
    },
    {
      "name": "Tour_1_0_positions",
      "componentType": 5126,
      "count": 25,
      "min": [
        -0.8202400207519531,
        0.0008699999889358878,
        -1.7899999618530273
      ],
      "max": [
        0.8297600150108337,
        1.0358699560165405,
        1.6100000143051147
      ],
      "type": "VEC3",
      "bufferView": 0,
      "byteOffset": 18528
    },
    {
      "name": "Tour_1_0_indices",
      "componentType": 5123,
      "count": 93,
      "min": [
        0
      ],
      "max": [
        24
      ],
      "type": "SCALAR",
      "bufferView": 1,
      "byteOffset": 18060
    }
  ],
  "asset": {
    "generator": "obj2gltf",
    "version": "2.0"
  },
  "buffers": [
    {
      "name": "fittedBath",
      "byteLength": 37076,
      "uri": "data:application/octet-stream;base64,"
    }
  ],
  "bufferViews": [
    {
      "name": "bufferView_0",
      "buffer": 0,
      "byteLength": 18828,
      "byteOffset": 0,
      "byteStride": 12,
      "target": 34962
    },
    {
      "name": "bufferView_1",
      "buffer": 0,
      "byteLength": 18248,
      "byteOffset": 18828,
      "target": 34963
    }
  ],
  "materials": [
    {
      "name": "silver",
      "pbrMetallicRoughness": {
        "baseColorFactor": [
          0.5,
          0.5,
          0.5,
          1
        ],
        "metallicFactor": 0,
        "roughnessFactor": 1
      },
      "emissiveFactor": [
        0,
        0,
        0
      ],
      "alphaMode": "OPAQUE",
      "doubleSided": false
    },
    {
      "name": "white",
      "pbrMetallicRoughness": {
        "baseColorFactor": [
          0.5,
          0.5,
          0.5,
          1
        ],
        "metallicFactor": 0,
        "roughnessFactor": 1
      },
      "emissiveFactor": [
        0,
        0,
        0
      ],
      "alphaMode": "OPAQUE",
      "doubleSided": false
    }
  ],
  "meshes": [
    {
      "name": "Robinet_droit_1",
      "primitives": [
        {
          "attributes": {
            "POSITION": 0
          },
          "indices": 1,
          "material": 0,
          "mode": 4
        }
      ]
    },
    {
      "name": "Robinet_gauche_1",
      "primitives": [
        {
          "attributes": {
            "POSITION": 2
          },
          "indices": 3,
          "material": 0,
          "mode": 4
        }
      ]
    },
    {
      "name": "Robinet_1",
      "primitives": [
        {
          "attributes": {
            "POSITION": 4
          },
          "indices": 5,
          "material": 0,
          "mode": 4
        }
      ]
    },
    {
      "name": "Baignore_1",
      "primitives": [
        {
          "attributes": {
            "POSITION": 6
          },
          "indices": 7,
          "material": 1,
          "mode": 4
        }
      ]
    },
    {
      "name": "Tour_1",
      "primitives": [
        {
          "attributes": {
            "POSITION": 8
          },
          "indices": 9,
          "material": 1,
          "mode": 4
        }
      ]
    }
  ],
  "nodes": [
    {
      "name": "Robinet_droit",
      "mesh": 0
    },
    {
      "name": "Robinet_gauche",
      "mesh": 1
    },
    {
      "name": "Robinet",
      "mesh": 2
    },
    {
      "name": "Baignore",
      "mesh": 3
    },
    {
      "name": "Tour",
      "mesh": 4
    }
  ],
  "scene": 0,
  "scenes": [
    {
      "nodes": [
        0,
        1,
        2,
        3,
        4
      ]
    }
  ]
}
