{
  "accessors": [
    {
      "name": "frameOutside_1_0_positions",
      "componentType": 5126,
      "count": 16,
      "min": [
        -45.75,
        -102,
        -16.050016403198242
      ],
      "max": [
        55.75,
        106.50000762939453,
        -2.0161008834838867
      ],
      "type": "VEC3",
      "bufferView": 0,
      "byteOffset": 0
    },
    {
      "name": "frameOutside_1_0_indices",
      "componentType": 5123,
      "count": 66,
      "min": [
        0
      ],
      "max": [
        15
      ],
      "type": "SCALAR",
      "bufferView": 1,
      "byteOffset": 0
    },
    {
      "name": "sweethome3d_opening_on_hinge_1_doorOutside_1_0_positions",
      "componentType": 5126,
      "count": 112,
      "min": [
        -41.07270050048828,
        -101.76519012451172,
        -2.818471908569336
      ],
      "max": [
        51.07270431518555,
        101.76519012451172,
        -1.9989409446716309
      ],
      "type": "VEC3",
      "bufferView": 0,
      "byteOffset": 192
    },
    {
      "name": "sweethome3d_opening_on_hinge_1_doorOutside_1_0_indices",
      "componentType": 5123,
      "count": 582,
      "min": [
        0
      ],
      "max": [
        111
      ],
      "type": "SCALAR",
      "bufferView": 1,
      "byteOffset": 132
    },
    {
      "name": "sweethome3d_opening_on_hinge_1_handle_1_0_positions",
      "componentType": 5126,
      "count": 315,
      "min": [
        1.8988189697265625,
        -14.738014221191406,
        -9.105667114257812
      ],
      "max": [
        46.83966827392578,
        7.346284866333008,
        6.935469150543213
      ],
      "type": "VEC3",
      "bufferView": 0,
      "byteOffset": 1536
    },
    {
      "name": "sweethome3d_opening_on_hinge_1_handle_1_0_indices",
      "componentType": 5123,
      "count": 1650,
      "min": [
        0
      ],
      "max": [
        314
      ],
      "type": "SCALAR",
      "bufferView": 1,
      "byteOffset": 1296
    },
    {
      "name": "sweethome3d_hinge_1_1_1_0_positions",
      "componentType": 5126,
      "count": 16,
      "min": [
        -42.099998474121094,
        76,
        1.850011944770813
      ],
      "max": [
        -40.099998474121094,
        84,
        3.850013017654419
      ],
      "type": "VEC3",
      "bufferView": 0,
      "byteOffset": 5316
    },
    {
      "name": "sweethome3d_hinge_1_1_1_0_indices",
      "componentType": 5123,
      "count": 84,
      "min": [
        0
      ],
      "max": [
        15
      ],
      "type": "SCALAR",
      "bufferView": 1,
      "byteOffset": 4596
    },
    {
      "name": "sweethome3d_hinge_1_2_1_0_positions",
      "componentType": 5126,
      "count": 16,
      "min": [
        -42.099998474121094,
        -4,
        1.849998950958252
      ],
      "max": [
        -40.099998474121094,
        4,
        3.850001096725464
      ],
      "type": "VEC3",
      "bufferView": 0,
      "byteOffset": 5508
    },
    {
      "name": "sweethome3d_hinge_1_2_1_0_indices",
      "componentType": 5123,
      "count": 84,
      "min": [
        0
      ],
      "max": [
        15
      ],
      "type": "SCALAR",
      "bufferView": 1,
      "byteOffset": 4764
    },
    {
      "name": "sweethome3d_opening_on_hinge_1_door_1_0_positions",
      "componentType": 5126,
      "count": 8,
      "min": [
        -41.07347106933594,
        -101.7633056640625,
        -2.000016927719116
      ],
      "max": [
        51.0734748840332,
        101.7633056640625,
        2.000016927719116
      ],
      "type": "VEC3",
      "bufferView": 0,
      "byteOffset": 5700
    },
    {
      "name": "sweethome3d_opening_on_hinge_1_door_1_0_indices",
      "componentType": 5123,
      "count": 30,
      "min": [
        0
      ],
      "max": [
        7
      ],
      "type": "SCALAR",
      "bufferView": 1,
      "byteOffset": 4932
    },
    {
      "name": "frame_1_0_positions",
      "componentType": 5126,
      "count": 24,
      "min": [
        -45.75,
        -102,
        -2.0209290981292725
      ],
      "max": [
        55.75,
        106.50000762939453,
        1.950016975402832
      ],
      "type": "VEC3",
      "bufferView": 0,
      "byteOffset": 5796
    },
    {
      "name": "frame_1_0_indices",
      "componentType": 5123,
      "count": 114,
      "min": [
        0
      ],
      "max": [
        23
      ],
      "type": "SCALAR",
      "bufferView": 1,
      "byteOffset": 4992
    },
    {
      "name": "sweethome3d_hinge_1_3_1_0_positions",
      "componentType": 5126,
      "count": 16,
      "min": [
        -42.099998474121094,
        -84,
        1.849985957145691
      ],
      "max": [
        -40.099998474121094,
        -76,
        3.8499879837036133
      ],
      "type": "VEC3",
      "bufferView": 0,
      "byteOffset": 6084
    },
    {
      "name": "sweethome3d_hinge_1_3_1_0_indices",
      "componentType": 5123,
      "count": 84,
      "min": [
        0
      ],
      "max": [
        15
      ],
      "type": "SCALAR",
      "bufferView": 1,
      "byteOffset": 5220
    }
  ],
  "asset": {
    "generator": "obj2gltf",
    "version": "2.0"
  },
  "buffers": [
    {
      "name": "frontDoor",
      "byteLength": 11664,
      "uri": "data:application/octet-stream;base64,"
    }
  ],
  "bufferViews": [
    {
      "name": "bufferView_0",
      "buffer": 0,
      "byteLength": 6276,
      "byteOffset": 0,
      "byteStride": 12,
      "target": 34962
    },
    {
      "name": "bufferView_1",
      "buffer": 0,
      "byteLength": 5388,
      "byteOffset": 6276,
      "target": 34963
    }
  ],
  "materials": [
    {
      "name": "flgrey",
      "pbrMetallicRoughness": {
        "baseColorFactor": [
          0.5,
          0.5,
          0.5,
          1
        ],
        "metallicFactor": 0,
        "roughnessFactor": 1
      },
      "emissiveFactor": [
        0,
        0,
        0
      ],
      "alphaMode": "OPAQUE",
      "doubleSided": false
    },
    {
      "name": "yellowbrt",
      "pbrMetallicRoughness": {
        "baseColorFactor": [
          0.5,
          0.5,
          0.5,
          1
        ],
        "metallicFactor": 0,
        "roughnessFactor": 1
      },
      "emissiveFactor": [
        0,
        0,
        0
      ],
      "alphaMode": "OPAQUE",
      "doubleSided": false
    },
    {
      "name": "white",
      "pbrMetallicRoughness": {
        "baseColorFactor": [
          0.5,
          0.5,
          0.5,
          1
        ],
        "metallicFactor": 0,
        "roughnessFactor": 1
      },
      "emissiveFactor": [
        0,
        0,
        0
      ],
      "alphaMode": "OPAQUE",
      "doubleSided": false
    }
  ],
  "meshes": [
    {
      "name": "frameOutside_1",
      "primitives": [
        {
          "attributes": {
            "POSITION": 0
          },
          "indices": 1,
          "material": 0,
          "mode": 4
        }
      ]
    },
    {
      "name": "sweethome3d_opening_on_hinge_1_doorOutside_1",
      "primitives": [
        {
          "attributes": {
            "POSITION": 2
          },
          "indices": 3,
          "material": 0,
          "mode": 4
        }
      ]
    },
    {
      "name": "sweethome3d_opening_on_hinge_1_handle_1",
      "primitives": [
        {
          "attributes": {
            "POSITION": 4
          },
          "indices": 5,
          "material": 1,
          "mode": 4
        }
      ]
    },
    {
      "name": "sweethome3d_hinge_1_1_1",
      "primitives": [
        {
          "attributes": {
            "POSITION": 6
          },
          "indices": 7,
          "material": 2,
          "mode": 4
        }
      ]
    },
    {
      "name": "sweethome3d_hinge_1_2_1",
      "primitives": [
        {
          "attributes": {
            "POSITION": 8
          },
          "indices": 9,
          "material": 2,
          "mode": 4
        }
      ]
    },
    {
      "name": "sweethome3d_opening_on_hinge_1_door_1",
      "primitives": [
        {
          "attributes": {
            "POSITION": 10
          },
          "indices": 11,
          "material": 2,
          "mode": 4
        }
      ]
    },
    {
      "name": "frame_1",
      "primitives": [
        {
          "attributes": {
            "POSITION": 12
          },
          "indices": 13,
          "material": 2,
          "mode": 4
        }
      ]
    },
    {
      "name": "sweethome3d_hinge_1_3_1",
      "primitives": [
        {
          "attributes": {
            "POSITION": 14
          },
          "indices": 15,
          "material": 2,
          "mode": 4
        }
      ]
    }
  ],
  "nodes": [
    {
      "name": "frameOutside",
      "mesh": 0
    },
    {
      "name": "sweethome3d_opening_on_hinge_1_doorOutside",
      "mesh": 1
    },
    {
      "name": "sweethome3d_opening_on_hinge_1_handle",
      "mesh": 2
    },
    {
      "name": "sweethome3d_hinge_1_1",
      "mesh": 3
    },
    {
      "name": "sweethome3d_hinge_1_2",
      "mesh": 4
    },
    {
      "name": "sweethome3d_opening_on_hinge_1_door",
      "mesh": 5
    },
    {
      "name": "frame",
      "mesh": 6
    },
    {
      "name": "sweethome3d_hinge_1_3",
      "mesh": 7
    }
  ],
  "scene": 0,
  "scenes": [
    {
      "nodes": [
        0,
        1,
        2,
        3,
        4,
        5,
        6,
        7
      ]
    }
  ]
}
