{
  "accessors": [
    {
      "name": "Echellon_1_0_positions",
      "componentType": 5126,
      "count": 8,
      "min": [
        -0.8399999737739563,
        0.36800000071525574,
        0.5
      ],
      "max": [
        -0.7599999904632568,
        0.3919999897480011,
        0.9200000166893005
      ],
      "type": "VEC3",
      "bufferView": 0,
      "byteOffset": 0
    },
    {
      "name": "Echellon_1_0_indices",
      "componentType": 5123,
      "count": 36,
      "min": [
        0
      ],
      "max": [
        7
      ],
      "type": "SCALAR",
      "bufferView": 1,
      "byteOffset": 0
    },
    {
      "name": "Echellon_1_1_0_positions",
      "componentType": 5126,
      "count": 8,
      "min": [
        -0.8399999737739563,
        0.6480000019073486,
        0.5
      ],
      "max": [
        -0.7599999904632568,
        0.671999990940094,
        0.9200000166893005
      ],
      "type": "VEC3",
      "bufferView": 0,
      "byteOffset": 96
    },
    {
      "name": "Echellon_1_1_0_indices",
      "componentType": 5123,
      "count": 36,
      "min": [
        0
      ],
      "max": [
        7
      ],
      "type": "SCALAR",
      "bufferView": 1,
      "byteOffset": 72
    },
    {
      "name": "Echellon_2_1_0_positions",
      "componentType": 5126,
      "count": 8,
      "min": [
        -0.8399999737739563,
        0.9279999732971191,
        0.5
      ],
      "max": [
        -0.7599999904632568,
        0.9520000219345093,
        0.9200000166893005
      ],
      "type": "VEC3",
      "bufferView": 0,
      "byteOffset": 192
    },
    {
      "name": "Echellon_2_1_0_indices",
      "componentType": 5123,
      "count": 36,
      "min": [
        0
      ],
      "max": [
        7
      ],
      "type": "SCALAR",
      "bufferView": 1,
      "byteOffset": 144
    },
    {
      "name": "Pied_1_0_positions",
      "componentType": 5126,
      "count": 32,
      "min": [
        0.6898249983787537,
        -0.00011100000119768083,
        -1.0398900508880615
      ],
      "max": [
        0.8098260164260864,
        1.7999049425125122,
        -0.9198899865150452
      ],
      "type": "VEC3",
      "bufferView": 0,
      "byteOffset": 288
    },
    {
      "name": "Pied_1_0_indices",
      "componentType": 5123,
      "count": 180,
      "min": [
        0
      ],
      "max": [
        31
      ],
      "type": "SCALAR",
      "bufferView": 1,
      "byteOffset": 216
    },
    {
      "name": "Pied_3_1_0_positions",
      "componentType": 5126,
      "count": 32,
      "min": [
        0.6898249983787537,
        -0.00011100000119768083,
        0.9202690124511719
      ],
      "max": [
        0.8098260164260864,
        1.799828052520752,
        1.0402690172195435
      ],
      "type": "VEC3",
      "bufferView": 0,
      "byteOffset": 672
    },
    {
      "name": "Pied_3_1_0_indices",
      "componentType": 5123,
      "count": 180,
      "min": [
        0
      ],
      "max": [
        31
      ],
      "type": "SCALAR",
      "bufferView": 1,
      "byteOffset": 576
    },
    {
      "name": "Pied_1_1_0_positions",
      "componentType": 5126,
      "count": 32,
      "min": [
        -0.770147979259491,
        -0.00011100000119768083,
        -1.0398900508880615
      ],
      "max": [
        -0.6501479744911194,
        1.7999049425125122,
        -0.9198899865150452
      ],
      "type": "VEC3",
      "bufferView": 0,
      "byteOffset": 1056
    },
    {
      "name": "Pied_1_1_0_indices",
      "componentType": 5123,
      "count": 180,
      "min": [
        0
      ],
      "max": [
        31
      ],
      "type": "SCALAR",
      "bufferView": 1,
      "byteOffset": 936
    },
    {
      "name": "Pied_2_1_0_positions",
      "componentType": 5126,
      "count": 32,
      "min": [
        -0.770147979259491,
        -0.00011100000119768083,
        0.9202690124511719
      ],
      "max": [
        -0.6501479744911194,
        1.8002549409866333,
        1.0402690172195435
      ],
      "type": "VEC3",
      "bufferView": 0,
      "byteOffset": 1440
    },
    {
      "name": "Pied_2_1_0_indices",
      "componentType": 5123,
      "count": 180,
      "min": [
        0
      ],
      "max": [
        31
      ],
      "type": "SCALAR",
      "bufferView": 1,
      "byteOffset": 1296
    },
    {
      "name": "Matelas_1_0_positions",
      "componentType": 5126,
      "count": 96,
      "min": [
        -0.689985990524292,
        1.4160079956054688,
        -0.9500889778137207
      ],
      "max": [
        0.7100139856338501,
        1.6060090065002441,
        0.9479110240936279
      ],
      "type": "VEC3",
      "bufferView": 0,
      "byteOffset": 1824
    },
    {
      "name": "Matelas_1_0_indices",
      "componentType": 5123,
      "count": 564,
      "min": [
        0
      ],
      "max": [
        95
      ],
      "type": "SCALAR",
      "bufferView": 1,
      "byteOffset": 1656
    },
    {
      "name": "Echellon_3_1_0_positions",
      "componentType": 5126,
      "count": 8,
      "min": [
        -0.8399999737739563,
        1.2079999446868896,
        0.5
      ],
      "max": [
        -0.7599999904632568,
        1.2319999933242798,
        0.9200000166893005
      ],
      "type": "VEC3",
      "bufferView": 0,
      "byteOffset": 2976
    },
    {
      "name": "Echellon_3_1_0_indices",
      "componentType": 5123,
      "count": 36,
      "min": [
        0
      ],
      "max": [
        7
      ],
      "type": "SCALAR",
      "bufferView": 1,
      "byteOffset": 2784
    },
    {
      "name": "Echelle_1_1_0_positions",
      "componentType": 5126,
      "count": 8,
      "min": [
        -0.8500000238418579,
        0,
        0.9049999713897705
      ],
      "max": [
        -0.75,
        1.7649999856948853,
        0.9350000023841858
      ],
      "type": "VEC3",
      "bufferView": 0,
      "byteOffset": 3072
    },
    {
      "name": "Echelle_1_1_0_indices",
      "componentType": 5123,
      "count": 36,
      "min": [
        0
      ],
      "max": [
        7
      ],
      "type": "SCALAR",
      "bufferView": 1,
      "byteOffset": 2856
    },
    {
      "name": "Bord_1_0_positions",
      "componentType": 5126,
      "count": 8,
      "min": [
        0.7149999737739563,
        1.309999942779541,
        -1.0099999904632568
      ],
      "max": [
        0.7649999856948853,
        1.7599999904632568,
        1
      ],
      "type": "VEC3",
      "bufferView": 0,
      "byteOffset": 3168
    },
    {
      "name": "Bord_1_0_indices",
      "componentType": 5123,
      "count": 36,
      "min": [
        0
      ],
      "max": [
        7
      ],
      "type": "SCALAR",
      "bufferView": 1,
      "byteOffset": 2928
    },
    {
      "name": "Bord_4_1_0_positions",
      "componentType": 5126,
      "count": 8,
      "min": [
        -0.75,
        0.4749999940395355,
        0.9549999833106995
      ],
      "max": [
        0.7699999809265137,
        0.6549999713897705,
        1.0049999952316284
      ],
      "type": "VEC3",
      "bufferView": 0,
      "byteOffset": 3264
    },
    {
      "name": "Bord_4_1_0_indices",
      "componentType": 5123,
      "count": 36,
      "min": [
        0
      ],
      "max": [
        7
      ],
      "type": "SCALAR",
      "bufferView": 1,
      "byteOffset": 3000
    },
    {
      "name": "Bord_5_1_0_positions",
      "componentType": 5126,
      "count": 8,
      "min": [
        -0.75,
        0.4749999940395355,
        -1.0049999952316284
      ],
      "max": [
        0.7699999809265137,
        0.6549999713897705,
        -0.9549999833106995
      ],
      "type": "VEC3",
      "bufferView": 0,
      "byteOffset": 3360
    },
    {
      "name": "Bord_5_1_0_indices",
      "componentType": 5123,
      "count": 36,
      "min": [
        0
      ],
      "max": [
        7
      ],
      "type": "SCALAR",
      "bufferView": 1,
      "byteOffset": 3072
    },
    {
      "name": "Bord_3_1_0_positions",
      "componentType": 5126,
      "count": 18,
      "min": [
        -0.7450000047683716,
        1.309999942779541,
        -1.0099999904632568
      ],
      "max": [
        -0.6949999928474426,
        1.7599999904632568,
        1
      ],
      "type": "VEC3",
      "bufferView": 0,
      "byteOffset": 3456
    },
    {
      "name": "Bord_3_1_0_indices",
      "componentType": 5123,
      "count": 96,
      "min": [
        0
      ],
      "max": [
        17
      ],
      "type": "SCALAR",
      "bufferView": 1,
      "byteOffset": 3144
    },
    {
      "name": "Echelle_1_0_positions",
      "componentType": 5126,
      "count": 8,
      "min": [
        -0.8500000238418579,
        0,
        0.49000000953674316
      ],
      "max": [
        -0.75,
        1.7649999856948853,
        0.5199999809265137
      ],
      "type": "VEC3",
      "bufferView": 0,
      "byteOffset": 3672
    },
    {
      "name": "Echelle_1_0_indices",
      "componentType": 5123,
      "count": 36,
      "min": [
        0
      ],
      "max": [
        7
      ],
      "type": "SCALAR",
      "bufferView": 1,
      "byteOffset": 3336
    },
    {
      "name": "Bord_2_1_0_positions",
      "componentType": 5126,
      "count": 8,
      "min": [
        -0.75,
        1.309999942779541,
        -1.0049999952316284
      ],
      "max": [
        0.7699999809265137,
        1.7599999904632568,
        -0.9549999833106995
      ],
      "type": "VEC3",
      "bufferView": 0,
      "byteOffset": 3768
    },
    {
      "name": "Bord_2_1_0_indices",
      "componentType": 5123,
      "count": 36,
      "min": [
        0
      ],
      "max": [
        7
      ],
      "type": "SCALAR",
      "bufferView": 1,
      "byteOffset": 3408
    },
    {
      "name": "Bord_6_1_0_positions",
      "componentType": 5126,
      "count": 8,
      "min": [
        0.7250000238418579,
        0.4749999940395355,
        -0.9900000095367432
      ],
      "max": [
        0.7749999761581421,
        0.6549999713897705,
        1
      ],
      "type": "VEC3",
      "bufferView": 0,
      "byteOffset": 3864
    },
    {
      "name": "Bord_6_1_0_indices",
      "componentType": 5123,
      "count": 36,
      "min": [
        0
      ],
      "max": [
        7
      ],
      "type": "SCALAR",
      "bufferView": 1,
      "byteOffset": 3480
    },
    {
      "name": "Bord_1_1_0_positions",
      "componentType": 5126,
      "count": 8,
      "min": [
        -0.75,
        1.309999942779541,
        0.9549999833106995
      ],
      "max": [
        0.7699999809265137,
        1.7599999904632568,
        1.0049999952316284
      ],
      "type": "VEC3",
      "bufferView": 0,
      "byteOffset": 3960
    },
    {
      "name": "Bord_1_1_0_indices",
      "componentType": 5123,
      "count": 36,
      "min": [
        0
      ],
      "max": [
        7
      ],
      "type": "SCALAR",
      "bufferView": 1,
      "byteOffset": 3552
    }
  ],
  "asset": {
    "generator": "obj2gltf",
    "version": "2.0"
  },
  "buffers": [
    {
      "name": "loftBed140x190",
      "byteLength": 7680,
      "uri": "data:application/octet-stream;base64,"
    }
  ],
  "bufferViews": [
    {
      "name": "bufferView_0",
      "buffer": 0,
      "byteLength": 4056,
      "byteOffset": 0,
      "byteStride": 12,
      "target": 34962
    },
    {
      "name": "bufferView_1",
      "buffer": 0,
      "byteLength": 3624,
      "byteOffset": 4056,
      "target": 34963
    }
  ],
  "materials": [
    {
      "name": "flyellow",
      "pbrMetallicRoughness": {
        "baseColorFactor": [
          0.5,
          0.5,
          0.5,
          1
        ],
        "metallicFactor": 0,
        "roughnessFactor": 1
      },
      "emissiveFactor": [
        0,
        0,
        0
      ],
      "alphaMode": "OPAQUE",
      "doubleSided": false
    },
    {
      "name": "bone2",
      "pbrMetallicRoughness": {
        "baseColorFactor": [
          0.5,
          0.5,
          0.5,
          1
        ],
        "metallicFactor": 0,
        "roughnessFactor": 1
      },
      "emissiveFactor": [
        0,
        0,
        0
      ],
      "alphaMode": "OPAQUE",
      "doubleSided": false
    }
  ],
  "meshes": [
    {
      "name": "Echellon_1",
      "primitives": [
        {
          "attributes": {
            "POSITION": 0
          },
          "indices": 1,
          "material": 0,
          "mode": 4
        }
      ]
    },
    {
      "name": "Echellon_1_1",
      "primitives": [
        {
          "attributes": {
            "POSITION": 2
          },
          "indices": 3,
          "material": 0,
          "mode": 4
        }
      ]
    },
    {
      "name": "Echellon_2_1",
      "primitives": [
        {
          "attributes": {
            "POSITION": 4
          },
          "indices": 5,
          "material": 0,
          "mode": 4
        }
      ]
    },
    {
      "name": "Pied_1",
      "primitives": [
        {
          "attributes": {
            "POSITION": 6
          },
          "indices": 7,
          "material": 0,
          "mode": 4
        }
      ]
    },
    {
      "name": "Pied_3_1",
      "primitives": [
        {
          "attributes": {
            "POSITION": 8
          },
          "indices": 9,
          "material": 0,
          "mode": 4
        }
      ]
    },
    {
      "name": "Pied_1_1",
      "primitives": [
        {
          "attributes": {
            "POSITION": 10
          },
          "indices": 11,
          "material": 0,
          "mode": 4
        }
      ]
    },
    {
      "name": "Pied_2_1",
      "primitives": [
        {
          "attributes": {
            "POSITION": 12
          },
          "indices": 13,
          "material": 0,
          "mode": 4
        }
      ]
    },
    {
      "name": "Matelas_1",
      "primitives": [
        {
          "attributes": {
            "POSITION": 14
          },
          "indices": 15,
          "material": 1,
          "mode": 4
        }
      ]
    },
    {
      "name": "Echellon_3_1",
      "primitives": [
        {
          "attributes": {
            "POSITION": 16
          },
          "indices": 17,
          "material": 0,
          "mode": 4
        }
      ]
    },
    {
      "name": "Echelle_1_1",
      "primitives": [
        {
          "attributes": {
            "POSITION": 18
          },
          "indices": 19,
          "material": 0,
          "mode": 4
        }
      ]
    },
    {
      "name": "Bord_1",
      "primitives": [
        {
          "attributes": {
            "POSITION": 20
          },
          "indices": 21,
          "material": 0,
          "mode": 4
        }
      ]
    },
    {
      "name": "Bord_4_1",
      "primitives": [
        {
          "attributes": {
            "POSITION": 22
          },
          "indices": 23,
          "material": 0,
          "mode": 4
        }
      ]
    },
    {
      "name": "Bord_5_1",
      "primitives": [
        {
          "attributes": {
            "POSITION": 24
          },
          "indices": 25,
          "material": 0,
          "mode": 4
        }
      ]
    },
    {
      "name": "Bord_3_1",
      "primitives": [
        {
          "attributes": {
            "POSITION": 26
          },
          "indices": 27,
          "material": 0,
          "mode": 4
        }
      ]
    },
    {
      "name": "Echelle_1",
      "primitives": [
        {
          "attributes": {
            "POSITION": 28
          },
          "indices": 29,
          "material": 0,
          "mode": 4
        }
      ]
    },
    {
      "name": "Bord_2_1",
      "primitives": [
        {
          "attributes": {
            "POSITION": 30
          },
          "indices": 31,
          "material": 0,
          "mode": 4
        }
      ]
    },
    {
      "name": "Bord_6_1",
      "primitives": [
        {
          "attributes": {
            "POSITION": 32
          },
          "indices": 33,
          "material": 0,
          "mode": 4
        }
      ]
    },
    {
      "name": "Bord_1_1",
      "primitives": [
        {
          "attributes": {
            "POSITION": 34
          },
          "indices": 35,
          "material": 0,
          "mode": 4
        }
      ]
    }
  ],
  "nodes": [
    {
      "name": "Echellon",
      "mesh": 0
    },
    {
      "name": "Echellon_1",
      "mesh": 1
    },
    {
      "name": "Echellon_2",
      "mesh": 2
    },
    {
      "name": "Pied",
      "mesh": 3
    },
    {
      "name": "Pied_3",
      "mesh": 4
    },
    {
      "name": "Pied_1",
      "mesh": 5
    },
    {
      "name": "Pied_2",
      "mesh": 6
    },
    {
      "name": "Matelas",
      "mesh": 7
    },
    {
      "name": "Echellon_3",
      "mesh": 8
    },
    {
      "name": "Echelle_1",
      "mesh": 9
    },
    {
      "name": "Bord",
      "mesh": 10
    },
    {
      "name": "Bord_4",
      "mesh": 11
    },
    {
      "name": "Bord_5",
      "mesh": 12
    },
    {
      "name": "Bord_3",
      "mesh": 13
    },
    {
      "name": "Echelle",
      "mesh": 14
    },
    {
      "name": "Bord_2",
      "mesh": 15
    },
    {
      "name": "Bord_6",
      "mesh": 16
    },
    {
      "name": "Bord_1",
      "mesh": 17
    }
  ],
  "scene": 0,
  "scenes": [
    {
      "nodes": [
        0,
        1,
        2,
        3,
        4,
        5,
        6,
        7,
        8,
        9,
        10,
        11,
        12,
        13,
        14,
        15,
        16,
        17
      ]
    }
  ]
}
