{
  "accessors": [
    {
      "name": "sweethome3d_hinge_1_3_1_0_positions",
      "componentType": 5126,
      "count": 18,
      "min": [
        -0.42107000946998596,
        -0.8399999737739563,
        0.018629999831318855
      ],
      "max": [
        -0.4010699987411499,
        -0.7599999904632568,
        0.03863000124692917
      ],
      "type": "VEC3",
      "bufferView": 0,
      "byteOffset": 0
    },
    {
      "name": "sweethome3d_hinge_1_3_1_0_indices",
      "componentType": 5123,
      "count": 96,
      "min": [
        0
      ],
      "max": [
        17
      ],
      "type": "SCALAR",
      "bufferView": 1,
      "byteOffset": 0
    },
    {
      "name": "frame_1_0_positions",
      "componentType": 5126,
      "count": 24,
      "min": [
        -0.45750001072883606,
        -1.0199999809265137,
        -0.0754999965429306
      ],
      "max": [
        0.45750001072883606,
        1.065000057220459,
        0.019500000402331352
      ],
      "type": "VEC3",
      "bufferView": 0,
      "byteOffset": 216
    },
    {
      "name": "frame_1_0_indices",
      "componentType": 5123,
      "count": 132,
      "min": [
        0
      ],
      "max": [
        23
      ],
      "type": "SCALAR",
      "bufferView": 1,
      "byteOffset": 192
    },
    {
      "name": "sweethome3d_hinge_1_1_1_0_positions",
      "componentType": 5126,
      "count": 18,
      "min": [
        -0.42107000946998596,
        0.7599999904632568,
        0.018629999831318855
      ],
      "max": [
        -0.4010699987411499,
        0.8399999737739563,
        0.03863000124692917
      ],
      "type": "VEC3",
      "bufferView": 0,
      "byteOffset": 504
    },
    {
      "name": "sweethome3d_hinge_1_1_1_0_indices",
      "componentType": 5123,
      "count": 96,
      "min": [
        0
      ],
      "max": [
        17
      ],
      "type": "SCALAR",
      "bufferView": 1,
      "byteOffset": 456
    },
    {
      "name": "sweethome3d_opening_on_hinge_1_door_1_0_positions",
      "componentType": 5126,
      "count": 8,
      "min": [
        -0.4061200022697449,
        -1.0199999809265137,
        -0.006730000022798777
      ],
      "max": [
        0.20553000271320343,
        1.0199999809265137,
        0.6049200296401978
      ],
      "type": "VEC3",
      "bufferView": 0,
      "byteOffset": 720
    },
    {
      "name": "sweethome3d_opening_on_hinge_1_door_1_0_indices",
      "componentType": 5123,
      "count": 36,
      "min": [
        0
      ],
      "max": [
        7
      ],
      "type": "SCALAR",
      "bufferView": 1,
      "byteOffset": 648
    },
    {
      "name": "sweethome3d_opening_on_hinge_1_handleIn_1_0_positions",
      "componentType": 5126,
      "count": 92,
      "min": [
        0.0228899996727705,
        -0.025769999250769615,
        0.5097699761390686
      ],
      "max": [
        0.16060000658035278,
        -0.004120000172406435,
        0.6017400026321411
      ],
      "type": "VEC3",
      "bufferView": 0,
      "byteOffset": 816
    },
    {
      "name": "sweethome3d_opening_on_hinge_1_handleIn_1_0_indices",
      "componentType": 5123,
      "count": 540,
      "min": [
        0
      ],
      "max": [
        91
      ],
      "type": "SCALAR",
      "bufferView": 1,
      "byteOffset": 720
    },
    {
      "name": "sweethome3d_hinge_1_2_1_0_positions",
      "componentType": 5126,
      "count": 18,
      "min": [
        -0.42107000946998596,
        -0.03999999910593033,
        0.018629999831318855
      ],
      "max": [
        -0.4010699987411499,
        0.03999999910593033,
        0.03863000124692917
      ],
      "type": "VEC3",
      "bufferView": 0,
      "byteOffset": 1920
    },
    {
      "name": "sweethome3d_hinge_1_2_1_0_indices",
      "componentType": 5123,
      "count": 96,
      "min": [
        0
      ],
      "max": [
        17
      ],
      "type": "SCALAR",
      "bufferView": 1,
      "byteOffset": 1800
    },
    {
      "name": "sweethome3d_opening_on_hinge_1_handleOut_1_0_positions",
      "componentType": 5126,
      "count": 92,
      "min": [
        0.11236000061035156,
        -0.025769999250769615,
        0.4203000068664551
      ],
      "max": [
        0.20432999730110168,
        -0.004120000172406435,
        0.5580099821090698
      ],
      "type": "VEC3",
      "bufferView": 0,
      "byteOffset": 2136
    },
    {
      "name": "sweethome3d_opening_on_hinge_1_handleOut_1_0_indices",
      "componentType": 5123,
      "count": 540,
      "min": [
        0
      ],
      "max": [
        91
      ],
      "type": "SCALAR",
      "bufferView": 1,
      "byteOffset": 1992
    }
  ],
  "asset": {
    "generator": "obj2gltf",
    "version": "2.0"
  },
  "buffers": [
    {
      "name": "openDoor",
      "byteLength": 6312,
      "uri": "data:application/octet-stream;base64,"
    }
  ],
  "bufferViews": [
    {
      "name": "bufferView_0",
      "buffer": 0,
      "byteLength": 3240,
      "byteOffset": 0,
      "byteStride": 12,
      "target": 34962
    },
    {
      "name": "bufferView_1",
      "buffer": 0,
      "byteLength": 3072,
      "byteOffset": 3240,
      "target": 34963
    }
  ],
  "materials": [
    {
      "name": "white",
      "pbrMetallicRoughness": {
        "baseColorFactor": [
          0.5,
          0.5,
          0.5,
          1
        ],
        "metallicFactor": 0,
        "roughnessFactor": 1
      },
      "emissiveFactor": [
        0,
        0,
        0
      ],
      "alphaMode": "OPAQUE",
      "doubleSided": false
    },
    {
      "name": "yellowbrt",
      "pbrMetallicRoughness": {
        "baseColorFactor": [
          0.5,
          0.5,
          0.5,
          1
        ],
        "metallicFactor": 0,
        "roughnessFactor": 1
      },
      "emissiveFactor": [
        0,
        0,
        0
      ],
      "alphaMode": "OPAQUE",
      "doubleSided": false
    }
  ],
  "meshes": [
    {
      "name": "sweethome3d_hinge_1_3_1",
      "primitives": [
        {
          "attributes": {
            "POSITION": 0
          },
          "indices": 1,
          "material": 0,
          "mode": 4
        }
      ]
    },
    {
      "name": "frame_1",
      "primitives": [
        {
          "attributes": {
            "POSITION": 2
          },
          "indices": 3,
          "material": 0,
          "mode": 4
        }
      ]
    },
    {
      "name": "sweethome3d_hinge_1_1_1",
      "primitives": [
        {
          "attributes": {
            "POSITION": 4
          },
          "indices": 5,
          "material": 0,
          "mode": 4
        }
      ]
    },
    {
      "name": "sweethome3d_opening_on_hinge_1_door_1",
      "primitives": [
        {
          "attributes": {
            "POSITION": 6
          },
          "indices": 7,
          "material": 0,
          "mode": 4
        }
      ]
    },
    {
      "name": "sweethome3d_opening_on_hinge_1_handleIn_1",
      "primitives": [
        {
          "attributes": {
            "POSITION": 8
          },
          "indices": 9,
          "material": 1,
          "mode": 4
        }
      ]
    },
    {
      "name": "sweethome3d_hinge_1_2_1",
      "primitives": [
        {
          "attributes": {
            "POSITION": 10
          },
          "indices": 11,
          "material": 0,
          "mode": 4
        }
      ]
    },
    {
      "name": "sweethome3d_opening_on_hinge_1_handleOut_1",
      "primitives": [
        {
          "attributes": {
            "POSITION": 12
          },
          "indices": 13,
          "material": 1,
          "mode": 4
        }
      ]
    }
  ],
  "nodes": [
    {
      "name": "sweethome3d_hinge_1_3",
      "mesh": 0
    },
    {
      "name": "frame",
      "mesh": 1
    },
    {
      "name": "sweethome3d_hinge_1_1",
      "mesh": 2
    },
    {
      "name": "sweethome3d_opening_on_hinge_1_door",
      "mesh": 3
    },
    {
      "name": "sweethome3d_opening_on_hinge_1_handleIn",
      "mesh": 4
    },
    {
      "name": "sweethome3d_hinge_1_2",
      "mesh": 5
    },
    {
      "name": "sweethome3d_opening_on_hinge_1_handleOut",
      "mesh": 6
    }
  ],
  "scene": 0,
  "scenes": [
    {
      "nodes": [
        0,
        1,
        2,
        3,
        4,
        5,
        6
      ]
    }
  ]
}
