{
  "accessors": [
    {
      "name": "Sphere_1_0_positions",
      "componentType": 5126,
      "count": 274,
      "min": [
        -0.29565000534057617,
        -0.6919999718666077,
        -0.29565000534057617
      ],
      "max": [
        0.29565000534057617,
        -0.4871399998664856,
        0.29565000534057617
      ],
      "type": "VEC3",
      "bufferView": 0,
      "byteOffset": 0
    },
    {
      "name": "Sphere_1_0_indices",
      "componentType": 5123,
      "count": 1632,
      "min": [
        0
      ],
      "max": [
        273
      ],
      "type": "SCALAR",
      "bufferView": 1,
      "byteOffset": 0
    },
    {
      "name": "Cable_1_0_positions",
      "componentType": 5126,
      "count": 8,
      "min": [
        -0.004999999888241291,
        -0.49000000953674316,
        -0.004999999888241291
      ],
      "max": [
        0.004999999888241291,
        -0.09000000357627869,
        0.004999999888241291
      ],
      "type": "VEC3",
      "bufferView": 0,
      "byteOffset": 3288
    },
    {
      "name": "Cable_1_0_indices",
      "componentType": 5123,
      "count": 36,
      "min": [
        0
      ],
      "max": [
        7
      ],
      "type": "SCALAR",
      "bufferView": 1,
      "byteOffset": 3264
    },
    {
      "name": "Socle_1_0_positions",
      "componentType": 5126,
      "count": 18,
      "min": [
        -0.10000000149011612,
        -0.10366000235080719,
        -0.10000000149011612
      ],
      "max": [
        0.10000000149011612,
        0.09634000062942505,
        0.10000000149011612
      ],
      "type": "VEC3",
      "bufferView": 0,
      "byteOffset": 3384
    },
    {
      "name": "Socle_1_0_indices",
      "componentType": 5123,
      "count": 96,
      "min": [
        0
      ],
      "max": [
        17
      ],
      "type": "SCALAR",
      "bufferView": 1,
      "byteOffset": 3336
    }
  ],
  "asset": {
    "generator": "obj2gltf",
    "version": "2.0"
  },
  "buffers": [
    {
      "name": "pendantLamp",
      "byteLength": 7128,
      "uri": "data:application/octet-stream;base64,"
    }
  ],
  "bufferViews": [
    {
      "name": "bufferView_0",
      "buffer": 0,
      "byteLength": 3600,
      "byteOffset": 0,
      "byteStride": 12,
      "target": 34962
    },
    {
      "name": "bufferView_1",
      "buffer": 0,
      "byteLength": 3528,
      "byteOffset": 3600,
      "target": 34963
    }
  ],
  "materials": [
    {
      "name": "white",
      "pbrMetallicRoughness": {
        "baseColorFactor": [
          0.5,
          0.5,
          0.5,
          1
        ],
        "metallicFactor": 0,
        "roughnessFactor": 1
      },
      "emissiveFactor": [
        0,
        0,
        0
      ],
      "alphaMode": "OPAQUE",
      "doubleSided": false
    }
  ],
  "meshes": [
    {
      "name": "Sphere_1",
      "primitives": [
        {
          "attributes": {
            "POSITION": 0
          },
          "indices": 1,
          "material": 0,
          "mode": 4
        }
      ]
    },
    {
      "name": "Cable_1",
      "primitives": [
        {
          "attributes": {
            "POSITION": 2
          },
          "indices": 3,
          "material": 0,
          "mode": 4
        }
      ]
    },
    {
      "name": "Socle_1",
      "primitives": [
        {
          "attributes": {
            "POSITION": 4
          },
          "indices": 5,
          "material": 0,
          "mode": 4
        }
      ]
    }
  ],
  "nodes": [
    {
      "name": "Sphere",
      "mesh": 0
    },
    {
      "name": "Cable",
      "mesh": 1
    },
    {
      "name": "Socle",
      "mesh": 2
    }
  ],
  "scene": 0,
  "scenes": [
    {
      "nodes": [
        0,
        1,
        2
      ]
    }
  ]
}
