{
  "accessors": [
    {
      "name": "sweethome3d_unique_rail_1_0_positions",
      "componentType": 5126,
      "count": 4,
      "min": [
        -0.4000000059604645,
        0.16599999368190765,
        -0.09420999884605408
      ],
      "max": [
        0.8100000023841858,
        0.16599999368190765,
        -0.004209999926388264
      ],
      "type": "VEC3",
      "bufferView": 0,
      "byteOffset": 0
    },
    {
      "name": "sweethome3d_unique_rail_1_0_indices",
      "componentType": 5123,
      "count": 6,
      "min": [
        0
      ],
      "max": [
        3
      ],
      "type": "SCALAR",
      "bufferView": 1,
      "byteOffset": 0
    },
    {
      "name": "sweethome3d_opening_on_rail_1_1_0_positions",
      "componentType": 5126,
      "count": 16,
      "min": [
        0.18931999802589417,
        0.164000004529953,
        -0.04699999839067459
      ],
      "max": [
        0.8093199729919434,
        2.1640000343322754,
        -0.007000000216066837
      ],
      "type": "VEC3",
      "bufferView": 0,
      "byteOffset": 48
    },
    {
      "name": "sweethome3d_opening_on_rail_1_1_0_indices",
      "componentType": 5123,
      "count": 96,
      "min": [
        0
      ],
      "max": [
        15
      ],
      "type": "SCALAR",
      "bufferView": 1,
      "byteOffset": 12
    },
    {
      "name": "sweethome3d_opening_on_rail_2_1_0_positions",
      "componentType": 5126,
      "count": 16,
      "min": [
        -0.40011999011039734,
        0.1679999977350235,
        -0.09300000220537186
      ],
      "max": [
        0.21987999975681305,
        2.1679999828338623,
        -0.05299999937415123
      ],
      "type": "VEC3",
      "bufferView": 0,
      "byteOffset": 240
    },
    {
      "name": "sweethome3d_opening_on_rail_2_1_0_indices",
      "componentType": 5123,
      "count": 96,
      "min": [
        0
      ],
      "max": [
        15
      ],
      "type": "SCALAR",
      "bufferView": 1,
      "byteOffset": 204
    },
    {
      "name": "sweethome3d_window_pane_on_rail_2_1_0_positions",
      "componentType": 5126,
      "count": 8,
      "min": [
        -0.3773399889469147,
        0.1943800002336502,
        -0.07800000160932541
      ],
      "max": [
        0.1951799988746643,
        2.1486899852752686,
        -0.06800000369548798
      ],
      "type": "VEC3",
      "bufferView": 0,
      "byteOffset": 432
    },
    {
      "name": "sweethome3d_window_pane_on_rail_2_1_0_indices",
      "componentType": 5123,
      "count": 36,
      "min": [
        0
      ],
      "max": [
        7
      ],
      "type": "SCALAR",
      "bufferView": 1,
      "byteOffset": 396
    },
    {
      "name": "sweethome3d_opening_on_rail_1_handle_1_0_positions",
      "componentType": 5126,
      "count": 92,
      "min": [
        0.19517000019550323,
        0.9458199739456177,
        -0.009820000268518925
      ],
      "max": [
        0.21683000028133392,
        1.0745699405670166,
        0.04913000017404556
      ],
      "type": "VEC3",
      "bufferView": 0,
      "byteOffset": 528
    },
    {
      "name": "sweethome3d_opening_on_rail_1_handle_1_0_indices",
      "componentType": 5123,
      "count": 540,
      "min": [
        0
      ],
      "max": [
        91
      ],
      "type": "SCALAR",
      "bufferView": 1,
      "byteOffset": 468
    },
    {
      "name": "window_frame_1_0_positions",
      "componentType": 5126,
      "count": 18,
      "min": [
        -0.45500001311302185,
        0.10860999673604965,
        -0.27421000599861145
      ],
      "max": [
        0.8650000095367432,
        2.2213900089263916,
        -0.004209999926388264
      ],
      "type": "VEC3",
      "bufferView": 0,
      "byteOffset": 1632
    },
    {
      "name": "window_frame_1_0_indices",
      "componentType": 5123,
      "count": 102,
      "min": [
        0
      ],
      "max": [
        17
      ],
      "type": "SCALAR",
      "bufferView": 1,
      "byteOffset": 1548
    },
    {
      "name": "sweethome3d_window_pane_on_rail_1_1_0_positions",
      "componentType": 5126,
      "count": 8,
      "min": [
        0.20969000458717346,
        0.1932000070810318,
        -0.03200000151991844
      ],
      "max": [
        0.7915899753570557,
        2.1412301063537598,
        -0.02199999988079071
      ],
      "type": "VEC3",
      "bufferView": 0,
      "byteOffset": 1848
    },
    {
      "name": "sweethome3d_window_pane_on_rail_1_1_0_indices",
      "componentType": 5123,
      "count": 36,
      "min": [
        0
      ],
      "max": [
        7
      ],
      "type": "SCALAR",
      "bufferView": 1,
      "byteOffset": 1752
    }
  ],
  "asset": {
    "generator": "obj2gltf",
    "version": "2.0"
  },
  "buffers": [
    {
      "name": "sliderWindow126x200",
      "byteLength": 3768,
      "uri": "data:application/octet-stream;base64,"
    }
  ],
  "bufferViews": [
    {
      "name": "bufferView_0",
      "buffer": 0,
      "byteLength": 1944,
      "byteOffset": 0,
      "byteStride": 12,
      "target": 34962
    },
    {
      "name": "bufferView_1",
      "buffer": 0,
      "byteLength": 1824,
      "byteOffset": 1944,
      "target": 34963
    }
  ],
  "materials": [
    {
      "name": "white",
      "pbrMetallicRoughness": {
        "baseColorFactor": [
          0.5,
          0.5,
          0.5,
          1
        ],
        "metallicFactor": 0,
        "roughnessFactor": 1
      },
      "emissiveFactor": [
        0,
        0,
        0
      ],
      "alphaMode": "OPAQUE",
      "doubleSided": false
    },
    {
      "name": "flltgrey",
      "pbrMetallicRoughness": {
        "baseColorFactor": [
          0.5,
          0.5,
          0.5,
          1
        ],
        "metallicFactor": 0,
        "roughnessFactor": 1
      },
      "emissiveFactor": [
        0,
        0,
        0
      ],
      "alphaMode": "OPAQUE",
      "doubleSided": false
    }
  ],
  "meshes": [
    {
      "name": "sweethome3d_unique_rail_1",
      "primitives": [
        {
          "attributes": {
            "POSITION": 0
          },
          "indices": 1,
          "material": 0,
          "mode": 4
        }
      ]
    },
    {
      "name": "sweethome3d_opening_on_rail_1_1",
      "primitives": [
        {
          "attributes": {
            "POSITION": 2
          },
          "indices": 3,
          "material": 0,
          "mode": 4
        }
      ]
    },
    {
      "name": "sweethome3d_opening_on_rail_2_1",
      "primitives": [
        {
          "attributes": {
            "POSITION": 4
          },
          "indices": 5,
          "material": 0,
          "mode": 4
        }
      ]
    },
    {
      "name": "sweethome3d_window_pane_on_rail_2_1",
      "primitives": [
        {
          "attributes": {
            "POSITION": 6
          },
          "indices": 7,
          "material": 1,
          "mode": 4
        }
      ]
    },
    {
      "name": "sweethome3d_opening_on_rail_1_handle_1",
      "primitives": [
        {
          "attributes": {
            "POSITION": 8
          },
          "indices": 9,
          "material": 0,
          "mode": 4
        }
      ]
    },
    {
      "name": "window_frame_1",
      "primitives": [
        {
          "attributes": {
            "POSITION": 10
          },
          "indices": 11,
          "material": 0,
          "mode": 4
        }
      ]
    },
    {
      "name": "sweethome3d_window_pane_on_rail_1_1",
      "primitives": [
        {
          "attributes": {
            "POSITION": 12
          },
          "indices": 13,
          "material": 1,
          "mode": 4
        }
      ]
    }
  ],
  "nodes": [
    {
      "name": "sweethome3d_unique_rail",
      "mesh": 0
    },
    {
      "name": "sweethome3d_opening_on_rail_1",
      "mesh": 1
    },
    {
      "name": "sweethome3d_opening_on_rail_2",
      "mesh": 2
    },
    {
      "name": "sweethome3d_window_pane_on_rail_2",
      "mesh": 3
    },
    {
      "name": "sweethome3d_opening_on_rail_1_handle",
      "mesh": 4
    },
    {
      "name": "window_frame",
      "mesh": 5
    },
    {
      "name": "sweethome3d_window_pane_on_rail_1",
      "mesh": 6
    }
  ],
  "scene": 0,
  "scenes": [
    {
      "nodes": [
        0,
        1,
        2,
        3,
        4,
        5,
        6
      ]
    }
  ]
}
