{
  "accessors": [
    {
      "name": "Tread_1_0_positions",
      "componentType": 5126,
      "count": 325,
      "min": [
        -0.6998540163040161,
        0.18153800070285797,
        -0.6998540163040161
      ],
      "max": [
        0.6998540163040161,
        2.619999885559082,
        0.6998540163040161
      ],
      "type": "VEC3",
      "bufferView": 0,
      "byteOffset": 0
    },
    {
      "name": "Tread_1_0_indices",
      "componentType": 5123,
      "count": 1794,
      "min": [
        0
      ],
      "max": [
        324
      ],
      "type": "SCALAR",
      "bufferView": 1,
      "byteOffset": 0
    },
    {
      "name": "Riser_1_0_positions",
      "componentType": 5126,
      "count": 156,
      "min": [
        -0.6899589896202087,
        0.1315380036830902,
        -0.6899589896202087
      ],
      "max": [
        0.6899589896202087,
        2.5999999046325684,
        0.6899589896202087
      ],
      "type": "VEC3",
      "bufferView": 0,
      "byteOffset": 3900
    },
    {
      "name": "Riser_1_0_indices",
      "componentType": 5123,
      "count": 546,
      "min": [
        0
      ],
      "max": [
        155
      ],
      "type": "SCALAR",
      "bufferView": 1,
      "byteOffset": 3588
    },
    {
      "name": "Handrail_1_0_positions",
      "componentType": 5126,
      "count": 190,
      "min": [
        -0.6955819725990295,
        0.9595919847488403,
        -0.6967089772224426
      ],
      "max": [
        0.696986973285675,
        3.61958909034729,
        0.6969239711761475
      ],
      "type": "VEC3",
      "bufferView": 0,
      "byteOffset": 5772
    },
    {
      "name": "Handrail_1_0_indices",
      "componentType": 5123,
      "count": 1128,
      "min": [
        0
      ],
      "max": [
        189
      ],
      "type": "SCALAR",
      "bufferView": 1,
      "byteOffset": 4680
    },
    {
      "name": "Baluster_1_0_positions",
      "componentType": 5126,
      "count": 140,
      "min": [
        -0.68927401304245,
        0.19121100008487701,
        -0.68927401304245
      ],
      "max": [
        0.6894869804382324,
        3.5949180126190186,
        0.68927401304245
      ],
      "type": "VEC3",
      "bufferView": 0,
      "byteOffset": 8052
    },
    {
      "name": "Baluster_1_0_indices",
      "componentType": 5123,
      "count": 420,
      "min": [
        0
      ],
      "max": [
        139
      ],
      "type": "SCALAR",
      "bufferView": 1,
      "byteOffset": 6936
    },
    {
      "name": "Pole_1_0_positions",
      "componentType": 5126,
      "count": 32,
      "min": [
        -0.05000000074505806,
        0,
        -0.05000000074505806
      ],
      "max": [
        0.05000000074505806,
        2.622499942779541,
        0.05000000074505806
      ],
      "type": "VEC3",
      "bufferView": 0,
      "byteOffset": 9732
    },
    {
      "name": "Pole_1_0_indices",
      "componentType": 5123,
      "count": 180,
      "min": [
        0
      ],
      "max": [
        31
      ],
      "type": "SCALAR",
      "bufferView": 1,
      "byteOffset": 7776
    }
  ],
  "asset": {
    "generator": "obj2gltf",
    "version": "2.0"
  },
  "buffers": [
    {
      "name": "spiralStaircase",
      "byteLength": 18252,
      "uri": "data:application/octet-stream;base64,"
    }
  ],
  "bufferViews": [
    {
      "name": "bufferView_0",
      "buffer": 0,
      "byteLength": 10116,
      "byteOffset": 0,
      "byteStride": 12,
      "target": 34962
    },
    {
      "name": "bufferView_1",
      "buffer": 0,
      "byteLength": 8136,
      "byteOffset": 10116,
      "target": 34963
    }
  ],
  "materials": [
    {
      "name": "amber",
      "pbrMetallicRoughness": {
        "baseColorFactor": [
          0.5,
          0.5,
          0.5,
          1
        ],
        "metallicFactor": 0,
        "roughnessFactor": 1
      },
      "emissiveFactor": [
        0,
        0,
        0
      ],
      "alphaMode": "OPAQUE",
      "doubleSided": false
    },
    {
      "name": "dkgrey",
      "pbrMetallicRoughness": {
        "baseColorFactor": [
          0.5,
          0.5,
          0.5,
          1
        ],
        "metallicFactor": 0,
        "roughnessFactor": 1
      },
      "emissiveFactor": [
        0,
        0,
        0
      ],
      "alphaMode": "OPAQUE",
      "doubleSided": false
    },
    {
      "name": "lighttan",
      "pbrMetallicRoughness": {
        "baseColorFactor": [
          0.5,
          0.5,
          0.5,
          1
        ],
        "metallicFactor": 0,
        "roughnessFactor": 1
      },
      "emissiveFactor": [
        0,
        0,
        0
      ],
      "alphaMode": "OPAQUE",
      "doubleSided": false
    },
    {
      "name": "grey",
      "pbrMetallicRoughness": {
        "baseColorFactor": [
          0.5,
          0.5,
          0.5,
          1
        ],
        "metallicFactor": 0,
        "roughnessFactor": 1
      },
      "emissiveFactor": [
        0,
        0,
        0
      ],
      "alphaMode": "OPAQUE",
      "doubleSided": false
    },
    {
      "name": "dkdkgrey",
      "pbrMetallicRoughness": {
        "baseColorFactor": [
          0.5,
          0.5,
          0.5,
          1
        ],
        "metallicFactor": 0,
        "roughnessFactor": 1
      },
      "emissiveFactor": [
        0,
        0,
        0
      ],
      "alphaMode": "OPAQUE",
      "doubleSided": false
    }
  ],
  "meshes": [
    {
      "name": "Tread_1",
      "primitives": [
        {
          "attributes": {
            "POSITION": 0
          },
          "indices": 1,
          "material": 0,
          "mode": 4
        }
      ]
    },
    {
      "name": "Riser_1",
      "primitives": [
        {
          "attributes": {
            "POSITION": 2
          },
          "indices": 3,
          "material": 1,
          "mode": 4
        }
      ]
    },
    {
      "name": "Handrail_1",
      "primitives": [
        {
          "attributes": {
            "POSITION": 4
          },
          "indices": 5,
          "material": 2,
          "mode": 4
        }
      ]
    },
    {
      "name": "Baluster_1",
      "primitives": [
        {
          "attributes": {
            "POSITION": 6
          },
          "indices": 7,
          "material": 3,
          "mode": 4
        }
      ]
    },
    {
      "name": "Pole_1",
      "primitives": [
        {
          "attributes": {
            "POSITION": 8
          },
          "indices": 9,
          "material": 4,
          "mode": 4
        }
      ]
    }
  ],
  "nodes": [
    {
      "name": "Tread",
      "mesh": 0
    },
    {
      "name": "Riser",
      "mesh": 1
    },
    {
      "name": "Handrail",
      "mesh": 2
    },
    {
      "name": "Baluster",
      "mesh": 3
    },
    {
      "name": "Pole",
      "mesh": 4
    }
  ],
  "scene": 0,
  "scenes": [
    {
      "nodes": [
        0,
        1,
        2,
        3,
        4
      ]
    }
  ]
}
