{
  "accessors": [
    {
      "name": "sweethome3d_hinge_2_1_0_positions",
      "componentType": 5126,
      "count": 8,
      "min": [
        -0.0020260000601410866,
        0.9818639755249023,
        -0.06495600193738937
      ],
      "max": [
        0.0024739999789744616,
        0.9833639860153198,
        -0.06345599889755249
      ],
      "type": "VEC3",
      "bufferView": 0,
      "byteOffset": 0
    },
    {
      "name": "sweethome3d_hinge_2_1_0_indices",
      "componentType": 5123,
      "count": 36,
      "min": [
        0
      ],
      "max": [
        7
      ],
      "type": "SCALAR",
      "bufferView": 1,
      "byteOffset": 0
    },
    {
      "name": "sweethome3d_opening_on_hinge_2_AttacheBas_1_0_positions",
      "componentType": 5126,
      "count": 9,
      "min": [
        -0.0022799998987466097,
        0.9760860204696655,
        -0.07040899991989136
      ],
      "max": [
        0.0027199999894946814,
        0.9860489964485168,
        -0.060701001435518265
      ],
      "type": "VEC3",
      "bufferView": 0,
      "byteOffset": 96
    },
    {
      "name": "sweethome3d_opening_on_hinge_2_AttacheBas_1_0_indices",
      "componentType": 5123,
      "count": 36,
      "min": [
        0
      ],
      "max": [
        8
      ],
      "type": "SCALAR",
      "bufferView": 1,
      "byteOffset": 72
    },
    {
      "name": "PinceBas_1_0_positions",
      "componentType": 5126,
      "count": 32,
      "min": [
        -0.023399999365210533,
        0.9986799955368042,
        -0.091839998960495
      ],
      "max": [
        0.023649999871850014,
        1.01528000831604,
        -0.00571999978274107
      ],
      "type": "VEC3",
      "bufferView": 0,
      "byteOffset": 204
    },
    {
      "name": "PinceBas_1_0_indices",
      "componentType": 5123,
      "count": 144,
      "min": [
        0
      ],
      "max": [
        31
      ],
      "type": "SCALAR",
      "bufferView": 1,
      "byteOffset": 144
    },
    {
      "name": "AttacheHaut_1_0_positions",
      "componentType": 5126,
      "count": 9,
      "min": [
        -0.0022799998987466097,
        0.9811199903488159,
        -0.0689300000667572
      ],
      "max": [
        0.0027199999894946814,
        1.0011299848556519,
        -0.060582999140024185
      ],
      "type": "VEC3",
      "bufferView": 0,
      "byteOffset": 588
    },
    {
      "name": "AttacheHaut_1_0_indices",
      "componentType": 5123,
      "count": 36,
      "min": [
        0
      ],
      "max": [
        7
      ],
      "type": "SCALAR",
      "bufferView": 1,
      "byteOffset": 432
    },
    {
      "name": "sweethome3d_opening_on_hinge_2_Interrupteur_1_0_positions",
      "componentType": 5126,
      "count": 8,
      "min": [
        -0.0048699998296797276,
        0.9693899750709534,
        -0.0967399999499321
      ],
      "max": [
        0.005539999809116125,
        0.9749699831008911,
        -0.09132999926805496
      ],
      "type": "VEC3",
      "bufferView": 0,
      "byteOffset": 696
    },
    {
      "name": "sweethome3d_opening_on_hinge_2_Interrupteur_1_0_indices",
      "componentType": 5123,
      "count": 36,
      "min": [
        0
      ],
      "max": [
        7
      ],
      "type": "SCALAR",
      "bufferView": 1,
      "byteOffset": 504
    },
    {
      "name": "sweethome3d_hinge_1_1_0_positions",
      "componentType": 5126,
      "count": 8,
      "min": [
        -0.00977999996393919,
        1.012030005455017,
        -0.060759998857975006
      ],
      "max": [
        0.010219999589025974,
        1.0180200338363647,
        -0.05477000027894974
      ],
      "type": "VEC3",
      "bufferView": 0,
      "byteOffset": 792
    },
    {
      "name": "sweethome3d_hinge_1_1_0_indices",
      "componentType": 5123,
      "count": 36,
      "min": [
        0
      ],
      "max": [
        7
      ],
      "type": "SCALAR",
      "bufferView": 1,
      "byteOffset": 576
    },
    {
      "name": "sweethome3d_opening_on_hinge_1_PinceHaut_1_0_positions",
      "componentType": 5126,
      "count": 32,
      "min": [
        -0.023399999365210533,
        1.0142099857330322,
        -0.09171000123023987
      ],
      "max": [
        0.023649999871850014,
        1.030809998512268,
        -0.005590000189840794
      ],
      "type": "VEC3",
      "bufferView": 0,
      "byteOffset": 888
    },
    {
      "name": "sweethome3d_opening_on_hinge_1_PinceHaut_1_0_indices",
      "componentType": 5123,
      "count": 144,
      "min": [
        0
      ],
      "max": [
        31
      ],
      "type": "SCALAR",
      "bufferView": 1,
      "byteOffset": 648
    },
    {
      "name": "sweethome3d_opening_on_hinge_2_Reflecteur_1_0_positions",
      "componentType": 5126,
      "count": 24,
      "min": [
        -0.0326399989426136,
        0.9082199931144714,
        -0.05641999840736389
      ],
      "max": [
        0.03378000110387802,
        0.9560999870300293,
        -0.009600000455975533
      ],
      "type": "VEC3",
      "bufferView": 0,
      "byteOffset": 1272
    },
    {
      "name": "sweethome3d_opening_on_hinge_2_Reflecteur_1_0_indices",
      "componentType": 5123,
      "count": 36,
      "min": [
        0
      ],
      "max": [
        23
      ],
      "type": "SCALAR",
      "bufferView": 1,
      "byteOffset": 936
    },
    {
      "name": "sweethome3d_opening_on_hinge_2_LampSide_1_0_positions",
      "componentType": 5126,
      "count": 98,
      "min": [
        -0.03378000110387802,
        0.8995199799537659,
        -0.09875000268220901
      ],
      "max": [
        0.03480999916791916,
        0.9931100010871887,
        0.00026000000070780516
      ],
      "type": "VEC3",
      "bufferView": 0,
      "byteOffset": 1560
    },
    {
      "name": "sweethome3d_opening_on_hinge_2_LampSide_1_0_indices",
      "componentType": 5123,
      "count": 288,
      "min": [
        0
      ],
      "max": [
        97
      ],
      "type": "SCALAR",
      "bufferView": 1,
      "byteOffset": 1008
    }
  ],
  "asset": {
    "generator": "obj2gltf",
    "version": "2.0"
  },
  "buffers": [
    {
      "name": "spotlight",
      "byteLength": 4320,
      "uri": "data:application/octet-stream;base64,"
    }
  ],
  "bufferViews": [
    {
      "name": "bufferView_0",
      "buffer": 0,
      "byteLength": 2736,
      "byteOffset": 0,
      "byteStride": 12,
      "target": 34962
    },
    {
      "name": "bufferView_1",
      "buffer": 0,
      "byteLength": 1584,
      "byteOffset": 2736,
      "target": 34963
    }
  ],
  "materials": [
    {
      "name": "None",
      "pbrMetallicRoughness": {
        "baseColorFactor": [
          0.5,
          0.5,
          0.5,
          1
        ],
        "metallicFactor": 0,
        "roughnessFactor": 1
      },
      "emissiveFactor": [
        0,
        0,
        0
      ],
      "alphaMode": "OPAQUE",
      "doubleSided": false
    },
    {
      "name": "dkgrey",
      "pbrMetallicRoughness": {
        "baseColorFactor": [
          0.5,
          0.5,
          0.5,
          1
        ],
        "metallicFactor": 0,
        "roughnessFactor": 1
      },
      "emissiveFactor": [
        0,
        0,
        0
      ],
      "alphaMode": "OPAQUE",
      "doubleSided": false
    },
    {
      "name": "red",
      "pbrMetallicRoughness": {
        "baseColorFactor": [
          0.5,
          0.5,
          0.5,
          1
        ],
        "metallicFactor": 0,
        "roughnessFactor": 1
      },
      "emissiveFactor": [
        0,
        0,
        0
      ],
      "alphaMode": "OPAQUE",
      "doubleSided": false
    },
    {
      "name": "silver",
      "pbrMetallicRoughness": {
        "baseColorFactor": [
          0.5,
          0.5,
          0.5,
          1
        ],
        "metallicFactor": 0,
        "roughnessFactor": 1
      },
      "emissiveFactor": [
        0,
        0,
        0
      ],
      "alphaMode": "OPAQUE",
      "doubleSided": false
    }
  ],
  "meshes": [
    {
      "name": "sweethome3d_hinge_2_1",
      "primitives": [
        {
          "attributes": {
            "POSITION": 0
          },
          "indices": 1,
          "material": 0,
          "mode": 4
        }
      ]
    },
    {
      "name": "sweethome3d_opening_on_hinge_2_AttacheBas_1",
      "primitives": [
        {
          "attributes": {
            "POSITION": 2
          },
          "indices": 3,
          "material": 1,
          "mode": 4
        }
      ]
    },
    {
      "name": "PinceBas_1",
      "primitives": [
        {
          "attributes": {
            "POSITION": 4
          },
          "indices": 5,
          "material": 1,
          "mode": 4
        }
      ]
    },
    {
      "name": "AttacheHaut_1",
      "primitives": [
        {
          "attributes": {
            "POSITION": 6
          },
          "indices": 7,
          "material": 1,
          "mode": 4
        }
      ]
    },
    {
      "name": "sweethome3d_opening_on_hinge_2_Interrupteur_1",
      "primitives": [
        {
          "attributes": {
            "POSITION": 8
          },
          "indices": 9,
          "material": 2,
          "mode": 4
        }
      ]
    },
    {
      "name": "sweethome3d_hinge_1_1",
      "primitives": [
        {
          "attributes": {
            "POSITION": 10
          },
          "indices": 11,
          "material": 1,
          "mode": 4
        }
      ]
    },
    {
      "name": "sweethome3d_opening_on_hinge_1_PinceHaut_1",
      "primitives": [
        {
          "attributes": {
            "POSITION": 12
          },
          "indices": 13,
          "material": 1,
          "mode": 4
        }
      ]
    },
    {
      "name": "sweethome3d_opening_on_hinge_2_Reflecteur_1",
      "primitives": [
        {
          "attributes": {
            "POSITION": 14
          },
          "indices": 15,
          "material": 3,
          "mode": 4
        }
      ]
    },
    {
      "name": "sweethome3d_opening_on_hinge_2_LampSide_1",
      "primitives": [
        {
          "attributes": {
            "POSITION": 16
          },
          "indices": 17,
          "material": 1,
          "mode": 4
        }
      ]
    }
  ],
  "nodes": [
    {
      "name": "sweethome3d_hinge_2",
      "mesh": 0
    },
    {
      "name": "sweethome3d_opening_on_hinge_2_AttacheBas",
      "mesh": 1
    },
    {
      "name": "PinceBas",
      "mesh": 2
    },
    {
      "name": "AttacheHaut",
      "mesh": 3
    },
    {
      "name": "sweethome3d_opening_on_hinge_2_Interrupteur",
      "mesh": 4
    },
    {
      "name": "sweethome3d_hinge_1",
      "mesh": 5
    },
    {
      "name": "sweethome3d_opening_on_hinge_1_PinceHaut",
      "mesh": 6
    },
    {
      "name": "sweethome3d_opening_on_hinge_2_Reflecteur",
      "mesh": 7
    },
    {
      "name": "sweethome3d_opening_on_hinge_2_LampSide",
      "mesh": 8
    }
  ],
  "scene": 0,
  "scenes": [
    {
      "nodes": [
        0,
        1,
        2,
        3,
        4,
        5,
        6,
        7,
        8
      ]
    }
  ]
}
