{
  "accessors": [
    {
      "name": "TV_1_0_positions",
      "componentType": 5126,
      "count": 168,
      "min": [
        -0.3611289858818054,
        0.21789999306201935,
        -0.2582460045814514
      ],
      "max": [
        0.36157500743865967,
        0.7328119874000549,
        0.23975099623203278
      ],
      "type": "VEC3",
      "bufferView": 0,
      "byteOffset": 0
    },
    {
      "name": "TV_1_0_indices",
      "componentType": 5123,
      "count": 996,
      "min": [
        0
      ],
      "max": [
        167
      ],
      "type": "SCALAR",
      "bufferView": 1,
      "byteOffset": 0
    },
    {
      "name": "Etagere_1_0_positions",
      "componentType": 5126,
      "count": 8,
      "min": [
        -0.48249998688697815,
        -0.10199999809265137,
        -0.25
      ],
      "max": [
        0.48249998688697815,
        -0.09200000017881393,
        0.25
      ],
      "type": "VEC3",
      "bufferView": 0,
      "byteOffset": 2016
    },
    {
      "name": "Etagere_1_0_indices",
      "componentType": 5123,
      "count": 36,
      "min": [
        0
      ],
      "max": [
        7
      ],
      "type": "SCALAR",
      "bufferView": 1,
      "byteOffset": 1992
    },
    {
      "name": "Montant_1_1_0_positions",
      "componentType": 5126,
      "count": 8,
      "min": [
        -0.48500001430511475,
        -0.20000000298023224,
        -0.25
      ],
      "max": [
        -0.4749999940395355,
        0.20000000298023224,
        0.25
      ],
      "type": "VEC3",
      "bufferView": 0,
      "byteOffset": 2112
    },
    {
      "name": "Montant_1_1_0_indices",
      "componentType": 5123,
      "count": 36,
      "min": [
        0
      ],
      "max": [
        7
      ],
      "type": "SCALAR",
      "bufferView": 1,
      "byteOffset": 2064
    },
    {
      "name": "Etagere_2_1_0_positions",
      "componentType": 5126,
      "count": 8,
      "min": [
        -0.48249998688697815,
        0.04600000008940697,
        -0.25
      ],
      "max": [
        0.48249998688697815,
        0.0560000017285347,
        0.25
      ],
      "type": "VEC3",
      "bufferView": 0,
      "byteOffset": 2208
    },
    {
      "name": "Etagere_2_1_0_indices",
      "componentType": 5123,
      "count": 36,
      "min": [
        0
      ],
      "max": [
        7
      ],
      "type": "SCALAR",
      "bufferView": 1,
      "byteOffset": 2136
    },
    {
      "name": "Etagere_1_1_0_positions",
      "componentType": 5126,
      "count": 8,
      "min": [
        -0.5,
        0.1979999989271164,
        -0.25999999046325684
      ],
      "max": [
        0.5,
        0.21799999475479126,
        0.25999999046325684
      ],
      "type": "VEC3",
      "bufferView": 0,
      "byteOffset": 2304
    },
    {
      "name": "Etagere_1_1_0_indices",
      "componentType": 5123,
      "count": 36,
      "min": [
        0
      ],
      "max": [
        7
      ],
      "type": "SCALAR",
      "bufferView": 1,
      "byteOffset": 2208
    },
    {
      "name": "Montant_1_0_positions",
      "componentType": 5126,
      "count": 8,
      "min": [
        0.4749999940395355,
        -0.20000000298023224,
        -0.25
      ],
      "max": [
        0.48500001430511475,
        0.20000000298023224,
        0.25
      ],
      "type": "VEC3",
      "bufferView": 0,
      "byteOffset": 2400
    },
    {
      "name": "Montant_1_0_indices",
      "componentType": 5123,
      "count": 36,
      "min": [
        0
      ],
      "max": [
        7
      ],
      "type": "SCALAR",
      "bufferView": 1,
      "byteOffset": 2280
    }
  ],
  "asset": {
    "generator": "obj2gltf",
    "version": "2.0"
  },
  "buffers": [
    {
      "name": "tvUnit",
      "byteLength": 4848,
      "uri": "data:application/octet-stream;base64,"
    }
  ],
  "bufferViews": [
    {
      "name": "bufferView_0",
      "buffer": 0,
      "byteLength": 2496,
      "byteOffset": 0,
      "byteStride": 12,
      "target": 34962
    },
    {
      "name": "bufferView_1",
      "buffer": 0,
      "byteLength": 2352,
      "byteOffset": 2496,
      "target": 34963
    }
  ],
  "materials": [
    {
      "name": "grey",
      "pbrMetallicRoughness": {
        "baseColorFactor": [
          0.5,
          0.5,
          0.5,
          1
        ],
        "metallicFactor": 0,
        "roughnessFactor": 1
      },
      "emissiveFactor": [
        0,
        0,
        0
      ],
      "alphaMode": "OPAQUE",
      "doubleSided": false
    },
    {
      "name": "dkgrey",
      "pbrMetallicRoughness": {
        "baseColorFactor": [
          0.5,
          0.5,
          0.5,
          1
        ],
        "metallicFactor": 0,
        "roughnessFactor": 1
      },
      "emissiveFactor": [
        0,
        0,
        0
      ],
      "alphaMode": "OPAQUE",
      "doubleSided": false
    }
  ],
  "meshes": [
    {
      "name": "TV_1",
      "primitives": [
        {
          "attributes": {
            "POSITION": 0
          },
          "indices": 1,
          "material": 0,
          "mode": 4
        }
      ]
    },
    {
      "name": "Etagere_1",
      "primitives": [
        {
          "attributes": {
            "POSITION": 2
          },
          "indices": 3,
          "material": 1,
          "mode": 4
        }
      ]
    },
    {
      "name": "Montant_1_1",
      "primitives": [
        {
          "attributes": {
            "POSITION": 4
          },
          "indices": 5,
          "material": 1,
          "mode": 4
        }
      ]
    },
    {
      "name": "Etagere_2_1",
      "primitives": [
        {
          "attributes": {
            "POSITION": 6
          },
          "indices": 7,
          "material": 1,
          "mode": 4
        }
      ]
    },
    {
      "name": "Etagere_1_1",
      "primitives": [
        {
          "attributes": {
            "POSITION": 8
          },
          "indices": 9,
          "material": 1,
          "mode": 4
        }
      ]
    },
    {
      "name": "Montant_1",
      "primitives": [
        {
          "attributes": {
            "POSITION": 10
          },
          "indices": 11,
          "material": 1,
          "mode": 4
        }
      ]
    }
  ],
  "nodes": [
    {
      "name": "TV",
      "mesh": 0
    },
    {
      "name": "Etagere",
      "mesh": 1
    },
    {
      "name": "Montant_1",
      "mesh": 2
    },
    {
      "name": "Etagere_2",
      "mesh": 3
    },
    {
      "name": "Etagere_1",
      "mesh": 4
    },
    {
      "name": "Montant",
      "mesh": 5
    }
  ],
  "scene": 0,
  "scenes": [
    {
      "nodes": [
        0,
        1,
        2,
        3,
        4,
        5
      ]
    }
  ]
}
