{
  "accessors": [
    {
      "name": "Blanket_Cube.004_1_0_positions",
      "componentType": 5126,
      "count": 342,
      "min": [
        -72.40345001220703,
        -10.419052124023438,
        -65.0994873046875
      ],
      "max": [
        72.21495819091797,
        19.781139373779297,
        98.00205993652344
      ],
      "type": "VEC3",
      "bufferView": 0,
      "byteOffset": 0
    },
    {
      "name": "Blanket_Cube.004_1_0_indices",
      "componentType": 5123,
      "count": 1734,
      "min": [
        0
      ],
      "max": [
        311
      ],
      "type": "SCALAR",
      "bufferView": 1,
      "byteOffset": 0
    },
    {
      "name": "Right_pillow_Cube.003_1_0_positions",
      "componentType": 5126,
      "count": 21,
      "min": [
        3.3076820373535156,
        9.05722427368164,
        -94.14293670654297
      ],
      "max": [
        63.307682037353516,
        19.312240600585938,
        -54.14293670654297
      ],
      "type": "VEC3",
      "bufferView": 0,
      "byteOffset": 4104
    },
    {
      "name": "Right_pillow_Cube.003_1_0_indices",
      "componentType": 5123,
      "count": 120,
      "min": [
        0
      ],
      "max": [
        20
      ],
      "type": "SCALAR",
      "bufferView": 1,
      "byteOffset": 3468
    },
    {
      "name": "Left_pillow_Cube.002_1_0_positions",
      "componentType": 5126,
      "count": 21,
      "min": [
        -63.05388641357422,
        9.05722427368164,
        -94.14293670654297
      ],
      "max": [
        -3.0538859367370605,
        19.312240600585938,
        -54.14293670654297
      ],
      "type": "VEC3",
      "bufferView": 0,
      "byteOffset": 4356
    },
    {
      "name": "Left_pillow_Cube.002_1_0_indices",
      "componentType": 5123,
      "count": 120,
      "min": [
        0
      ],
      "max": [
        20
      ],
      "type": "SCALAR",
      "bufferView": 1,
      "byteOffset": 3708
    },
    {
      "name": "Feet_Cylinder_1_0_positions",
      "componentType": 5126,
      "count": 96,
      "min": [
        -59,
        -33,
        -84
      ],
      "max": [
        59,
        -21,
        84
      ],
      "type": "VEC3",
      "bufferView": 0,
      "byteOffset": 4608
    },
    {
      "name": "Feet_Cylinder_1_0_indices",
      "componentType": 5123,
      "count": 408,
      "min": [
        0
      ],
      "max": [
        95
      ],
      "type": "SCALAR",
      "bufferView": 1,
      "byteOffset": 3948
    },
    {
      "name": "Bed_Cube.001_1_0_positions",
      "componentType": 5126,
      "count": 24,
      "min": [
        -70.16399383544922,
        -21,
        -95.12075805664062
      ],
      "max": [
        70.16399383544922,
        -9,
        95.12075805664062
      ],
      "type": "VEC3",
      "bufferView": 0,
      "byteOffset": 5760
    },
    {
      "name": "Bed_Cube.001_1_0_indices",
      "componentType": 5123,
      "count": 132,
      "min": [
        0
      ],
      "max": [
        23
      ],
      "type": "SCALAR",
      "bufferView": 1,
      "byteOffset": 4764
    },
    {
      "name": "Matress_Cube_1_0_positions",
      "componentType": 5126,
      "count": 24,
      "min": [
        -70.16399383544922,
        -9.000000953674316,
        -95.12076568603516
      ],
      "max": [
        70.16399383544922,
        9.000000953674316,
        95.12076568603516
      ],
      "type": "VEC3",
      "bufferView": 0,
      "byteOffset": 6048
    },
    {
      "name": "Matress_Cube_1_0_indices",
      "componentType": 5123,
      "count": 132,
      "min": [
        0
      ],
      "max": [
        23
      ],
      "type": "SCALAR",
      "bufferView": 1,
      "byteOffset": 5028
    }
  ],
  "asset": {
    "generator": "obj2gltf",
    "version": "2.0"
  },
  "buffers": [
    {
      "name": "bed",
      "byteLength": 11628,
      "uri": "data:application/octet-stream;base64,"
    }
  ],
  "bufferViews": [
    {
      "name": "bufferView_0",
      "buffer": 0,
      "byteLength": 6336,
      "byteOffset": 0,
      "byteStride": 12,
      "target": 34962
    },
    {
      "name": "bufferView_1",
      "buffer": 0,
      "byteLength": 5292,
      "byteOffset": 6336,
      "target": 34963
    }
  ],
  "materials": [
    {
      "name": "flgrey",
      "pbrMetallicRoughness": {
        "baseColorFactor": [
          0.5,
          0.5,
          0.5,
          1
        ],
        "metallicFactor": 0,
        "roughnessFactor": 1
      },
      "emissiveFactor": [
        0,
        0,
        0
      ],
      "alphaMode": "OPAQUE",
      "doubleSided": false
    },
    {
      "name": "ltgrey",
      "pbrMetallicRoughness": {
        "baseColorFactor": [
          0.5,
          0.5,
          0.5,
          1
        ],
        "metallicFactor": 0,
        "roughnessFactor": 1
      },
      "emissiveFactor": [
        0,
        0,
        0
      ],
      "alphaMode": "OPAQUE",
      "doubleSided": false
    },
    {
      "name": "flltbrown",
      "pbrMetallicRoughness": {
        "baseColorFactor": [
          0.5,
          0.5,
          0.5,
          1
        ],
        "metallicFactor": 0,
        "roughnessFactor": 1
      },
      "emissiveFactor": [
        0,
        0,
        0
      ],
      "alphaMode": "OPAQUE",
      "doubleSided": false
    },
    {
      "name": "sand_stone",
      "pbrMetallicRoughness": {
        "baseColorFactor": [
          0.5,
          0.5,
          0.5,
          1
        ],
        "metallicFactor": 0,
        "roughnessFactor": 1
      },
      "emissiveFactor": [
        0,
        0,
        0
      ],
      "alphaMode": "OPAQUE",
      "doubleSided": false
    },
    {
      "name": "flwhite",
      "pbrMetallicRoughness": {
        "baseColorFactor": [
          0.5,
          0.5,
          0.5,
          1
        ],
        "metallicFactor": 0,
        "roughnessFactor": 1
      },
      "emissiveFactor": [
        0,
        0,
        0
      ],
      "alphaMode": "OPAQUE",
      "doubleSided": false
    }
  ],
  "meshes": [
    {
      "name": "Blanket_Cube.004_1",
      "primitives": [
        {
          "attributes": {
            "POSITION": 0
          },
          "indices": 1,
          "material": 0,
          "mode": 4
        }
      ]
    },
    {
      "name": "Right_pillow_Cube.003_1",
      "primitives": [
        {
          "attributes": {
            "POSITION": 2
          },
          "indices": 3,
          "material": 1,
          "mode": 4
        }
      ]
    },
    {
      "name": "Left_pillow_Cube.002_1",
      "primitives": [
        {
          "attributes": {
            "POSITION": 4
          },
          "indices": 5,
          "material": 1,
          "mode": 4
        }
      ]
    },
    {
      "name": "Feet_Cylinder_1",
      "primitives": [
        {
          "attributes": {
            "POSITION": 6
          },
          "indices": 7,
          "material": 2,
          "mode": 4
        }
      ]
    },
    {
      "name": "Bed_Cube.001_1",
      "primitives": [
        {
          "attributes": {
            "POSITION": 8
          },
          "indices": 9,
          "material": 3,
          "mode": 4
        }
      ]
    },
    {
      "name": "Matress_Cube_1",
      "primitives": [
        {
          "attributes": {
            "POSITION": 10
          },
          "indices": 11,
          "material": 4,
          "mode": 4
        }
      ]
    }
  ],
  "nodes": [
    {
      "name": "Blanket_Cube.004",
      "mesh": 0
    },
    {
      "name": "Right_pillow_Cube.003",
      "mesh": 1
    },
    {
      "name": "Left_pillow_Cube.002",
      "mesh": 2
    },
    {
      "name": "Feet_Cylinder",
      "mesh": 3
    },
    {
      "name": "Bed_Cube.001",
      "mesh": 4
    },
    {
      "name": "Matress_Cube",
      "mesh": 5
    }
  ],
  "scene": 0,
  "scenes": [
    {
      "nodes": [
        0,
        1,
        2,
        3,
        4,
        5
      ]
    }
  ]
}
