{
  "accessors": [
    {
      "name": "Pied_1_0_positions",
      "componentType": 5126,
      "count": 32,
      "min": [
        0.6898249983787537,
        -0.47986701130867004,
        -1.0398900508880615
      ],
      "max": [
        0.8098260164260864,
        0.2201489955186844,
        -0.9198899865150452
      ],
      "type": "VEC3",
      "bufferView": 0,
      "byteOffset": 0
    },
    {
      "name": "Pied_1_0_indices",
      "componentType": 5123,
      "count": 180,
      "min": [
        0
      ],
      "max": [
        31
      ],
      "type": "SCALAR",
      "bufferView": 1,
      "byteOffset": 0
    },
    {
      "name": "Pied_3_1_0_positions",
      "componentType": 5126,
      "count": 32,
      "min": [
        0.6898249983787537,
        -0.47986701130867004,
        0.9202690124511719
      ],
      "max": [
        0.8098260164260864,
        0.005071999970823526,
        1.0402690172195435
      ],
      "type": "VEC3",
      "bufferView": 0,
      "byteOffset": 384
    },
    {
      "name": "Pied_3_1_0_indices",
      "componentType": 5123,
      "count": 180,
      "min": [
        0
      ],
      "max": [
        31
      ],
      "type": "SCALAR",
      "bufferView": 1,
      "byteOffset": 360
    },
    {
      "name": "Bord_3_1_0_positions",
      "componentType": 5126,
      "count": 8,
      "min": [
        -0.7448750138282776,
        -0.30000001192092896,
        -1.0099999904632568
      ],
      "max": [
        -0.6948750019073486,
        -0.05999999865889549,
        1
      ],
      "type": "VEC3",
      "bufferView": 0,
      "byteOffset": 768
    },
    {
      "name": "Bord_3_1_0_indices",
      "componentType": 5123,
      "count": 36,
      "min": [
        0
      ],
      "max": [
        7
      ],
      "type": "SCALAR",
      "bufferView": 1,
      "byteOffset": 720
    },
    {
      "name": "Pied_1_1_0_positions",
      "componentType": 5126,
      "count": 32,
      "min": [
        -0.770147979259491,
        -0.47986701130867004,
        -1.0398900508880615
      ],
      "max": [
        -0.6501479744911194,
        0.2201489955186844,
        -0.9198899865150452
      ],
      "type": "VEC3",
      "bufferView": 0,
      "byteOffset": 864
    },
    {
      "name": "Pied_1_1_0_indices",
      "componentType": 5123,
      "count": 180,
      "min": [
        0
      ],
      "max": [
        31
      ],
      "type": "SCALAR",
      "bufferView": 1,
      "byteOffset": 792
    },
    {
      "name": "Pied_2_1_0_positions",
      "componentType": 5126,
      "count": 32,
      "min": [
        -0.770147979259491,
        -0.47986701130867004,
        0.9202690124511719
      ],
      "max": [
        -0.6501479744911194,
        0.005499000195413828,
        1.0402690172195435
      ],
      "type": "VEC3",
      "bufferView": 0,
      "byteOffset": 1248
    },
    {
      "name": "Pied_2_1_0_indices",
      "componentType": 5123,
      "count": 180,
      "min": [
        0
      ],
      "max": [
        31
      ],
      "type": "SCALAR",
      "bufferView": 1,
      "byteOffset": 1152
    },
    {
      "name": "Matelas_1_0_positions",
      "componentType": 5126,
      "count": 96,
      "min": [
        -0.689985990524292,
        -0.19039300084114075,
        -0.9500889778137207
      ],
      "max": [
        0.7100139856338501,
        -0.000391999987186864,
        0.9479110240936279
      ],
      "type": "VEC3",
      "bufferView": 0,
      "byteOffset": 1632
    },
    {
      "name": "Matelas_1_0_indices",
      "componentType": 5123,
      "count": 564,
      "min": [
        0
      ],
      "max": [
        95
      ],
      "type": "SCALAR",
      "bufferView": 1,
      "byteOffset": 1512
    },
    {
      "name": "Bord_2_1_0_positions",
      "componentType": 5126,
      "count": 8,
      "min": [
        0.714917004108429,
        -0.30000001192092896,
        -1.0099999904632568
      ],
      "max": [
        0.7649170160293579,
        -0.05999999865889549,
        1
      ],
      "type": "VEC3",
      "bufferView": 0,
      "byteOffset": 2784
    },
    {
      "name": "Bord_2_1_0_indices",
      "componentType": 5123,
      "count": 36,
      "min": [
        0
      ],
      "max": [
        7
      ],
      "type": "SCALAR",
      "bufferView": 1,
      "byteOffset": 2640
    },
    {
      "name": "Bord_1_0_positions",
      "componentType": 5126,
      "count": 8,
      "min": [
        -0.7495369911193848,
        -0.30000001192092896,
        -1.0049999952316284
      ],
      "max": [
        0.7695800065994263,
        0.15000000596046448,
        -0.9549999833106995
      ],
      "type": "VEC3",
      "bufferView": 0,
      "byteOffset": 2880
    },
    {
      "name": "Bord_1_0_indices",
      "componentType": 5123,
      "count": 36,
      "min": [
        0
      ],
      "max": [
        7
      ],
      "type": "SCALAR",
      "bufferView": 1,
      "byteOffset": 2712
    },
    {
      "name": "Bord_1_1_0_positions",
      "componentType": 5126,
      "count": 8,
      "min": [
        -0.75,
        -0.30000001192092896,
        0.9549999833106995
      ],
      "max": [
        0.7699999809265137,
        -0.05999999865889549,
        1.0049999952316284
      ],
      "type": "VEC3",
      "bufferView": 0,
      "byteOffset": 2976
    },
    {
      "name": "Bord_1_1_0_indices",
      "componentType": 5123,
      "count": 36,
      "min": [
        0
      ],
      "max": [
        7
      ],
      "type": "SCALAR",
      "bufferView": 1,
      "byteOffset": 2784
    }
  ],
  "asset": {
    "generator": "obj2gltf",
    "version": "2.0"
  },
  "buffers": [
    {
      "name": "bed140x190",
      "byteLength": 5928,
      "uri": "data:application/octet-stream;base64,"
    }
  ],
  "bufferViews": [
    {
      "name": "bufferView_0",
      "buffer": 0,
      "byteLength": 3072,
      "byteOffset": 0,
      "byteStride": 12,
      "target": 34962
    },
    {
      "name": "bufferView_1",
      "buffer": 0,
      "byteLength": 2856,
      "byteOffset": 3072,
      "target": 34963
    }
  ],
  "materials": [
    {
      "name": "flyellow",
      "pbrMetallicRoughness": {
        "baseColorFactor": [
          0.5,
          0.5,
          0.5,
          1
        ],
        "metallicFactor": 0,
        "roughnessFactor": 1
      },
      "emissiveFactor": [
        0,
        0,
        0
      ],
      "alphaMode": "OPAQUE",
      "doubleSided": false
    },
    {
      "name": "bone2",
      "pbrMetallicRoughness": {
        "baseColorFactor": [
          0.5,
          0.5,
          0.5,
          1
        ],
        "metallicFactor": 0,
        "roughnessFactor": 1
      },
      "emissiveFactor": [
        0,
        0,
        0
      ],
      "alphaMode": "OPAQUE",
      "doubleSided": false
    }
  ],
  "meshes": [
    {
      "name": "Pied_1",
      "primitives": [
        {
          "attributes": {
            "POSITION": 0
          },
          "indices": 1,
          "material": 0,
          "mode": 4
        }
      ]
    },
    {
      "name": "Pied_3_1",
      "primitives": [
        {
          "attributes": {
            "POSITION": 2
          },
          "indices": 3,
          "material": 0,
          "mode": 4
        }
      ]
    },
    {
      "name": "Bord_3_1",
      "primitives": [
        {
          "attributes": {
            "POSITION": 4
          },
          "indices": 5,
          "material": 0,
          "mode": 4
        }
      ]
    },
    {
      "name": "Pied_1_1",
      "primitives": [
        {
          "attributes": {
            "POSITION": 6
          },
          "indices": 7,
          "material": 0,
          "mode": 4
        }
      ]
    },
    {
      "name": "Pied_2_1",
      "primitives": [
        {
          "attributes": {
            "POSITION": 8
          },
          "indices": 9,
          "material": 0,
          "mode": 4
        }
      ]
    },
    {
      "name": "Matelas_1",
      "primitives": [
        {
          "attributes": {
            "POSITION": 10
          },
          "indices": 11,
          "material": 1,
          "mode": 4
        }
      ]
    },
    {
      "name": "Bord_2_1",
      "primitives": [
        {
          "attributes": {
            "POSITION": 12
          },
          "indices": 13,
          "material": 0,
          "mode": 4
        }
      ]
    },
    {
      "name": "Bord_1",
      "primitives": [
        {
          "attributes": {
            "POSITION": 14
          },
          "indices": 15,
          "material": 0,
          "mode": 4
        }
      ]
    },
    {
      "name": "Bord_1_1",
      "primitives": [
        {
          "attributes": {
            "POSITION": 16
          },
          "indices": 17,
          "material": 0,
          "mode": 4
        }
      ]
    }
  ],
  "nodes": [
    {
      "name": "Pied",
      "mesh": 0
    },
    {
      "name": "Pied_3",
      "mesh": 1
    },
    {
      "name": "Bord_3",
      "mesh": 2
    },
    {
      "name": "Pied_1",
      "mesh": 3
    },
    {
      "name": "Pied_2",
      "mesh": 4
    },
    {
      "name": "Matelas",
      "mesh": 5
    },
    {
      "name": "Bord_2",
      "mesh": 6
    },
    {
      "name": "Bord",
      "mesh": 7
    },
    {
      "name": "Bord_1",
      "mesh": 8
    }
  ],
  "scene": 0,
  "scenes": [
    {
      "nodes": [
        0,
        1,
        2,
        3,
        4,
        5,
        6,
        7,
        8
      ]
    }
  ]
}
