{
  "accessors": [
    {
      "name": "Assise_&_Dossier_2_1_0_positions",
      "componentType": 5126,
      "count": 1300,
      "min": [
        0.4916599988937378,
        -0.7171329855918884,
        -1.774672031402588
      ],
      "max": [
        2.038330078125,
        1.095317006111145,
        0.29063698649406433
      ],
      "type": "VEC3",
      "bufferView": 0,
      "byteOffset": 0
    },
    {
      "name": "Assise_&_Dossier_2_1_0_indices",
      "componentType": 5123,
      "count": 7293,
      "min": [
        0
      ],
      "max": [
        1299
      ],
      "type": "SCALAR",
      "bufferView": 1,
      "byteOffset": 0
    },
    {
      "name": "Assise_&_Dossier_1_0_positions",
      "componentType": 5126,
      "count": 672,
      "min": [
        -2.5281929969787598,
        -0.7158799767494202,
        -1.7948440313339233
      ],
      "max": [
        -0.9704830050468445,
        1.0933619737625122,
        0.2997260093688965
      ],
      "type": "VEC3",
      "bufferView": 0,
      "byteOffset": 15600
    },
    {
      "name": "Assise_&_Dossier_1_0_indices",
      "componentType": 5123,
      "count": 3666,
      "min": [
        0
      ],
      "max": [
        671
      ],
      "type": "SCALAR",
      "bufferView": 1,
      "byteOffset": 14588
    },
    {
      "name": "Accoudoir_1_0_positions",
      "componentType": 5126,
      "count": 658,
      "min": [
        -2.6620330810546875,
        -0.901449978351593,
        -1.6477340459823608
      ],
      "max": [
        -2.344012975692749,
        0.244609996676445,
        0.20974600315093994
      ],
      "type": "VEC3",
      "bufferView": 0,
      "byteOffset": 23664
    },
    {
      "name": "Accoudoir_1_0_indices",
      "componentType": 5123,
      "count": 3936,
      "min": [
        0
      ],
      "max": [
        657
      ],
      "type": "SCALAR",
      "bufferView": 1,
      "byteOffset": 21920
    },
    {
      "name": "Assise_&_Dossier_3_1_0_positions",
      "componentType": 5126,
      "count": 1296,
      "min": [
        0.6168500185012817,
        -0.7170600295066833,
        -1.1261999607086182
      ],
      "max": [
        2.682159900665283,
        1.09538996219635,
        0.4204699993133545
      ],
      "type": "VEC3",
      "bufferView": 0,
      "byteOffset": 31560
    },
    {
      "name": "Assise_&_Dossier_3_1_0_indices",
      "componentType": 5123,
      "count": 7269,
      "min": [
        0
      ],
      "max": [
        1295
      ],
      "type": "SCALAR",
      "bufferView": 1,
      "byteOffset": 29792
    },
    {
      "name": "Assise_&_Dossier_4_1_0_positions",
      "componentType": 5126,
      "count": 704,
      "min": [
        0.606673002243042,
        -0.7158799767494202,
        0.3466390073299408
      ],
      "max": [
        2.701241970062256,
        1.0933619737625122,
        1.9165380001068115
      ],
      "type": "VEC3",
      "bufferView": 0,
      "byteOffset": 47112
    },
    {
      "name": "Assise_&_Dossier_4_1_0_indices",
      "componentType": 5123,
      "count": 3819,
      "min": [
        0
      ],
      "max": [
        703
      ],
      "type": "SCALAR",
      "bufferView": 1,
      "byteOffset": 44332
    },
    {
      "name": "Accoudoir_1_1_0_positions",
      "componentType": 5126,
      "count": 658,
      "min": [
        0.6880829930305481,
        -0.901449978351593,
        1.7546520233154297
      ],
      "max": [
        2.545562982559204,
        0.244609996676445,
        2.072671890258789
      ],
      "type": "VEC3",
      "bufferView": 0,
      "byteOffset": 55560
    },
    {
      "name": "Accoudoir_1_1_0_indices",
      "componentType": 5123,
      "count": 3936,
      "min": [
        0
      ],
      "max": [
        657
      ],
      "type": "SCALAR",
      "bufferView": 1,
      "byteOffset": 51972
    },
    {
      "name": "Pied_1_0_positions",
      "componentType": 5126,
      "count": 382,
      "min": [
        0.6698740124702454,
        -0.9016759991645813,
        -0.8927879929542542
      ],
      "max": [
        1.7912030220031738,
        -0.6048719882965088,
        0.22854100167751312
      ],
      "type": "VEC3",
      "bufferView": 0,
      "byteOffset": 63456
    },
    {
      "name": "Pied_1_0_indices",
      "componentType": 5123,
      "count": 2184,
      "min": [
        0
      ],
      "max": [
        381
      ],
      "type": "SCALAR",
      "bufferView": 1,
      "byteOffset": 59844
    },
    {
      "name": "Assise_&_Dossier_1_1_0_positions",
      "componentType": 5126,
      "count": 699,
      "min": [
        -1.0157229900360107,
        -0.7158799767494202,
        -1.7940499782562256
      ],
      "max": [
        0.5431270003318787,
        1.0933619737625122,
        0.30052000284194946
      ],
      "type": "VEC3",
      "bufferView": 0,
      "byteOffset": 68040
    },
    {
      "name": "Assise_&_Dossier_1_1_0_indices",
      "componentType": 5123,
      "count": 3819,
      "min": [
        0
      ],
      "max": [
        698
      ],
      "type": "SCALAR",
      "bufferView": 1,
      "byteOffset": 64212
    }
  ],
  "asset": {
    "generator": "obj2gltf",
    "version": "2.0"
  },
  "buffers": [
    {
      "name": "cornerSofa",
      "byteLength": 148280,
      "uri": "data:application/octet-stream;base64,"
    }
  ],
  "bufferViews": [
    {
      "name": "bufferView_0",
      "buffer": 0,
      "byteLength": 76428,
      "byteOffset": 0,
      "byteStride": 12,
      "target": 34962
    },
    {
      "name": "bufferView_1",
      "buffer": 0,
      "byteLength": 71852,
      "byteOffset": 76428,
      "target": 34963
    }
  ],
  "materials": [
    {
      "name": "iris",
      "pbrMetallicRoughness": {
        "baseColorFactor": [
          0.5,
          0.5,
          0.5,
          1
        ],
        "metallicFactor": 0,
        "roughnessFactor": 1
      },
      "emissiveFactor": [
        0,
        0,
        0
      ],
      "alphaMode": "OPAQUE",
      "doubleSided": false
    }
  ],
  "meshes": [
    {
      "name": "Assise_&_Dossier_2_1",
      "primitives": [
        {
          "attributes": {
            "POSITION": 0
          },
          "indices": 1,
          "material": 0,
          "mode": 4
        }
      ]
    },
    {
      "name": "Assise_&_Dossier_1",
      "primitives": [
        {
          "attributes": {
            "POSITION": 2
          },
          "indices": 3,
          "material": 0,
          "mode": 4
        }
      ]
    },
    {
      "name": "Accoudoir_1",
      "primitives": [
        {
          "attributes": {
            "POSITION": 4
          },
          "indices": 5,
          "material": 0,
          "mode": 4
        }
      ]
    },
    {
      "name": "Assise_&_Dossier_3_1",
      "primitives": [
        {
          "attributes": {
            "POSITION": 6
          },
          "indices": 7,
          "material": 0,
          "mode": 4
        }
      ]
    },
    {
      "name": "Assise_&_Dossier_4_1",
      "primitives": [
        {
          "attributes": {
            "POSITION": 8
          },
          "indices": 9,
          "material": 0,
          "mode": 4
        }
      ]
    },
    {
      "name": "Accoudoir_1_1",
      "primitives": [
        {
          "attributes": {
            "POSITION": 10
          },
          "indices": 11,
          "material": 0,
          "mode": 4
        }
      ]
    },
    {
      "name": "Pied_1",
      "primitives": [
        {
          "attributes": {
            "POSITION": 12
          },
          "indices": 13,
          "material": 0,
          "mode": 4
        }
      ]
    },
    {
      "name": "Assise_&_Dossier_1_1",
      "primitives": [
        {
          "attributes": {
            "POSITION": 14
          },
          "indices": 15,
          "material": 0,
          "mode": 4
        }
      ]
    }
  ],
  "nodes": [
    {
      "name": "Assise_&_Dossier_2",
      "mesh": 0
    },
    {
      "name": "Assise_&_Dossier",
      "mesh": 1
    },
    {
      "name": "Accoudoir",
      "mesh": 2
    },
    {
      "name": "Assise_&_Dossier_3",
      "mesh": 3
    },
    {
      "name": "Assise_&_Dossier_4",
      "mesh": 4
    },
    {
      "name": "Accoudoir_1",
      "mesh": 5
    },
    {
      "name": "Pied",
      "mesh": 6
    },
    {
      "name": "Assise_&_Dossier_1",
      "mesh": 7
    }
  ],
  "scene": 0,
  "scenes": [
    {
      "nodes": [
        0,
        1,
        2,
        3,
        4,
        5,
        6,
        7
      ]
    }
  ]
}
