{
  "accessors": [
    {
      "name": "sweethome3d_window_pane_on_hinge_1_1_0_positions",
      "componentType": 5126,
      "count": 8,
      "min": [
        -0.4455550014972687,
        1.0125559568405151,
        0.03588800132274628
      ],
      "max": [
        -0.08100300282239914,
        2.0825560092926025,
        0.04588799923658371
      ],
      "type": "VEC3",
      "bufferView": 0,
      "byteOffset": 0
    },
    {
      "name": "sweethome3d_window_pane_on_hinge_1_1_0_indices",
      "componentType": 5123,
      "count": 36,
      "min": [
        0
      ],
      "max": [
        7
      ],
      "type": "SCALAR",
      "bufferView": 1,
      "byteOffset": 0
    },
    {
      "name": "sweethome3d_opening_on_hinge_1_handles_1_0_positions",
      "componentType": 5126,
      "count": 98,
      "min": [
        -0.05937099829316139,
        1.1510729789733887,
        0.07141199707984924
      ],
      "max": [
        -0.042805999517440796,
        1.9495749473571777,
        0.11300700157880783
      ],
      "type": "VEC3",
      "bufferView": 0,
      "byteOffset": 96
    },
    {
      "name": "sweethome3d_opening_on_hinge_1_handles_1_0_indices",
      "componentType": 5123,
      "count": 564,
      "min": [
        0
      ],
      "max": [
        97
      ],
      "type": "SCALAR",
      "bufferView": 1,
      "byteOffset": 72
    },
    {
      "name": "sweethome3d_hinge_2_1_0_positions",
      "componentType": 5126,
      "count": 32,
      "min": [
        0.509630024433136,
        1.121999979019165,
        0.0052640000358223915
      ],
      "max": [
        0.5196700096130371,
        1.9943300485610962,
        0.015263999812304974
      ],
      "type": "VEC3",
      "bufferView": 0,
      "byteOffset": 1272
    },
    {
      "name": "sweethome3d_hinge_2_1_0_indices",
      "componentType": 5123,
      "count": 168,
      "min": [
        0
      ],
      "max": [
        31
      ],
      "type": "SCALAR",
      "bufferView": 1,
      "byteOffset": 1200
    },
    {
      "name": "sweethome3d_opening_on_hinge_2_handles_1_0_positions",
      "componentType": 5126,
      "count": 98,
      "min": [
        0.04337799921631813,
        1.1510729789733887,
        0.07141199707984924
      ],
      "max": [
        0.059943001717329025,
        1.9495749473571777,
        0.11300700157880783
      ],
      "type": "VEC3",
      "bufferView": 0,
      "byteOffset": 1656
    },
    {
      "name": "sweethome3d_opening_on_hinge_2_handles_1_0_indices",
      "componentType": 5123,
      "count": 564,
      "min": [
        0
      ],
      "max": [
        97
      ],
      "type": "SCALAR",
      "bufferView": 1,
      "byteOffset": 1536
    },
    {
      "name": "sweethome3d_opening_on_hinge_1_muntinIn_1_0_positions",
      "componentType": 5126,
      "count": 24,
      "min": [
        -0.44587400555610657,
        1.3569999933242798,
        0.041517000645399094
      ],
      "max": [
        -0.0830409973859787,
        1.736899971961975,
        0.05555199831724167
      ],
      "type": "VEC3",
      "bufferView": 0,
      "byteOffset": 2832
    },
    {
      "name": "sweethome3d_opening_on_hinge_1_muntinIn_1_0_indices",
      "componentType": 5123,
      "count": 120,
      "min": [
        0
      ],
      "max": [
        23
      ],
      "type": "SCALAR",
      "bufferView": 1,
      "byteOffset": 2664
    },
    {
      "name": "sweethome3d_opening_on_hinge_2_muntinOut_1_0_positions",
      "componentType": 5126,
      "count": 24,
      "min": [
        0.08126000314950943,
        1.3569999933242798,
        0.02555200085043907
      ],
      "max": [
        0.4440929889678955,
        1.736899971961975,
        0.041517000645399094
      ],
      "type": "VEC3",
      "bufferView": 0,
      "byteOffset": 3120
    },
    {
      "name": "sweethome3d_opening_on_hinge_2_muntinOut_1_0_indices",
      "componentType": 5123,
      "count": 120,
      "min": [
        0
      ],
      "max": [
        23
      ],
      "type": "SCALAR",
      "bufferView": 1,
      "byteOffset": 2904
    },
    {
      "name": "sweethome3d_opening_on_hinge_1_out_1_0_positions",
      "componentType": 5126,
      "count": 24,
      "min": [
        -0.5174509882926941,
        0.9438989758491516,
        0.01116899959743023
      ],
      "max": [
        -0.010758000425994396,
        2.1508989334106445,
        0.041517000645399094
      ],
      "type": "VEC3",
      "bufferView": 0,
      "byteOffset": 3408
    },
    {
      "name": "sweethome3d_opening_on_hinge_1_out_1_0_indices",
      "componentType": 5123,
      "count": 144,
      "min": [
        0
      ],
      "max": [
        23
      ],
      "type": "SCALAR",
      "bufferView": 1,
      "byteOffset": 3144
    },
    {
      "name": "sweethome3d_opening_on_hinge_1_in_1_0_positions",
      "componentType": 5126,
      "count": 24,
      "min": [
        -0.5174509882926941,
        0.9438989758491516,
        0.041517000645399094
      ],
      "max": [
        -0.01075000036507845,
        2.1508989334106445,
        0.07117000222206116
      ],
      "type": "VEC3",
      "bufferView": 0,
      "byteOffset": 3696
    },
    {
      "name": "sweethome3d_opening_on_hinge_1_in_1_0_indices",
      "componentType": 5123,
      "count": 144,
      "min": [
        0
      ],
      "max": [
        23
      ],
      "type": "SCALAR",
      "bufferView": 1,
      "byteOffset": 3432
    },
    {
      "name": "SeparatorOut_1_0_positions",
      "componentType": 5126,
      "count": 8,
      "min": [
        -0.009999999776482582,
        0.94234699010849,
        0.011029999703168869
      ],
      "max": [
        0.009999999776482582,
        2.1530380249023438,
        0.041517000645399094
      ],
      "type": "VEC3",
      "bufferView": 0,
      "byteOffset": 3984
    },
    {
      "name": "SeparatorOut_1_0_indices",
      "componentType": 5123,
      "count": 18,
      "min": [
        0
      ],
      "max": [
        7
      ],
      "type": "SCALAR",
      "bufferView": 1,
      "byteOffset": 3720
    },
    {
      "name": "SeparatorIn_1_0_positions",
      "componentType": 5126,
      "count": 16,
      "min": [
        -0.019999999552965164,
        0.9423459768295288,
        0.041517000645399094
      ],
      "max": [
        0.019999999552965164,
        2.1530380249023438,
        0.0811849981546402
      ],
      "type": "VEC3",
      "bufferView": 0,
      "byteOffset": 4080
    },
    {
      "name": "SeparatorIn_1_0_indices",
      "componentType": 5123,
      "count": 42,
      "min": [
        0
      ],
      "max": [
        15
      ],
      "type": "SCALAR",
      "bufferView": 1,
      "byteOffset": 3756
    },
    {
      "name": "sweethome3d_opening_on_hinge_2_out_1_0_positions",
      "componentType": 5126,
      "count": 24,
      "min": [
        0.010692999698221684,
        0.9438989758491516,
        0.01116899959743023
      ],
      "max": [
        0.5144490003585815,
        2.150899887084961,
        0.041517000645399094
      ],
      "type": "VEC3",
      "bufferView": 0,
      "byteOffset": 4272
    },
    {
      "name": "sweethome3d_opening_on_hinge_2_out_1_0_indices",
      "componentType": 5123,
      "count": 144,
      "min": [
        0
      ],
      "max": [
        23
      ],
      "type": "SCALAR",
      "bufferView": 1,
      "byteOffset": 3840
    },
    {
      "name": "CageOut_1_0_positions",
      "componentType": 5126,
      "count": 40,
      "min": [
        -0.5763720273971558,
        0.8740000128746033,
        0.004207000136375427
      ],
      "max": [
        0.5756279826164246,
        2.2139999866485596,
        0.041517000645399094
      ],
      "type": "VEC3",
      "bufferView": 0,
      "byteOffset": 4560
    },
    {
      "name": "CageOut_1_0_indices",
      "componentType": 5123,
      "count": 240,
      "min": [
        0
      ],
      "max": [
        39
      ],
      "type": "SCALAR",
      "bufferView": 1,
      "byteOffset": 4128
    },
    {
      "name": "sweethome3d_opening_on_hinge_1_muntinOut_1_0_positions",
      "componentType": 5126,
      "count": 24,
      "min": [
        -0.44587400555610657,
        1.3569999933242798,
        0.02555200085043907
      ],
      "max": [
        -0.0830409973859787,
        1.736899971961975,
        0.041517000645399094
      ],
      "type": "VEC3",
      "bufferView": 0,
      "byteOffset": 5040
    },
    {
      "name": "sweethome3d_opening_on_hinge_1_muntinOut_1_0_indices",
      "componentType": 5123,
      "count": 120,
      "min": [
        0
      ],
      "max": [
        23
      ],
      "type": "SCALAR",
      "bufferView": 1,
      "byteOffset": 4608
    },
    {
      "name": "sweethome3d_opening_on_hinge_2_muntinIn_1_0_positions",
      "componentType": 5126,
      "count": 24,
      "min": [
        0.08126000314950943,
        1.3569999933242798,
        0.041517000645399094
      ],
      "max": [
        0.4440929889678955,
        1.736899971961975,
        0.05555199831724167
      ],
      "type": "VEC3",
      "bufferView": 0,
      "byteOffset": 5328
    },
    {
      "name": "sweethome3d_opening_on_hinge_2_muntinIn_1_0_indices",
      "componentType": 5123,
      "count": 120,
      "min": [
        0
      ],
      "max": [
        23
      ],
      "type": "SCALAR",
      "bufferView": 1,
      "byteOffset": 4848
    },
    {
      "name": "sweethome3d_opening_on_hinge_2_in_1_0_positions",
      "componentType": 5126,
      "count": 24,
      "min": [
        0.010708999820053577,
        0.9438989758491516,
        0.041517000645399094
      ],
      "max": [
        0.5144490003585815,
        2.150899887084961,
        0.07117000222206116
      ],
      "type": "VEC3",
      "bufferView": 0,
      "byteOffset": 5616
    },
    {
      "name": "sweethome3d_opening_on_hinge_2_in_1_0_indices",
      "componentType": 5123,
      "count": 144,
      "min": [
        0
      ],
      "max": [
        23
      ],
      "type": "SCALAR",
      "bufferView": 1,
      "byteOffset": 5088
    },
    {
      "name": "CageIn_1_0_positions",
      "componentType": 5126,
      "count": 48,
      "min": [
        -0.5763720273971558,
        0.8740000128746033,
        0.041517000645399094
      ],
      "max": [
        0.5756279826164246,
        2.2139999866485596,
        0.26420700550079346
      ],
      "type": "VEC3",
      "bufferView": 0,
      "byteOffset": 5904
    },
    {
      "name": "CageIn_1_0_indices",
      "componentType": 5123,
      "count": 288,
      "min": [
        0
      ],
      "max": [
        47
      ],
      "type": "SCALAR",
      "bufferView": 1,
      "byteOffset": 5376
    },
    {
      "name": "sweethome3d_hinge_1_1_0_positions",
      "componentType": 5126,
      "count": 32,
      "min": [
        -0.5216000080108643,
        1.121999979019165,
        0.0052629997953772545
      ],
      "max": [
        -0.5115600228309631,
        1.9943300485610962,
        0.015263999812304974
      ],
      "type": "VEC3",
      "bufferView": 0,
      "byteOffset": 6480
    },
    {
      "name": "sweethome3d_hinge_1_1_0_indices",
      "componentType": 5123,
      "count": 168,
      "min": [
        0
      ],
      "max": [
        31
      ],
      "type": "SCALAR",
      "bufferView": 1,
      "byteOffset": 5952
    },
    {
      "name": "sweethome3d_window_pane_on_hinge_2_1_0_positions",
      "componentType": 5126,
      "count": 8,
      "min": [
        0.07961200177669525,
        1.0125559568405151,
        0.03588800132274628
      ],
      "max": [
        0.4440520107746124,
        2.0825560092926025,
        0.04588799923658371
      ],
      "type": "VEC3",
      "bufferView": 0,
      "byteOffset": 6864
    },
    {
      "name": "sweethome3d_window_pane_on_hinge_2_1_0_indices",
      "componentType": 5123,
      "count": 36,
      "min": [
        0
      ],
      "max": [
        7
      ],
      "type": "SCALAR",
      "bufferView": 1,
      "byteOffset": 6288
    }
  ],
  "asset": {
    "generator": "obj2gltf",
    "version": "2.0"
  },
  "buffers": [
    {
      "name": "doubleOutwardOpeningWindow",
      "byteLength": 13320,
      "uri": "data:application/octet-stream;base64,"
    }
  ],
  "bufferViews": [
    {
      "name": "bufferView_0",
      "buffer": 0,
      "byteLength": 6960,
      "byteOffset": 0,
      "byteStride": 12,
      "target": 34962
    },
    {
      "name": "bufferView_1",
      "buffer": 0,
      "byteLength": 6360,
      "byteOffset": 6960,
      "target": 34963
    }
  ],
  "materials": [
    {
      "name": "flltgrey",
      "pbrMetallicRoughness": {
        "baseColorFactor": [
          0.5,
          0.5,
          0.5,
          1
        ],
        "metallicFactor": 0,
        "roughnessFactor": 1
      },
      "emissiveFactor": [
        0,
        0,
        0
      ],
      "alphaMode": "OPAQUE",
      "doubleSided": false
    },
    {
      "name": "flwhite1",
      "pbrMetallicRoughness": {
        "baseColorFactor": [
          0.5,
          0.5,
          0.5,
          1
        ],
        "metallicFactor": 0,
        "roughnessFactor": 1
      },
      "emissiveFactor": [
        0,
        0,
        0
      ],
      "alphaMode": "OPAQUE",
      "doubleSided": false
    },
    {
      "name": "archwhite",
      "pbrMetallicRoughness": {
        "baseColorFactor": [
          0.5,
          0.5,
          0.5,
          1
        ],
        "metallicFactor": 0,
        "roughnessFactor": 1
      },
      "emissiveFactor": [
        0,
        0,
        0
      ],
      "alphaMode": "OPAQUE",
      "doubleSided": false
    },
    {
      "name": "ship2",
      "pbrMetallicRoughness": {
        "baseColorFactor": [
          0.5,
          0.5,
          0.5,
          1
        ],
        "metallicFactor": 0,
        "roughnessFactor": 1
      },
      "emissiveFactor": [
        0,
        0,
        0
      ],
      "alphaMode": "OPAQUE",
      "doubleSided": false
    },
    {
      "name": "archwhite2",
      "pbrMetallicRoughness": {
        "baseColorFactor": [
          0.5,
          0.5,
          0.5,
          1
        ],
        "metallicFactor": 0,
        "roughnessFactor": 1
      },
      "emissiveFactor": [
        0,
        0,
        0
      ],
      "alphaMode": "OPAQUE",
      "doubleSided": false
    },
    {
      "name": "white",
      "pbrMetallicRoughness": {
        "baseColorFactor": [
          0.5,
          0.5,
          0.5,
          1
        ],
        "metallicFactor": 0,
        "roughnessFactor": 1
      },
      "emissiveFactor": [
        0,
        0,
        0
      ],
      "alphaMode": "OPAQUE",
      "doubleSided": false
    }
  ],
  "meshes": [
    {
      "name": "sweethome3d_window_pane_on_hinge_1_1",
      "primitives": [
        {
          "attributes": {
            "POSITION": 0
          },
          "indices": 1,
          "material": 0,
          "mode": 4
        }
      ]
    },
    {
      "name": "sweethome3d_opening_on_hinge_1_handles_1",
      "primitives": [
        {
          "attributes": {
            "POSITION": 2
          },
          "indices": 3,
          "material": 1,
          "mode": 4
        }
      ]
    },
    {
      "name": "sweethome3d_hinge_2_1",
      "primitives": [
        {
          "attributes": {
            "POSITION": 4
          },
          "indices": 5,
          "material": 2,
          "mode": 4
        }
      ]
    },
    {
      "name": "sweethome3d_opening_on_hinge_2_handles_1",
      "primitives": [
        {
          "attributes": {
            "POSITION": 6
          },
          "indices": 7,
          "material": 1,
          "mode": 4
        }
      ]
    },
    {
      "name": "sweethome3d_opening_on_hinge_1_muntinIn_1",
      "primitives": [
        {
          "attributes": {
            "POSITION": 8
          },
          "indices": 9,
          "material": 3,
          "mode": 4
        }
      ]
    },
    {
      "name": "sweethome3d_opening_on_hinge_2_muntinOut_1",
      "primitives": [
        {
          "attributes": {
            "POSITION": 10
          },
          "indices": 11,
          "material": 4,
          "mode": 4
        }
      ]
    },
    {
      "name": "sweethome3d_opening_on_hinge_1_out_1",
      "primitives": [
        {
          "attributes": {
            "POSITION": 12
          },
          "indices": 13,
          "material": 2,
          "mode": 4
        }
      ]
    },
    {
      "name": "sweethome3d_opening_on_hinge_1_in_1",
      "primitives": [
        {
          "attributes": {
            "POSITION": 14
          },
          "indices": 15,
          "material": 5,
          "mode": 4
        }
      ]
    },
    {
      "name": "SeparatorOut_1",
      "primitives": [
        {
          "attributes": {
            "POSITION": 16
          },
          "indices": 17,
          "material": 2,
          "mode": 4
        }
      ]
    },
    {
      "name": "SeparatorIn_1",
      "primitives": [
        {
          "attributes": {
            "POSITION": 18
          },
          "indices": 19,
          "material": 5,
          "mode": 4
        }
      ]
    },
    {
      "name": "sweethome3d_opening_on_hinge_2_out_1",
      "primitives": [
        {
          "attributes": {
            "POSITION": 20
          },
          "indices": 21,
          "material": 2,
          "mode": 4
        }
      ]
    },
    {
      "name": "CageOut_1",
      "primitives": [
        {
          "attributes": {
            "POSITION": 22
          },
          "indices": 23,
          "material": 2,
          "mode": 4
        }
      ]
    },
    {
      "name": "sweethome3d_opening_on_hinge_1_muntinOut_1",
      "primitives": [
        {
          "attributes": {
            "POSITION": 24
          },
          "indices": 25,
          "material": 4,
          "mode": 4
        }
      ]
    },
    {
      "name": "sweethome3d_opening_on_hinge_2_muntinIn_1",
      "primitives": [
        {
          "attributes": {
            "POSITION": 26
          },
          "indices": 27,
          "material": 3,
          "mode": 4
        }
      ]
    },
    {
      "name": "sweethome3d_opening_on_hinge_2_in_1",
      "primitives": [
        {
          "attributes": {
            "POSITION": 28
          },
          "indices": 29,
          "material": 5,
          "mode": 4
        }
      ]
    },
    {
      "name": "CageIn_1",
      "primitives": [
        {
          "attributes": {
            "POSITION": 30
          },
          "indices": 31,
          "material": 5,
          "mode": 4
        }
      ]
    },
    {
      "name": "sweethome3d_hinge_1_1",
      "primitives": [
        {
          "attributes": {
            "POSITION": 32
          },
          "indices": 33,
          "material": 2,
          "mode": 4
        }
      ]
    },
    {
      "name": "sweethome3d_window_pane_on_hinge_2_1",
      "primitives": [
        {
          "attributes": {
            "POSITION": 34
          },
          "indices": 35,
          "material": 0,
          "mode": 4
        }
      ]
    }
  ],
  "nodes": [
    {
      "name": "sweethome3d_window_pane_on_hinge_1",
      "mesh": 0
    },
    {
      "name": "sweethome3d_opening_on_hinge_1_handles",
      "mesh": 1
    },
    {
      "name": "sweethome3d_hinge_2",
      "mesh": 2
    },
    {
      "name": "sweethome3d_opening_on_hinge_2_handles",
      "mesh": 3
    },
    {
      "name": "sweethome3d_opening_on_hinge_1_muntinIn",
      "mesh": 4
    },
    {
      "name": "sweethome3d_opening_on_hinge_2_muntinOut",
      "mesh": 5
    },
    {
      "name": "sweethome3d_opening_on_hinge_1_out",
      "mesh": 6
    },
    {
      "name": "sweethome3d_opening_on_hinge_1_in",
      "mesh": 7
    },
    {
      "name": "SeparatorOut",
      "mesh": 8
    },
    {
      "name": "SeparatorIn",
      "mesh": 9
    },
    {
      "name": "sweethome3d_opening_on_hinge_2_out",
      "mesh": 10
    },
    {
      "name": "CageOut",
      "mesh": 11
    },
    {
      "name": "sweethome3d_opening_on_hinge_1_muntinOut",
      "mesh": 12
    },
    {
      "name": "sweethome3d_opening_on_hinge_2_muntinIn",
      "mesh": 13
    },
    {
      "name": "sweethome3d_opening_on_hinge_2_in",
      "mesh": 14
    },
    {
      "name": "CageIn",
      "mesh": 15
    },
    {
      "name": "sweethome3d_hinge_1",
      "mesh": 16
    },
    {
      "name": "sweethome3d_window_pane_on_hinge_2",
      "mesh": 17
    }
  ],
  "scene": 0,
  "scenes": [
    {
      "nodes": [
        0,
        1,
        2,
        3,
        4,
        5,
        6,
        7,
        8,
        9,
        10,
        11,
        12,
        13,
        14,
        15,
        16,
        17
      ]
    }
  ]
}
