{
  "accessors": [
    {
      "name": "Bac_1_0_positions",
      "componentType": 5126,
      "count": 204,
      "min": [
        -0.34648799896240234,
        0.00023099999816622585,
        -0.34669700264930725
      ],
      "max": [
        0.34664198756217957,
        0.25086501240730286,
        0.34643301367759705
      ],
      "type": "VEC3",
      "bufferView": 0,
      "byteOffset": 0
    },
    {
      "name": "Bac_1_0_indices",
      "componentType": 5123,
      "count": 1212,
      "min": [
        0
      ],
      "max": [
        203
      ],
      "type": "SCALAR",
      "bufferView": 1,
      "byteOffset": 0
    },
    {
      "name": "Cylinder_15_1_1_0_positions",
      "componentType": 5126,
      "count": 12,
      "min": [
        0.04097000136971474,
        1.2820760011672974,
        -0.34597599506378174
      ],
      "max": [
        0.05829000100493431,
        1.302075982093811,
        -0.33281800150871277
      ],
      "type": "VEC3",
      "bufferView": 0,
      "byteOffset": 2448
    },
    {
      "name": "Cylinder_15_1_1_0_indices",
      "componentType": 5123,
      "count": 60,
      "min": [
        0
      ],
      "max": [
        11
      ],
      "type": "SCALAR",
      "bufferView": 1,
      "byteOffset": 2424
    },
    {
      "name": "Cylinder_15_1_0_positions",
      "componentType": 5126,
      "count": 12,
      "min": [
        -0.058278001844882965,
        1.2820760011672974,
        -0.34597599506378174
      ],
      "max": [
        -0.04095799848437309,
        1.302075982093811,
        -0.33281800150871277
      ],
      "type": "VEC3",
      "bufferView": 0,
      "byteOffset": 2592
    },
    {
      "name": "Cylinder_15_1_0_indices",
      "componentType": 5123,
      "count": 60,
      "min": [
        0
      ],
      "max": [
        11
      ],
      "type": "SCALAR",
      "bufferView": 1,
      "byteOffset": 2544
    },
    {
      "name": "Robinet_droit_1_0_positions",
      "componentType": 5126,
      "count": 18,
      "min": [
        0.08421999961137772,
        1.2580740451812744,
        -0.29278799891471863
      ],
      "max": [
        0.153779998421669,
        1.3281970024108887,
        -0.22974500060081482
      ],
      "type": "VEC3",
      "bufferView": 0,
      "byteOffset": 2736
    },
    {
      "name": "Robinet_droit_1_0_indices",
      "componentType": 5123,
      "count": 96,
      "min": [
        0
      ],
      "max": [
        17
      ],
      "type": "SCALAR",
      "bufferView": 1,
      "byteOffset": 2664
    },
    {
      "name": "Accroche_mur_1_0_positions",
      "componentType": 5126,
      "count": 12,
      "min": [
        -0.002437999937683344,
        2.026439905166626,
        -0.34590598940849304
      ],
      "max": [
        0.0027580000460147858,
        2.032439947128296,
        -0.3155069947242737
      ],
      "type": "VEC3",
      "bufferView": 0,
      "byteOffset": 2952
    },
    {
      "name": "Accroche_mur_1_0_indices",
      "componentType": 5123,
      "count": 60,
      "min": [
        0
      ],
      "max": [
        11
      ],
      "type": "SCALAR",
      "bufferView": 1,
      "byteOffset": 2856
    },
    {
      "name": "Tube_douche_1_0_positions",
      "componentType": 5126,
      "count": 42,
      "min": [
        -0.0043299999088048935,
        1.2982360124588013,
        -0.31796300411224365
      ],
      "max": [
        0.0043299999088048935,
        2.109133005142212,
        -0.257205992937088
      ],
      "type": "VEC3",
      "bufferView": 0,
      "byteOffset": 3096
    },
    {
      "name": "Tube_douche_1_0_indices",
      "componentType": 5123,
      "count": 240,
      "min": [
        0
      ],
      "max": [
        41
      ],
      "type": "SCALAR",
      "bufferView": 1,
      "byteOffset": 2976
    },
    {
      "name": "Robinetterie_1_0_positions",
      "componentType": 5126,
      "count": 18,
      "min": [
        -0.15101000666618347,
        1.269469976425171,
        -0.33816999197006226
      ],
      "max": [
        0.15205000340938568,
        1.3194700479507446,
        -0.2881700098514557
      ],
      "type": "VEC3",
      "bufferView": 0,
      "byteOffset": 3600
    },
    {
      "name": "Robinetterie_1_0_indices",
      "componentType": 5123,
      "count": 96,
      "min": [
        0
      ],
      "max": [
        17
      ],
      "type": "SCALAR",
      "bufferView": 1,
      "byteOffset": 3456
    },
    {
      "name": "Evacuation_1_0_positions",
      "componentType": 5126,
      "count": 32,
      "min": [
        -0.04500000178813934,
        0.07203999906778336,
        -0.1902099996805191
      ],
      "max": [
        0.04500000178813934,
        0.13203999400138855,
        -0.10021000355482101
      ],
      "type": "VEC3",
      "bufferView": 0,
      "byteOffset": 3816
    },
    {
      "name": "Evacuation_1_0_indices",
      "componentType": 5123,
      "count": 180,
      "min": [
        0
      ],
      "max": [
        31
      ],
      "type": "SCALAR",
      "bufferView": 1,
      "byteOffset": 3648
    },
    {
      "name": "Robinet_gauche_1_0_positions",
      "componentType": 5126,
      "count": 18,
      "min": [
        -0.15388000011444092,
        1.2585179805755615,
        -0.2927820086479187
      ],
      "max": [
        -0.0843299999833107,
        1.3283319473266602,
        -0.2300100028514862
      ],
      "type": "VEC3",
      "bufferView": 0,
      "byteOffset": 4200
    },
    {
      "name": "Robinet_gauche_1_0_indices",
      "componentType": 5123,
      "count": 96,
      "min": [
        0
      ],
      "max": [
        17
      ],
      "type": "SCALAR",
      "bufferView": 1,
      "byteOffset": 4008
    },
    {
      "name": "Paume_1_0_positions",
      "componentType": 5126,
      "count": 66,
      "min": [
        -0.04106000065803528,
        2.069930076599121,
        -0.2966499924659729
      ],
      "max": [
        0.04100000113248825,
        2.110919952392578,
        -0.2222599983215332
      ],
      "type": "VEC3",
      "bufferView": 0,
      "byteOffset": 4416
    },
    {
      "name": "Paume_1_0_indices",
      "componentType": 5123,
      "count": 384,
      "min": [
        0
      ],
      "max": [
        65
      ],
      "type": "SCALAR",
      "bufferView": 1,
      "byteOffset": 4200
    }
  ],
  "asset": {
    "generator": "obj2gltf",
    "version": "2.0"
  },
  "buffers": [
    {
      "name": "shower",
      "byteLength": 10176,
      "uri": "data:application/octet-stream;base64,"
    }
  ],
  "bufferViews": [
    {
      "name": "bufferView_0",
      "buffer": 0,
      "byteLength": 5208,
      "byteOffset": 0,
      "byteStride": 12,
      "target": 34962
    },
    {
      "name": "bufferView_1",
      "buffer": 0,
      "byteLength": 4968,
      "byteOffset": 5208,
      "target": 34963
    }
  ],
  "materials": [
    {
      "name": "white",
      "pbrMetallicRoughness": {
        "baseColorFactor": [
          0.5,
          0.5,
          0.5,
          1
        ],
        "metallicFactor": 0,
        "roughnessFactor": 1
      },
      "emissiveFactor": [
        0,
        0,
        0
      ],
      "alphaMode": "OPAQUE",
      "doubleSided": false
    },
    {
      "name": "silver",
      "pbrMetallicRoughness": {
        "baseColorFactor": [
          0.5,
          0.5,
          0.5,
          1
        ],
        "metallicFactor": 0,
        "roughnessFactor": 1
      },
      "emissiveFactor": [
        0,
        0,
        0
      ],
      "alphaMode": "OPAQUE",
      "doubleSided": false
    },
    {
      "name": "grey",
      "pbrMetallicRoughness": {
        "baseColorFactor": [
          0.5,
          0.5,
          0.5,
          1
        ],
        "metallicFactor": 0,
        "roughnessFactor": 1
      },
      "emissiveFactor": [
        0,
        0,
        0
      ],
      "alphaMode": "OPAQUE",
      "doubleSided": false
    }
  ],
  "meshes": [
    {
      "name": "Bac_1",
      "primitives": [
        {
          "attributes": {
            "POSITION": 0
          },
          "indices": 1,
          "material": 0,
          "mode": 4
        }
      ]
    },
    {
      "name": "Cylinder_15_1_1",
      "primitives": [
        {
          "attributes": {
            "POSITION": 2
          },
          "indices": 3,
          "material": 1,
          "mode": 4
        }
      ]
    },
    {
      "name": "Cylinder_15_1",
      "primitives": [
        {
          "attributes": {
            "POSITION": 4
          },
          "indices": 5,
          "material": 1,
          "mode": 4
        }
      ]
    },
    {
      "name": "Robinet_droit_1",
      "primitives": [
        {
          "attributes": {
            "POSITION": 6
          },
          "indices": 7,
          "material": 1,
          "mode": 4
        }
      ]
    },
    {
      "name": "Accroche_mur_1",
      "primitives": [
        {
          "attributes": {
            "POSITION": 8
          },
          "indices": 9,
          "material": 1,
          "mode": 4
        }
      ]
    },
    {
      "name": "Tube_douche_1",
      "primitives": [
        {
          "attributes": {
            "POSITION": 10
          },
          "indices": 11,
          "material": 1,
          "mode": 4
        }
      ]
    },
    {
      "name": "Robinetterie_1",
      "primitives": [
        {
          "attributes": {
            "POSITION": 12
          },
          "indices": 13,
          "material": 1,
          "mode": 4
        }
      ]
    },
    {
      "name": "Evacuation_1",
      "primitives": [
        {
          "attributes": {
            "POSITION": 14
          },
          "indices": 15,
          "material": 2,
          "mode": 4
        }
      ]
    },
    {
      "name": "Robinet_gauche_1",
      "primitives": [
        {
          "attributes": {
            "POSITION": 16
          },
          "indices": 17,
          "material": 1,
          "mode": 4
        }
      ]
    },
    {
      "name": "Paume_1",
      "primitives": [
        {
          "attributes": {
            "POSITION": 18
          },
          "indices": 19,
          "material": 1,
          "mode": 4
        }
      ]
    }
  ],
  "nodes": [
    {
      "name": "Bac",
      "mesh": 0
    },
    {
      "name": "Cylinder_15_1",
      "mesh": 1
    },
    {
      "name": "Cylinder_15",
      "mesh": 2
    },
    {
      "name": "Robinet_droit",
      "mesh": 3
    },
    {
      "name": "Accroche_mur",
      "mesh": 4
    },
    {
      "name": "Tube_douche",
      "mesh": 5
    },
    {
      "name": "Robinetterie",
      "mesh": 6
    },
    {
      "name": "Evacuation",
      "mesh": 7
    },
    {
      "name": "Robinet_gauche",
      "mesh": 8
    },
    {
      "name": "Paume",
      "mesh": 9
    }
  ],
  "scene": 0,
  "scenes": [
    {
      "nodes": [
        0,
        1,
        2,
        3,
        4,
        5,
        6,
        7,
        8,
        9
      ]
    }
  ]
}
