{
  "accessors": [
    {
      "name": "rail_1_0_positions",
      "componentType": 5126,
      "count": 24,
      "min": [
        -0.739549994468689,
        2.4579999446868896,
        -0.07970000058412552
      ],
      "max": [
        0.8004500269889832,
        2.5,
        0.0001500000071246177
      ],
      "type": "VEC3",
      "bufferView": 0,
      "byteOffset": 0
    },
    {
      "name": "rail_1_0_indices",
      "componentType": 5123,
      "count": 132,
      "min": [
        0
      ],
      "max": [
        23
      ],
      "type": "SCALAR",
      "bufferView": 1,
      "byteOffset": 0
    },
    {
      "name": "sweethome3d_opening_on_rail_1_edge2_1_0_positions",
      "componentType": 5126,
      "count": 20,
      "min": [
        -0.000859999970998615,
        0.009999999776482582,
        -0.034460000693798065
      ],
      "max": [
        0.019139999523758888,
        2.4800000190734863,
        -0.004230000078678131
      ],
      "type": "VEC3",
      "bufferView": 0,
      "byteOffset": 288
    },
    {
      "name": "sweethome3d_opening_on_rail_1_edge2_1_0_indices",
      "componentType": 5123,
      "count": 60,
      "min": [
        0
      ],
      "max": [
        19
      ],
      "type": "SCALAR",
      "bufferView": 1,
      "byteOffset": 264
    },
    {
      "name": "sweethome3d_opening_on_rail_2_edge2_1_0_positions",
      "componentType": 5126,
      "count": 20,
      "min": [
        0.037780001759529114,
        0.010409999638795853,
        -0.07265999913215637
      ],
      "max": [
        0.05778000131249428,
        2.480410099029541,
        -0.04242999851703644
      ],
      "type": "VEC3",
      "bufferView": 0,
      "byteOffset": 528
    },
    {
      "name": "sweethome3d_opening_on_rail_2_edge2_1_0_indices",
      "componentType": 5123,
      "count": 60,
      "min": [
        0
      ],
      "max": [
        19
      ],
      "type": "SCALAR",
      "bufferView": 1,
      "byteOffset": 384
    },
    {
      "name": "sweethome3d_opening_on_rail_1_door_1_0_positions",
      "componentType": 5126,
      "count": 8,
      "min": [
        0.002839999971911311,
        0.011029999703168869,
        -0.021570000797510147
      ],
      "max": [
        0.7928400039672852,
        2.481029987335205,
        -0.01157000008970499
      ],
      "type": "VEC3",
      "bufferView": 0,
      "byteOffset": 768
    },
    {
      "name": "sweethome3d_opening_on_rail_1_door_1_0_indices",
      "componentType": 5123,
      "count": 36,
      "min": [
        0
      ],
      "max": [
        7
      ],
      "type": "SCALAR",
      "bufferView": 1,
      "byteOffset": 504
    },
    {
      "name": "sweethome3d_opening_on_rail_2_door_1_0_positions",
      "componentType": 5126,
      "count": 8,
      "min": [
        -0.7397199869155884,
        0.011029999703168869,
        -0.05973999947309494
      ],
      "max": [
        0.050280001014471054,
        2.481029987335205,
        -0.04974000155925751
      ],
      "type": "VEC3",
      "bufferView": 0,
      "byteOffset": 864
    },
    {
      "name": "sweethome3d_opening_on_rail_2_door_1_0_indices",
      "componentType": 5123,
      "count": 36,
      "min": [
        0
      ],
      "max": [
        7
      ],
      "type": "SCALAR",
      "bufferView": 1,
      "byteOffset": 576
    },
    {
      "name": "sweethome3d_opening_on_rail_1_edge1_1_0_positions",
      "componentType": 5126,
      "count": 20,
      "min": [
        0.7803400158882141,
        0.010409999638795853,
        -0.03449000045657158
      ],
      "max": [
        0.8003399968147278,
        2.480410099029541,
        -0.004269999917596579
      ],
      "type": "VEC3",
      "bufferView": 0,
      "byteOffset": 960
    },
    {
      "name": "sweethome3d_opening_on_rail_1_edge1_1_0_indices",
      "componentType": 5123,
      "count": 60,
      "min": [
        0
      ],
      "max": [
        19
      ],
      "type": "SCALAR",
      "bufferView": 1,
      "byteOffset": 648
    },
    {
      "name": "sweethome3d_unique_rail_1_0_positions",
      "componentType": 5126,
      "count": 50,
      "min": [
        -0.7397300004959106,
        0.00019999999494757503,
        -0.07603999972343445
      ],
      "max": [
        0.8002700209617615,
        0.005309999920427799,
        -0.01995999924838543
      ],
      "type": "VEC3",
      "bufferView": 0,
      "byteOffset": 1200
    },
    {
      "name": "sweethome3d_unique_rail_1_0_indices",
      "componentType": 5123,
      "count": 144,
      "min": [
        0
      ],
      "max": [
        49
      ],
      "type": "SCALAR",
      "bufferView": 1,
      "byteOffset": 768
    },
    {
      "name": "sweethome3d_opening_on_rail_2_edge1_1_0_positions",
      "componentType": 5126,
      "count": 20,
      "min": [
        -0.7431600093841553,
        0.009999999776482582,
        -0.07265999913215637
      ],
      "max": [
        -0.7231600284576416,
        2.4800000190734863,
        -0.04242999851703644
      ],
      "type": "VEC3",
      "bufferView": 0,
      "byteOffset": 1800
    },
    {
      "name": "sweethome3d_opening_on_rail_2_edge1_1_0_indices",
      "componentType": 5123,
      "count": 60,
      "min": [
        0
      ],
      "max": [
        19
      ],
      "type": "SCALAR",
      "bufferView": 1,
      "byteOffset": 1056
    }
  ],
  "asset": {
    "generator": "obj2gltf",
    "version": "2.0"
  },
  "buffers": [
    {
      "name": "slidingDoors",
      "byteLength": 3216,
      "uri": "data:application/octet-stream;base64,"
    }
  ],
  "bufferViews": [
    {
      "name": "bufferView_0",
      "buffer": 0,
      "byteLength": 2040,
      "byteOffset": 0,
      "byteStride": 12,
      "target": 34962
    },
    {
      "name": "bufferView_1",
      "buffer": 0,
      "byteLength": 1176,
      "byteOffset": 2040,
      "target": 34963
    }
  ],
  "materials": [
    {
      "name": "white",
      "pbrMetallicRoughness": {
        "baseColorFactor": [
          0.5,
          0.5,
          0.5,
          1
        ],
        "metallicFactor": 0,
        "roughnessFactor": 1
      },
      "emissiveFactor": [
        0,
        0,
        0
      ],
      "alphaMode": "OPAQUE",
      "doubleSided": false
    }
  ],
  "meshes": [
    {
      "name": "rail_1",
      "primitives": [
        {
          "attributes": {
            "POSITION": 0
          },
          "indices": 1,
          "material": 0,
          "mode": 4
        }
      ]
    },
    {
      "name": "sweethome3d_opening_on_rail_1_edge2_1",
      "primitives": [
        {
          "attributes": {
            "POSITION": 2
          },
          "indices": 3,
          "material": 0,
          "mode": 4
        }
      ]
    },
    {
      "name": "sweethome3d_opening_on_rail_2_edge2_1",
      "primitives": [
        {
          "attributes": {
            "POSITION": 4
          },
          "indices": 5,
          "material": 0,
          "mode": 4
        }
      ]
    },
    {
      "name": "sweethome3d_opening_on_rail_1_door_1",
      "primitives": [
        {
          "attributes": {
            "POSITION": 6
          },
          "indices": 7,
          "material": 0,
          "mode": 4
        }
      ]
    },
    {
      "name": "sweethome3d_opening_on_rail_2_door_1",
      "primitives": [
        {
          "attributes": {
            "POSITION": 8
          },
          "indices": 9,
          "material": 0,
          "mode": 4
        }
      ]
    },
    {
      "name": "sweethome3d_opening_on_rail_1_edge1_1",
      "primitives": [
        {
          "attributes": {
            "POSITION": 10
          },
          "indices": 11,
          "material": 0,
          "mode": 4
        }
      ]
    },
    {
      "name": "sweethome3d_unique_rail_1",
      "primitives": [
        {
          "attributes": {
            "POSITION": 12
          },
          "indices": 13,
          "material": 0,
          "mode": 4
        }
      ]
    },
    {
      "name": "sweethome3d_opening_on_rail_2_edge1_1",
      "primitives": [
        {
          "attributes": {
            "POSITION": 14
          },
          "indices": 15,
          "material": 0,
          "mode": 4
        }
      ]
    }
  ],
  "nodes": [
    {
      "name": "rail",
      "mesh": 0
    },
    {
      "name": "sweethome3d_opening_on_rail_1_edge2",
      "mesh": 1
    },
    {
      "name": "sweethome3d_opening_on_rail_2_edge2",
      "mesh": 2
    },
    {
      "name": "sweethome3d_opening_on_rail_1_door",
      "mesh": 3
    },
    {
      "name": "sweethome3d_opening_on_rail_2_door",
      "mesh": 4
    },
    {
      "name": "sweethome3d_opening_on_rail_1_edge1",
      "mesh": 5
    },
    {
      "name": "sweethome3d_unique_rail",
      "mesh": 6
    },
    {
      "name": "sweethome3d_opening_on_rail_2_edge1",
      "mesh": 7
    }
  ],
  "scene": 0,
  "scenes": [
    {
      "nodes": [
        0,
        1,
        2,
        3,
        4,
        5,
        6,
        7
      ]
    }
  ]
}
