{
  "accessors": [
    {
      "name": "Lampe_1_0_positions",
      "componentType": 5126,
      "count": 353,
      "min": [
        -0.1063700020313263,
        0.2838900089263916,
        0.07253000140190125
      ],
      "max": [
        -0.04190000146627426,
        0.3710300028324127,
        0.13539999723434448
      ],
      "type": "VEC3",
      "bufferView": 0,
      "byteOffset": 0
    },
    {
      "name": "Lampe_1_0_indices",
      "componentType": 5123,
      "count": 2064,
      "min": [
        0
      ],
      "max": [
        352
      ],
      "type": "SCALAR",
      "bufferView": 1,
      "byteOffset": 0
    },
    {
      "name": "Cable_1_0_positions",
      "componentType": 5126,
      "count": 81,
      "min": [
        -0.07998999953269958,
        0.0020000000949949026,
        -0.1597599983215332
      ],
      "max": [
        -0.0713300034403801,
        0.4740599989891052,
        0.09211999922990799
      ],
      "type": "VEC3",
      "bufferView": 0,
      "byteOffset": 4236
    },
    {
      "name": "Cable_1_0_indices",
      "componentType": 5123,
      "count": 468,
      "min": [
        0
      ],
      "max": [
        80
      ],
      "type": "SCALAR",
      "bufferView": 1,
      "byteOffset": 4128
    },
    {
      "name": "Base_1_0_positions",
      "componentType": 5126,
      "count": 130,
      "min": [
        -0.13463999330997467,
        0.000590000010561198,
        -0.13463999330997467
      ],
      "max": [
        -0.014639999717473984,
        0.013240000233054161,
        -0.014639999717473984
      ],
      "type": "VEC3",
      "bufferView": 0,
      "byteOffset": 5208
    },
    {
      "name": "Base_1_0_indices",
      "componentType": 5123,
      "count": 768,
      "min": [
        0
      ],
      "max": [
        129
      ],
      "type": "SCALAR",
      "bufferView": 1,
      "byteOffset": 5064
    }
  ],
  "asset": {
    "generator": "obj2gltf",
    "version": "2.0"
  },
  "buffers": [
    {
      "name": "workLamp",
      "byteLength": 13368,
      "uri": "data:application/octet-stream;base64,"
    }
  ],
  "bufferViews": [
    {
      "name": "bufferView_0",
      "buffer": 0,
      "byteLength": 6768,
      "byteOffset": 0,
      "byteStride": 12,
      "target": 34962
    },
    {
      "name": "bufferView_1",
      "buffer": 0,
      "byteLength": 6600,
      "byteOffset": 6768,
      "target": 34963
    }
  ],
  "materials": [
    {
      "name": "dkgrey",
      "pbrMetallicRoughness": {
        "baseColorFactor": [
          0.5,
          0.5,
          0.5,
          1
        ],
        "metallicFactor": 0,
        "roughnessFactor": 1
      },
      "emissiveFactor": [
        0,
        0,
        0
      ],
      "alphaMode": "OPAQUE",
      "doubleSided": false
    }
  ],
  "meshes": [
    {
      "name": "Lampe_1",
      "primitives": [
        {
          "attributes": {
            "POSITION": 0
          },
          "indices": 1,
          "material": 0,
          "mode": 4
        }
      ]
    },
    {
      "name": "Cable_1",
      "primitives": [
        {
          "attributes": {
            "POSITION": 2
          },
          "indices": 3,
          "material": 0,
          "mode": 4
        }
      ]
    },
    {
      "name": "Base_1",
      "primitives": [
        {
          "attributes": {
            "POSITION": 4
          },
          "indices": 5,
          "material": 0,
          "mode": 4
        }
      ]
    }
  ],
  "nodes": [
    {
      "name": "Lampe",
      "mesh": 0
    },
    {
      "name": "Cable",
      "mesh": 1
    },
    {
      "name": "Base",
      "mesh": 2
    }
  ],
  "scene": 0,
  "scenes": [
    {
      "nodes": [
        0,
        1,
        2
      ]
    }
  ]
}
