{
  "accessors": [
    {
      "name": "Fish2_1_0_positions",
      "componentType": 5126,
      "count": 46,
      "min": [
        0.10857900232076645,
        0.12709200382232666,
        -0.029090000316500664
      ],
      "max": [
        0.196726992726326,
        0.15337899327278137,
        -0.009712999686598778
      ],
      "type": "VEC3",
      "bufferView": 0,
      "byteOffset": 0
    },
    {
      "name": "Fish2_1_0_indices",
      "componentType": 5123,
      "count": 264,
      "min": [
        0
      ],
      "max": [
        45
      ],
      "type": "SCALAR",
      "bufferView": 1,
      "byteOffset": 0
    },
    {
      "name": "Eyes2_1_0_positions",
      "componentType": 5126,
      "count": 28,
      "min": [
        0.18570899963378906,
        0.13830900192260742,
        -0.017016999423503876
      ],
      "max": [
        0.18883199989795685,
        0.14087900519371033,
        -0.009859000332653522
      ],
      "type": "VEC3",
      "bufferView": 0,
      "byteOffset": 552
    },
    {
      "name": "Eyes2_1_0_indices",
      "componentType": 5123,
      "count": 108,
      "min": [
        0
      ],
      "max": [
        27
      ],
      "type": "SCALAR",
      "bufferView": 1,
      "byteOffset": 528
    },
    {
      "name": "Eyes_1_0_positions",
      "componentType": 5126,
      "count": 28,
      "min": [
        -0.15579600632190704,
        0.20136100053787231,
        0.06187799945473671
      ],
      "max": [
        -0.1522669941186905,
        0.2037609964609146,
        0.06843099743127823
      ],
      "type": "VEC3",
      "bufferView": 0,
      "byteOffset": 888
    },
    {
      "name": "Eyes_1_0_indices",
      "componentType": 5123,
      "count": 108,
      "min": [
        0
      ],
      "max": [
        27
      ],
      "type": "SCALAR",
      "bufferView": 1,
      "byteOffset": 744
    },
    {
      "name": "Fish_1_0_positions",
      "componentType": 5126,
      "count": 46,
      "min": [
        -0.16276699304580688,
        0.19088700413703918,
        0.04974300041794777
      ],
      "max": [
        -0.08071199804544449,
        0.2154330015182495,
        0.06772200018167496
      ],
      "type": "VEC3",
      "bufferView": 0,
      "byteOffset": 1224
    },
    {
      "name": "Fish_1_0_indices",
      "componentType": 5123,
      "count": 264,
      "min": [
        0
      ],
      "max": [
        45
      ],
      "type": "SCALAR",
      "bufferView": 1,
      "byteOffset": 960
    },
    {
      "name": "Stone_1_0_positions",
      "componentType": 5126,
      "count": 33,
      "min": [
        -0.10010100156068802,
        0.03493399918079376,
        -0.08030399680137634
      ],
      "max": [
        0.03052400052547455,
        0.13879799842834473,
        -0.002819000044837594
      ],
      "type": "VEC3",
      "bufferView": 0,
      "byteOffset": 1776
    },
    {
      "name": "Stone_1_0_indices",
      "componentType": 5123,
      "count": 168,
      "min": [
        0
      ],
      "max": [
        32
      ],
      "type": "SCALAR",
      "bufferView": 1,
      "byteOffset": 1488
    },
    {
      "name": "Plant2_1_0_positions",
      "componentType": 5126,
      "count": 56,
      "min": [
        0.10757199674844742,
        0.033031001687049866,
        0.03986399993300438
      ],
      "max": [
        0.21164000034332275,
        0.12933200597763062,
        0.1294659972190857
      ],
      "type": "VEC3",
      "bufferView": 0,
      "byteOffset": 2172
    },
    {
      "name": "Plant2_1_0_indices",
      "componentType": 5123,
      "count": 288,
      "min": [
        0
      ],
      "max": [
        55
      ],
      "type": "SCALAR",
      "bufferView": 1,
      "byteOffset": 1824
    },
    {
      "name": "Plant_1_0_positions",
      "componentType": 5126,
      "count": 56,
      "min": [
        -0.254397988319397,
        0.03454099968075752,
        -0.10112900286912918
      ],
      "max": [
        -0.13219299912452698,
        0.26660600304603577,
        0.04217299818992615
      ],
      "type": "VEC3",
      "bufferView": 0,
      "byteOffset": 2844
    },
    {
      "name": "Plant_1_0_indices",
      "componentType": 5123,
      "count": 288,
      "min": [
        0
      ],
      "max": [
        55
      ],
      "type": "SCALAR",
      "bufferView": 1,
      "byteOffset": 2400
    },
    {
      "name": "Cube_1_0_positions",
      "componentType": 5126,
      "count": 14,
      "min": [
        0.21528999507427216,
        0.009941999800503254,
        -0.14549900591373444
      ],
      "max": [
        0.2952899932861328,
        0.2949419915676117,
        -0.06549900025129318
      ],
      "type": "VEC3",
      "bufferView": 0,
      "byteOffset": 3516
    },
    {
      "name": "Cube_1_0_indices",
      "componentType": 5123,
      "count": 72,
      "min": [
        0
      ],
      "max": [
        13
      ],
      "type": "SCALAR",
      "bufferView": 1,
      "byteOffset": 2976
    },
    {
      "name": "Ground_1_0_positions",
      "componentType": 5126,
      "count": 85,
      "min": [
        -0.2955000102519989,
        0.009677000343799591,
        -0.14576199650764465
      ],
      "max": [
        0.2955000102519989,
        0.03967700153589249,
        0.1453379988670349
      ],
      "type": "VEC3",
      "bufferView": 0,
      "byteOffset": 3684
    },
    {
      "name": "Ground_1_0_indices",
      "componentType": 5123,
      "count": 498,
      "min": [
        0
      ],
      "max": [
        84
      ],
      "type": "SCALAR",
      "bufferView": 1,
      "byteOffset": 3120
    },
    {
      "name": "sweethome3d_window_pane_1_0_positions",
      "componentType": 5126,
      "count": 16,
      "min": [
        -0.2985000014305115,
        0.009998999536037445,
        -0.14872799813747406
      ],
      "max": [
        0.2985000014305115,
        0.29499900341033936,
        0.14837199449539185
      ],
      "type": "VEC3",
      "bufferView": 0,
      "byteOffset": 4704
    },
    {
      "name": "sweethome3d_window_pane_1_0_indices",
      "componentType": 5123,
      "count": 48,
      "min": [
        0
      ],
      "max": [
        15
      ],
      "type": "SCALAR",
      "bufferView": 1,
      "byteOffset": 4116
    },
    {
      "name": "Top_1_0_positions",
      "componentType": 5126,
      "count": 36,
      "min": [
        -0.30000001192092896,
        0.29499998688697815,
        -0.15000000596046448
      ],
      "max": [
        0.30000001192092896,
        0.3400000035762787,
        0.15000000596046448
      ],
      "type": "VEC3",
      "bufferView": 0,
      "byteOffset": 4896
    },
    {
      "name": "Top_1_0_indices",
      "componentType": 5123,
      "count": 204,
      "min": [
        0
      ],
      "max": [
        35
      ],
      "type": "SCALAR",
      "bufferView": 1,
      "byteOffset": 4212
    },
    {
      "name": "Bottom_1_0_positions",
      "componentType": 5126,
      "count": 16,
      "min": [
        -0.30000001192092896,
        -0.009999999776482582,
        -0.15000000596046448
      ],
      "max": [
        0.30000001192092896,
        0.009999999776482582,
        0.15000000596046448
      ],
      "type": "VEC3",
      "bufferView": 0,
      "byteOffset": 5328
    },
    {
      "name": "Bottom_1_0_indices",
      "componentType": 5123,
      "count": 84,
      "min": [
        0
      ],
      "max": [
        15
      ],
      "type": "SCALAR",
      "bufferView": 1,
      "byteOffset": 4620
    }
  ],
  "asset": {
    "generator": "obj2gltf",
    "version": "2.0"
  },
  "buffers": [
    {
      "name": "aquarium",
      "byteLength": 10308,
      "uri": "data:application/octet-stream;base64,"
    }
  ],
  "bufferViews": [
    {
      "name": "bufferView_0",
      "buffer": 0,
      "byteLength": 5520,
      "byteOffset": 0,
      "byteStride": 12,
      "target": 34962
    },
    {
      "name": "bufferView_1",
      "buffer": 0,
      "byteLength": 4788,
      "byteOffset": 5520,
      "target": 34963
    }
  ],
  "materials": [
    {
      "name": "florange",
      "pbrMetallicRoughness": {
        "baseColorFactor": [
          0.5,
          0.5,
          0.5,
          1
        ],
        "metallicFactor": 0,
        "roughnessFactor": 1
      },
      "emissiveFactor": [
        0,
        0,
        0
      ],
      "alphaMode": "OPAQUE",
      "doubleSided": false
    },
    {
      "name": "black",
      "pbrMetallicRoughness": {
        "baseColorFactor": [
          0.5,
          0.5,
          0.5,
          1
        ],
        "metallicFactor": 0,
        "roughnessFactor": 1
      },
      "emissiveFactor": [
        0,
        0,
        0
      ],
      "alphaMode": "OPAQUE",
      "doubleSided": false
    },
    {
      "name": "jetflame",
      "pbrMetallicRoughness": {
        "baseColorFactor": [
          0.5,
          0.5,
          0.5,
          1
        ],
        "metallicFactor": 0,
        "roughnessFactor": 1
      },
      "emissiveFactor": [
        0,
        0,
        0
      ],
      "alphaMode": "OPAQUE",
      "doubleSided": false
    },
    {
      "name": "bluegrey",
      "pbrMetallicRoughness": {
        "baseColorFactor": [
          0.5,
          0.5,
          0.5,
          1
        ],
        "metallicFactor": 0,
        "roughnessFactor": 1
      },
      "emissiveFactor": [
        0,
        0,
        0
      ],
      "alphaMode": "OPAQUE",
      "doubleSided": false
    },
    {
      "name": "yellow_green",
      "pbrMetallicRoughness": {
        "baseColorFactor": [
          0.5,
          0.5,
          0.5,
          1
        ],
        "metallicFactor": 0,
        "roughnessFactor": 1
      },
      "emissiveFactor": [
        0,
        0,
        0
      ],
      "alphaMode": "OPAQUE",
      "doubleSided": false
    },
    {
      "name": "dkgrey",
      "pbrMetallicRoughness": {
        "baseColorFactor": [
          0.5,
          0.5,
          0.5,
          1
        ],
        "metallicFactor": 0,
        "roughnessFactor": 1
      },
      "emissiveFactor": [
        0,
        0,
        0
      ],
      "alphaMode": "OPAQUE",
      "doubleSided": false
    },
    {
      "name": "flgrey",
      "pbrMetallicRoughness": {
        "baseColorFactor": [
          0.5,
          0.5,
          0.5,
          1
        ],
        "metallicFactor": 0,
        "roughnessFactor": 1
      },
      "emissiveFactor": [
        0,
        0,
        0
      ],
      "alphaMode": "OPAQUE",
      "doubleSided": false
    },
    {
      "name": "flltgrey",
      "pbrMetallicRoughness": {
        "baseColorFactor": [
          0.5,
          0.5,
          0.5,
          1
        ],
        "metallicFactor": 0,
        "roughnessFactor": 1
      },
      "emissiveFactor": [
        0,
        0,
        0
      ],
      "alphaMode": "OPAQUE",
      "doubleSided": false
    }
  ],
  "meshes": [
    {
      "name": "Fish2_1",
      "primitives": [
        {
          "attributes": {
            "POSITION": 0
          },
          "indices": 1,
          "material": 0,
          "mode": 4
        }
      ]
    },
    {
      "name": "Eyes2_1",
      "primitives": [
        {
          "attributes": {
            "POSITION": 2
          },
          "indices": 3,
          "material": 1,
          "mode": 4
        }
      ]
    },
    {
      "name": "Eyes_1",
      "primitives": [
        {
          "attributes": {
            "POSITION": 4
          },
          "indices": 5,
          "material": 1,
          "mode": 4
        }
      ]
    },
    {
      "name": "Fish_1",
      "primitives": [
        {
          "attributes": {
            "POSITION": 6
          },
          "indices": 7,
          "material": 2,
          "mode": 4
        }
      ]
    },
    {
      "name": "Stone_1",
      "primitives": [
        {
          "attributes": {
            "POSITION": 8
          },
          "indices": 9,
          "material": 3,
          "mode": 4
        }
      ]
    },
    {
      "name": "Plant2_1",
      "primitives": [
        {
          "attributes": {
            "POSITION": 10
          },
          "indices": 11,
          "material": 4,
          "mode": 4
        }
      ]
    },
    {
      "name": "Plant_1",
      "primitives": [
        {
          "attributes": {
            "POSITION": 12
          },
          "indices": 13,
          "material": 4,
          "mode": 4
        }
      ]
    },
    {
      "name": "Cube_1",
      "primitives": [
        {
          "attributes": {
            "POSITION": 14
          },
          "indices": 15,
          "material": 5,
          "mode": 4
        }
      ]
    },
    {
      "name": "Ground_1",
      "primitives": [
        {
          "attributes": {
            "POSITION": 16
          },
          "indices": 17,
          "material": 6,
          "mode": 4
        }
      ]
    },
    {
      "name": "sweethome3d_window_pane_1",
      "primitives": [
        {
          "attributes": {
            "POSITION": 18
          },
          "indices": 19,
          "material": 7,
          "mode": 4
        }
      ]
    },
    {
      "name": "Top_1",
      "primitives": [
        {
          "attributes": {
            "POSITION": 20
          },
          "indices": 21,
          "material": 5,
          "mode": 4
        }
      ]
    },
    {
      "name": "Bottom_1",
      "primitives": [
        {
          "attributes": {
            "POSITION": 22
          },
          "indices": 23,
          "material": 5,
          "mode": 4
        }
      ]
    }
  ],
  "nodes": [
    {
      "name": "Fish2",
      "mesh": 0
    },
    {
      "name": "Eyes2",
      "mesh": 1
    },
    {
      "name": "Eyes",
      "mesh": 2
    },
    {
      "name": "Fish",
      "mesh": 3
    },
    {
      "name": "Stone",
      "mesh": 4
    },
    {
      "name": "Plant2",
      "mesh": 5
    },
    {
      "name": "Plant",
      "mesh": 6
    },
    {
      "name": "Cube",
      "mesh": 7
    },
    {
      "name": "Ground",
      "mesh": 8
    },
    {
      "name": "sweethome3d_window_pane",
      "mesh": 9
    },
    {
      "name": "Top",
      "mesh": 10
    },
    {
      "name": "Bottom",
      "mesh": 11
    }
  ],
  "scene": 0,
  "scenes": [
    {
      "nodes": [
        0,
        1,
        2,
        3,
        4,
        5,
        6,
        7,
        8,
        9,
        10,
        11
      ]
    }
  ]
}
