{
  "accessors": [
    {
      "name": "Etagere_3_1_0_positions",
      "componentType": 5126,
      "count": 8,
      "min": [
        -0.48249998688697815,
        0.7519999742507935,
        -0.20000000298023224
      ],
      "max": [
        0.48249998688697815,
        0.7620000243186951,
        0.20000000298023224
      ],
      "type": "VEC3",
      "bufferView": 0,
      "byteOffset": 0
    },
    {
      "name": "Etagere_3_1_0_indices",
      "componentType": 5123,
      "count": 36,
      "min": [
        0
      ],
      "max": [
        7
      ],
      "type": "SCALAR",
      "bufferView": 1,
      "byteOffset": 0
    },
    {
      "name": "Etagere_1_1_0_positions",
      "componentType": 5126,
      "count": 8,
      "min": [
        -0.48249998688697815,
        -0.9380000233650208,
        -0.20000000298023224
      ],
      "max": [
        0.48249998688697815,
        -0.9279999732971191,
        0.20000000298023224
      ],
      "type": "VEC3",
      "bufferView": 0,
      "byteOffset": 96
    },
    {
      "name": "Etagere_1_1_0_indices",
      "componentType": 5123,
      "count": 36,
      "min": [
        0
      ],
      "max": [
        7
      ],
      "type": "SCALAR",
      "bufferView": 1,
      "byteOffset": 72
    },
    {
      "name": "Etagere_1_0_positions",
      "componentType": 5126,
      "count": 8,
      "min": [
        -0.48249998688697815,
        -0.9380000233650208,
        -0.20000000298023224
      ],
      "max": [
        0.48249998688697815,
        -0.9279999732971191,
        0.20000000298023224
      ],
      "type": "VEC3",
      "bufferView": 0,
      "byteOffset": 192
    },
    {
      "name": "Etagere_1_0_indices",
      "componentType": 5123,
      "count": 36,
      "min": [
        0
      ],
      "max": [
        7
      ],
      "type": "SCALAR",
      "bufferView": 1,
      "byteOffset": 144
    },
    {
      "name": "Etagere_4_1_0_positions",
      "componentType": 5126,
      "count": 8,
      "min": [
        -0.48249998688697815,
        0.47099998593330383,
        -0.20000000298023224
      ],
      "max": [
        0.48249998688697815,
        0.48100000619888306,
        0.20000000298023224
      ],
      "type": "VEC3",
      "bufferView": 0,
      "byteOffset": 288
    },
    {
      "name": "Etagere_4_1_0_indices",
      "componentType": 5123,
      "count": 36,
      "min": [
        0
      ],
      "max": [
        7
      ],
      "type": "SCALAR",
      "bufferView": 1,
      "byteOffset": 216
    },
    {
      "name": "Etagere_6_1_0_positions",
      "componentType": 5126,
      "count": 8,
      "min": [
        -0.48249998688697815,
        -0.656000018119812,
        -0.20000000298023224
      ],
      "max": [
        0.48249998688697815,
        -0.6460000276565552,
        0.20000000298023224
      ],
      "type": "VEC3",
      "bufferView": 0,
      "byteOffset": 384
    },
    {
      "name": "Etagere_6_1_0_indices",
      "componentType": 5123,
      "count": 36,
      "min": [
        0
      ],
      "max": [
        7
      ],
      "type": "SCALAR",
      "bufferView": 1,
      "byteOffset": 288
    },
    {
      "name": "Etagere_2_1_0_positions",
      "componentType": 5126,
      "count": 8,
      "min": [
        -0.48249998688697815,
        1.034000039100647,
        -0.20000000298023224
      ],
      "max": [
        0.48249998688697815,
        1.0440000295639038,
        0.20000000298023224
      ],
      "type": "VEC3",
      "bufferView": 0,
      "byteOffset": 480
    },
    {
      "name": "Etagere_2_1_0_indices",
      "componentType": 5123,
      "count": 36,
      "min": [
        0
      ],
      "max": [
        7
      ],
      "type": "SCALAR",
      "bufferView": 1,
      "byteOffset": 360
    },
    {
      "name": "Etagere_8_1_0_positions",
      "componentType": 5126,
      "count": 8,
      "min": [
        -0.48249998688697815,
        0.1889999955892563,
        -0.20000000298023224
      ],
      "max": [
        0.48249998688697815,
        0.19900000095367432,
        0.20000000298023224
      ],
      "type": "VEC3",
      "bufferView": 0,
      "byteOffset": 576
    },
    {
      "name": "Etagere_8_1_0_indices",
      "componentType": 5123,
      "count": 36,
      "min": [
        0
      ],
      "max": [
        7
      ],
      "type": "SCALAR",
      "bufferView": 1,
      "byteOffset": 432
    },
    {
      "name": "Montant_1_0_positions",
      "componentType": 5126,
      "count": 8,
      "min": [
        0.4749999940395355,
        -1.0549999475479126,
        -0.20000000298023224
      ],
      "max": [
        0.48500001430511475,
        1.0549999475479126,
        0.20000000298023224
      ],
      "type": "VEC3",
      "bufferView": 0,
      "byteOffset": 672
    },
    {
      "name": "Montant_1_0_indices",
      "componentType": 5123,
      "count": 36,
      "min": [
        0
      ],
      "max": [
        7
      ],
      "type": "SCALAR",
      "bufferView": 1,
      "byteOffset": 504
    },
    {
      "name": "Etagere_7_1_0_positions",
      "componentType": 5126,
      "count": 8,
      "min": [
        -0.48249998688697815,
        -0.375,
        -0.20000000298023224
      ],
      "max": [
        0.48249998688697815,
        -0.36500000953674316,
        0.20000000298023224
      ],
      "type": "VEC3",
      "bufferView": 0,
      "byteOffset": 768
    },
    {
      "name": "Etagere_7_1_0_indices",
      "componentType": 5123,
      "count": 36,
      "min": [
        0
      ],
      "max": [
        7
      ],
      "type": "SCALAR",
      "bufferView": 1,
      "byteOffset": 576
    },
    {
      "name": "Montant_1_1_0_positions",
      "componentType": 5126,
      "count": 8,
      "min": [
        -0.48500001430511475,
        -1.0549999475479126,
        -0.20000000298023224
      ],
      "max": [
        -0.4749999940395355,
        1.0549999475479126,
        0.20000000298023224
      ],
      "type": "VEC3",
      "bufferView": 0,
      "byteOffset": 864
    },
    {
      "name": "Montant_1_1_0_indices",
      "componentType": 5123,
      "count": 36,
      "min": [
        0
      ],
      "max": [
        7
      ],
      "type": "SCALAR",
      "bufferView": 1,
      "byteOffset": 648
    },
    {
      "name": "Etagere_5_1_0_positions",
      "componentType": 5126,
      "count": 8,
      "min": [
        -0.48249998688697815,
        -0.09300000220537186,
        -0.20000000298023224
      ],
      "max": [
        0.48249998688697815,
        -0.08299999684095383,
        0.20000000298023224
      ],
      "type": "VEC3",
      "bufferView": 0,
      "byteOffset": 960
    },
    {
      "name": "Etagere_5_1_0_indices",
      "componentType": 5123,
      "count": 36,
      "min": [
        0
      ],
      "max": [
        7
      ],
      "type": "SCALAR",
      "bufferView": 1,
      "byteOffset": 720
    }
  ],
  "asset": {
    "generator": "obj2gltf",
    "version": "2.0"
  },
  "buffers": [
    {
      "name": "bookcase",
      "byteLength": 1848,
      "uri": "data:application/octet-stream;base64,"
    }
  ],
  "bufferViews": [
    {
      "name": "bufferView_0",
      "buffer": 0,
      "byteLength": 1056,
      "byteOffset": 0,
      "byteStride": 12,
      "target": 34962
    },
    {
      "name": "bufferView_1",
      "buffer": 0,
      "byteLength": 792,
      "byteOffset": 1056,
      "target": 34963
    }
  ],
  "materials": [
    {
      "name": "flbrown",
      "pbrMetallicRoughness": {
        "baseColorFactor": [
          0.5,
          0.5,
          0.5,
          1
        ],
        "metallicFactor": 0,
        "roughnessFactor": 1
      },
      "emissiveFactor": [
        0,
        0,
        0
      ],
      "alphaMode": "OPAQUE",
      "doubleSided": false
    }
  ],
  "meshes": [
    {
      "name": "Etagere_3_1",
      "primitives": [
        {
          "attributes": {
            "POSITION": 0
          },
          "indices": 1,
          "material": 0,
          "mode": 4
        }
      ]
    },
    {
      "name": "Etagere_1_1",
      "primitives": [
        {
          "attributes": {
            "POSITION": 2
          },
          "indices": 3,
          "material": 0,
          "mode": 4
        }
      ]
    },
    {
      "name": "Etagere_1",
      "primitives": [
        {
          "attributes": {
            "POSITION": 4
          },
          "indices": 5,
          "material": 0,
          "mode": 4
        }
      ]
    },
    {
      "name": "Etagere_4_1",
      "primitives": [
        {
          "attributes": {
            "POSITION": 6
          },
          "indices": 7,
          "material": 0,
          "mode": 4
        }
      ]
    },
    {
      "name": "Etagere_6_1",
      "primitives": [
        {
          "attributes": {
            "POSITION": 8
          },
          "indices": 9,
          "material": 0,
          "mode": 4
        }
      ]
    },
    {
      "name": "Etagere_2_1",
      "primitives": [
        {
          "attributes": {
            "POSITION": 10
          },
          "indices": 11,
          "material": 0,
          "mode": 4
        }
      ]
    },
    {
      "name": "Etagere_8_1",
      "primitives": [
        {
          "attributes": {
            "POSITION": 12
          },
          "indices": 13,
          "material": 0,
          "mode": 4
        }
      ]
    },
    {
      "name": "Montant_1",
      "primitives": [
        {
          "attributes": {
            "POSITION": 14
          },
          "indices": 15,
          "material": 0,
          "mode": 4
        }
      ]
    },
    {
      "name": "Etagere_7_1",
      "primitives": [
        {
          "attributes": {
            "POSITION": 16
          },
          "indices": 17,
          "material": 0,
          "mode": 4
        }
      ]
    },
    {
      "name": "Montant_1_1",
      "primitives": [
        {
          "attributes": {
            "POSITION": 18
          },
          "indices": 19,
          "material": 0,
          "mode": 4
        }
      ]
    },
    {
      "name": "Etagere_5_1",
      "primitives": [
        {
          "attributes": {
            "POSITION": 20
          },
          "indices": 21,
          "material": 0,
          "mode": 4
        }
      ]
    }
  ],
  "nodes": [
    {
      "name": "Etagere_3",
      "mesh": 0
    },
    {
      "name": "Etagere_1",
      "mesh": 1
    },
    {
      "name": "Etagere",
      "mesh": 2
    },
    {
      "name": "Etagere_4",
      "mesh": 3
    },
    {
      "name": "Etagere_6",
      "mesh": 4
    },
    {
      "name": "Etagere_2",
      "mesh": 5
    },
    {
      "name": "Etagere_8",
      "mesh": 6
    },
    {
      "name": "Montant",
      "mesh": 7
    },
    {
      "name": "Etagere_7",
      "mesh": 8
    },
    {
      "name": "Montant_1",
      "mesh": 9
    },
    {
      "name": "Etagere_5",
      "mesh": 10
    }
  ],
  "scene": 0,
  "scenes": [
    {
      "nodes": [
        0,
        1,
        2,
        3,
        4,
        5,
        6,
        7,
        8,
        9,
        10
      ]
    }
  ]
}
