{
  "accessors": [
    {
      "name": "Echellon_2_1_0_positions",
      "componentType": 5126,
      "count": 8,
      "min": [
        -0.5899999737739563,
        0.41499999165534973,
        0.5
      ],
      "max": [
        -0.5099999904632568,
        0.4350000023841858,
        0.9200000166893005
      ],
      "type": "VEC3",
      "bufferView": 0,
      "byteOffset": 0
    },
    {
      "name": "Echellon_2_1_0_indices",
      "componentType": 5123,
      "count": 36,
      "min": [
        0
      ],
      "max": [
        7
      ],
      "type": "SCALAR",
      "bufferView": 1,
      "byteOffset": 0
    },
    {
      "name": "Pied_1_0_positions",
      "componentType": 5126,
      "count": 32,
      "min": [
        0.4399079978466034,
        -0.49992498755455017,
        -1.0398900508880615
      ],
      "max": [
        0.5599089860916138,
        1.300091028213501,
        -0.9198899865150452
      ],
      "type": "VEC3",
      "bufferView": 0,
      "byteOffset": 96
    },
    {
      "name": "Pied_1_0_indices",
      "componentType": 5123,
      "count": 180,
      "min": [
        0
      ],
      "max": [
        31
      ],
      "type": "SCALAR",
      "bufferView": 1,
      "byteOffset": 72
    },
    {
      "name": "Pied_3_1_0_positions",
      "componentType": 5126,
      "count": 32,
      "min": [
        0.4399079978466034,
        -0.49992498755455017,
        0.9202690124511719
      ],
      "max": [
        0.5599089860916138,
        1.300091028213501,
        1.0402690172195435
      ],
      "type": "VEC3",
      "bufferView": 0,
      "byteOffset": 480
    },
    {
      "name": "Pied_3_1_0_indices",
      "componentType": 5123,
      "count": 180,
      "min": [
        0
      ],
      "max": [
        31
      ],
      "type": "SCALAR",
      "bufferView": 1,
      "byteOffset": 432
    },
    {
      "name": "Matelas_1_1_0_positions",
      "componentType": 5126,
      "count": 96,
      "min": [
        -0.4399780035018921,
        0.850176990032196,
        -0.9473850131034851
      ],
      "max": [
        0.4600220024585724,
        1.0401779413223267,
        0.9506149888038635
      ],
      "type": "VEC3",
      "bufferView": 0,
      "byteOffset": 864
    },
    {
      "name": "Matelas_1_1_0_indices",
      "componentType": 5123,
      "count": 564,
      "min": [
        0
      ],
      "max": [
        95
      ],
      "type": "SCALAR",
      "bufferView": 1,
      "byteOffset": 792
    },
    {
      "name": "Bord_1_0_positions",
      "componentType": 5126,
      "count": 8,
      "min": [
        -0.5,
        -0.30000001192092896,
        -1.0049999952316284
      ],
      "max": [
        0.5199999809265137,
        0.15000000596046448,
        -0.9549999833106995
      ],
      "type": "VEC3",
      "bufferView": 0,
      "byteOffset": 2016
    },
    {
      "name": "Bord_1_0_indices",
      "componentType": 5123,
      "count": 36,
      "min": [
        0
      ],
      "max": [
        7
      ],
      "type": "SCALAR",
      "bufferView": 1,
      "byteOffset": 1920
    },
    {
      "name": "Bord_7_1_0_positions",
      "componentType": 5126,
      "count": 18,
      "min": [
        -0.4950000047683716,
        0.7799999713897705,
        -1.0099999904632568
      ],
      "max": [
        -0.4449999928474426,
        1.2300000190734863,
        1
      ],
      "type": "VEC3",
      "bufferView": 0,
      "byteOffset": 2112
    },
    {
      "name": "Bord_7_1_0_indices",
      "componentType": 5123,
      "count": 96,
      "min": [
        0
      ],
      "max": [
        17
      ],
      "type": "SCALAR",
      "bufferView": 1,
      "byteOffset": 1992
    },
    {
      "name": "Echelle_1_0_positions",
      "componentType": 5126,
      "count": 8,
      "min": [
        -0.6000000238418579,
        -0.5,
        0.49000000953674316
      ],
      "max": [
        -0.5,
        1.2200000286102295,
        0.5199999809265137
      ],
      "type": "VEC3",
      "bufferView": 0,
      "byteOffset": 2328
    },
    {
      "name": "Echelle_1_0_indices",
      "componentType": 5123,
      "count": 36,
      "min": [
        0
      ],
      "max": [
        7
      ],
      "type": "SCALAR",
      "bufferView": 1,
      "byteOffset": 2184
    },
    {
      "name": "Matelas_1_0_positions",
      "componentType": 5126,
      "count": 96,
      "min": [
        -0.4399780035018921,
        -0.19039300084114075,
        -0.9473850131034851
      ],
      "max": [
        0.4600220024585724,
        -0.000391999987186864,
        0.9506149888038635
      ],
      "type": "VEC3",
      "bufferView": 0,
      "byteOffset": 2424
    },
    {
      "name": "Matelas_1_0_indices",
      "componentType": 5123,
      "count": 564,
      "min": [
        0
      ],
      "max": [
        95
      ],
      "type": "SCALAR",
      "bufferView": 1,
      "byteOffset": 2256
    },
    {
      "name": "Bord_4_1_0_positions",
      "componentType": 5126,
      "count": 8,
      "min": [
        0.4650000035762787,
        0.7799999713897705,
        -1.0099999904632568
      ],
      "max": [
        0.5149999856948853,
        1.2300000190734863,
        1
      ],
      "type": "VEC3",
      "bufferView": 0,
      "byteOffset": 3576
    },
    {
      "name": "Bord_4_1_0_indices",
      "componentType": 5123,
      "count": 36,
      "min": [
        0
      ],
      "max": [
        7
      ],
      "type": "SCALAR",
      "bufferView": 1,
      "byteOffset": 3384
    },
    {
      "name": "Bord_5_1_0_positions",
      "componentType": 5126,
      "count": 8,
      "min": [
        -0.5,
        0.7799999713897705,
        0.9549999833106995
      ],
      "max": [
        0.5199999809265137,
        1.2300000190734863,
        1.0049999952316284
      ],
      "type": "VEC3",
      "bufferView": 0,
      "byteOffset": 3672
    },
    {
      "name": "Bord_5_1_0_indices",
      "componentType": 5123,
      "count": 36,
      "min": [
        0
      ],
      "max": [
        7
      ],
      "type": "SCALAR",
      "bufferView": 1,
      "byteOffset": 3456
    },
    {
      "name": "Pied_1_1_0_positions",
      "componentType": 5126,
      "count": 32,
      "min": [
        -0.5199949741363525,
        -0.49992498755455017,
        -1.0398900508880615
      ],
      "max": [
        -0.39999499917030334,
        1.300091028213501,
        -0.9198899865150452
      ],
      "type": "VEC3",
      "bufferView": 0,
      "byteOffset": 3768
    },
    {
      "name": "Pied_1_1_0_indices",
      "componentType": 5123,
      "count": 180,
      "min": [
        0
      ],
      "max": [
        31
      ],
      "type": "SCALAR",
      "bufferView": 1,
      "byteOffset": 3528
    },
    {
      "name": "Echellon_1_0_positions",
      "componentType": 5126,
      "count": 8,
      "min": [
        -0.5899999737739563,
        -0.14499999582767487,
        0.5
      ],
      "max": [
        -0.5099999904632568,
        -0.125,
        0.9200000166893005
      ],
      "type": "VEC3",
      "bufferView": 0,
      "byteOffset": 4152
    },
    {
      "name": "Echellon_1_0_indices",
      "componentType": 5123,
      "count": 36,
      "min": [
        0
      ],
      "max": [
        7
      ],
      "type": "SCALAR",
      "bufferView": 1,
      "byteOffset": 3888
    },
    {
      "name": "Bord_3_1_0_positions",
      "componentType": 5126,
      "count": 8,
      "min": [
        -0.4950000047683716,
        -0.30000001192092896,
        -1.0099999904632568
      ],
      "max": [
        -0.4449999928474426,
        -0.05999999865889549,
        1
      ],
      "type": "VEC3",
      "bufferView": 0,
      "byteOffset": 4248
    },
    {
      "name": "Bord_3_1_0_indices",
      "componentType": 5123,
      "count": 36,
      "min": [
        0
      ],
      "max": [
        7
      ],
      "type": "SCALAR",
      "bufferView": 1,
      "byteOffset": 3960
    },
    {
      "name": "Echelle_1_1_0_positions",
      "componentType": 5126,
      "count": 8,
      "min": [
        -0.6000000238418579,
        -0.5,
        0.9049999713897705
      ],
      "max": [
        -0.5,
        1.2200000286102295,
        0.9350000023841858
      ],
      "type": "VEC3",
      "bufferView": 0,
      "byteOffset": 4344
    },
    {
      "name": "Echelle_1_1_0_indices",
      "componentType": 5123,
      "count": 36,
      "min": [
        0
      ],
      "max": [
        7
      ],
      "type": "SCALAR",
      "bufferView": 1,
      "byteOffset": 4032
    },
    {
      "name": "Echellon_3_1_0_positions",
      "componentType": 5126,
      "count": 8,
      "min": [
        -0.5899999737739563,
        0.6949999928474426,
        0.5
      ],
      "max": [
        -0.5099999904632568,
        0.7149999737739563,
        0.9200000166893005
      ],
      "type": "VEC3",
      "bufferView": 0,
      "byteOffset": 4440
    },
    {
      "name": "Echellon_3_1_0_indices",
      "componentType": 5123,
      "count": 36,
      "min": [
        0
      ],
      "max": [
        7
      ],
      "type": "SCALAR",
      "bufferView": 1,
      "byteOffset": 4104
    },
    {
      "name": "Pied_2_1_0_positions",
      "componentType": 5126,
      "count": 32,
      "min": [
        -0.5199949741363525,
        -0.49992498755455017,
        0.9202690124511719
      ],
      "max": [
        -0.39999499917030334,
        1.300091028213501,
        1.0402690172195435
      ],
      "type": "VEC3",
      "bufferView": 0,
      "byteOffset": 4536
    },
    {
      "name": "Pied_2_1_0_indices",
      "componentType": 5123,
      "count": 180,
      "min": [
        0
      ],
      "max": [
        31
      ],
      "type": "SCALAR",
      "bufferView": 1,
      "byteOffset": 4176
    },
    {
      "name": "Echellon_1_1_0_positions",
      "componentType": 5126,
      "count": 8,
      "min": [
        -0.5899999737739563,
        0.13500000536441803,
        0.5
      ],
      "max": [
        -0.5099999904632568,
        0.1550000011920929,
        0.9200000166893005
      ],
      "type": "VEC3",
      "bufferView": 0,
      "byteOffset": 4920
    },
    {
      "name": "Echellon_1_1_0_indices",
      "componentType": 5123,
      "count": 36,
      "min": [
        0
      ],
      "max": [
        7
      ],
      "type": "SCALAR",
      "bufferView": 1,
      "byteOffset": 4536
    },
    {
      "name": "Bord_2_1_0_positions",
      "componentType": 5126,
      "count": 8,
      "min": [
        0.4650000035762787,
        -0.30000001192092896,
        -1.0099999904632568
      ],
      "max": [
        0.5149999856948853,
        -0.05999999865889549,
        1
      ],
      "type": "VEC3",
      "bufferView": 0,
      "byteOffset": 5016
    },
    {
      "name": "Bord_2_1_0_indices",
      "componentType": 5123,
      "count": 36,
      "min": [
        0
      ],
      "max": [
        7
      ],
      "type": "SCALAR",
      "bufferView": 1,
      "byteOffset": 4608
    },
    {
      "name": "Bord_6_1_0_positions",
      "componentType": 5126,
      "count": 8,
      "min": [
        -0.5,
        0.7799999713897705,
        -1.0049999952316284
      ],
      "max": [
        0.5199999809265137,
        1.2300000190734863,
        -0.9549999833106995
      ],
      "type": "VEC3",
      "bufferView": 0,
      "byteOffset": 5112
    },
    {
      "name": "Bord_6_1_0_indices",
      "componentType": 5123,
      "count": 36,
      "min": [
        0
      ],
      "max": [
        7
      ],
      "type": "SCALAR",
      "bufferView": 1,
      "byteOffset": 4680
    },
    {
      "name": "Bord_1_1_0_positions",
      "componentType": 5126,
      "count": 8,
      "min": [
        -0.5,
        -0.30000001192092896,
        0.9549999833106995
      ],
      "max": [
        0.5199999809265137,
        -0.05999999865889549,
        1.0049999952316284
      ],
      "type": "VEC3",
      "bufferView": 0,
      "byteOffset": 5208
    },
    {
      "name": "Bord_1_1_0_indices",
      "componentType": 5123,
      "count": 36,
      "min": [
        0
      ],
      "max": [
        7
      ],
      "type": "SCALAR",
      "bufferView": 1,
      "byteOffset": 4752
    }
  ],
  "asset": {
    "generator": "obj2gltf",
    "version": "2.0"
  },
  "buffers": [
    {
      "name": "bunkBed90x190",
      "byteLength": 10128,
      "uri": "data:application/octet-stream;base64,"
    }
  ],
  "bufferViews": [
    {
      "name": "bufferView_0",
      "buffer": 0,
      "byteLength": 5304,
      "byteOffset": 0,
      "byteStride": 12,
      "target": 34962
    },
    {
      "name": "bufferView_1",
      "buffer": 0,
      "byteLength": 4824,
      "byteOffset": 5304,
      "target": 34963
    }
  ],
  "materials": [
    {
      "name": "flyellow",
      "pbrMetallicRoughness": {
        "baseColorFactor": [
          0.5,
          0.5,
          0.5,
          1
        ],
        "metallicFactor": 0,
        "roughnessFactor": 1
      },
      "emissiveFactor": [
        0,
        0,
        0
      ],
      "alphaMode": "OPAQUE",
      "doubleSided": false
    },
    {
      "name": "bone2",
      "pbrMetallicRoughness": {
        "baseColorFactor": [
          0.5,
          0.5,
          0.5,
          1
        ],
        "metallicFactor": 0,
        "roughnessFactor": 1
      },
      "emissiveFactor": [
        0,
        0,
        0
      ],
      "alphaMode": "OPAQUE",
      "doubleSided": false
    }
  ],
  "meshes": [
    {
      "name": "Echellon_2_1",
      "primitives": [
        {
          "attributes": {
            "POSITION": 0
          },
          "indices": 1,
          "material": 0,
          "mode": 4
        }
      ]
    },
    {
      "name": "Pied_1",
      "primitives": [
        {
          "attributes": {
            "POSITION": 2
          },
          "indices": 3,
          "material": 0,
          "mode": 4
        }
      ]
    },
    {
      "name": "Pied_3_1",
      "primitives": [
        {
          "attributes": {
            "POSITION": 4
          },
          "indices": 5,
          "material": 0,
          "mode": 4
        }
      ]
    },
    {
      "name": "Matelas_1_1",
      "primitives": [
        {
          "attributes": {
            "POSITION": 6
          },
          "indices": 7,
          "material": 1,
          "mode": 4
        }
      ]
    },
    {
      "name": "Bord_1",
      "primitives": [
        {
          "attributes": {
            "POSITION": 8
          },
          "indices": 9,
          "material": 0,
          "mode": 4
        }
      ]
    },
    {
      "name": "Bord_7_1",
      "primitives": [
        {
          "attributes": {
            "POSITION": 10
          },
          "indices": 11,
          "material": 0,
          "mode": 4
        }
      ]
    },
    {
      "name": "Echelle_1",
      "primitives": [
        {
          "attributes": {
            "POSITION": 12
          },
          "indices": 13,
          "material": 0,
          "mode": 4
        }
      ]
    },
    {
      "name": "Matelas_1",
      "primitives": [
        {
          "attributes": {
            "POSITION": 14
          },
          "indices": 15,
          "material": 1,
          "mode": 4
        }
      ]
    },
    {
      "name": "Bord_4_1",
      "primitives": [
        {
          "attributes": {
            "POSITION": 16
          },
          "indices": 17,
          "material": 0,
          "mode": 4
        }
      ]
    },
    {
      "name": "Bord_5_1",
      "primitives": [
        {
          "attributes": {
            "POSITION": 18
          },
          "indices": 19,
          "material": 0,
          "mode": 4
        }
      ]
    },
    {
      "name": "Pied_1_1",
      "primitives": [
        {
          "attributes": {
            "POSITION": 20
          },
          "indices": 21,
          "material": 0,
          "mode": 4
        }
      ]
    },
    {
      "name": "Echellon_1",
      "primitives": [
        {
          "attributes": {
            "POSITION": 22
          },
          "indices": 23,
          "material": 0,
          "mode": 4
        }
      ]
    },
    {
      "name": "Bord_3_1",
      "primitives": [
        {
          "attributes": {
            "POSITION": 24
          },
          "indices": 25,
          "material": 0,
          "mode": 4
        }
      ]
    },
    {
      "name": "Echelle_1_1",
      "primitives": [
        {
          "attributes": {
            "POSITION": 26
          },
          "indices": 27,
          "material": 0,
          "mode": 4
        }
      ]
    },
    {
      "name": "Echellon_3_1",
      "primitives": [
        {
          "attributes": {
            "POSITION": 28
          },
          "indices": 29,
          "material": 0,
          "mode": 4
        }
      ]
    },
    {
      "name": "Pied_2_1",
      "primitives": [
        {
          "attributes": {
            "POSITION": 30
          },
          "indices": 31,
          "material": 0,
          "mode": 4
        }
      ]
    },
    {
      "name": "Echellon_1_1",
      "primitives": [
        {
          "attributes": {
            "POSITION": 32
          },
          "indices": 33,
          "material": 0,
          "mode": 4
        }
      ]
    },
    {
      "name": "Bord_2_1",
      "primitives": [
        {
          "attributes": {
            "POSITION": 34
          },
          "indices": 35,
          "material": 0,
          "mode": 4
        }
      ]
    },
    {
      "name": "Bord_6_1",
      "primitives": [
        {
          "attributes": {
            "POSITION": 36
          },
          "indices": 37,
          "material": 0,
          "mode": 4
        }
      ]
    },
    {
      "name": "Bord_1_1",
      "primitives": [
        {
          "attributes": {
            "POSITION": 38
          },
          "indices": 39,
          "material": 0,
          "mode": 4
        }
      ]
    }
  ],
  "nodes": [
    {
      "name": "Echellon_2",
      "mesh": 0
    },
    {
      "name": "Pied",
      "mesh": 1
    },
    {
      "name": "Pied_3",
      "mesh": 2
    },
    {
      "name": "Matelas_1",
      "mesh": 3
    },
    {
      "name": "Bord",
      "mesh": 4
    },
    {
      "name": "Bord_7",
      "mesh": 5
    },
    {
      "name": "Echelle",
      "mesh": 6
    },
    {
      "name": "Matelas",
      "mesh": 7
    },
    {
      "name": "Bord_4",
      "mesh": 8
    },
    {
      "name": "Bord_5",
      "mesh": 9
    },
    {
      "name": "Pied_1",
      "mesh": 10
    },
    {
      "name": "Echellon",
      "mesh": 11
    },
    {
      "name": "Bord_3",
      "mesh": 12
    },
    {
      "name": "Echelle_1",
      "mesh": 13
    },
    {
      "name": "Echellon_3",
      "mesh": 14
    },
    {
      "name": "Pied_2",
      "mesh": 15
    },
    {
      "name": "Echellon_1",
      "mesh": 16
    },
    {
      "name": "Bord_2",
      "mesh": 17
    },
    {
      "name": "Bord_6",
      "mesh": 18
    },
    {
      "name": "Bord_1",
      "mesh": 19
    }
  ],
  "scene": 0,
  "scenes": [
    {
      "nodes": [
        0,
        1,
        2,
        3,
        4,
        5,
        6,
        7,
        8,
        9,
        10,
        11,
        12,
        13,
        14,
        15,
        16,
        17,
        18,
        19
      ]
    }
  ]
}
