{
  "accessors": [
    {
      "name": "Montant_1_0_positions",
      "componentType": 5126,
      "count": 8,
      "min": [
        -1.8499599695205688,
        -0.02418999932706356,
        -2.3742990493774414
      ],
      "max": [
        -1.549739956855774,
        4.484889984130859,
        -1.6830999851226807
      ],
      "type": "VEC3",
      "bufferView": 0,
      "byteOffset": 0
    },
    {
      "name": "Montant_1_0_indices",
      "componentType": 5123,
      "count": 36,
      "min": [
        0
      ],
      "max": [
        7
      ],
      "type": "SCALAR",
      "bufferView": 1,
      "byteOffset": 0
    },
    {
      "name": "Pied_1_0_positions",
      "componentType": 5126,
      "count": 8,
      "min": [
        1.5499999523162842,
        -4.510000228881836,
        1.5299999713897705
      ],
      "max": [
        1.850000023841858,
        -0.009999999776482582,
        1.8300000429153442
      ],
      "type": "VEC3",
      "bufferView": 0,
      "byteOffset": 96
    },
    {
      "name": "Pied_1_0_indices",
      "componentType": 5123,
      "count": 36,
      "min": [
        0
      ],
      "max": [
        7
      ],
      "type": "SCALAR",
      "bufferView": 1,
      "byteOffset": 72
    },
    {
      "name": "Pied_2_1_0_positions",
      "componentType": 5126,
      "count": 8,
      "min": [
        -1.850000023841858,
        -4.510000228881836,
        -2
      ],
      "max": [
        -1.5499999523162842,
        -0.009999999776482582,
        -1.7000000476837158
      ],
      "type": "VEC3",
      "bufferView": 0,
      "byteOffset": 192
    },
    {
      "name": "Pied_2_1_0_indices",
      "componentType": 5123,
      "count": 36,
      "min": [
        0
      ],
      "max": [
        7
      ],
      "type": "SCALAR",
      "bufferView": 1,
      "byteOffset": 144
    },
    {
      "name": "Dossier_1_0_positions",
      "componentType": 5126,
      "count": 8,
      "min": [
        -1.8301000595092773,
        1.9127000570297241,
        -2.175800085067749
      ],
      "max": [
        1.7077000141143799,
        2.8529999256134033,
        -1.9465999603271484
      ],
      "type": "VEC3",
      "bufferView": 0,
      "byteOffset": 288
    },
    {
      "name": "Dossier_1_0_indices",
      "componentType": 5123,
      "count": 36,
      "min": [
        0
      ],
      "max": [
        7
      ],
      "type": "SCALAR",
      "bufferView": 1,
      "byteOffset": 216
    },
    {
      "name": "Pied_1_1_0_positions",
      "componentType": 5126,
      "count": 8,
      "min": [
        1.5499999523162842,
        -4.510000228881836,
        -2
      ],
      "max": [
        1.850000023841858,
        -0.009999999776482582,
        -1.7000000476837158
      ],
      "type": "VEC3",
      "bufferView": 0,
      "byteOffset": 384
    },
    {
      "name": "Pied_1_1_0_indices",
      "componentType": 5123,
      "count": 36,
      "min": [
        0
      ],
      "max": [
        7
      ],
      "type": "SCALAR",
      "bufferView": 1,
      "byteOffset": 288
    },
    {
      "name": "Assise_1_0_positions",
      "componentType": 5126,
      "count": 8,
      "min": [
        -2,
        -0.09000000357627869,
        -2.009999990463257
      ],
      "max": [
        2,
        0.09000000357627869,
        1.9900000095367432
      ],
      "type": "VEC3",
      "bufferView": 0,
      "byteOffset": 480
    },
    {
      "name": "Assise_1_0_indices",
      "componentType": 5123,
      "count": 36,
      "min": [
        0
      ],
      "max": [
        7
      ],
      "type": "SCALAR",
      "bufferView": 1,
      "byteOffset": 360
    },
    {
      "name": "Dossier_1_1_0_positions",
      "componentType": 5126,
      "count": 8,
      "min": [
        -1.8301000595092773,
        3.452699899673462,
        -2.2957990169525146
      ],
      "max": [
        1.7077000141143799,
        4.393001079559326,
        -2.0666000843048096
      ],
      "type": "VEC3",
      "bufferView": 0,
      "byteOffset": 576
    },
    {
      "name": "Dossier_1_1_0_indices",
      "componentType": 5123,
      "count": 36,
      "min": [
        0
      ],
      "max": [
        7
      ],
      "type": "SCALAR",
      "bufferView": 1,
      "byteOffset": 432
    },
    {
      "name": "Montant_1_1_0_positions",
      "componentType": 5126,
      "count": 8,
      "min": [
        1.5499399900436401,
        0.005499999970197678,
        -2.375598907470703
      ],
      "max": [
        1.850059986114502,
        4.514501094818115,
        -1.684399962425232
      ],
      "type": "VEC3",
      "bufferView": 0,
      "byteOffset": 672
    },
    {
      "name": "Montant_1_1_0_indices",
      "componentType": 5123,
      "count": 36,
      "min": [
        0
      ],
      "max": [
        7
      ],
      "type": "SCALAR",
      "bufferView": 1,
      "byteOffset": 504
    },
    {
      "name": "Pied_3_1_0_positions",
      "componentType": 5126,
      "count": 8,
      "min": [
        -1.850000023841858,
        -4.510000228881836,
        1.5299999713897705
      ],
      "max": [
        -1.5499999523162842,
        -0.009999999776482582,
        1.8300000429153442
      ],
      "type": "VEC3",
      "bufferView": 0,
      "byteOffset": 768
    },
    {
      "name": "Pied_3_1_0_indices",
      "componentType": 5123,
      "count": 36,
      "min": [
        0
      ],
      "max": [
        7
      ],
      "type": "SCALAR",
      "bufferView": 1,
      "byteOffset": 576
    }
  ],
  "asset": {
    "generator": "obj2gltf",
    "version": "2.0"
  },
  "buffers": [
    {
      "name": "chair",
      "byteLength": 1512,
      "uri": "data:application/octet-stream;base64,"
    }
  ],
  "bufferViews": [
    {
      "name": "bufferView_0",
      "buffer": 0,
      "byteLength": 864,
      "byteOffset": 0,
      "byteStride": 12,
      "target": 34962
    },
    {
      "name": "bufferView_1",
      "buffer": 0,
      "byteLength": 648,
      "byteOffset": 864,
      "target": 34963
    }
  ],
  "materials": [
    {
      "name": "amber",
      "pbrMetallicRoughness": {
        "baseColorFactor": [
          0.5,
          0.5,
          0.5,
          1
        ],
        "metallicFactor": 0,
        "roughnessFactor": 1
      },
      "emissiveFactor": [
        0,
        0,
        0
      ],
      "alphaMode": "OPAQUE",
      "doubleSided": false
    }
  ],
  "meshes": [
    {
      "name": "Montant_1",
      "primitives": [
        {
          "attributes": {
            "POSITION": 0
          },
          "indices": 1,
          "material": 0,
          "mode": 4
        }
      ]
    },
    {
      "name": "Pied_1",
      "primitives": [
        {
          "attributes": {
            "POSITION": 2
          },
          "indices": 3,
          "material": 0,
          "mode": 4
        }
      ]
    },
    {
      "name": "Pied_2_1",
      "primitives": [
        {
          "attributes": {
            "POSITION": 4
          },
          "indices": 5,
          "material": 0,
          "mode": 4
        }
      ]
    },
    {
      "name": "Dossier_1",
      "primitives": [
        {
          "attributes": {
            "POSITION": 6
          },
          "indices": 7,
          "material": 0,
          "mode": 4
        }
      ]
    },
    {
      "name": "Pied_1_1",
      "primitives": [
        {
          "attributes": {
            "POSITION": 8
          },
          "indices": 9,
          "material": 0,
          "mode": 4
        }
      ]
    },
    {
      "name": "Assise_1",
      "primitives": [
        {
          "attributes": {
            "POSITION": 10
          },
          "indices": 11,
          "material": 0,
          "mode": 4
        }
      ]
    },
    {
      "name": "Dossier_1_1",
      "primitives": [
        {
          "attributes": {
            "POSITION": 12
          },
          "indices": 13,
          "material": 0,
          "mode": 4
        }
      ]
    },
    {
      "name": "Montant_1_1",
      "primitives": [
        {
          "attributes": {
            "POSITION": 14
          },
          "indices": 15,
          "material": 0,
          "mode": 4
        }
      ]
    },
    {
      "name": "Pied_3_1",
      "primitives": [
        {
          "attributes": {
            "POSITION": 16
          },
          "indices": 17,
          "material": 0,
          "mode": 4
        }
      ]
    }
  ],
  "nodes": [
    {
      "name": "Montant",
      "mesh": 0
    },
    {
      "name": "Pied",
      "mesh": 1
    },
    {
      "name": "Pied_2",
      "mesh": 2
    },
    {
      "name": "Dossier",
      "mesh": 3
    },
    {
      "name": "Pied_1",
      "mesh": 4
    },
    {
      "name": "Assise",
      "mesh": 5
    },
    {
      "name": "Dossier_1",
      "mesh": 6
    },
    {
      "name": "Montant_1",
      "mesh": 7
    },
    {
      "name": "Pied_3",
      "mesh": 8
    }
  ],
  "scene": 0,
  "scenes": [
    {
      "nodes": [
        0,
        1,
        2,
        3,
        4,
        5,
        6,
        7,
        8
      ]
    }
  ]
}
