{
  "accessors": [
    {
      "name": "Seat_1_0_positions",
      "componentType": 5126,
      "count": 130,
      "min": [
        -0.21180300414562225,
        0.2115200012922287,
        -0.19066199660301208
      ],
      "max": [
        0.2117999941110611,
        0.2369460016489029,
        0.2230689972639084
      ],
      "type": "VEC3",
      "bufferView": 0,
      "byteOffset": 0
    },
    {
      "name": "Seat_1_0_indices",
      "componentType": 5123,
      "count": 768,
      "min": [
        0
      ],
      "max": [
        129
      ],
      "type": "SCALAR",
      "bufferView": 1,
      "byteOffset": 0
    },
    {
      "name": "Back_1_0_positions",
      "componentType": 5126,
      "count": 120,
      "min": [
        -0.21862000226974487,
        0.3971399962902069,
        -0.267069011926651
      ],
      "max": [
        0.2183929979801178,
        0.5787569880485535,
        -0.1520649939775467
      ],
      "type": "VEC3",
      "bufferView": 0,
      "byteOffset": 1560
    },
    {
      "name": "Back_1_0_indices",
      "componentType": 5123,
      "count": 708,
      "min": [
        0
      ],
      "max": [
        119
      ],
      "type": "SCALAR",
      "bufferView": 1,
      "byteOffset": 1536
    },
    {
      "name": "Feet_1_0_positions",
      "componentType": 5126,
      "count": 96,
      "min": [
        -0.24121199548244476,
        -0.2150000035762787,
        -0.2721889913082123
      ],
      "max": [
        0.24118900299072266,
        0.5500360131263733,
        0.20857299864292145
      ],
      "type": "VEC3",
      "bufferView": 0,
      "byteOffset": 3000
    },
    {
      "name": "Feet_1_0_indices",
      "componentType": 5123,
      "count": 552,
      "min": [
        0
      ],
      "max": [
        95
      ],
      "type": "SCALAR",
      "bufferView": 1,
      "byteOffset": 2952
    }
  ],
  "asset": {
    "generator": "obj2gltf",
    "version": "2.0"
  },
  "buffers": [
    {
      "name": "chair2",
      "byteLength": 8208,
      "uri": "data:application/octet-stream;base64,"
    }
  ],
  "bufferViews": [
    {
      "name": "bufferView_0",
      "buffer": 0,
      "byteLength": 4152,
      "byteOffset": 0,
      "byteStride": 12,
      "target": 34962
    },
    {
      "name": "bufferView_1",
      "buffer": 0,
      "byteLength": 4056,
      "byteOffset": 4152,
      "target": 34963
    }
  ],
  "materials": [
    {
      "name": "fltan",
      "pbrMetallicRoughness": {
        "baseColorFactor": [
          0.5,
          0.5,
          0.5,
          1
        ],
        "metallicFactor": 0,
        "roughnessFactor": 1
      },
      "emissiveFactor": [
        0,
        0,
        0
      ],
      "alphaMode": "OPAQUE",
      "doubleSided": false
    },
    {
      "name": "flltgrey",
      "pbrMetallicRoughness": {
        "baseColorFactor": [
          0.5,
          0.5,
          0.5,
          1
        ],
        "metallicFactor": 0,
        "roughnessFactor": 1
      },
      "emissiveFactor": [
        0,
        0,
        0
      ],
      "alphaMode": "OPAQUE",
      "doubleSided": false
    }
  ],
  "meshes": [
    {
      "name": "Seat_1",
      "primitives": [
        {
          "attributes": {
            "POSITION": 0
          },
          "indices": 1,
          "material": 0,
          "mode": 4
        }
      ]
    },
    {
      "name": "Back_1",
      "primitives": [
        {
          "attributes": {
            "POSITION": 2
          },
          "indices": 3,
          "material": 0,
          "mode": 4
        }
      ]
    },
    {
      "name": "Feet_1",
      "primitives": [
        {
          "attributes": {
            "POSITION": 4
          },
          "indices": 5,
          "material": 1,
          "mode": 4
        }
      ]
    }
  ],
  "nodes": [
    {
      "name": "Seat",
      "mesh": 0
    },
    {
      "name": "Back",
      "mesh": 1
    },
    {
      "name": "Feet",
      "mesh": 2
    }
  ],
  "scene": 0,
  "scenes": [
    {
      "nodes": [
        0,
        1,
        2
      ]
    }
  ]
}
