{
  "accessors": [
    {
      "name": "Feet_1_0_positions",
      "componentType": 5126,
      "count": 72,
      "min": [
        -0.5460789799690247,
        -0.38749998807907104,
        -0.07327699661254883
      ],
      "max": [
        0.5460780262947083,
        -0.012500000186264515,
        0.27927398681640625
      ],
      "type": "VEC3",
      "bufferView": 0,
      "byteOffset": 0
    },
    {
      "name": "Feet_1_0_indices",
      "componentType": 5123,
      "count": 396,
      "min": [
        0
      ],
      "max": [
        71
      ],
      "type": "SCALAR",
      "bufferView": 1,
      "byteOffset": 0
    },
    {
      "name": "Table_1_0_positions",
      "componentType": 5126,
      "count": 152,
      "min": [
        -0.6268410086631775,
        -0.012500000186264515,
        -0.16649499535560608
      ],
      "max": [
        0.6231589913368225,
        0.012500000186264515,
        0.2935050129890442
      ],
      "type": "VEC3",
      "bufferView": 0,
      "byteOffset": 864
    },
    {
      "name": "Table_1_0_indices",
      "componentType": 5123,
      "count": 900,
      "min": [
        0
      ],
      "max": [
        151
      ],
      "type": "SCALAR",
      "bufferView": 1,
      "byteOffset": 792
    }
  ],
  "asset": {
    "generator": "obj2gltf",
    "version": "2.0"
  },
  "buffers": [
    {
      "name": "coffeeTable",
      "byteLength": 5280,
      "uri": "data:application/octet-stream;base64,"
    }
  ],
  "bufferViews": [
    {
      "name": "bufferView_0",
      "buffer": 0,
      "byteLength": 2688,
      "byteOffset": 0,
      "byteStride": 12,
      "target": 34962
    },
    {
      "name": "bufferView_1",
      "buffer": 0,
      "byteLength": 2592,
      "byteOffset": 2688,
      "target": 34963
    }
  ],
  "materials": [
    {
      "name": "brzskin",
      "pbrMetallicRoughness": {
        "baseColorFactor": [
          0.5,
          0.5,
          0.5,
          1
        ],
        "metallicFactor": 0,
        "roughnessFactor": 1
      },
      "emissiveFactor": [
        0,
        0,
        0
      ],
      "alphaMode": "OPAQUE",
      "doubleSided": false
    },
    {
      "name": "grey",
      "pbrMetallicRoughness": {
        "baseColorFactor": [
          0.5,
          0.5,
          0.5,
          1
        ],
        "metallicFactor": 0,
        "roughnessFactor": 1
      },
      "emissiveFactor": [
        0,
        0,
        0
      ],
      "alphaMode": "OPAQUE",
      "doubleSided": false
    }
  ],
  "meshes": [
    {
      "name": "Feet_1",
      "primitives": [
        {
          "attributes": {
            "POSITION": 0
          },
          "indices": 1,
          "material": 0,
          "mode": 4
        }
      ]
    },
    {
      "name": "Table_1",
      "primitives": [
        {
          "attributes": {
            "POSITION": 2
          },
          "indices": 3,
          "material": 1,
          "mode": 4
        }
      ]
    }
  ],
  "nodes": [
    {
      "name": "Feet",
      "mesh": 0
    },
    {
      "name": "Table",
      "mesh": 1
    }
  ],
  "scene": 0,
  "scenes": [
    {
      "nodes": [
        0,
        1
      ]
    }
  ]
}
