{
  "accessors": [
    {
      "name": "Echellon_2_1_0_positions",
      "componentType": 5126,
      "count": 8,
      "min": [
        0.499675989151001,
        0.9155009984970093,
        0.5291339755058289
      ],
      "max": [
        0.9196760058403015,
        0.935500979423523,
        0.6091340184211731
      ],
      "type": "VEC3",
      "bufferView": 0,
      "byteOffset": 0
    },
    {
      "name": "Echellon_2_1_0_indices",
      "componentType": 5123,
      "count": 36,
      "min": [
        0
      ],
      "max": [
        7
      ],
      "type": "SCALAR",
      "bufferView": 1,
      "byteOffset": 0
    },
    {
      "name": "Pied_1_0_positions",
      "componentType": 5126,
      "count": 32,
      "min": [
        -1.040215015411377,
        0.0005760000203736126,
        -0.5407750010490417
      ],
      "max": [
        -0.9202150106430054,
        1.5505919456481934,
        -0.42077499628067017
      ],
      "type": "VEC3",
      "bufferView": 0,
      "byteOffset": 96
    },
    {
      "name": "Pied_1_0_indices",
      "componentType": 5123,
      "count": 180,
      "min": [
        0
      ],
      "max": [
        31
      ],
      "type": "SCALAR",
      "bufferView": 1,
      "byteOffset": 72
    },
    {
      "name": "Bord_7_1_0_positions",
      "componentType": 5126,
      "count": 18,
      "min": [
        -1.0103240013122559,
        1.0305010080337524,
        0.46413400769233704
      ],
      "max": [
        0.999675989151001,
        1.4805010557174683,
        0.5141339898109436
      ],
      "type": "VEC3",
      "bufferView": 0,
      "byteOffset": 480
    },
    {
      "name": "Bord_7_1_0_indices",
      "componentType": 5123,
      "count": 96,
      "min": [
        0
      ],
      "max": [
        17
      ],
      "type": "SCALAR",
      "bufferView": 1,
      "byteOffset": 432
    },
    {
      "name": "Echelle_1_0_positions",
      "componentType": 5126,
      "count": 8,
      "min": [
        0.48967498540878296,
        0.0005009999731555581,
        0.519133985042572
      ],
      "max": [
        0.5196760296821594,
        1.4705009460449219,
        0.6191340088844299
      ],
      "type": "VEC3",
      "bufferView": 0,
      "byteOffset": 696
    },
    {
      "name": "Echelle_1_0_indices",
      "componentType": 5123,
      "count": 36,
      "min": [
        0
      ],
      "max": [
        7
      ],
      "type": "SCALAR",
      "bufferView": 1,
      "byteOffset": 624
    },
    {
      "name": "Bord_4_1_0_positions",
      "componentType": 5126,
      "count": 8,
      "min": [
        -1.0103240013122559,
        1.0305010080337524,
        -0.49586600065231323
      ],
      "max": [
        0.999675989151001,
        1.4805010557174683,
        -0.4458659887313843
      ],
      "type": "VEC3",
      "bufferView": 0,
      "byteOffset": 792
    },
    {
      "name": "Bord_4_1_0_indices",
      "componentType": 5123,
      "count": 36,
      "min": [
        0
      ],
      "max": [
        7
      ],
      "type": "SCALAR",
      "bufferView": 1,
      "byteOffset": 696
    },
    {
      "name": "Bord_5_1_0_positions",
      "componentType": 5126,
      "count": 8,
      "min": [
        0.9546759724617004,
        1.0305010080337524,
        -0.5008659958839417
      ],
      "max": [
        1.0046759843826294,
        1.4805010557174683,
        0.519133985042572
      ],
      "type": "VEC3",
      "bufferView": 0,
      "byteOffset": 888
    },
    {
      "name": "Bord_5_1_0_indices",
      "componentType": 5123,
      "count": 36,
      "min": [
        0
      ],
      "max": [
        7
      ],
      "type": "SCALAR",
      "bufferView": 1,
      "byteOffset": 768
    },
    {
      "name": "Bord_6_1_0_positions",
      "componentType": 5126,
      "count": 8,
      "min": [
        -1.0053240060806274,
        1.0305010080337524,
        -0.5008659958839417
      ],
      "max": [
        -0.9553239941596985,
        1.4805010557174683,
        0.519133985042572
      ],
      "type": "VEC3",
      "bufferView": 0,
      "byteOffset": 984
    },
    {
      "name": "Bord_6_1_0_indices",
      "componentType": 5123,
      "count": 36,
      "min": [
        0
      ],
      "max": [
        7
      ],
      "type": "SCALAR",
      "bufferView": 1,
      "byteOffset": 840
    },
    {
      "name": "Pied_2_1_0_positions",
      "componentType": 5126,
      "count": 32,
      "min": [
        0.9199439883232117,
        0.0005760000203736126,
        0.41912901401519775
      ],
      "max": [
        1.039944052696228,
        1.5505919456481934,
        0.5391290187835693
      ],
      "type": "VEC3",
      "bufferView": 0,
      "byteOffset": 1080
    },
    {
      "name": "Pied_2_1_0_indices",
      "componentType": 5123,
      "count": 180,
      "min": [
        0
      ],
      "max": [
        31
      ],
      "type": "SCALAR",
      "bufferView": 1,
      "byteOffset": 912
    },
    {
      "name": "Pied_4_1_0_positions",
      "componentType": 5126,
      "count": 32,
      "min": [
        -1.040215015411377,
        0.0005760000203736126,
        1.4300930500030518
      ],
      "max": [
        -0.9202150106430054,
        0.7005919814109802,
        1.5500930547714233
      ],
      "type": "VEC3",
      "bufferView": 0,
      "byteOffset": 1464
    },
    {
      "name": "Pied_4_1_0_indices",
      "componentType": 5123,
      "count": 180,
      "min": [
        0
      ],
      "max": [
        31
      ],
      "type": "SCALAR",
      "bufferView": 1,
      "byteOffset": 1272
    },
    {
      "name": "Echellon_1_1_0_positions",
      "componentType": 5126,
      "count": 8,
      "min": [
        0.499675989151001,
        0.6355010271072388,
        0.5291339755058289
      ],
      "max": [
        0.9196760058403015,
        0.6555010080337524,
        0.6091340184211731
      ],
      "type": "VEC3",
      "bufferView": 0,
      "byteOffset": 1848
    },
    {
      "name": "Echellon_1_1_0_indices",
      "componentType": 5123,
      "count": 36,
      "min": [
        0
      ],
      "max": [
        7
      ],
      "type": "SCALAR",
      "bufferView": 1,
      "byteOffset": 1632
    },
    {
      "name": "Pied_5_1_0_positions",
      "componentType": 5126,
      "count": 32,
      "min": [
        -0.07959199696779251,
        0.0005760000203736126,
        1.4300930500030518
      ],
      "max": [
        0.040408000349998474,
        0.7005919814109802,
        1.5500930547714233
      ],
      "type": "VEC3",
      "bufferView": 0,
      "byteOffset": 1944
    },
    {
      "name": "Pied_5_1_0_indices",
      "componentType": 5123,
      "count": 180,
      "min": [
        0
      ],
      "max": [
        31
      ],
      "type": "SCALAR",
      "bufferView": 1,
      "byteOffset": 1704
    },
    {
      "name": "Bord_2_1_0_positions",
      "componentType": 5126,
      "count": 8,
      "min": [
        -1.0049999952316284,
        0.19063599407672882,
        -0.5
      ],
      "max": [
        -0.9549999833106995,
        0.6406360268592834,
        1.5099999904632568
      ],
      "type": "VEC3",
      "bufferView": 0,
      "byteOffset": 2328
    },
    {
      "name": "Bord_2_1_0_indices",
      "componentType": 5123,
      "count": 36,
      "min": [
        0
      ],
      "max": [
        7
      ],
      "type": "SCALAR",
      "bufferView": 1,
      "byteOffset": 2064
    },
    {
      "name": "Pied_1_1_0_positions",
      "componentType": 5126,
      "count": 32,
      "min": [
        -1.040215015411377,
        0.0005760000203736126,
        0.41912901401519775
      ],
      "max": [
        -0.9202150106430054,
        1.5505919456481934,
        0.5391290187835693
      ],
      "type": "VEC3",
      "bufferView": 0,
      "byteOffset": 2424
    },
    {
      "name": "Pied_1_1_0_indices",
      "componentType": 5123,
      "count": 180,
      "min": [
        0
      ],
      "max": [
        31
      ],
      "type": "SCALAR",
      "bufferView": 1,
      "byteOffset": 2136
    },
    {
      "name": "Matelas_1_1_0_positions",
      "componentType": 5126,
      "count": 96,
      "min": [
        -0.9484440088272095,
        1.091778039932251,
        -0.4408450126647949
      ],
      "max": [
        0.9495559930801392,
        1.2817779779434204,
        0.45915499329566956
      ],
      "type": "VEC3",
      "bufferView": 0,
      "byteOffset": 2808
    },
    {
      "name": "Matelas_1_1_0_indices",
      "componentType": 5123,
      "count": 564,
      "min": [
        0
      ],
      "max": [
        95
      ],
      "type": "SCALAR",
      "bufferView": 1,
      "byteOffset": 2496
    },
    {
      "name": "Pied_3_1_0_positions",
      "componentType": 5126,
      "count": 32,
      "min": [
        0.9199439883232117,
        0.0005760000203736126,
        -0.5407750010490417
      ],
      "max": [
        1.039944052696228,
        1.5505919456481934,
        -0.42077499628067017
      ],
      "type": "VEC3",
      "bufferView": 0,
      "byteOffset": 3960
    },
    {
      "name": "Pied_3_1_0_indices",
      "componentType": 5123,
      "count": 180,
      "min": [
        0
      ],
      "max": [
        31
      ],
      "type": "SCALAR",
      "bufferView": 1,
      "byteOffset": 3624
    },
    {
      "name": "Pied_6_1_0_positions",
      "componentType": 5126,
      "count": 32,
      "min": [
        -0.07991699874401093,
        0.0005760000203736126,
        -0.5407750010490417
      ],
      "max": [
        0.04008299857378006,
        1.0555830001831055,
        -0.42077499628067017
      ],
      "type": "VEC3",
      "bufferView": 0,
      "byteOffset": 4344
    },
    {
      "name": "Pied_6_1_0_indices",
      "componentType": 5123,
      "count": 180,
      "min": [
        0
      ],
      "max": [
        31
      ],
      "type": "SCALAR",
      "bufferView": 1,
      "byteOffset": 3984
    },
    {
      "name": "Matelas_1_0_positions",
      "componentType": 5126,
      "count": 96,
      "min": [
        -0.9513890147209167,
        0.2923240065574646,
        -0.4397850036621094
      ],
      "max": [
        -0.051389001309871674,
        0.4823240041732788,
        1.4582159519195557
      ],
      "type": "VEC3",
      "bufferView": 0,
      "byteOffset": 4728
    },
    {
      "name": "Matelas_1_0_indices",
      "componentType": 5123,
      "count": 564,
      "min": [
        0
      ],
      "max": [
        95
      ],
      "type": "SCALAR",
      "bufferView": 1,
      "byteOffset": 4344
    },
    {
      "name": "Bord_1_0_positions",
      "componentType": 5126,
      "count": 8,
      "min": [
        -1.0099999904632568,
        0.19563600420951843,
        1.465000033378601
      ],
      "max": [
        0.009999999776482582,
        0.6456360220909119,
        1.5149999856948853
      ],
      "type": "VEC3",
      "bufferView": 0,
      "byteOffset": 5880
    },
    {
      "name": "Bord_1_0_indices",
      "componentType": 5123,
      "count": 36,
      "min": [
        0
      ],
      "max": [
        7
      ],
      "type": "SCALAR",
      "bufferView": 1,
      "byteOffset": 5472
    },
    {
      "name": "Echellon_1_0_positions",
      "componentType": 5126,
      "count": 8,
      "min": [
        0.4996750056743622,
        0.3555009961128235,
        0.5291339755058289
      ],
      "max": [
        0.9196749925613403,
        0.37550100684165955,
        0.6091340184211731
      ],
      "type": "VEC3",
      "bufferView": 0,
      "byteOffset": 5976
    },
    {
      "name": "Echellon_1_0_indices",
      "componentType": 5123,
      "count": 36,
      "min": [
        0
      ],
      "max": [
        7
      ],
      "type": "SCALAR",
      "bufferView": 1,
      "byteOffset": 5544
    },
    {
      "name": "Echelle_1_1_0_positions",
      "componentType": 5126,
      "count": 8,
      "min": [
        0.9046750068664551,
        0.0005009999731555581,
        0.519133985042572
      ],
      "max": [
        0.9346759915351868,
        1.4705009460449219,
        0.6191340088844299
      ],
      "type": "VEC3",
      "bufferView": 0,
      "byteOffset": 6072
    },
    {
      "name": "Echelle_1_1_0_indices",
      "componentType": 5123,
      "count": 36,
      "min": [
        0
      ],
      "max": [
        7
      ],
      "type": "SCALAR",
      "bufferView": 1,
      "byteOffset": 5616
    },
    {
      "name": "Bord_3_1_0_positions",
      "componentType": 5126,
      "count": 8,
      "min": [
        -0.04500000178813934,
        0.19563600420951843,
        -0.49000000953674316
      ],
      "max": [
        0.004999999888241291,
        0.4356360137462616,
        1.5199999809265137
      ],
      "type": "VEC3",
      "bufferView": 0,
      "byteOffset": 6168
    },
    {
      "name": "Bord_3_1_0_indices",
      "componentType": 5123,
      "count": 36,
      "min": [
        0
      ],
      "max": [
        7
      ],
      "type": "SCALAR",
      "bufferView": 1,
      "byteOffset": 5688
    },
    {
      "name": "Bord_1_1_0_positions",
      "componentType": 5126,
      "count": 8,
      "min": [
        -1.0099999904632568,
        0.19063599407672882,
        -0.4950000047683716
      ],
      "max": [
        0.009999999776482582,
        0.6406360268592834,
        -0.4449999928474426
      ],
      "type": "VEC3",
      "bufferView": 0,
      "byteOffset": 6264
    },
    {
      "name": "Bord_1_1_0_indices",
      "componentType": 5123,
      "count": 36,
      "min": [
        0
      ],
      "max": [
        7
      ],
      "type": "SCALAR",
      "bufferView": 1,
      "byteOffset": 5760
    }
  ],
  "asset": {
    "generator": "obj2gltf",
    "version": "2.0"
  },
  "buffers": [
    {
      "name": "cornerBunkBed90x190",
      "byteLength": 12192,
      "uri": "data:application/octet-stream;base64,"
    }
  ],
  "bufferViews": [
    {
      "name": "bufferView_0",
      "buffer": 0,
      "byteLength": 6360,
      "byteOffset": 0,
      "byteStride": 12,
      "target": 34962
    },
    {
      "name": "bufferView_1",
      "buffer": 0,
      "byteLength": 5832,
      "byteOffset": 6360,
      "target": 34963
    }
  ],
  "materials": [
    {
      "name": "flyellow",
      "pbrMetallicRoughness": {
        "baseColorFactor": [
          0.5,
          0.5,
          0.5,
          1
        ],
        "metallicFactor": 0,
        "roughnessFactor": 1
      },
      "emissiveFactor": [
        0,
        0,
        0
      ],
      "alphaMode": "OPAQUE",
      "doubleSided": false
    },
    {
      "name": "bone2",
      "pbrMetallicRoughness": {
        "baseColorFactor": [
          0.5,
          0.5,
          0.5,
          1
        ],
        "metallicFactor": 0,
        "roughnessFactor": 1
      },
      "emissiveFactor": [
        0,
        0,
        0
      ],
      "alphaMode": "OPAQUE",
      "doubleSided": false
    }
  ],
  "meshes": [
    {
      "name": "Echellon_2_1",
      "primitives": [
        {
          "attributes": {
            "POSITION": 0
          },
          "indices": 1,
          "material": 0,
          "mode": 4
        }
      ]
    },
    {
      "name": "Pied_1",
      "primitives": [
        {
          "attributes": {
            "POSITION": 2
          },
          "indices": 3,
          "material": 0,
          "mode": 4
        }
      ]
    },
    {
      "name": "Bord_7_1",
      "primitives": [
        {
          "attributes": {
            "POSITION": 4
          },
          "indices": 5,
          "material": 0,
          "mode": 4
        }
      ]
    },
    {
      "name": "Echelle_1",
      "primitives": [
        {
          "attributes": {
            "POSITION": 6
          },
          "indices": 7,
          "material": 0,
          "mode": 4
        }
      ]
    },
    {
      "name": "Bord_4_1",
      "primitives": [
        {
          "attributes": {
            "POSITION": 8
          },
          "indices": 9,
          "material": 0,
          "mode": 4
        }
      ]
    },
    {
      "name": "Bord_5_1",
      "primitives": [
        {
          "attributes": {
            "POSITION": 10
          },
          "indices": 11,
          "material": 0,
          "mode": 4
        }
      ]
    },
    {
      "name": "Bord_6_1",
      "primitives": [
        {
          "attributes": {
            "POSITION": 12
          },
          "indices": 13,
          "material": 0,
          "mode": 4
        }
      ]
    },
    {
      "name": "Pied_2_1",
      "primitives": [
        {
          "attributes": {
            "POSITION": 14
          },
          "indices": 15,
          "material": 0,
          "mode": 4
        }
      ]
    },
    {
      "name": "Pied_4_1",
      "primitives": [
        {
          "attributes": {
            "POSITION": 16
          },
          "indices": 17,
          "material": 0,
          "mode": 4
        }
      ]
    },
    {
      "name": "Echellon_1_1",
      "primitives": [
        {
          "attributes": {
            "POSITION": 18
          },
          "indices": 19,
          "material": 0,
          "mode": 4
        }
      ]
    },
    {
      "name": "Pied_5_1",
      "primitives": [
        {
          "attributes": {
            "POSITION": 20
          },
          "indices": 21,
          "material": 0,
          "mode": 4
        }
      ]
    },
    {
      "name": "Bord_2_1",
      "primitives": [
        {
          "attributes": {
            "POSITION": 22
          },
          "indices": 23,
          "material": 0,
          "mode": 4
        }
      ]
    },
    {
      "name": "Pied_1_1",
      "primitives": [
        {
          "attributes": {
            "POSITION": 24
          },
          "indices": 25,
          "material": 0,
          "mode": 4
        }
      ]
    },
    {
      "name": "Matelas_1_1",
      "primitives": [
        {
          "attributes": {
            "POSITION": 26
          },
          "indices": 27,
          "material": 1,
          "mode": 4
        }
      ]
    },
    {
      "name": "Pied_3_1",
      "primitives": [
        {
          "attributes": {
            "POSITION": 28
          },
          "indices": 29,
          "material": 0,
          "mode": 4
        }
      ]
    },
    {
      "name": "Pied_6_1",
      "primitives": [
        {
          "attributes": {
            "POSITION": 30
          },
          "indices": 31,
          "material": 0,
          "mode": 4
        }
      ]
    },
    {
      "name": "Matelas_1",
      "primitives": [
        {
          "attributes": {
            "POSITION": 32
          },
          "indices": 33,
          "material": 1,
          "mode": 4
        }
      ]
    },
    {
      "name": "Bord_1",
      "primitives": [
        {
          "attributes": {
            "POSITION": 34
          },
          "indices": 35,
          "material": 0,
          "mode": 4
        }
      ]
    },
    {
      "name": "Echellon_1",
      "primitives": [
        {
          "attributes": {
            "POSITION": 36
          },
          "indices": 37,
          "material": 0,
          "mode": 4
        }
      ]
    },
    {
      "name": "Echelle_1_1",
      "primitives": [
        {
          "attributes": {
            "POSITION": 38
          },
          "indices": 39,
          "material": 0,
          "mode": 4
        }
      ]
    },
    {
      "name": "Bord_3_1",
      "primitives": [
        {
          "attributes": {
            "POSITION": 40
          },
          "indices": 41,
          "material": 0,
          "mode": 4
        }
      ]
    },
    {
      "name": "Bord_1_1",
      "primitives": [
        {
          "attributes": {
            "POSITION": 42
          },
          "indices": 43,
          "material": 0,
          "mode": 4
        }
      ]
    }
  ],
  "nodes": [
    {
      "name": "Echellon_2",
      "mesh": 0
    },
    {
      "name": "Pied",
      "mesh": 1
    },
    {
      "name": "Bord_7",
      "mesh": 2
    },
    {
      "name": "Echelle",
      "mesh": 3
    },
    {
      "name": "Bord_4",
      "mesh": 4
    },
    {
      "name": "Bord_5",
      "mesh": 5
    },
    {
      "name": "Bord_6",
      "mesh": 6
    },
    {
      "name": "Pied_2",
      "mesh": 7
    },
    {
      "name": "Pied_4",
      "mesh": 8
    },
    {
      "name": "Echellon_1",
      "mesh": 9
    },
    {
      "name": "Pied_5",
      "mesh": 10
    },
    {
      "name": "Bord_2",
      "mesh": 11
    },
    {
      "name": "Pied_1",
      "mesh": 12
    },
    {
      "name": "Matelas_1",
      "mesh": 13
    },
    {
      "name": "Pied_3",
      "mesh": 14
    },
    {
      "name": "Pied_6",
      "mesh": 15
    },
    {
      "name": "Matelas",
      "mesh": 16
    },
    {
      "name": "Bord",
      "mesh": 17
    },
    {
      "name": "Echellon",
      "mesh": 18
    },
    {
      "name": "Echelle_1",
      "mesh": 19
    },
    {
      "name": "Bord_3",
      "mesh": 20
    },
    {
      "name": "Bord_1",
      "mesh": 21
    }
  ],
  "scene": 0,
  "scenes": [
    {
      "nodes": [
        0,
        1,
        2,
        3,
        4,
        5,
        6,
        7,
        8,
        9,
        10,
        11,
        12,
        13,
        14,
        15,
        16,
        17,
        18,
        19,
        20,
        21
      ]
    }
  ]
}
