{
  "accessors": [
    {
      "name": "sweethome3d_hinge_1_1_1_0_positions",
      "componentType": 5126,
      "count": 18,
      "min": [
        -0.43299999833106995,
        1.1679999828338623,
        -0.007000000216066837
      ],
      "max": [
        -0.4129999876022339,
        1.2079999446868896,
        0.013000000268220901
      ],
      "type": "VEC3",
      "bufferView": 0,
      "byteOffset": 0
    },
    {
      "name": "sweethome3d_hinge_1_1_1_0_indices",
      "componentType": 5123,
      "count": 96,
      "min": [
        0
      ],
      "max": [
        17
      ],
      "type": "SCALAR",
      "bufferView": 1,
      "byteOffset": 0
    },
    {
      "name": "sweethome3d_window_pane_on_hinge_1_1_0_positions",
      "componentType": 5126,
      "count": 8,
      "min": [
        -0.3499999940395355,
        0.24400000274181366,
        -0.02250000089406967
      ],
      "max": [
        0.15000000596046448,
        2.0840001106262207,
        -0.012500000186264515
      ],
      "type": "VEC3",
      "bufferView": 0,
      "byteOffset": 216
    },
    {
      "name": "sweethome3d_window_pane_on_hinge_1_1_0_indices",
      "componentType": 5123,
      "count": 36,
      "min": [
        0
      ],
      "max": [
        7
      ],
      "type": "SCALAR",
      "bufferView": 1,
      "byteOffset": 192
    },
    {
      "name": "sweethome3d_window_pane_on_hinge_2_1_0_positions",
      "componentType": 5126,
      "count": 8,
      "min": [
        0.25999999046325684,
        0.24400000274181366,
        -0.02250000089406967
      ],
      "max": [
        0.7549999952316284,
        2.0840001106262207,
        -0.012500000186264515
      ],
      "type": "VEC3",
      "bufferView": 0,
      "byteOffset": 312
    },
    {
      "name": "sweethome3d_window_pane_on_hinge_2_1_0_indices",
      "componentType": 5123,
      "count": 36,
      "min": [
        0
      ],
      "max": [
        7
      ],
      "type": "SCALAR",
      "bufferView": 1,
      "byteOffset": 264
    },
    {
      "name": "sweethome3d_hinge_1_3_1_0_positions",
      "componentType": 5126,
      "count": 18,
      "min": [
        -0.4330799877643585,
        2.0143299102783203,
        -0.007000000216066837
      ],
      "max": [
        -0.41308000683784485,
        2.0543301105499268,
        0.013000000268220901
      ],
      "type": "VEC3",
      "bufferView": 0,
      "byteOffset": 408
    },
    {
      "name": "sweethome3d_hinge_1_3_1_0_indices",
      "componentType": 5123,
      "count": 96,
      "min": [
        0
      ],
      "max": [
        17
      ],
      "type": "SCALAR",
      "bufferView": 1,
      "byteOffset": 336
    },
    {
      "name": "sweethome3d_hinge_2_3_1_0_positions",
      "componentType": 5126,
      "count": 18,
      "min": [
        0.8224999904632568,
        0.32199999690055847,
        -0.007000000216066837
      ],
      "max": [
        0.8424999713897705,
        0.3619999885559082,
        0.013000000268220901
      ],
      "type": "VEC3",
      "bufferView": 0,
      "byteOffset": 624
    },
    {
      "name": "sweethome3d_hinge_2_3_1_0_indices",
      "componentType": 5123,
      "count": 96,
      "min": [
        0
      ],
      "max": [
        17
      ],
      "type": "SCALAR",
      "bufferView": 1,
      "byteOffset": 528
    },
    {
      "name": "sweethome3d_opening_on_hinge_1_1_0_positions",
      "componentType": 5126,
      "count": 24,
      "min": [
        -0.41499999165534973,
        0.164000004529953,
        -0.04749999940395355
      ],
      "max": [
        0.2199999988079071,
        2.1640000343322754,
        0.012500000186264515
      ],
      "type": "VEC3",
      "bufferView": 0,
      "byteOffset": 840
    },
    {
      "name": "sweethome3d_opening_on_hinge_1_1_0_indices",
      "componentType": 5123,
      "count": 144,
      "min": [
        0
      ],
      "max": [
        23
      ],
      "type": "SCALAR",
      "bufferView": 1,
      "byteOffset": 720
    },
    {
      "name": "frame_1_0_positions",
      "componentType": 5126,
      "count": 18,
      "min": [
        -0.45500001311302185,
        0.10860999673604965,
        -0.27421000599861145
      ],
      "max": [
        0.8650000095367432,
        2.2213900089263916,
        -0.004209999926388264
      ],
      "type": "VEC3",
      "bufferView": 0,
      "byteOffset": 1128
    },
    {
      "name": "frame_1_0_indices",
      "componentType": 5123,
      "count": 108,
      "min": [
        0
      ],
      "max": [
        17
      ],
      "type": "SCALAR",
      "bufferView": 1,
      "byteOffset": 1008
    },
    {
      "name": "sweethome3d_opening_on_hinge_2_1_0_positions",
      "componentType": 5126,
      "count": 25,
      "min": [
        0.20800000429153442,
        0.164000004529953,
        -0.04749999940395355
      ],
      "max": [
        0.824999988079071,
        2.1640000343322754,
        0.012500000186264515
      ],
      "type": "VEC3",
      "bufferView": 0,
      "byteOffset": 1344
    },
    {
      "name": "sweethome3d_opening_on_hinge_2_1_0_indices",
      "componentType": 5123,
      "count": 150,
      "min": [
        0
      ],
      "max": [
        24
      ],
      "type": "SCALAR",
      "bufferView": 1,
      "byteOffset": 1224
    },
    {
      "name": "sweethome3d_hinge_2_2_1_0_positions",
      "componentType": 5126,
      "count": 18,
      "min": [
        0.8224999904632568,
        1.1679999828338623,
        -0.007000000216066837
      ],
      "max": [
        0.8424999713897705,
        1.2079999446868896,
        0.013000000268220901
      ],
      "type": "VEC3",
      "bufferView": 0,
      "byteOffset": 1644
    },
    {
      "name": "sweethome3d_hinge_2_2_1_0_indices",
      "componentType": 5123,
      "count": 96,
      "min": [
        0
      ],
      "max": [
        17
      ],
      "type": "SCALAR",
      "bufferView": 1,
      "byteOffset": 1524
    },
    {
      "name": "sweethome3d_hinge_1_2_1_0_positions",
      "componentType": 5126,
      "count": 18,
      "min": [
        -0.43299999833106995,
        0.32199999690055847,
        -0.007000000216066837
      ],
      "max": [
        -0.4129999876022339,
        0.3619999885559082,
        0.013000000268220901
      ],
      "type": "VEC3",
      "bufferView": 0,
      "byteOffset": 1860
    },
    {
      "name": "sweethome3d_hinge_1_2_1_0_indices",
      "componentType": 5123,
      "count": 96,
      "min": [
        0
      ],
      "max": [
        17
      ],
      "type": "SCALAR",
      "bufferView": 1,
      "byteOffset": 1716
    },
    {
      "name": "sweethome3d_opening_on_hinge_1_handle_1_0_positions",
      "componentType": 5126,
      "count": 92,
      "min": [
        0.16516999900341034,
        1.0447100400924683,
        0.006539999973028898
      ],
      "max": [
        0.18682999908924103,
        1.1735899448394775,
        0.07485000044107437
      ],
      "type": "VEC3",
      "bufferView": 0,
      "byteOffset": 2076
    },
    {
      "name": "sweethome3d_opening_on_hinge_1_handle_1_0_indices",
      "componentType": 5123,
      "count": 540,
      "min": [
        0
      ],
      "max": [
        91
      ],
      "type": "SCALAR",
      "bufferView": 1,
      "byteOffset": 1908
    },
    {
      "name": "sweethome3d_hinge_2_1_1_0_positions",
      "componentType": 5126,
      "count": 18,
      "min": [
        0.8224200010299683,
        2.0143299102783203,
        -0.007000000216066837
      ],
      "max": [
        0.8424199819564819,
        2.0543301105499268,
        0.013000000268220901
      ],
      "type": "VEC3",
      "bufferView": 0,
      "byteOffset": 3180
    },
    {
      "name": "sweethome3d_hinge_2_1_1_0_indices",
      "componentType": 5123,
      "count": 96,
      "min": [
        0
      ],
      "max": [
        17
      ],
      "type": "SCALAR",
      "bufferView": 1,
      "byteOffset": 2988
    }
  ],
  "asset": {
    "generator": "obj2gltf",
    "version": "2.0"
  },
  "buffers": [
    {
      "name": "doubleFrenchWindow126x200",
      "byteLength": 6576,
      "uri": "data:application/octet-stream;base64,"
    }
  ],
  "bufferViews": [
    {
      "name": "bufferView_0",
      "buffer": 0,
      "byteLength": 3396,
      "byteOffset": 0,
      "byteStride": 12,
      "target": 34962
    },
    {
      "name": "bufferView_1",
      "buffer": 0,
      "byteLength": 3180,
      "byteOffset": 3396,
      "target": 34963
    }
  ],
  "materials": [
    {
      "name": "white",
      "pbrMetallicRoughness": {
        "baseColorFactor": [
          0.5,
          0.5,
          0.5,
          1
        ],
        "metallicFactor": 0,
        "roughnessFactor": 1
      },
      "emissiveFactor": [
        0,
        0,
        0
      ],
      "alphaMode": "OPAQUE",
      "doubleSided": false
    },
    {
      "name": "flltgrey",
      "pbrMetallicRoughness": {
        "baseColorFactor": [
          0.5,
          0.5,
          0.5,
          1
        ],
        "metallicFactor": 0,
        "roughnessFactor": 1
      },
      "emissiveFactor": [
        0,
        0,
        0
      ],
      "alphaMode": "OPAQUE",
      "doubleSided": false
    }
  ],
  "meshes": [
    {
      "name": "sweethome3d_hinge_1_1_1",
      "primitives": [
        {
          "attributes": {
            "POSITION": 0
          },
          "indices": 1,
          "material": 0,
          "mode": 4
        }
      ]
    },
    {
      "name": "sweethome3d_window_pane_on_hinge_1_1",
      "primitives": [
        {
          "attributes": {
            "POSITION": 2
          },
          "indices": 3,
          "material": 1,
          "mode": 4
        }
      ]
    },
    {
      "name": "sweethome3d_window_pane_on_hinge_2_1",
      "primitives": [
        {
          "attributes": {
            "POSITION": 4
          },
          "indices": 5,
          "material": 1,
          "mode": 4
        }
      ]
    },
    {
      "name": "sweethome3d_hinge_1_3_1",
      "primitives": [
        {
          "attributes": {
            "POSITION": 6
          },
          "indices": 7,
          "material": 0,
          "mode": 4
        }
      ]
    },
    {
      "name": "sweethome3d_hinge_2_3_1",
      "primitives": [
        {
          "attributes": {
            "POSITION": 8
          },
          "indices": 9,
          "material": 0,
          "mode": 4
        }
      ]
    },
    {
      "name": "sweethome3d_opening_on_hinge_1_1",
      "primitives": [
        {
          "attributes": {
            "POSITION": 10
          },
          "indices": 11,
          "material": 0,
          "mode": 4
        }
      ]
    },
    {
      "name": "frame_1",
      "primitives": [
        {
          "attributes": {
            "POSITION": 12
          },
          "indices": 13,
          "material": 0,
          "mode": 4
        }
      ]
    },
    {
      "name": "sweethome3d_opening_on_hinge_2_1",
      "primitives": [
        {
          "attributes": {
            "POSITION": 14
          },
          "indices": 15,
          "material": 0,
          "mode": 4
        }
      ]
    },
    {
      "name": "sweethome3d_hinge_2_2_1",
      "primitives": [
        {
          "attributes": {
            "POSITION": 16
          },
          "indices": 17,
          "material": 0,
          "mode": 4
        }
      ]
    },
    {
      "name": "sweethome3d_hinge_1_2_1",
      "primitives": [
        {
          "attributes": {
            "POSITION": 18
          },
          "indices": 19,
          "material": 0,
          "mode": 4
        }
      ]
    },
    {
      "name": "sweethome3d_opening_on_hinge_1_handle_1",
      "primitives": [
        {
          "attributes": {
            "POSITION": 20
          },
          "indices": 21,
          "material": 0,
          "mode": 4
        }
      ]
    },
    {
      "name": "sweethome3d_hinge_2_1_1",
      "primitives": [
        {
          "attributes": {
            "POSITION": 22
          },
          "indices": 23,
          "material": 0,
          "mode": 4
        }
      ]
    }
  ],
  "nodes": [
    {
      "name": "sweethome3d_hinge_1_1",
      "mesh": 0
    },
    {
      "name": "sweethome3d_window_pane_on_hinge_1",
      "mesh": 1
    },
    {
      "name": "sweethome3d_window_pane_on_hinge_2",
      "mesh": 2
    },
    {
      "name": "sweethome3d_hinge_1_3",
      "mesh": 3
    },
    {
      "name": "sweethome3d_hinge_2_3",
      "mesh": 4
    },
    {
      "name": "sweethome3d_opening_on_hinge_1",
      "mesh": 5
    },
    {
      "name": "frame",
      "mesh": 6
    },
    {
      "name": "sweethome3d_opening_on_hinge_2",
      "mesh": 7
    },
    {
      "name": "sweethome3d_hinge_2_2",
      "mesh": 8
    },
    {
      "name": "sweethome3d_hinge_1_2",
      "mesh": 9
    },
    {
      "name": "sweethome3d_opening_on_hinge_1_handle",
      "mesh": 10
    },
    {
      "name": "sweethome3d_hinge_2_1",
      "mesh": 11
    }
  ],
  "scene": 0,
  "scenes": [
    {
      "nodes": [
        0,
        1,
        2,
        3,
        4,
        5,
        6,
        7,
        8,
        9,
        10,
        11
      ]
    }
  ]
}
