{
  "accessors": [
    {
      "name": "Ailette_6_1_0_positions",
      "componentType": 5126,
      "count": 8,
      "min": [
        -0.18000000715255737,
        0.4139299988746643,
        -0.00949000008404255
      ],
      "max": [
        0.18000000715255737,
        0.4184800088405609,
        0.00031999999191612005
      ],
      "type": "VEC3",
      "bufferView": 0,
      "byteOffset": 0
    },
    {
      "name": "Ailette_6_1_0_indices",
      "componentType": 5123,
      "count": 36,
      "min": [
        0
      ],
      "max": [
        7
      ],
      "type": "SCALAR",
      "bufferView": 1,
      "byteOffset": 0
    },
    {
      "name": "Corps_1_0_positions",
      "componentType": 5126,
      "count": 71,
      "min": [
        -0.1850000023841858,
        0,
        -0.08143000304698944
      ],
      "max": [
        0.1850000023841858,
        0.44999998807907104,
        -0.0014299999456852674
      ],
      "type": "VEC3",
      "bufferView": 0,
      "byteOffset": 96
    },
    {
      "name": "Corps_1_0_indices",
      "componentType": 5123,
      "count": 414,
      "min": [
        0
      ],
      "max": [
        70
      ],
      "type": "SCALAR",
      "bufferView": 1,
      "byteOffset": 72
    },
    {
      "name": "Ailette_1_1_0_positions",
      "componentType": 5126,
      "count": 8,
      "min": [
        -0.18000000715255737,
        0.3498600125312805,
        -0.00949000008404255
      ],
      "max": [
        0.18000000715255737,
        0.35440999269485474,
        0.00031999999191612005
      ],
      "type": "VEC3",
      "bufferView": 0,
      "byteOffset": 948
    },
    {
      "name": "Ailette_1_1_0_indices",
      "componentType": 5123,
      "count": 36,
      "min": [
        0
      ],
      "max": [
        7
      ],
      "type": "SCALAR",
      "bufferView": 1,
      "byteOffset": 900
    },
    {
      "name": "Accroche_1_1_0_positions",
      "componentType": 5126,
      "count": 8,
      "min": [
        0.11999999731779099,
        0.05277999863028526,
        -0.09952999651432037
      ],
      "max": [
        0.12999999523162842,
        0.395220011472702,
        -0.07953000068664551
      ],
      "type": "VEC3",
      "bufferView": 0,
      "byteOffset": 1044
    },
    {
      "name": "Accroche_1_1_0_indices",
      "componentType": 5123,
      "count": 36,
      "min": [
        0
      ],
      "max": [
        7
      ],
      "type": "SCALAR",
      "bufferView": 1,
      "byteOffset": 972
    },
    {
      "name": "Ailette_2_1_0_positions",
      "componentType": 5126,
      "count": 8,
      "min": [
        -0.18000000715255737,
        0.3631500005722046,
        -0.00949000008404255
      ],
      "max": [
        0.18000000715255737,
        0.3677000105381012,
        0.00031999999191612005
      ],
      "type": "VEC3",
      "bufferView": 0,
      "byteOffset": 1140
    },
    {
      "name": "Ailette_2_1_0_indices",
      "componentType": 5123,
      "count": 36,
      "min": [
        0
      ],
      "max": [
        7
      ],
      "type": "SCALAR",
      "bufferView": 1,
      "byteOffset": 1044
    },
    {
      "name": "Ailette_5_1_0_positions",
      "componentType": 5126,
      "count": 8,
      "min": [
        -0.18000000715255737,
        0.40174001455307007,
        -0.00949000008404255
      ],
      "max": [
        0.18000000715255737,
        0.4062800109386444,
        0.00031999999191612005
      ],
      "type": "VEC3",
      "bufferView": 0,
      "byteOffset": 1236
    },
    {
      "name": "Ailette_5_1_0_indices",
      "componentType": 5123,
      "count": 36,
      "min": [
        0
      ],
      "max": [
        7
      ],
      "type": "SCALAR",
      "bufferView": 1,
      "byteOffset": 1116
    },
    {
      "name": "Ailette_1_0_positions",
      "componentType": 5126,
      "count": 8,
      "min": [
        -0.18000000715255737,
        0.3372400104999542,
        -0.00949000008404255
      ],
      "max": [
        0.18000000715255737,
        0.34178000688552856,
        0.00031999999191612005
      ],
      "type": "VEC3",
      "bufferView": 0,
      "byteOffset": 1332
    },
    {
      "name": "Ailette_1_0_indices",
      "componentType": 5123,
      "count": 36,
      "min": [
        0
      ],
      "max": [
        7
      ],
      "type": "SCALAR",
      "bufferView": 1,
      "byteOffset": 1188
    },
    {
      "name": "Ailette_3_1_0_positions",
      "componentType": 5126,
      "count": 8,
      "min": [
        -0.18000000715255737,
        0.37630999088287354,
        -0.00949000008404255
      ],
      "max": [
        0.18000000715255737,
        0.38086000084877014,
        0.00031999999191612005
      ],
      "type": "VEC3",
      "bufferView": 0,
      "byteOffset": 1428
    },
    {
      "name": "Ailette_3_1_0_indices",
      "componentType": 5123,
      "count": 36,
      "min": [
        0
      ],
      "max": [
        7
      ],
      "type": "SCALAR",
      "bufferView": 1,
      "byteOffset": 1260
    },
    {
      "name": "Ailette_7_1_0_positions",
      "componentType": 5126,
      "count": 8,
      "min": [
        -0.18000000715255737,
        0.42480000853538513,
        -0.00949000008404255
      ],
      "max": [
        0.18000000715255737,
        0.42934998869895935,
        0.00031999999191612005
      ],
      "type": "VEC3",
      "bufferView": 0,
      "byteOffset": 1524
    },
    {
      "name": "Ailette_7_1_0_indices",
      "componentType": 5123,
      "count": 36,
      "min": [
        0
      ],
      "max": [
        7
      ],
      "type": "SCALAR",
      "bufferView": 1,
      "byteOffset": 1332
    },
    {
      "name": "Ailette_8_1_0_positions",
      "componentType": 5126,
      "count": 8,
      "min": [
        -0.18000000715255737,
        0.3261899948120117,
        -0.00949000008404255
      ],
      "max": [
        0.18000000715255737,
        0.3307400047779083,
        0.00031999999191612005
      ],
      "type": "VEC3",
      "bufferView": 0,
      "byteOffset": 1620
    },
    {
      "name": "Ailette_8_1_0_indices",
      "componentType": 5123,
      "count": 36,
      "min": [
        0
      ],
      "max": [
        7
      ],
      "type": "SCALAR",
      "bufferView": 1,
      "byteOffset": 1404
    },
    {
      "name": "Accroche_1_0_positions",
      "componentType": 5126,
      "count": 8,
      "min": [
        -0.12988999485969543,
        0.05260000005364418,
        -0.09952999651432037
      ],
      "max": [
        -0.119889996945858,
        0.3950299918651581,
        -0.07953000068664551
      ],
      "type": "VEC3",
      "bufferView": 0,
      "byteOffset": 1716
    },
    {
      "name": "Accroche_1_0_indices",
      "componentType": 5123,
      "count": 36,
      "min": [
        0
      ],
      "max": [
        7
      ],
      "type": "SCALAR",
      "bufferView": 1,
      "byteOffset": 1476
    },
    {
      "name": "Ailette_4_1_0_positions",
      "componentType": 5126,
      "count": 8,
      "min": [
        -0.18000000715255737,
        0.3892500102519989,
        -0.00949000008404255
      ],
      "max": [
        0.18000000715255737,
        0.3937999904155731,
        0.00031999999191612005
      ],
      "type": "VEC3",
      "bufferView": 0,
      "byteOffset": 1812
    },
    {
      "name": "Ailette_4_1_0_indices",
      "componentType": 5123,
      "count": 36,
      "min": [
        0
      ],
      "max": [
        7
      ],
      "type": "SCALAR",
      "bufferView": 1,
      "byteOffset": 1548
    }
  ],
  "asset": {
    "generator": "obj2gltf",
    "version": "2.0"
  },
  "buffers": [
    {
      "name": "electricRadiator",
      "byteLength": 3528,
      "uri": "data:application/octet-stream;base64,"
    }
  ],
  "bufferViews": [
    {
      "name": "bufferView_0",
      "buffer": 0,
      "byteLength": 1908,
      "byteOffset": 0,
      "byteStride": 12,
      "target": 34962
    },
    {
      "name": "bufferView_1",
      "buffer": 0,
      "byteLength": 1620,
      "byteOffset": 1908,
      "target": 34963
    }
  ],
  "materials": [
    {
      "name": "white",
      "pbrMetallicRoughness": {
        "baseColorFactor": [
          0.5,
          0.5,
          0.5,
          1
        ],
        "metallicFactor": 0,
        "roughnessFactor": 1
      },
      "emissiveFactor": [
        0,
        0,
        0
      ],
      "alphaMode": "OPAQUE",
      "doubleSided": false
    }
  ],
  "meshes": [
    {
      "name": "Ailette_6_1",
      "primitives": [
        {
          "attributes": {
            "POSITION": 0
          },
          "indices": 1,
          "material": 0,
          "mode": 4
        }
      ]
    },
    {
      "name": "Corps_1",
      "primitives": [
        {
          "attributes": {
            "POSITION": 2
          },
          "indices": 3,
          "material": 0,
          "mode": 4
        }
      ]
    },
    {
      "name": "Ailette_1_1",
      "primitives": [
        {
          "attributes": {
            "POSITION": 4
          },
          "indices": 5,
          "material": 0,
          "mode": 4
        }
      ]
    },
    {
      "name": "Accroche_1_1",
      "primitives": [
        {
          "attributes": {
            "POSITION": 6
          },
          "indices": 7,
          "material": 0,
          "mode": 4
        }
      ]
    },
    {
      "name": "Ailette_2_1",
      "primitives": [
        {
          "attributes": {
            "POSITION": 8
          },
          "indices": 9,
          "material": 0,
          "mode": 4
        }
      ]
    },
    {
      "name": "Ailette_5_1",
      "primitives": [
        {
          "attributes": {
            "POSITION": 10
          },
          "indices": 11,
          "material": 0,
          "mode": 4
        }
      ]
    },
    {
      "name": "Ailette_1",
      "primitives": [
        {
          "attributes": {
            "POSITION": 12
          },
          "indices": 13,
          "material": 0,
          "mode": 4
        }
      ]
    },
    {
      "name": "Ailette_3_1",
      "primitives": [
        {
          "attributes": {
            "POSITION": 14
          },
          "indices": 15,
          "material": 0,
          "mode": 4
        }
      ]
    },
    {
      "name": "Ailette_7_1",
      "primitives": [
        {
          "attributes": {
            "POSITION": 16
          },
          "indices": 17,
          "material": 0,
          "mode": 4
        }
      ]
    },
    {
      "name": "Ailette_8_1",
      "primitives": [
        {
          "attributes": {
            "POSITION": 18
          },
          "indices": 19,
          "material": 0,
          "mode": 4
        }
      ]
    },
    {
      "name": "Accroche_1",
      "primitives": [
        {
          "attributes": {
            "POSITION": 20
          },
          "indices": 21,
          "material": 0,
          "mode": 4
        }
      ]
    },
    {
      "name": "Ailette_4_1",
      "primitives": [
        {
          "attributes": {
            "POSITION": 22
          },
          "indices": 23,
          "material": 0,
          "mode": 4
        }
      ]
    }
  ],
  "nodes": [
    {
      "name": "Ailette_6",
      "mesh": 0
    },
    {
      "name": "Corps",
      "mesh": 1
    },
    {
      "name": "Ailette_1",
      "mesh": 2
    },
    {
      "name": "Accroche_1",
      "mesh": 3
    },
    {
      "name": "Ailette_2",
      "mesh": 4
    },
    {
      "name": "Ailette_5",
      "mesh": 5
    },
    {
      "name": "Ailette",
      "mesh": 6
    },
    {
      "name": "Ailette_3",
      "mesh": 7
    },
    {
      "name": "Ailette_7",
      "mesh": 8
    },
    {
      "name": "Ailette_8",
      "mesh": 9
    },
    {
      "name": "Accroche",
      "mesh": 10
    },
    {
      "name": "Ailette_4",
      "mesh": 11
    }
  ],
  "scene": 0,
  "scenes": [
    {
      "nodes": [
        0,
        1,
        2,
        3,
        4,
        5,
        6,
        7,
        8,
        9,
        10,
        11
      ]
    }
  ]
}
