{
  "accessors": [
    {
      "name": "Log_1_0_positions",
      "componentType": 5126,
      "count": 32,
      "min": [
        -0.2305780053138733,
        0.20379500091075897,
        -0.033277999609708786
      ],
      "max": [
        0.21942199766635895,
        0.3195280134677887,
        0.09289000183343887
      ],
      "type": "VEC3",
      "bufferView": 0,
      "byteOffset": 0
    },
    {
      "name": "Log_1_0_indices",
      "componentType": 5123,
      "count": 180,
      "min": [
        0
      ],
      "max": [
        31
      ],
      "type": "SCALAR",
      "bufferView": 1,
      "byteOffset": 0
    },
    {
      "name": "Fire_1_0_positions",
      "componentType": 5126,
      "count": 108,
      "min": [
        -0.14998899400234222,
        0.2782459855079651,
        -0.025259999558329582
      ],
      "max": [
        0.15222600102424622,
        0.661998987197876,
        0.07947999984025955
      ],
      "type": "VEC3",
      "bufferView": 0,
      "byteOffset": 384
    },
    {
      "name": "Fire_1_0_indices",
      "componentType": 5123,
      "count": 612,
      "min": [
        0
      ],
      "max": [
        107
      ],
      "type": "SCALAR",
      "bufferView": 1,
      "byteOffset": 360
    },
    {
      "name": "Joint_1_0_positions",
      "componentType": 5126,
      "count": 28,
      "min": [
        -0.6624659895896912,
        -0.15199999511241913,
        -0.39500001072883606
      ],
      "max": [
        0.6675000190734863,
        0.19609899818897247,
        0.44996801018714905
      ],
      "type": "VEC3",
      "bufferView": 0,
      "byteOffset": 1680
    },
    {
      "name": "Joint_1_0_indices",
      "componentType": 5123,
      "count": 42,
      "min": [
        0
      ],
      "max": [
        27
      ],
      "type": "SCALAR",
      "bufferView": 1,
      "byteOffset": 1584
    },
    {
      "name": "AtreBack_1_0_positions",
      "componentType": 5126,
      "count": 4,
      "min": [
        -0.4050000011920929,
        0.2011750042438507,
        -0.26466798782348633
      ],
      "max": [
        0.4050000011920929,
        0.7811750173568726,
        -0.26466798782348633
      ],
      "type": "VEC3",
      "bufferView": 0,
      "byteOffset": 2016
    },
    {
      "name": "AtreBack_1_0_indices",
      "componentType": 5123,
      "count": 6,
      "min": [
        0
      ],
      "max": [
        3
      ],
      "type": "SCALAR",
      "bufferView": 1,
      "byteOffset": 1668
    },
    {
      "name": "Atre_1_0_positions",
      "componentType": 5126,
      "count": 38,
      "min": [
        -0.406002014875412,
        0.2013009935617447,
        -0.2644209861755371
      ],
      "max": [
        0.406002014875412,
        0.781341016292572,
        0.3495889902114868
      ],
      "type": "VEC3",
      "bufferView": 0,
      "byteOffset": 2064
    },
    {
      "name": "Atre_1_0_indices",
      "componentType": 5123,
      "count": 201,
      "min": [
        0
      ],
      "max": [
        37
      ],
      "type": "SCALAR",
      "bufferView": 1,
      "byteOffset": 1680
    },
    {
      "name": "Chimney_1_0_positions",
      "componentType": 5126,
      "count": 16,
      "min": [
        -0.5550000071525574,
        0.7815099954605103,
        -0.3949950039386749
      ],
      "max": [
        0.5550000071525574,
        2.3475100994110107,
        0.36667299270629883
      ],
      "type": "VEC3",
      "bufferView": 0,
      "byteOffset": 2520
    },
    {
      "name": "Chimney_1_0_indices",
      "componentType": 5123,
      "count": 84,
      "min": [
        0
      ],
      "max": [
        15
      ],
      "type": "SCALAR",
      "bufferView": 1,
      "byteOffset": 2084
    },
    {
      "name": "Back_1_0_positions",
      "componentType": 5126,
      "count": 16,
      "min": [
        -0.5350000262260437,
        0.2011750042438507,
        -0.3949800133705139
      ],
      "max": [
        0.5350000262260437,
        0.7811750173568726,
        -0.26466798782348633
      ],
      "type": "VEC3",
      "bufferView": 0,
      "byteOffset": 2712
    },
    {
      "name": "Back_1_0_indices",
      "componentType": 5123,
      "count": 54,
      "min": [
        0
      ],
      "max": [
        15
      ],
      "type": "SCALAR",
      "bufferView": 1,
      "byteOffset": 2252
    },
    {
      "name": "Base_1_0_positions",
      "componentType": 5126,
      "count": 108,
      "min": [
        -0.7250000238418579,
        -0.15199999511241913,
        -0.39500001072883606
      ],
      "max": [
        0.7250000238418579,
        0.2010989934206009,
        0.45496800541877747
      ],
      "type": "VEC3",
      "bufferView": 0,
      "byteOffset": 2904
    },
    {
      "name": "Base_1_0_indices",
      "componentType": 5123,
      "count": 480,
      "min": [
        0
      ],
      "max": [
        107
      ],
      "type": "SCALAR",
      "bufferView": 1,
      "byteOffset": 2360
    }
  ],
  "asset": {
    "generator": "obj2gltf",
    "version": "2.0"
  },
  "buffers": [
    {
      "name": "fireplace",
      "byteLength": 7520,
      "uri": "data:application/octet-stream;base64,"
    }
  ],
  "bufferViews": [
    {
      "name": "bufferView_0",
      "buffer": 0,
      "byteLength": 4200,
      "byteOffset": 0,
      "byteStride": 12,
      "target": 34962
    },
    {
      "name": "bufferView_1",
      "buffer": 0,
      "byteLength": 3320,
      "byteOffset": 4200,
      "target": 34963
    }
  ],
  "materials": [
    {
      "name": "flltbrown",
      "pbrMetallicRoughness": {
        "baseColorFactor": [
          0.5,
          0.5,
          0.5,
          1
        ],
        "metallicFactor": 0,
        "roughnessFactor": 1
      },
      "emissiveFactor": [
        0,
        0,
        0
      ],
      "alphaMode": "OPAQUE",
      "doubleSided": false
    },
    {
      "name": "ruby",
      "pbrMetallicRoughness": {
        "baseColorFactor": [
          0.5,
          0.5,
          0.5,
          1
        ],
        "metallicFactor": 0,
        "roughnessFactor": 1
      },
      "emissiveFactor": [
        0,
        0,
        0
      ],
      "alphaMode": "OPAQUE",
      "doubleSided": false
    },
    {
      "name": "flgrey",
      "pbrMetallicRoughness": {
        "baseColorFactor": [
          0.5,
          0.5,
          0.5,
          1
        ],
        "metallicFactor": 0,
        "roughnessFactor": 1
      },
      "emissiveFactor": [
        0,
        0,
        0
      ],
      "alphaMode": "OPAQUE",
      "doubleSided": false
    },
    {
      "name": "teeth",
      "pbrMetallicRoughness": {
        "baseColorFactor": [
          0.5,
          0.5,
          0.5,
          1
        ],
        "metallicFactor": 0,
        "roughnessFactor": 1
      },
      "emissiveFactor": [
        0,
        0,
        0
      ],
      "alphaMode": "OPAQUE",
      "doubleSided": false
    },
    {
      "name": "fldkgrey",
      "pbrMetallicRoughness": {
        "baseColorFactor": [
          0.5,
          0.5,
          0.5,
          1
        ],
        "metallicFactor": 0,
        "roughnessFactor": 1
      },
      "emissiveFactor": [
        0,
        0,
        0
      ],
      "alphaMode": "OPAQUE",
      "doubleSided": false
    },
    {
      "name": "archwhite",
      "pbrMetallicRoughness": {
        "baseColorFactor": [
          0.5,
          0.5,
          0.5,
          1
        ],
        "metallicFactor": 0,
        "roughnessFactor": 1
      },
      "emissiveFactor": [
        0,
        0,
        0
      ],
      "alphaMode": "OPAQUE",
      "doubleSided": false
    },
    {
      "name": "flwhite",
      "pbrMetallicRoughness": {
        "baseColorFactor": [
          0.5,
          0.5,
          0.5,
          1
        ],
        "metallicFactor": 0,
        "roughnessFactor": 1
      },
      "emissiveFactor": [
        0,
        0,
        0
      ],
      "alphaMode": "OPAQUE",
      "doubleSided": false
    }
  ],
  "meshes": [
    {
      "name": "Log_1",
      "primitives": [
        {
          "attributes": {
            "POSITION": 0
          },
          "indices": 1,
          "material": 0,
          "mode": 4
        }
      ]
    },
    {
      "name": "Fire_1",
      "primitives": [
        {
          "attributes": {
            "POSITION": 2
          },
          "indices": 3,
          "material": 1,
          "mode": 4
        }
      ]
    },
    {
      "name": "Joint_1",
      "primitives": [
        {
          "attributes": {
            "POSITION": 4
          },
          "indices": 5,
          "material": 2,
          "mode": 4
        }
      ]
    },
    {
      "name": "AtreBack_1",
      "primitives": [
        {
          "attributes": {
            "POSITION": 6
          },
          "indices": 7,
          "material": 3,
          "mode": 4
        }
      ]
    },
    {
      "name": "Atre_1",
      "primitives": [
        {
          "attributes": {
            "POSITION": 8
          },
          "indices": 9,
          "material": 4,
          "mode": 4
        }
      ]
    },
    {
      "name": "Chimney_1",
      "primitives": [
        {
          "attributes": {
            "POSITION": 10
          },
          "indices": 11,
          "material": 5,
          "mode": 4
        }
      ]
    },
    {
      "name": "Back_1",
      "primitives": [
        {
          "attributes": {
            "POSITION": 12
          },
          "indices": 13,
          "material": 6,
          "mode": 4
        }
      ]
    },
    {
      "name": "Base_1",
      "primitives": [
        {
          "attributes": {
            "POSITION": 14
          },
          "indices": 15,
          "material": 6,
          "mode": 4
        }
      ]
    }
  ],
  "nodes": [
    {
      "name": "Log",
      "mesh": 0
    },
    {
      "name": "Fire",
      "mesh": 1
    },
    {
      "name": "Joint",
      "mesh": 2
    },
    {
      "name": "AtreBack",
      "mesh": 3
    },
    {
      "name": "Atre",
      "mesh": 4
    },
    {
      "name": "Chimney",
      "mesh": 5
    },
    {
      "name": "Back",
      "mesh": 6
    },
    {
      "name": "Base",
      "mesh": 7
    }
  ],
  "scene": 0,
  "scenes": [
    {
      "nodes": [
        0,
        1,
        2,
        3,
        4,
        5,
        6,
        7
      ]
    }
  ]
}
