{
  "accessors": [
    {
      "name": "Tour_fenetre_1_0_positions",
      "componentType": 5126,
      "count": 18,
      "min": [
        -0.39691001176834106,
        0.9185100197792053,
        -0.13399000465869904
      ],
      "max": [
        0.39609000086784363,
        1.7115099430084229,
        0.13401000201702118
      ],
      "type": "VEC3",
      "bufferView": 0,
      "byteOffset": 0
    },
    {
      "name": "Tour_fenetre_1_0_indices",
      "componentType": 5123,
      "count": 108,
      "min": [
        0
      ],
      "max": [
        17
      ],
      "type": "SCALAR",
      "bufferView": 1,
      "byteOffset": 0
    },
    {
      "name": "sweethome3d_window_pane_1_0_positions",
      "componentType": 5126,
      "count": 9,
      "min": [
        -0.3507100045681,
        0.9668800234794617,
        -0.004999999888241291
      ],
      "max": [
        0.28356999158859253,
        1.6011500358581543,
        0.004999999888241291
      ],
      "type": "VEC3",
      "bufferView": 0,
      "byteOffset": 216
    },
    {
      "name": "sweethome3d_window_pane_1_0_indices",
      "componentType": 5123,
      "count": 42,
      "min": [
        0
      ],
      "max": [
        8
      ],
      "type": "SCALAR",
      "bufferView": 1,
      "byteOffset": 216
    },
    {
      "name": "Montant_1_0_positions",
      "componentType": 5126,
      "count": 18,
      "min": [
        -0.3890500068664551,
        0.9265599846839905,
        -0.019139999523758888
      ],
      "max": [
        0.3769499957561493,
        1.6925499439239502,
        0.01915000006556511
      ],
      "type": "VEC3",
      "bufferView": 0,
      "byteOffset": 324
    },
    {
      "name": "Montant_1_0_indices",
      "componentType": 5123,
      "count": 108,
      "min": [
        0
      ],
      "max": [
        17
      ],
      "type": "SCALAR",
      "bufferView": 1,
      "byteOffset": 300
    }
  ],
  "asset": {
    "generator": "obj2gltf",
    "version": "2.0"
  },
  "buffers": [
    {
      "name": "fixedTriangleWindow85x85",
      "byteLength": 1056,
      "uri": "data:application/octet-stream;base64,"
    }
  ],
  "bufferViews": [
    {
      "name": "bufferView_0",
      "buffer": 0,
      "byteLength": 540,
      "byteOffset": 0,
      "byteStride": 12,
      "target": 34962
    },
    {
      "name": "bufferView_1",
      "buffer": 0,
      "byteLength": 516,
      "byteOffset": 540,
      "target": 34963
    }
  ],
  "materials": [
    {
      "name": "white",
      "pbrMetallicRoughness": {
        "baseColorFactor": [
          0.5,
          0.5,
          0.5,
          1
        ],
        "metallicFactor": 0,
        "roughnessFactor": 1
      },
      "emissiveFactor": [
        0,
        0,
        0
      ],
      "alphaMode": "OPAQUE",
      "doubleSided": false
    },
    {
      "name": "flltgrey",
      "pbrMetallicRoughness": {
        "baseColorFactor": [
          0.5,
          0.5,
          0.5,
          1
        ],
        "metallicFactor": 0,
        "roughnessFactor": 1
      },
      "emissiveFactor": [
        0,
        0,
        0
      ],
      "alphaMode": "OPAQUE",
      "doubleSided": false
    }
  ],
  "meshes": [
    {
      "name": "Tour_fenetre_1",
      "primitives": [
        {
          "attributes": {
            "POSITION": 0
          },
          "indices": 1,
          "material": 0,
          "mode": 4
        }
      ]
    },
    {
      "name": "sweethome3d_window_pane_1",
      "primitives": [
        {
          "attributes": {
            "POSITION": 2
          },
          "indices": 3,
          "material": 1,
          "mode": 4
        }
      ]
    },
    {
      "name": "Montant_1",
      "primitives": [
        {
          "attributes": {
            "POSITION": 4
          },
          "indices": 5,
          "material": 0,
          "mode": 4
        }
      ]
    }
  ],
  "nodes": [
    {
      "name": "Tour_fenetre",
      "mesh": 0
    },
    {
      "name": "sweethome3d_window_pane",
      "mesh": 1
    },
    {
      "name": "Montant",
      "mesh": 2
    }
  ],
  "scene": 0,
  "scenes": [
    {
      "nodes": [
        0,
        1,
        2
      ]
    }
  ]
}
