{
  "accessors": [
    {
      "name": "Tube_1_0_positions",
      "componentType": 5126,
      "count": 18,
      "min": [
        -0.019999999552965164,
        -0.875,
        -0.019999999552965164
      ],
      "max": [
        0.019999999552965164,
        0.875,
        0.019999999552965164
      ],
      "type": "VEC3",
      "bufferView": 0,
      "byteOffset": 0
    },
    {
      "name": "Tube_1_0_indices",
      "componentType": 5123,
      "count": 96,
      "min": [
        0
      ],
      "max": [
        17
      ],
      "type": "SCALAR",
      "bufferView": 1,
      "byteOffset": 0
    },
    {
      "name": "LightBase_1_0_positions",
      "componentType": 5126,
      "count": 38,
      "min": [
        -0.11122000217437744,
        0.8773800134658813,
        -0.11122000217437744
      ],
      "max": [
        0.11122000217437744,
        0.8973699808120728,
        0.11122000217437744
      ],
      "type": "VEC3",
      "bufferView": 0,
      "byteOffset": 216
    },
    {
      "name": "LightBase_1_0_indices",
      "componentType": 5123,
      "count": 216,
      "min": [
        0
      ],
      "max": [
        37
      ],
      "type": "SCALAR",
      "bufferView": 1,
      "byteOffset": 192
    },
    {
      "name": "sweethome3d_window_pane_1_0_positions",
      "componentType": 5126,
      "count": 168,
      "min": [
        -0.16512000560760498,
        0.8972799777984619,
        -0.16512000560760498
      ],
      "max": [
        0.16512000560760498,
        0.9221799969673157,
        0.16512000560760498
      ],
      "type": "VEC3",
      "bufferView": 0,
      "byteOffset": 672
    },
    {
      "name": "sweethome3d_window_pane_1_0_indices",
      "componentType": 5123,
      "count": 1008,
      "min": [
        0
      ],
      "max": [
        167
      ],
      "type": "SCALAR",
      "bufferView": 1,
      "byteOffset": 624
    },
    {
      "name": "Base_1_0_positions",
      "componentType": 5126,
      "count": 130,
      "min": [
        -0.15000000596046448,
        -0.8908100128173828,
        -0.15000000596046448
      ],
      "max": [
        0.15000000596046448,
        -0.8591899871826172,
        0.15000000596046448
      ],
      "type": "VEC3",
      "bufferView": 0,
      "byteOffset": 2688
    },
    {
      "name": "Base_1_0_indices",
      "componentType": 5123,
      "count": 768,
      "min": [
        0
      ],
      "max": [
        129
      ],
      "type": "SCALAR",
      "bufferView": 1,
      "byteOffset": 2640
    },
    {
      "name": "Anneau_1_0_positions",
      "componentType": 5126,
      "count": 18,
      "min": [
        -0.019999999552965164,
        0.8709999918937683,
        -0.019999999552965164
      ],
      "max": [
        0.019999999552965164,
        0.8790000081062317,
        0.019999999552965164
      ],
      "type": "VEC3",
      "bufferView": 0,
      "byteOffset": 4248
    },
    {
      "name": "Anneau_1_0_indices",
      "componentType": 5123,
      "count": 96,
      "min": [
        0
      ],
      "max": [
        17
      ],
      "type": "SCALAR",
      "bufferView": 1,
      "byteOffset": 4176
    }
  ],
  "asset": {
    "generator": "obj2gltf",
    "version": "2.0"
  },
  "buffers": [
    {
      "name": "floorUplight",
      "byteLength": 8832,
      "uri": "data:application/octet-stream;base64,"
    }
  ],
  "bufferViews": [
    {
      "name": "bufferView_0",
      "buffer": 0,
      "byteLength": 4464,
      "byteOffset": 0,
      "byteStride": 12,
      "target": 34962
    },
    {
      "name": "bufferView_1",
      "buffer": 0,
      "byteLength": 4368,
      "byteOffset": 4464,
      "target": 34963
    }
  ],
  "materials": [
    {
      "name": "dkgrey",
      "pbrMetallicRoughness": {
        "baseColorFactor": [
          0.5,
          0.5,
          0.5,
          1
        ],
        "metallicFactor": 0,
        "roughnessFactor": 1
      },
      "emissiveFactor": [
        0,
        0,
        0
      ],
      "alphaMode": "OPAQUE",
      "doubleSided": false
    },
    {
      "name": "flltgrey",
      "pbrMetallicRoughness": {
        "baseColorFactor": [
          0.5,
          0.5,
          0.5,
          1
        ],
        "metallicFactor": 0,
        "roughnessFactor": 1
      },
      "emissiveFactor": [
        0,
        0,
        0
      ],
      "alphaMode": "OPAQUE",
      "doubleSided": false
    },
    {
      "name": "silver",
      "pbrMetallicRoughness": {
        "baseColorFactor": [
          0.5,
          0.5,
          0.5,
          1
        ],
        "metallicFactor": 0,
        "roughnessFactor": 1
      },
      "emissiveFactor": [
        0,
        0,
        0
      ],
      "alphaMode": "OPAQUE",
      "doubleSided": false
    }
  ],
  "meshes": [
    {
      "name": "Tube_1",
      "primitives": [
        {
          "attributes": {
            "POSITION": 0
          },
          "indices": 1,
          "material": 0,
          "mode": 4
        }
      ]
    },
    {
      "name": "LightBase_1",
      "primitives": [
        {
          "attributes": {
            "POSITION": 2
          },
          "indices": 3,
          "material": 0,
          "mode": 4
        }
      ]
    },
    {
      "name": "sweethome3d_window_pane_1",
      "primitives": [
        {
          "attributes": {
            "POSITION": 4
          },
          "indices": 5,
          "material": 1,
          "mode": 4
        }
      ]
    },
    {
      "name": "Base_1",
      "primitives": [
        {
          "attributes": {
            "POSITION": 6
          },
          "indices": 7,
          "material": 0,
          "mode": 4
        }
      ]
    },
    {
      "name": "Anneau_1",
      "primitives": [
        {
          "attributes": {
            "POSITION": 8
          },
          "indices": 9,
          "material": 2,
          "mode": 4
        }
      ]
    }
  ],
  "nodes": [
    {
      "name": "Tube",
      "mesh": 0
    },
    {
      "name": "LightBase",
      "mesh": 1
    },
    {
      "name": "sweethome3d_window_pane",
      "mesh": 2
    },
    {
      "name": "Base",
      "mesh": 3
    },
    {
      "name": "Anneau",
      "mesh": 4
    }
  ],
  "scene": 0,
  "scenes": [
    {
      "nodes": [
        0,
        1,
        2,
        3,
        4
      ]
    }
  ]
}
