{
  "accessors": [
    {
      "name": "Wire_1_0_positions",
      "componentType": 5126,
      "count": 62,
      "min": [
        -0.11044599860906601,
        -0.0560000017285347,
        -0.09576799720525742
      ],
      "max": [
        0.0557590015232563,
        0.12357699871063232,
        0.09580399841070175
      ],
      "type": "VEC3",
      "bufferView": 0,
      "byteOffset": 0
    },
    {
      "name": "Wire_1_0_indices",
      "componentType": 5123,
      "count": 297,
      "min": [
        0
      ],
      "max": [
        61
      ],
      "type": "SCALAR",
      "bufferView": 1,
      "byteOffset": 0
    },
    {
      "name": "Sphere_1_0_positions",
      "componentType": 5126,
      "count": 240,
      "min": [
        -0.12812499701976776,
        -0.3739590048789978,
        -0.12812499701976776
      ],
      "max": [
        0.12812499701976776,
        -0.13924099504947662,
        0.12812499701976776
      ],
      "type": "VEC3",
      "bufferView": 0,
      "byteOffset": 744
    },
    {
      "name": "Sphere_1_0_indices",
      "componentType": 5123,
      "count": 1362,
      "min": [
        0
      ],
      "max": [
        239
      ],
      "type": "SCALAR",
      "bufferView": 1,
      "byteOffset": 596
    },
    {
      "name": "Mount_1_0_positions",
      "componentType": 5126,
      "count": 96,
      "min": [
        -0.03414800018072128,
        -0.13958199322223663,
        -0.03414800018072128
      ],
      "max": [
        0.03414800018072128,
        -0.035103000700473785,
        0.03414800018072128
      ],
      "type": "VEC3",
      "bufferView": 0,
      "byteOffset": 3624
    },
    {
      "name": "Mount_1_0_indices",
      "componentType": 5123,
      "count": 534,
      "min": [
        0
      ],
      "max": [
        95
      ],
      "type": "SCALAR",
      "bufferView": 1,
      "byteOffset": 3320
    },
    {
      "name": "Shade_1_0_positions",
      "componentType": 5126,
      "count": 96,
      "min": [
        -0.2199999988079071,
        -0.125,
        -0.2199999988079071
      ],
      "max": [
        0.2199999988079071,
        0.125,
        0.2199999988079071
      ],
      "type": "VEC3",
      "bufferView": 0,
      "byteOffset": 4776
    },
    {
      "name": "Shade_1_0_indices",
      "componentType": 5123,
      "count": 576,
      "min": [
        0
      ],
      "max": [
        95
      ],
      "type": "SCALAR",
      "bufferView": 1,
      "byteOffset": 4388
    }
  ],
  "asset": {
    "generator": "obj2gltf",
    "version": "2.0"
  },
  "buffers": [
    {
      "name": "lamp",
      "byteLength": 11468,
      "uri": "data:application/octet-stream;base64,"
    }
  ],
  "bufferViews": [
    {
      "name": "bufferView_0",
      "buffer": 0,
      "byteLength": 5928,
      "byteOffset": 0,
      "byteStride": 12,
      "target": 34962
    },
    {
      "name": "bufferView_1",
      "buffer": 0,
      "byteLength": 5540,
      "byteOffset": 5928,
      "target": 34963
    }
  ],
  "materials": [
    {
      "name": "silver",
      "pbrMetallicRoughness": {
        "baseColorFactor": [
          0.5,
          0.5,
          0.5,
          1
        ],
        "metallicFactor": 0,
        "roughnessFactor": 1
      },
      "emissiveFactor": [
        0,
        0,
        0
      ],
      "alphaMode": "OPAQUE",
      "doubleSided": false
    },
    {
      "name": "lavendar",
      "pbrMetallicRoughness": {
        "baseColorFactor": [
          0.5,
          0.5,
          0.5,
          1
        ],
        "metallicFactor": 0,
        "roughnessFactor": 1
      },
      "emissiveFactor": [
        0,
        0,
        0
      ],
      "alphaMode": "OPAQUE",
      "doubleSided": false
    },
    {
      "name": "dkdkgrey",
      "pbrMetallicRoughness": {
        "baseColorFactor": [
          0.5,
          0.5,
          0.5,
          1
        ],
        "metallicFactor": 0,
        "roughnessFactor": 1
      },
      "emissiveFactor": [
        0,
        0,
        0
      ],
      "alphaMode": "OPAQUE",
      "doubleSided": false
    },
    {
      "name": "flltgrey",
      "pbrMetallicRoughness": {
        "baseColorFactor": [
          0.5,
          0.5,
          0.5,
          1
        ],
        "metallicFactor": 0,
        "roughnessFactor": 1
      },
      "emissiveFactor": [
        0,
        0,
        0
      ],
      "alphaMode": "OPAQUE",
      "doubleSided": false
    }
  ],
  "meshes": [
    {
      "name": "Wire_1",
      "primitives": [
        {
          "attributes": {
            "POSITION": 0
          },
          "indices": 1,
          "material": 0,
          "mode": 4
        }
      ]
    },
    {
      "name": "Sphere_1",
      "primitives": [
        {
          "attributes": {
            "POSITION": 2
          },
          "indices": 3,
          "material": 1,
          "mode": 4
        }
      ]
    },
    {
      "name": "Mount_1",
      "primitives": [
        {
          "attributes": {
            "POSITION": 4
          },
          "indices": 5,
          "material": 2,
          "mode": 4
        }
      ]
    },
    {
      "name": "Shade_1",
      "primitives": [
        {
          "attributes": {
            "POSITION": 6
          },
          "indices": 7,
          "material": 3,
          "mode": 4
        }
      ]
    }
  ],
  "nodes": [
    {
      "name": "Wire",
      "mesh": 0
    },
    {
      "name": "Sphere",
      "mesh": 1
    },
    {
      "name": "Mount",
      "mesh": 2
    },
    {
      "name": "Shade",
      "mesh": 3
    }
  ],
  "scene": 0,
  "scenes": [
    {
      "nodes": [
        0,
        1,
        2,
        3
      ]
    }
  ]
}
