{
  "accessors": [
    {
      "name": "sweethome3d_hinge_1_1_0_positions",
      "componentType": 5126,
      "count": 8,
      "min": [
        -0.14000000059604645,
        -0.00016799999866634607,
        -0.11226800084114075
      ],
      "max": [
        0.14000000059604645,
        0.0013680000556632876,
        -0.11073199659585953
      ],
      "type": "VEC3",
      "bufferView": 0,
      "byteOffset": 0
    },
    {
      "name": "sweethome3d_hinge_1_1_0_indices",
      "componentType": 5123,
      "count": 24,
      "min": [
        0
      ],
      "max": [
        7
      ],
      "type": "SCALAR",
      "bufferView": 2,
      "byteOffset": 0
    },
    {
      "name": "BottomFace_1_0_positions",
      "componentType": 5126,
      "count": 53,
      "min": [
        -0.16249999403953552,
        -0.005727999843657017,
        -0.11409100145101547
      ],
      "max": [
        0.16249999403953552,
        -0.0023590000346302986,
        0.11396600306034088
      ],
      "type": "VEC3",
      "bufferView": 0,
      "byteOffset": 96
    },
    {
      "name": "BottomFace_1_0_indices",
      "componentType": 5123,
      "count": 186,
      "min": [
        0
      ],
      "max": [
        52
      ],
      "type": "SCALAR",
      "bufferView": 2,
      "byteOffset": 48
    },
    {
      "name": "Feet_1_0_positions",
      "componentType": 5126,
      "count": 84,
      "min": [
        -0.14454500377178192,
        -0.005799999926239252,
        -0.09607599675655365
      ],
      "max": [
        0.14455200731754303,
        -0.0029239999130368233,
        0.09594199806451797
      ],
      "type": "VEC3",
      "bufferView": 0,
      "byteOffset": 732
    },
    {
      "name": "Feet_1_0_indices",
      "componentType": 5123,
      "count": 360,
      "min": [
        0
      ],
      "max": [
        83
      ],
      "type": "SCALAR",
      "bufferView": 2,
      "byteOffset": 420
    },
    {
      "name": "sweethome3d_opening_on_hinge_1_rotatingHinge_1_0_positions",
      "componentType": 5126,
      "count": 12,
      "min": [
        -0.1274999976158142,
        -0.003865000093355775,
        -0.11683899909257889
      ],
      "max": [
        0.1274999976158142,
        0.005038000177592039,
        -0.10757999867200851
      ],
      "type": "VEC3",
      "bufferView": 0,
      "byteOffset": 1740
    },
    {
      "name": "sweethome3d_opening_on_hinge_1_rotatingHinge_1_0_indices",
      "componentType": 5123,
      "count": 60,
      "min": [
        0
      ],
      "max": [
        11
      ],
      "type": "SCALAR",
      "bufferView": 2,
      "byteOffset": 1140
    },
    {
      "name": "Keyboard_1_0_positions",
      "componentType": 5126,
      "count": 634,
      "min": [
        -0.13750000298023224,
        0.00032900000223889947,
        -0.09346900135278702
      ],
      "max": [
        0.1367499977350235,
        0.0047149998135864735,
        0.011548999696969986
      ],
      "type": "VEC3",
      "bufferView": 0,
      "byteOffset": 1884
    },
    {
      "name": "Keyboard_1_0_indices",
      "componentType": 5123,
      "count": 2394,
      "min": [
        0
      ],
      "max": [
        633
      ],
      "type": "SCALAR",
      "bufferView": 2,
      "byteOffset": 1260
    },
    {
      "name": "BottomBorder_1_0_positions",
      "componentType": 5126,
      "count": 180,
      "min": [
        -0.16249999403953552,
        -0.0026650000363588333,
        -0.11409100145101547
      ],
      "max": [
        0.16249999403953552,
        0.0047240001149475574,
        0.1140109971165657
      ],
      "type": "VEC3",
      "bufferView": 0,
      "byteOffset": 9492
    },
    {
      "name": "BottomBorder_1_0_indices",
      "componentType": 5123,
      "count": 930,
      "min": [
        0
      ],
      "max": [
        179
      ],
      "type": "SCALAR",
      "bufferView": 2,
      "byteOffset": 6048
    },
    {
      "name": "sweethome3d_opening_on_hinge_1_screen_1_0_positions",
      "componentType": 5126,
      "count": 4,
      "min": [
        -0.14350000023841858,
        0.011164000257849693,
        -0.23025499284267426
      ],
      "max": [
        0.14350000023841858,
        0.1697169989347458,
        -0.125560000538826
      ],
      "type": "VEC3",
      "bufferView": 0,
      "byteOffset": 11652
    },
    {
      "name": "sweethome3d_opening_on_hinge_1_screen_1_0_texcoords",
      "componentType": 5126,
      "count": 4,
      "min": [
        0,
        0
      ],
      "max": [
        1,
        1
      ],
      "type": "VEC2",
      "bufferView": 1,
      "byteOffset": 0
    },
    {
      "name": "sweethome3d_opening_on_hinge_1_screen_1_0_indices",
      "componentType": 5123,
      "count": 6,
      "min": [
        0
      ],
      "max": [
        3
      ],
      "type": "SCALAR",
      "bufferView": 2,
      "byteOffset": 7908
    },
    {
      "name": "sweethome3d_opening_on_hinge_1_topBorder_1_0_positions",
      "componentType": 5126,
      "count": 68,
      "min": [
        -0.16249999403953552,
        -0.0049669998697936535,
        -0.24114100635051727
      ],
      "max": [
        0.16249999403953552,
        0.18639899790287018,
        -0.11383900046348572
      ],
      "type": "VEC3",
      "bufferView": 0,
      "byteOffset": 11700
    },
    {
      "name": "sweethome3d_opening_on_hinge_1_topBorder_1_0_indices",
      "componentType": 5123,
      "count": 312,
      "min": [
        0
      ],
      "max": [
        67
      ],
      "type": "SCALAR",
      "bufferView": 2,
      "byteOffset": 7920
    },
    {
      "name": "sweethome3d_opening_on_hinge_1_topFace_1_0_positions",
      "componentType": 5126,
      "count": 37,
      "min": [
        -0.16249999403953552,
        -0.0049669998697936535,
        -0.24114100635051727
      ],
      "max": [
        0.16249999403953552,
        0.18529699742794037,
        -0.11550799757242203
      ],
      "type": "VEC3",
      "bufferView": 0,
      "byteOffset": 12516
    },
    {
      "name": "sweethome3d_opening_on_hinge_1_topFace_1_0_indices",
      "componentType": 5123,
      "count": 132,
      "min": [
        0
      ],
      "max": [
        36
      ],
      "type": "SCALAR",
      "bufferView": 2,
      "byteOffset": 8544
    }
  ],
  "asset": {
    "generator": "obj2gltf",
    "version": "2.0"
  },
  "buffers": [
    {
      "name": "laptop",
      "byteLength": 21800,
      "uri": "data:application/octet-stream;base64,"
    }
  ],
  "bufferViews": [
    {
      "name": "bufferView_0",
      "buffer": 0,
      "byteLength": 12960,
      "byteOffset": 0,
      "byteStride": 12,
      "target": 34962
    },
    {
      "name": "bufferView_1",
      "buffer": 0,
      "byteLength": 32,
      "byteOffset": 12960,
      "byteStride": 8,
      "target": 34962
    },
    {
      "name": "bufferView_2",
      "buffer": 0,
      "byteLength": 8808,
      "byteOffset": 12992,
      "target": 34963
    }
  ],
  "materials": [
    {
      "name": "fldkdkgrey",
      "pbrMetallicRoughness": {
        "baseColorFactor": [
          0.5,
          0.5,
          0.5,
          1
        ],
        "metallicFactor": 0,
        "roughnessFactor": 1
      },
      "emissiveFactor": [
        0,
        0,
        0
      ],
      "alphaMode": "OPAQUE",
      "doubleSided": false
    },
    {
      "name": "silver",
      "pbrMetallicRoughness": {
        "baseColorFactor": [
          0.5,
          0.5,
          0.5,
          1
        ],
        "metallicFactor": 0,
        "roughnessFactor": 1
      },
      "emissiveFactor": [
        0,
        0,
        0
      ],
      "alphaMode": "OPAQUE",
      "doubleSided": false
    },
    {
      "name": "flblack",
      "pbrMetallicRoughness": {
        "baseColorFactor": [
          0.5,
          0.5,
          0.5,
          1
        ],
        "metallicFactor": 0,
        "roughnessFactor": 1
      },
      "emissiveFactor": [
        0,
        0,
        0
      ],
      "alphaMode": "OPAQUE",
      "doubleSided": false
    },
    {
      "name": "fldkgrey",
      "pbrMetallicRoughness": {
        "baseColorFactor": [
          0.5,
          0.5,
          0.5,
          1
        ],
        "metallicFactor": 0,
        "roughnessFactor": 1
      },
      "emissiveFactor": [
        0,
        0,
        0
      ],
      "alphaMode": "OPAQUE",
      "doubleSided": false
    }
  ],
  "meshes": [
    {
      "name": "sweethome3d_hinge_1_1",
      "primitives": [
        {
          "attributes": {
            "POSITION": 0
          },
          "indices": 1,
          "material": 0,
          "mode": 4
        }
      ]
    },
    {
      "name": "BottomFace_1",
      "primitives": [
        {
          "attributes": {
            "POSITION": 2
          },
          "indices": 3,
          "material": 1,
          "mode": 4
        }
      ]
    },
    {
      "name": "Feet_1",
      "primitives": [
        {
          "attributes": {
            "POSITION": 4
          },
          "indices": 5,
          "material": 0,
          "mode": 4
        }
      ]
    },
    {
      "name": "sweethome3d_opening_on_hinge_1_rotatingHinge_1",
      "primitives": [
        {
          "attributes": {
            "POSITION": 6
          },
          "indices": 7,
          "material": 0,
          "mode": 4
        }
      ]
    },
    {
      "name": "Keyboard_1",
      "primitives": [
        {
          "attributes": {
            "POSITION": 8
          },
          "indices": 9,
          "material": 2,
          "mode": 4
        }
      ]
    },
    {
      "name": "BottomBorder_1",
      "primitives": [
        {
          "attributes": {
            "POSITION": 10
          },
          "indices": 11,
          "material": 1,
          "mode": 4
        }
      ]
    },
    {
      "name": "sweethome3d_opening_on_hinge_1_screen_1",
      "primitives": [
        {
          "attributes": {
            "POSITION": 12,
            "TEXCOORD_0": 13
          },
          "indices": 14,
          "material": 3,
          "mode": 4
        }
      ]
    },
    {
      "name": "sweethome3d_opening_on_hinge_1_topBorder_1",
      "primitives": [
        {
          "attributes": {
            "POSITION": 15
          },
          "indices": 16,
          "material": 1,
          "mode": 4
        }
      ]
    },
    {
      "name": "sweethome3d_opening_on_hinge_1_topFace_1",
      "primitives": [
        {
          "attributes": {
            "POSITION": 17
          },
          "indices": 18,
          "material": 1,
          "mode": 4
        }
      ]
    }
  ],
  "nodes": [
    {
      "name": "sweethome3d_hinge_1",
      "mesh": 0
    },
    {
      "name": "BottomFace",
      "mesh": 1
    },
    {
      "name": "Feet",
      "mesh": 2
    },
    {
      "name": "sweethome3d_opening_on_hinge_1_rotatingHinge",
      "mesh": 3
    },
    {
      "name": "Keyboard",
      "mesh": 4
    },
    {
      "name": "BottomBorder",
      "mesh": 5
    },
    {
      "name": "sweethome3d_opening_on_hinge_1_screen",
      "mesh": 6
    },
    {
      "name": "sweethome3d_opening_on_hinge_1_topBorder",
      "mesh": 7
    },
    {
      "name": "sweethome3d_opening_on_hinge_1_topFace",
      "mesh": 8
    }
  ],
  "scene": 0,
  "scenes": [
    {
      "nodes": [
        0,
        1,
        2,
        3,
        4,
        5,
        6,
        7,
        8
      ]
    }
  ]
}
