{
  "accessors": [
    {
      "name": "sweethome3d_hinge_2_1_0_positions",
      "componentType": 5126,
      "count": 8,
      "min": [
        0.9646829962730408,
        0.14499999582767487,
        0.3068999946117401
      ],
      "max": [
        0.9696829915046692,
        0.1550000011920929,
        0.31189998984336853
      ],
      "type": "VEC3",
      "bufferView": 0,
      "byteOffset": 0
    },
    {
      "name": "sweethome3d_hinge_2_1_0_indices",
      "componentType": 5123,
      "count": 18,
      "min": [
        0
      ],
      "max": [
        7
      ],
      "type": "SCALAR",
      "bufferView": 1,
      "byteOffset": 0
    },
    {
      "name": "sweethome3d_opening_on_hinge_1_door_1_0_positions",
      "componentType": 5126,
      "count": 8,
      "min": [
        -0.22684800624847412,
        -0.5400000214576721,
        0.30300000309944153
      ],
      "max": [
        0.37115201354026794,
        0.20999999344348907,
        0.31299999356269836
      ],
      "type": "VEC3",
      "bufferView": 0,
      "byteOffset": 96
    },
    {
      "name": "sweethome3d_opening_on_hinge_1_door_1_0_indices",
      "componentType": 5123,
      "count": 36,
      "min": [
        0
      ],
      "max": [
        7
      ],
      "type": "SCALAR",
      "bufferView": 1,
      "byteOffset": 36
    },
    {
      "name": "Robinet_gauche_1_0_positions",
      "componentType": 5126,
      "count": 18,
      "min": [
        0.15486399829387665,
        0.2173299938440323,
        -0.2313700020313263
      ],
      "max": [
        0.21013599634170532,
        0.27232998609542847,
        -0.17636999487876892
      ],
      "type": "VEC3",
      "bufferView": 0,
      "byteOffset": 192
    },
    {
      "name": "Robinet_gauche_1_0_indices",
      "componentType": 5123,
      "count": 96,
      "min": [
        0
      ],
      "max": [
        17
      ],
      "type": "SCALAR",
      "bufferView": 1,
      "byteOffset": 108
    },
    {
      "name": "Robinet_droit_1_0_positions",
      "componentType": 5126,
      "count": 18,
      "min": [
        0.28998398780822754,
        0.2173299938440323,
        -0.2313700020313263
      ],
      "max": [
        0.3450160026550293,
        0.27232998609542847,
        -0.17636999487876892
      ],
      "type": "VEC3",
      "bufferView": 0,
      "byteOffset": 408
    },
    {
      "name": "Robinet_droit_1_0_indices",
      "componentType": 5123,
      "count": 96,
      "min": [
        0
      ],
      "max": [
        17
      ],
      "type": "SCALAR",
      "bufferView": 1,
      "byteOffset": 300
    },
    {
      "name": "sweethome3d_opening_on_hinge_1_handle_1_0_positions",
      "componentType": 5126,
      "count": 194,
      "min": [
        0.2567000091075897,
        0.08470000326633453,
        0.312949001789093
      ],
      "max": [
        0.29330000281333923,
        0.12129999697208405,
        0.3413600027561188
      ],
      "type": "VEC3",
      "bufferView": 0,
      "byteOffset": 624
    },
    {
      "name": "sweethome3d_opening_on_hinge_1_handle_1_0_indices",
      "componentType": 5123,
      "count": 1152,
      "min": [
        0
      ],
      "max": [
        193
      ],
      "type": "SCALAR",
      "bufferView": 1,
      "byteOffset": 492
    },
    {
      "name": "sweethome3d_opening_on_hinge_2_door_1_0_positions",
      "componentType": 5126,
      "count": 8,
      "min": [
        0.3734999895095825,
        -0.5400000214576721,
        0.30300000309944153
      ],
      "max": [
        0.9714999794960022,
        0.20999999344348907,
        0.31299999356269836
      ],
      "type": "VEC3",
      "bufferView": 0,
      "byteOffset": 2952
    },
    {
      "name": "sweethome3d_opening_on_hinge_2_door_1_0_indices",
      "componentType": 5123,
      "count": 36,
      "min": [
        0
      ],
      "max": [
        7
      ],
      "type": "SCALAR",
      "bufferView": 1,
      "byteOffset": 2796
    },
    {
      "name": "Meuble_1_0_positions",
      "componentType": 5126,
      "count": 24,
      "min": [
        -0.22750000655651093,
        -0.6399999856948853,
        -0.30000001192092896
      ],
      "max": [
        0.9725000262260437,
        0.20999999344348907,
        0.30000001192092896
      ],
      "type": "VEC3",
      "bufferView": 0,
      "byteOffset": 3048
    },
    {
      "name": "Meuble_1_0_indices",
      "componentType": 5123,
      "count": 144,
      "min": [
        0
      ],
      "max": [
        23
      ],
      "type": "SCALAR",
      "bufferView": 1,
      "byteOffset": 2868
    },
    {
      "name": "sweethome3d_hinge_1_1_0_positions",
      "componentType": 5126,
      "count": 8,
      "min": [
        -0.22499999403953552,
        0.14499999582767487,
        0.3068999946117401
      ],
      "max": [
        -0.2199999988079071,
        0.1550000011920929,
        0.31189998984336853
      ],
      "type": "VEC3",
      "bufferView": 0,
      "byteOffset": 3336
    },
    {
      "name": "sweethome3d_hinge_1_1_0_indices",
      "componentType": 5123,
      "count": 18,
      "min": [
        0
      ],
      "max": [
        7
      ],
      "type": "SCALAR",
      "bufferView": 1,
      "byteOffset": 3156
    },
    {
      "name": "Evier_1_0_positions",
      "componentType": 5126,
      "count": 262,
      "min": [
        -0.18416400253772736,
        -0.015577999874949455,
        -0.24985599517822266
      ],
      "max": [
        0.915835976600647,
        0.23442299664020538,
        0.25014400482177734
      ],
      "type": "VEC3",
      "bufferView": 0,
      "byteOffset": 3432
    },
    {
      "name": "Evier_1_0_indices",
      "componentType": 5123,
      "count": 1557,
      "min": [
        0
      ],
      "max": [
        261
      ],
      "type": "SCALAR",
      "bufferView": 1,
      "byteOffset": 3192
    },
    {
      "name": "sweethome3d_opening_on_hinge_2_handle_1_0_positions",
      "componentType": 5126,
      "count": 194,
      "min": [
        0.45694100856781006,
        0.08470000326633453,
        0.31290099024772644
      ],
      "max": [
        0.49354100227355957,
        0.12129999697208405,
        0.3413600027561188
      ],
      "type": "VEC3",
      "bufferView": 0,
      "byteOffset": 6576
    },
    {
      "name": "sweethome3d_opening_on_hinge_2_handle_1_0_indices",
      "componentType": 5123,
      "count": 1152,
      "min": [
        0
      ],
      "max": [
        193
      ],
      "type": "SCALAR",
      "bufferView": 1,
      "byteOffset": 6308
    },
    {
      "name": "Robinet_1_0_positions",
      "componentType": 5126,
      "count": 76,
      "min": [
        0.2337300032377243,
        0.22637000679969788,
        -0.21505999565124512
      ],
      "max": [
        0.2622700035572052,
        0.4171600043773651,
        -0.02817000076174736
      ],
      "type": "VEC3",
      "bufferView": 0,
      "byteOffset": 8904
    },
    {
      "name": "Robinet_1_0_indices",
      "componentType": 5123,
      "count": 444,
      "min": [
        0
      ],
      "max": [
        75
      ],
      "type": "SCALAR",
      "bufferView": 1,
      "byteOffset": 8612
    }
  ],
  "asset": {
    "generator": "obj2gltf",
    "version": "2.0"
  },
  "buffers": [
    {
      "name": "sink",
      "byteLength": 19316,
      "uri": "data:application/octet-stream;base64,"
    }
  ],
  "bufferViews": [
    {
      "name": "bufferView_0",
      "buffer": 0,
      "byteLength": 9816,
      "byteOffset": 0,
      "byteStride": 12,
      "target": 34962
    },
    {
      "name": "bufferView_1",
      "buffer": 0,
      "byteLength": 9500,
      "byteOffset": 9816,
      "target": 34963
    }
  ],
  "materials": [
    {
      "name": "white",
      "pbrMetallicRoughness": {
        "baseColorFactor": [
          0.5,
          0.5,
          0.5,
          1
        ],
        "metallicFactor": 0,
        "roughnessFactor": 1
      },
      "emissiveFactor": [
        0,
        0,
        0
      ],
      "alphaMode": "OPAQUE",
      "doubleSided": false
    },
    {
      "name": "silver",
      "pbrMetallicRoughness": {
        "baseColorFactor": [
          0.5,
          0.5,
          0.5,
          1
        ],
        "metallicFactor": 0,
        "roughnessFactor": 1
      },
      "emissiveFactor": [
        0,
        0,
        0
      ],
      "alphaMode": "OPAQUE",
      "doubleSided": false
    }
  ],
  "meshes": [
    {
      "name": "sweethome3d_hinge_2_1",
      "primitives": [
        {
          "attributes": {
            "POSITION": 0
          },
          "indices": 1,
          "material": 0,
          "mode": 4
        }
      ]
    },
    {
      "name": "sweethome3d_opening_on_hinge_1_door_1",
      "primitives": [
        {
          "attributes": {
            "POSITION": 2
          },
          "indices": 3,
          "material": 0,
          "mode": 4
        }
      ]
    },
    {
      "name": "Robinet_gauche_1",
      "primitives": [
        {
          "attributes": {
            "POSITION": 4
          },
          "indices": 5,
          "material": 1,
          "mode": 4
        }
      ]
    },
    {
      "name": "Robinet_droit_1",
      "primitives": [
        {
          "attributes": {
            "POSITION": 6
          },
          "indices": 7,
          "material": 1,
          "mode": 4
        }
      ]
    },
    {
      "name": "sweethome3d_opening_on_hinge_1_handle_1",
      "primitives": [
        {
          "attributes": {
            "POSITION": 8
          },
          "indices": 9,
          "material": 0,
          "mode": 4
        }
      ]
    },
    {
      "name": "sweethome3d_opening_on_hinge_2_door_1",
      "primitives": [
        {
          "attributes": {
            "POSITION": 10
          },
          "indices": 11,
          "material": 0,
          "mode": 4
        }
      ]
    },
    {
      "name": "Meuble_1",
      "primitives": [
        {
          "attributes": {
            "POSITION": 12
          },
          "indices": 13,
          "material": 0,
          "mode": 4
        }
      ]
    },
    {
      "name": "sweethome3d_hinge_1_1",
      "primitives": [
        {
          "attributes": {
            "POSITION": 14
          },
          "indices": 15,
          "material": 0,
          "mode": 4
        }
      ]
    },
    {
      "name": "Evier_1",
      "primitives": [
        {
          "attributes": {
            "POSITION": 16
          },
          "indices": 17,
          "material": 1,
          "mode": 4
        }
      ]
    },
    {
      "name": "sweethome3d_opening_on_hinge_2_handle_1",
      "primitives": [
        {
          "attributes": {
            "POSITION": 18
          },
          "indices": 19,
          "material": 0,
          "mode": 4
        }
      ]
    },
    {
      "name": "Robinet_1",
      "primitives": [
        {
          "attributes": {
            "POSITION": 20
          },
          "indices": 21,
          "material": 1,
          "mode": 4
        }
      ]
    }
  ],
  "nodes": [
    {
      "name": "sweethome3d_hinge_2",
      "mesh": 0
    },
    {
      "name": "sweethome3d_opening_on_hinge_1_door",
      "mesh": 1
    },
    {
      "name": "Robinet_gauche",
      "mesh": 2
    },
    {
      "name": "Robinet_droit",
      "mesh": 3
    },
    {
      "name": "sweethome3d_opening_on_hinge_1_handle",
      "mesh": 4
    },
    {
      "name": "sweethome3d_opening_on_hinge_2_door",
      "mesh": 5
    },
    {
      "name": "Meuble",
      "mesh": 6
    },
    {
      "name": "sweethome3d_hinge_1",
      "mesh": 7
    },
    {
      "name": "Evier",
      "mesh": 8
    },
    {
      "name": "sweethome3d_opening_on_hinge_2_handle",
      "mesh": 9
    },
    {
      "name": "Robinet",
      "mesh": 10
    }
  ],
  "scene": 0,
  "scenes": [
    {
      "nodes": [
        0,
        1,
        2,
        3,
        4,
        5,
        6,
        7,
        8,
        9,
        10
      ]
    }
  ]
}
