{
  "accessors": [
    {
      "name": "Assise_2_1_0_positions",
      "componentType": 5126,
      "count": 8,
      "min": [
        -1.7000000476837158,
        -1.2899999618530273,
        -1.7100000381469727
      ],
      "max": [
        1.7000000476837158,
        -1.1100000143051147,
        1.690000057220459
      ],
      "type": "VEC3",
      "bufferView": 0,
      "byteOffset": 0
    },
    {
      "name": "Assise_2_1_0_indices",
      "componentType": 5123,
      "count": 36,
      "min": [
        0
      ],
      "max": [
        7
      ],
      "type": "SCALAR",
      "bufferView": 1,
      "byteOffset": 0
    },
    {
      "name": "Pied_1_0_positions",
      "componentType": 5126,
      "count": 8,
      "min": [
        -1.850000023841858,
        -4.929999828338623,
        -1.850000023841858
      ],
      "max": [
        -1.5499999523162842,
        0.07000000029802322,
        -1.5499999523162842
      ],
      "type": "VEC3",
      "bufferView": 0,
      "byteOffset": 96
    },
    {
      "name": "Pied_1_0_indices",
      "componentType": 5123,
      "count": 36,
      "min": [
        0
      ],
      "max": [
        7
      ],
      "type": "SCALAR",
      "bufferView": 1,
      "byteOffset": 72
    },
    {
      "name": "Pied_2_1_0_positions",
      "componentType": 5126,
      "count": 8,
      "min": [
        1.5499999523162842,
        -4.929999828338623,
        1.5499999523162842
      ],
      "max": [
        1.850000023841858,
        0.07000000029802322,
        1.850000023841858
      ],
      "type": "VEC3",
      "bufferView": 0,
      "byteOffset": 192
    },
    {
      "name": "Pied_2_1_0_indices",
      "componentType": 5123,
      "count": 36,
      "min": [
        0
      ],
      "max": [
        7
      ],
      "type": "SCALAR",
      "bufferView": 1,
      "byteOffset": 144
    },
    {
      "name": "Assise_1_1_0_positions",
      "componentType": 5126,
      "count": 8,
      "min": [
        -1.7000000476837158,
        -3.990000009536743,
        -1.7100000381469727
      ],
      "max": [
        1.7000000476837158,
        -3.809999942779541,
        1.690000057220459
      ],
      "type": "VEC3",
      "bufferView": 0,
      "byteOffset": 288
    },
    {
      "name": "Assise_1_1_0_indices",
      "componentType": 5123,
      "count": 36,
      "min": [
        0
      ],
      "max": [
        7
      ],
      "type": "SCALAR",
      "bufferView": 1,
      "byteOffset": 216
    },
    {
      "name": "Pied_1_1_0_positions",
      "componentType": 5126,
      "count": 8,
      "min": [
        -1.850000023841858,
        -4.929999828338623,
        1.5499999523162842
      ],
      "max": [
        -1.5499999523162842,
        0.07000000029802322,
        1.850000023841858
      ],
      "type": "VEC3",
      "bufferView": 0,
      "byteOffset": 384
    },
    {
      "name": "Pied_1_1_0_indices",
      "componentType": 5123,
      "count": 36,
      "min": [
        0
      ],
      "max": [
        7
      ],
      "type": "SCALAR",
      "bufferView": 1,
      "byteOffset": 288
    },
    {
      "name": "Assise_1_0_positions",
      "componentType": 5126,
      "count": 8,
      "min": [
        -2,
        -0.09000000357627869,
        -2.009999990463257
      ],
      "max": [
        2,
        0.09000000357627869,
        1.9900000095367432
      ],
      "type": "VEC3",
      "bufferView": 0,
      "byteOffset": 480
    },
    {
      "name": "Assise_1_0_indices",
      "componentType": 5123,
      "count": 36,
      "min": [
        0
      ],
      "max": [
        7
      ],
      "type": "SCALAR",
      "bufferView": 1,
      "byteOffset": 360
    },
    {
      "name": "Pied_3_1_0_positions",
      "componentType": 5126,
      "count": 8,
      "min": [
        1.5499999523162842,
        -4.929999828338623,
        -1.850000023841858
      ],
      "max": [
        1.850000023841858,
        0.07000000029802322,
        -1.5499999523162842
      ],
      "type": "VEC3",
      "bufferView": 0,
      "byteOffset": 576
    },
    {
      "name": "Pied_3_1_0_indices",
      "componentType": 5123,
      "count": 36,
      "min": [
        0
      ],
      "max": [
        7
      ],
      "type": "SCALAR",
      "bufferView": 1,
      "byteOffset": 432
    }
  ],
  "asset": {
    "generator": "obj2gltf",
    "version": "2.0"
  },
  "buffers": [
    {
      "name": "bedsideTable",
      "byteLength": 1176,
      "uri": "data:application/octet-stream;base64,"
    }
  ],
  "bufferViews": [
    {
      "name": "bufferView_0",
      "buffer": 0,
      "byteLength": 672,
      "byteOffset": 0,
      "byteStride": 12,
      "target": 34962
    },
    {
      "name": "bufferView_1",
      "buffer": 0,
      "byteLength": 504,
      "byteOffset": 672,
      "target": 34963
    }
  ],
  "materials": [
    {
      "name": "amber",
      "pbrMetallicRoughness": {
        "baseColorFactor": [
          0.5,
          0.5,
          0.5,
          1
        ],
        "metallicFactor": 0,
        "roughnessFactor": 1
      },
      "emissiveFactor": [
        0,
        0,
        0
      ],
      "alphaMode": "OPAQUE",
      "doubleSided": false
    }
  ],
  "meshes": [
    {
      "name": "Assise_2_1",
      "primitives": [
        {
          "attributes": {
            "POSITION": 0
          },
          "indices": 1,
          "material": 0,
          "mode": 4
        }
      ]
    },
    {
      "name": "Pied_1",
      "primitives": [
        {
          "attributes": {
            "POSITION": 2
          },
          "indices": 3,
          "material": 0,
          "mode": 4
        }
      ]
    },
    {
      "name": "Pied_2_1",
      "primitives": [
        {
          "attributes": {
            "POSITION": 4
          },
          "indices": 5,
          "material": 0,
          "mode": 4
        }
      ]
    },
    {
      "name": "Assise_1_1",
      "primitives": [
        {
          "attributes": {
            "POSITION": 6
          },
          "indices": 7,
          "material": 0,
          "mode": 4
        }
      ]
    },
    {
      "name": "Pied_1_1",
      "primitives": [
        {
          "attributes": {
            "POSITION": 8
          },
          "indices": 9,
          "material": 0,
          "mode": 4
        }
      ]
    },
    {
      "name": "Assise_1",
      "primitives": [
        {
          "attributes": {
            "POSITION": 10
          },
          "indices": 11,
          "material": 0,
          "mode": 4
        }
      ]
    },
    {
      "name": "Pied_3_1",
      "primitives": [
        {
          "attributes": {
            "POSITION": 12
          },
          "indices": 13,
          "material": 0,
          "mode": 4
        }
      ]
    }
  ],
  "nodes": [
    {
      "name": "Assise_2",
      "mesh": 0
    },
    {
      "name": "Pied",
      "mesh": 1
    },
    {
      "name": "Pied_2",
      "mesh": 2
    },
    {
      "name": "Assise_1",
      "mesh": 3
    },
    {
      "name": "Pied_1",
      "mesh": 4
    },
    {
      "name": "Assise",
      "mesh": 5
    },
    {
      "name": "Pied_3",
      "mesh": 6
    }
  ],
  "scene": 0,
  "scenes": [
    {
      "nodes": [
        0,
        1,
        2,
        3,
        4,
        5,
        6
      ]
    }
  ]
}
