{
  "accessors": [
    {
      "name": "Bottom_1_0_positions",
      "componentType": 5126,
      "count": 8,
      "min": [
        -0.2947959899902344,
        -0.3844040036201477,
        0.014140999875962734
      ],
      "max": [
        0.30520400404930115,
        -0.37440401315689087,
        1.224141001701355
      ],
      "type": "VEC3",
      "bufferView": 0,
      "byteOffset": 0
    },
    {
      "name": "Bottom_1_0_indices",
      "componentType": 5123,
      "count": 36,
      "min": [
        0
      ],
      "max": [
        7
      ],
      "type": "SCALAR",
      "bufferView": 1,
      "byteOffset": 0
    },
    {
      "name": "Barrier_1_0_positions",
      "componentType": 5126,
      "count": 240,
      "min": [
        -0.31571701169013977,
        -0.39015400409698486,
        0.013271000236272812
      ],
      "max": [
        -0.2957170009613037,
        0.27484598755836487,
        1.2240010499954224
      ],
      "type": "VEC3",
      "bufferView": 0,
      "byteOffset": 96
    },
    {
      "name": "Barrier_1_0_indices",
      "componentType": 5123,
      "count": 840,
      "min": [
        0
      ],
      "max": [
        239
      ],
      "type": "SCALAR",
      "bufferView": 1,
      "byteOffset": 72
    },
    {
      "name": "Barrier2_1_0_positions",
      "componentType": 5126,
      "count": 240,
      "min": [
        0.30378299951553345,
        -0.39015400409698486,
        0.013271000236272812
      ],
      "max": [
        0.3237830102443695,
        0.27484598755836487,
        1.2240010499954224
      ],
      "type": "VEC3",
      "bufferView": 0,
      "byteOffset": 2976
    },
    {
      "name": "Barrier2_1_0_indices",
      "componentType": 5123,
      "count": 840,
      "min": [
        0
      ],
      "max": [
        239
      ],
      "type": "SCALAR",
      "bufferView": 1,
      "byteOffset": 1752
    },
    {
      "name": "Back_1_0_positions",
      "componentType": 5126,
      "count": 104,
      "min": [
        -0.3310070037841797,
        -0.5666670203208923,
        -0.006694999989122152
      ],
      "max": [
        0.33916598558425903,
        0.2835899889469147,
        0.0133050000295043
      ],
      "type": "VEC3",
      "bufferView": 0,
      "byteOffset": 5856
    },
    {
      "name": "Back_1_0_indices",
      "componentType": 5123,
      "count": 564,
      "min": [
        0
      ],
      "max": [
        103
      ],
      "type": "SCALAR",
      "bufferView": 1,
      "byteOffset": 3432
    },
    {
      "name": "Front_1_0_positions",
      "componentType": 5126,
      "count": 104,
      "min": [
        -0.3310070037841797,
        -0.5666670203208923,
        1.2233049869537354
      ],
      "max": [
        0.33916598558425903,
        0.2835899889469147,
        1.243304967880249
      ],
      "type": "VEC3",
      "bufferView": 0,
      "byteOffset": 7104
    },
    {
      "name": "Front_1_0_indices",
      "componentType": 5123,
      "count": 564,
      "min": [
        0
      ],
      "max": [
        103
      ],
      "type": "SCALAR",
      "bufferView": 1,
      "byteOffset": 4560
    },
    {
      "name": "Mattress_1_0_positions",
      "componentType": 5126,
      "count": 96,
      "min": [
        -0.2961460053920746,
        -0.37409600615501404,
        0.019600000232458115
      ],
      "max": [
        0.303847998380661,
        -0.2940950095653534,
        1.219599962234497
      ],
      "type": "VEC3",
      "bufferView": 0,
      "byteOffset": 8352
    },
    {
      "name": "Mattress_1_0_indices",
      "componentType": 5123,
      "count": 564,
      "min": [
        0
      ],
      "max": [
        95
      ],
      "type": "SCALAR",
      "bufferView": 1,
      "byteOffset": 5688
    }
  ],
  "asset": {
    "generator": "obj2gltf",
    "version": "2.0"
  },
  "buffers": [
    {
      "name": "crib",
      "byteLength": 16320,
      "uri": "data:application/octet-stream;base64,"
    }
  ],
  "bufferViews": [
    {
      "name": "bufferView_0",
      "buffer": 0,
      "byteLength": 9504,
      "byteOffset": 0,
      "byteStride": 12,
      "target": 34962
    },
    {
      "name": "bufferView_1",
      "buffer": 0,
      "byteLength": 6816,
      "byteOffset": 9504,
      "target": 34963
    }
  ],
  "materials": [
    {
      "name": "white",
      "pbrMetallicRoughness": {
        "baseColorFactor": [
          0.5,
          0.5,
          0.5,
          1
        ],
        "metallicFactor": 0,
        "roughnessFactor": 1
      },
      "emissiveFactor": [
        0,
        0,
        0
      ],
      "alphaMode": "OPAQUE",
      "doubleSided": false
    },
    {
      "name": "bone2",
      "pbrMetallicRoughness": {
        "baseColorFactor": [
          0.5,
          0.5,
          0.5,
          1
        ],
        "metallicFactor": 0,
        "roughnessFactor": 1
      },
      "emissiveFactor": [
        0,
        0,
        0
      ],
      "alphaMode": "OPAQUE",
      "doubleSided": false
    }
  ],
  "meshes": [
    {
      "name": "Bottom_1",
      "primitives": [
        {
          "attributes": {
            "POSITION": 0
          },
          "indices": 1,
          "material": 0,
          "mode": 4
        }
      ]
    },
    {
      "name": "Barrier_1",
      "primitives": [
        {
          "attributes": {
            "POSITION": 2
          },
          "indices": 3,
          "material": 0,
          "mode": 4
        }
      ]
    },
    {
      "name": "Barrier2_1",
      "primitives": [
        {
          "attributes": {
            "POSITION": 4
          },
          "indices": 5,
          "material": 0,
          "mode": 4
        }
      ]
    },
    {
      "name": "Back_1",
      "primitives": [
        {
          "attributes": {
            "POSITION": 6
          },
          "indices": 7,
          "material": 0,
          "mode": 4
        }
      ]
    },
    {
      "name": "Front_1",
      "primitives": [
        {
          "attributes": {
            "POSITION": 8
          },
          "indices": 9,
          "material": 0,
          "mode": 4
        }
      ]
    },
    {
      "name": "Mattress_1",
      "primitives": [
        {
          "attributes": {
            "POSITION": 10
          },
          "indices": 11,
          "material": 1,
          "mode": 4
        }
      ]
    }
  ],
  "nodes": [
    {
      "name": "Bottom",
      "mesh": 0
    },
    {
      "name": "Barrier",
      "mesh": 1
    },
    {
      "name": "Barrier2",
      "mesh": 2
    },
    {
      "name": "Back",
      "mesh": 3
    },
    {
      "name": "Front",
      "mesh": 4
    },
    {
      "name": "Mattress",
      "mesh": 5
    }
  ],
  "scene": 0,
  "scenes": [
    {
      "nodes": [
        0,
        1,
        2,
        3,
        4,
        5
      ]
    }
  ]
}
