{
  "accessors": [
    {
      "name": "Noires_1_0_positions",
      "componentType": 5126,
      "count": 288,
      "min": [
        -0.592307984828949,
        0.2930000126361847,
        0.004999999888241291
      ],
      "max": [
        0.579692006111145,
        0.3059999942779541,
        0.09799999743700027
      ],
      "type": "VEC3",
      "bufferView": 0,
      "byteOffset": 0
    },
    {
      "name": "Noires_1_0_indices",
      "componentType": 5123,
      "count": 864,
      "min": [
        0
      ],
      "max": [
        287
      ],
      "type": "SCALAR",
      "bufferView": 1,
      "byteOffset": 0
    },
    {
      "name": "sweethome3d_hinge_1_1_0_positions",
      "componentType": 5126,
      "count": 10,
      "min": [
        -0.6496549844741821,
        0.3475300073623657,
        0.02011200040578842
      ],
      "max": [
        0.6503450274467468,
        0.3484340012073517,
        0.021062999963760376
      ],
      "type": "VEC3",
      "bufferView": 0,
      "byteOffset": 3456
    },
    {
      "name": "sweethome3d_hinge_1_1_0_indices",
      "componentType": 5123,
      "count": 48,
      "min": [
        0
      ],
      "max": [
        9
      ],
      "type": "SCALAR",
      "bufferView": 1,
      "byteOffset": 1728
    },
    {
      "name": "Bords_1_0_positions",
      "componentType": 5126,
      "count": 20,
      "min": [
        -0.6600790023803711,
        0.27500998973846436,
        0.004999999888241291
      ],
      "max": [
        0.6600790023803711,
        0.2930000126361847,
        0.1509999930858612
      ],
      "type": "VEC3",
      "bufferView": 0,
      "byteOffset": 3576
    },
    {
      "name": "Bords_1_0_indices",
      "componentType": 5123,
      "count": 66,
      "min": [
        0
      ],
      "max": [
        19
      ],
      "type": "SCALAR",
      "bufferView": 1,
      "byteOffset": 1824
    },
    {
      "name": "Blanches_1_0_positions",
      "componentType": 5126,
      "count": 10,
      "min": [
        -0.6150000095367432,
        0.2750000059604645,
        0.004999999888241291
      ],
      "max": [
        0.6150000095367432,
        0.2919999957084656,
        0.15000000596046448
      ],
      "type": "VEC3",
      "bufferView": 0,
      "byteOffset": 3816
    },
    {
      "name": "Blanches_1_0_indices",
      "componentType": 5123,
      "count": 48,
      "min": [
        0
      ],
      "max": [
        9
      ],
      "type": "SCALAR",
      "bufferView": 1,
      "byteOffset": 1956
    },
    {
      "name": "sweethome3d_opening_on_hinge_1_1_0_positions",
      "componentType": 5126,
      "count": 16,
      "min": [
        -0.6589999794960022,
        0.27549999952316284,
        0.020800000056624413
      ],
      "max": [
        0.6589999794960022,
        0.3483709990978241,
        0.16607199609279633
      ],
      "type": "VEC3",
      "bufferView": 0,
      "byteOffset": 3936
    },
    {
      "name": "sweethome3d_opening_on_hinge_1_1_0_indices",
      "componentType": 5123,
      "count": 84,
      "min": [
        0
      ],
      "max": [
        15
      ],
      "type": "SCALAR",
      "bufferView": 1,
      "byteOffset": 2052
    },
    {
      "name": "Pedalier_1_0_positions",
      "componentType": 5126,
      "count": 10,
      "min": [
        -0.6549999713897705,
        -0.37549999356269836,
        -0.20999999344348907
      ],
      "max": [
        0.6549999713897705,
        -0.3005000054836273,
        -0.029999999329447746
      ],
      "type": "VEC3",
      "bufferView": 0,
      "byteOffset": 4128
    },
    {
      "name": "Pedalier_1_0_indices",
      "componentType": 5123,
      "count": 48,
      "min": [
        0
      ],
      "max": [
        9
      ],
      "type": "SCALAR",
      "bufferView": 1,
      "byteOffset": 2220
    },
    {
      "name": "HautParleur_1_0_positions",
      "componentType": 5126,
      "count": 8,
      "min": [
        -0.6600000262260437,
        0.009999999776482582,
        -0.24500000476837158
      ],
      "max": [
        0.6600000262260437,
        0.2199999988079071,
        -0.014999999664723873
      ],
      "type": "VEC3",
      "bufferView": 0,
      "byteOffset": 4248
    },
    {
      "name": "HautParleur_1_0_indices",
      "componentType": 5123,
      "count": 36,
      "min": [
        0
      ],
      "max": [
        7
      ],
      "type": "SCALAR",
      "bufferView": 1,
      "byteOffset": 2316
    },
    {
      "name": "Pedale_1_0_positions",
      "componentType": 5126,
      "count": 87,
      "min": [
        -0.0786300003528595,
        -0.3455210030078888,
        -0.03106199949979782
      ],
      "max": [
        -0.03974999859929085,
        -0.3305000066757202,
        0.049150001257658005
      ],
      "type": "VEC3",
      "bufferView": 0,
      "byteOffset": 4344
    },
    {
      "name": "Pedale_1_0_indices",
      "componentType": 5123,
      "count": 510,
      "min": [
        0
      ],
      "max": [
        86
      ],
      "type": "SCALAR",
      "bufferView": 1,
      "byteOffset": 2388
    },
    {
      "name": "Pied_1_1_0_positions",
      "componentType": 5126,
      "count": 12,
      "min": [
        0.6545000076293945,
        -0.4099999964237213,
        0.001449999981559813
      ],
      "max": [
        0.6995000243186951,
        -0.36000001430511475,
        0.12115000188350677
      ],
      "type": "VEC3",
      "bufferView": 0,
      "byteOffset": 5388
    },
    {
      "name": "Pied_1_1_0_indices",
      "componentType": 5123,
      "count": 60,
      "min": [
        0
      ],
      "max": [
        11
      ],
      "type": "SCALAR",
      "bufferView": 1,
      "byteOffset": 3408
    },
    {
      "name": "Pied_1_0_positions",
      "componentType": 5126,
      "count": 12,
      "min": [
        -0.6999539732933044,
        -0.4099999964237213,
        0.001449999981559813
      ],
      "max": [
        -0.6549540162086487,
        -0.36000001430511475,
        0.12115000188350677
      ],
      "type": "VEC3",
      "bufferView": 0,
      "byteOffset": 5532
    },
    {
      "name": "Pied_1_0_indices",
      "componentType": 5123,
      "count": 60,
      "min": [
        0
      ],
      "max": [
        11
      ],
      "type": "SCALAR",
      "bufferView": 1,
      "byteOffset": 3528
    },
    {
      "name": "Pedale_1_1_0_positions",
      "componentType": 5126,
      "count": 87,
      "min": [
        0.03956000134348869,
        -0.3455210030078888,
        -0.03106199949979782
      ],
      "max": [
        0.07843899726867676,
        -0.3305000066757202,
        0.049150001257658005
      ],
      "type": "VEC3",
      "bufferView": 0,
      "byteOffset": 5676
    },
    {
      "name": "Pedale_1_1_0_indices",
      "componentType": 5123,
      "count": 510,
      "min": [
        0
      ],
      "max": [
        86
      ],
      "type": "SCALAR",
      "bufferView": 1,
      "byteOffset": 3648
    },
    {
      "name": "Corps_1_0_positions",
      "componentType": 5126,
      "count": 27,
      "min": [
        -0.699999988079071,
        -0.4099999964237213,
        -0.24500000476837158
      ],
      "max": [
        0.699999988079071,
        0.4099999964237213,
        0.004999999888241291
      ],
      "type": "VEC3",
      "bufferView": 0,
      "byteOffset": 6720
    },
    {
      "name": "Corps_1_0_indices",
      "componentType": 5123,
      "count": 150,
      "min": [
        0
      ],
      "max": [
        26
      ],
      "type": "SCALAR",
      "bufferView": 1,
      "byteOffset": 4668
    },
    {
      "name": "Clavier_1_0_positions",
      "componentType": 5126,
      "count": 40,
      "min": [
        -0.699999988079071,
        0.21999800205230713,
        -0.031029999256134033
      ],
      "max": [
        0.699999988079071,
        0.36000001430511475,
        0.1660739928483963
      ],
      "type": "VEC3",
      "bufferView": 0,
      "byteOffset": 7044
    },
    {
      "name": "Clavier_1_0_indices",
      "componentType": 5123,
      "count": 228,
      "min": [
        0
      ],
      "max": [
        39
      ],
      "type": "SCALAR",
      "bufferView": 1,
      "byteOffset": 4968
    },
    {
      "name": "Pedale_2_1_0_positions",
      "componentType": 5126,
      "count": 87,
      "min": [
        -0.01933000050485134,
        -0.3455210030078888,
        -0.03106199949979782
      ],
      "max": [
        0.01972300000488758,
        -0.3304719924926758,
        0.049150001257658005
      ],
      "type": "VEC3",
      "bufferView": 0,
      "byteOffset": 7524
    },
    {
      "name": "Pedale_2_1_0_indices",
      "componentType": 5123,
      "count": 510,
      "min": [
        0
      ],
      "max": [
        86
      ],
      "type": "SCALAR",
      "bufferView": 1,
      "byteOffset": 5424
    }
  ],
  "asset": {
    "generator": "obj2gltf",
    "version": "2.0"
  },
  "buffers": [
    {
      "name": "piano",
      "byteLength": 15012,
      "uri": "data:application/octet-stream;base64,"
    }
  ],
  "bufferViews": [
    {
      "name": "bufferView_0",
      "buffer": 0,
      "byteLength": 8568,
      "byteOffset": 0,
      "byteStride": 12,
      "target": 34962
    },
    {
      "name": "bufferView_1",
      "buffer": 0,
      "byteLength": 6444,
      "byteOffset": 8568,
      "target": 34963
    }
  ],
  "materials": [
    {
      "name": "dkdkgrey",
      "pbrMetallicRoughness": {
        "baseColorFactor": [
          0.5,
          0.5,
          0.5,
          1
        ],
        "metallicFactor": 0,
        "roughnessFactor": 1
      },
      "emissiveFactor": [
        0,
        0,
        0
      ],
      "alphaMode": "OPAQUE",
      "doubleSided": false
    },
    {
      "name": "yellowbrt",
      "pbrMetallicRoughness": {
        "baseColorFactor": [
          0.5,
          0.5,
          0.5,
          1
        ],
        "metallicFactor": 0,
        "roughnessFactor": 1
      },
      "emissiveFactor": [
        0,
        0,
        0
      ],
      "alphaMode": "OPAQUE",
      "doubleSided": false
    },
    {
      "name": "dkgrey",
      "pbrMetallicRoughness": {
        "baseColorFactor": [
          0.5,
          0.5,
          0.5,
          1
        ],
        "metallicFactor": 0,
        "roughnessFactor": 1
      },
      "emissiveFactor": [
        0,
        0,
        0
      ],
      "alphaMode": "OPAQUE",
      "doubleSided": false
    },
    {
      "name": "flwhite",
      "pbrMetallicRoughness": {
        "baseColorFactor": [
          0.5,
          0.5,
          0.5,
          1
        ],
        "metallicFactor": 0,
        "roughnessFactor": 1
      },
      "emissiveFactor": [
        0,
        0,
        0
      ],
      "alphaMode": "OPAQUE",
      "doubleSided": false
    }
  ],
  "meshes": [
    {
      "name": "Noires_1",
      "primitives": [
        {
          "attributes": {
            "POSITION": 0
          },
          "indices": 1,
          "material": 0,
          "mode": 4
        }
      ]
    },
    {
      "name": "sweethome3d_hinge_1_1",
      "primitives": [
        {
          "attributes": {
            "POSITION": 2
          },
          "indices": 3,
          "material": 1,
          "mode": 4
        }
      ]
    },
    {
      "name": "Bords_1",
      "primitives": [
        {
          "attributes": {
            "POSITION": 4
          },
          "indices": 5,
          "material": 2,
          "mode": 4
        }
      ]
    },
    {
      "name": "Blanches_1",
      "primitives": [
        {
          "attributes": {
            "POSITION": 6
          },
          "indices": 7,
          "material": 3,
          "mode": 4
        }
      ]
    },
    {
      "name": "sweethome3d_opening_on_hinge_1_1",
      "primitives": [
        {
          "attributes": {
            "POSITION": 8
          },
          "indices": 9,
          "material": 2,
          "mode": 4
        }
      ]
    },
    {
      "name": "Pedalier_1",
      "primitives": [
        {
          "attributes": {
            "POSITION": 10
          },
          "indices": 11,
          "material": 2,
          "mode": 4
        }
      ]
    },
    {
      "name": "HautParleur_1",
      "primitives": [
        {
          "attributes": {
            "POSITION": 12
          },
          "indices": 13,
          "material": 2,
          "mode": 4
        }
      ]
    },
    {
      "name": "Pedale_1",
      "primitives": [
        {
          "attributes": {
            "POSITION": 14
          },
          "indices": 15,
          "material": 1,
          "mode": 4
        }
      ]
    },
    {
      "name": "Pied_1_1",
      "primitives": [
        {
          "attributes": {
            "POSITION": 16
          },
          "indices": 17,
          "material": 2,
          "mode": 4
        }
      ]
    },
    {
      "name": "Pied_1",
      "primitives": [
        {
          "attributes": {
            "POSITION": 18
          },
          "indices": 19,
          "material": 2,
          "mode": 4
        }
      ]
    },
    {
      "name": "Pedale_1_1",
      "primitives": [
        {
          "attributes": {
            "POSITION": 20
          },
          "indices": 21,
          "material": 1,
          "mode": 4
        }
      ]
    },
    {
      "name": "Corps_1",
      "primitives": [
        {
          "attributes": {
            "POSITION": 22
          },
          "indices": 23,
          "material": 2,
          "mode": 4
        }
      ]
    },
    {
      "name": "Clavier_1",
      "primitives": [
        {
          "attributes": {
            "POSITION": 24
          },
          "indices": 25,
          "material": 2,
          "mode": 4
        }
      ]
    },
    {
      "name": "Pedale_2_1",
      "primitives": [
        {
          "attributes": {
            "POSITION": 26
          },
          "indices": 27,
          "material": 1,
          "mode": 4
        }
      ]
    }
  ],
  "nodes": [
    {
      "name": "Noires",
      "mesh": 0
    },
    {
      "name": "sweethome3d_hinge_1",
      "mesh": 1
    },
    {
      "name": "Bords",
      "mesh": 2
    },
    {
      "name": "Blanches",
      "mesh": 3
    },
    {
      "name": "sweethome3d_opening_on_hinge_1",
      "mesh": 4
    },
    {
      "name": "Pedalier",
      "mesh": 5
    },
    {
      "name": "HautParleur",
      "mesh": 6
    },
    {
      "name": "Pedale",
      "mesh": 7
    },
    {
      "name": "Pied_1",
      "mesh": 8
    },
    {
      "name": "Pied",
      "mesh": 9
    },
    {
      "name": "Pedale_1",
      "mesh": 10
    },
    {
      "name": "Corps",
      "mesh": 11
    },
    {
      "name": "Clavier",
      "mesh": 12
    },
    {
      "name": "Pedale_2",
      "mesh": 13
    }
  ],
  "scene": 0,
  "scenes": [
    {
      "nodes": [
        0,
        1,
        2,
        3,
        4,
        5,
        6,
        7,
        8,
        9,
        10,
        11,
        12,
        13
      ]
    }
  ]
}
