{
  "accessors": [
    {
      "name": "Frame_1_0_positions",
      "componentType": 5126,
      "count": 64,
      "min": [
        -0.023499999195337296,
        0.38999998569488525,
        -0.7188000082969666
      ],
      "max": [
        1.468500018119812,
        0.4399999976158142,
        0.023900000378489494
      ],
      "type": "VEC3",
      "bufferView": 0,
      "byteOffset": 0
    },
    {
      "name": "Frame_1_0_indices",
      "componentType": 5123,
      "count": 336,
      "min": [
        0
      ],
      "max": [
        63
      ],
      "type": "SCALAR",
      "bufferView": 1,
      "byteOffset": 0
    },
    {
      "name": "Feet_1_0_positions",
      "componentType": 5126,
      "count": 64,
      "min": [
        -0.02500000037252903,
        -0.27000001072883606,
        -0.7200000286102295
      ],
      "max": [
        1.4700000286102295,
        0.4399999976158142,
        0.02500000037252903
      ],
      "type": "VEC3",
      "bufferView": 0,
      "byteOffset": 768
    },
    {
      "name": "Feet_1_0_indices",
      "componentType": 5123,
      "count": 336,
      "min": [
        0
      ],
      "max": [
        63
      ],
      "type": "SCALAR",
      "bufferView": 1,
      "byteOffset": 672
    },
    {
      "name": "Table_1_0_positions",
      "componentType": 5126,
      "count": 24,
      "min": [
        -0.027499999850988388,
        0.4399999976158142,
        -0.7225000262260437
      ],
      "max": [
        1.472499966621399,
        0.4699999988079071,
        0.027499999850988388
      ],
      "type": "VEC3",
      "bufferView": 0,
      "byteOffset": 1536
    },
    {
      "name": "Table_1_0_indices",
      "componentType": 5123,
      "count": 132,
      "min": [
        0
      ],
      "max": [
        23
      ],
      "type": "SCALAR",
      "bufferView": 1,
      "byteOffset": 1344
    }
  ],
  "asset": {
    "generator": "obj2gltf",
    "version": "2.0"
  },
  "buffers": [
    {
      "name": "table",
      "byteLength": 3432,
      "uri": "data:application/octet-stream;base64,"
    }
  ],
  "bufferViews": [
    {
      "name": "bufferView_0",
      "buffer": 0,
      "byteLength": 1824,
      "byteOffset": 0,
      "byteStride": 12,
      "target": 34962
    },
    {
      "name": "bufferView_1",
      "buffer": 0,
      "byteLength": 1608,
      "byteOffset": 1824,
      "target": 34963
    }
  ],
  "materials": [
    {
      "name": "black",
      "pbrMetallicRoughness": {
        "baseColorFactor": [
          0.5,
          0.5,
          0.5,
          1
        ],
        "metallicFactor": 0,
        "roughnessFactor": 1
      },
      "emissiveFactor": [
        0,
        0,
        0
      ],
      "alphaMode": "OPAQUE",
      "doubleSided": false
    },
    {
      "name": "lighttannew",
      "pbrMetallicRoughness": {
        "baseColorFactor": [
          0.5,
          0.5,
          0.5,
          1
        ],
        "metallicFactor": 0,
        "roughnessFactor": 1
      },
      "emissiveFactor": [
        0,
        0,
        0
      ],
      "alphaMode": "OPAQUE",
      "doubleSided": false
    }
  ],
  "meshes": [
    {
      "name": "Frame_1",
      "primitives": [
        {
          "attributes": {
            "POSITION": 0
          },
          "indices": 1,
          "material": 0,
          "mode": 4
        }
      ]
    },
    {
      "name": "Feet_1",
      "primitives": [
        {
          "attributes": {
            "POSITION": 2
          },
          "indices": 3,
          "material": 0,
          "mode": 4
        }
      ]
    },
    {
      "name": "Table_1",
      "primitives": [
        {
          "attributes": {
            "POSITION": 4
          },
          "indices": 5,
          "material": 1,
          "mode": 4
        }
      ]
    }
  ],
  "nodes": [
    {
      "name": "Frame",
      "mesh": 0
    },
    {
      "name": "Feet",
      "mesh": 1
    },
    {
      "name": "Table",
      "mesh": 2
    }
  ],
  "scene": 0,
  "scenes": [
    {
      "nodes": [
        0,
        1,
        2
      ]
    }
  ]
}
