{
  "accessors": [
    {
      "name": "Reservoir_1_0_positions",
      "componentType": 5126,
      "count": 240,
      "min": [
        -0.34833401441574097,
        -0.03432599827647209,
        -0.9013559818267822
      ],
      "max": [
        0.3326660096645355,
        0.7956740260124207,
        -0.5883560180664062
      ],
      "type": "VEC3",
      "bufferView": 0,
      "byteOffset": 0
    },
    {
      "name": "Reservoir_1_0_indices",
      "componentType": 5123,
      "count": 1428,
      "min": [
        0
      ],
      "max": [
        239
      ],
      "type": "SCALAR",
      "bufferView": 1,
      "byteOffset": 0
    },
    {
      "name": "Bas_1_0_positions",
      "componentType": 5126,
      "count": 2352,
      "min": [
        -0.3818399906158447,
        -0.6499789953231812,
        -0.5698800086975098
      ],
      "max": [
        0.3818399906158447,
        0.2468699961900711,
        0.5711399912834167
      ],
      "type": "VEC3",
      "bufferView": 0,
      "byteOffset": 2880
    },
    {
      "name": "Bas_1_0_indices",
      "componentType": 5123,
      "count": 14100,
      "min": [
        0
      ],
      "max": [
        2351
      ],
      "type": "SCALAR",
      "bufferView": 1,
      "byteOffset": 2856
    },
    {
      "name": "Chasse_1_0_positions",
      "componentType": 5126,
      "count": 18,
      "min": [
        -0.03999999910593033,
        0.7599999904632568,
        -0.7799999713897705
      ],
      "max": [
        0.03999999910593033,
        0.8199999928474426,
        -0.699999988079071
      ],
      "type": "VEC3",
      "bufferView": 0,
      "byteOffset": 31104
    },
    {
      "name": "Chasse_1_0_indices",
      "componentType": 5123,
      "count": 96,
      "min": [
        0
      ],
      "max": [
        17
      ],
      "type": "SCALAR",
      "bufferView": 1,
      "byteOffset": 31056
    },
    {
      "name": "Tube_1_0_positions",
      "componentType": 5126,
      "count": 32,
      "min": [
        -0.14000000059604645,
        0,
        -0.5954440236091614
      ],
      "max": [
        0.14000000059604645,
        0.20000000298023224,
        -0.5003650188446045
      ],
      "type": "VEC3",
      "bufferView": 0,
      "byteOffset": 31320
    },
    {
      "name": "Tube_1_0_indices",
      "componentType": 5123,
      "count": 96,
      "min": [
        0
      ],
      "max": [
        31
      ],
      "type": "SCALAR",
      "bufferView": 1,
      "byteOffset": 31248
    }
  ],
  "asset": {
    "generator": "obj2gltf",
    "version": "2.0"
  },
  "buffers": [
    {
      "name": "toiletUnit",
      "byteLength": 63144,
      "uri": "data:application/octet-stream;base64,"
    }
  ],
  "bufferViews": [
    {
      "name": "bufferView_0",
      "buffer": 0,
      "byteLength": 31704,
      "byteOffset": 0,
      "byteStride": 12,
      "target": 34962
    },
    {
      "name": "bufferView_1",
      "buffer": 0,
      "byteLength": 31440,
      "byteOffset": 31704,
      "target": 34963
    }
  ],
  "materials": [
    {
      "name": "white",
      "pbrMetallicRoughness": {
        "baseColorFactor": [
          0.5,
          0.5,
          0.5,
          1
        ],
        "metallicFactor": 0,
        "roughnessFactor": 1
      },
      "emissiveFactor": [
        0,
        0,
        0
      ],
      "alphaMode": "OPAQUE",
      "doubleSided": false
    },
    {
      "name": "silver",
      "pbrMetallicRoughness": {
        "baseColorFactor": [
          0.5,
          0.5,
          0.5,
          1
        ],
        "metallicFactor": 0,
        "roughnessFactor": 1
      },
      "emissiveFactor": [
        0,
        0,
        0
      ],
      "alphaMode": "OPAQUE",
      "doubleSided": false
    }
  ],
  "meshes": [
    {
      "name": "Reservoir_1",
      "primitives": [
        {
          "attributes": {
            "POSITION": 0
          },
          "indices": 1,
          "material": 0,
          "mode": 4
        }
      ]
    },
    {
      "name": "Bas_1",
      "primitives": [
        {
          "attributes": {
            "POSITION": 2
          },
          "indices": 3,
          "material": 0,
          "mode": 4
        }
      ]
    },
    {
      "name": "Chasse_1",
      "primitives": [
        {
          "attributes": {
            "POSITION": 4
          },
          "indices": 5,
          "material": 1,
          "mode": 4
        }
      ]
    },
    {
      "name": "Tube_1",
      "primitives": [
        {
          "attributes": {
            "POSITION": 6
          },
          "indices": 7,
          "material": 0,
          "mode": 4
        }
      ]
    }
  ],
  "nodes": [
    {
      "name": "Reservoir",
      "mesh": 0
    },
    {
      "name": "Bas",
      "mesh": 1
    },
    {
      "name": "Chasse",
      "mesh": 2
    },
    {
      "name": "Tube",
      "mesh": 3
    }
  ],
  "scene": 0,
  "scenes": [
    {
      "nodes": [
        0,
        1,
        2,
        3
      ]
    }
  ]
}
