{
  "accessors": [
    {
      "name": "sweethome3d_hinge_1_1_0_positions",
      "componentType": 5126,
      "count": 8,
      "min": [
        -0.49563199281692505,
        0.5923609733581543,
        0.25690001249313354
      ],
      "max": [
        -0.49063199758529663,
        0.6023610234260559,
        0.26190000772476196
      ],
      "type": "VEC3",
      "bufferView": 0,
      "byteOffset": 0
    },
    {
      "name": "sweethome3d_hinge_1_1_0_indices",
      "componentType": 5123,
      "count": 18,
      "min": [
        0
      ],
      "max": [
        7
      ],
      "type": "SCALAR",
      "bufferView": 1,
      "byteOffset": 0
    },
    {
      "name": "sweethome3d_hinge_2_1_0_positions",
      "componentType": 5126,
      "count": 8,
      "min": [
        0.4903469979763031,
        0.5923609733581543,
        0.25690001249313354
      ],
      "max": [
        0.4953469932079315,
        0.6023610234260559,
        0.26190000772476196
      ],
      "type": "VEC3",
      "bufferView": 0,
      "byteOffset": 96
    },
    {
      "name": "sweethome3d_hinge_2_1_0_indices",
      "componentType": 5123,
      "count": 18,
      "min": [
        0
      ],
      "max": [
        7
      ],
      "type": "SCALAR",
      "bufferView": 1,
      "byteOffset": 36
    },
    {
      "name": "Corps_1_0_positions",
      "componentType": 5126,
      "count": 16,
      "min": [
        -0.5,
        -0.9922500252723694,
        -0.25
      ],
      "max": [
        0.5,
        0.6577500104904175,
        0.25
      ],
      "type": "VEC3",
      "bufferView": 0,
      "byteOffset": 192
    },
    {
      "name": "Corps_1_0_indices",
      "componentType": 5123,
      "count": 84,
      "min": [
        0
      ],
      "max": [
        15
      ],
      "type": "SCALAR",
      "bufferView": 1,
      "byteOffset": 72
    },
    {
      "name": "sweethome3d_opening_on_hinge_1_handle_1_0_positions",
      "componentType": 5126,
      "count": 194,
      "min": [
        -0.06830000132322311,
        -0.13529999554157257,
        0.26295900344848633
      ],
      "max": [
        -0.031700000166893005,
        -0.09870000183582306,
        0.2913599908351898
      ],
      "type": "VEC3",
      "bufferView": 0,
      "byteOffset": 384
    },
    {
      "name": "sweethome3d_opening_on_hinge_1_handle_1_0_indices",
      "componentType": 5123,
      "count": 1152,
      "min": [
        0
      ],
      "max": [
        193
      ],
      "type": "SCALAR",
      "bufferView": 1,
      "byteOffset": 240
    },
    {
      "name": "sweethome3d_opening_on_hinge_1_door_1_0_positions",
      "componentType": 5126,
      "count": 8,
      "min": [
        -0.4975000023841858,
        -0.8922500014305115,
        0.2529999911785126
      ],
      "max": [
        -0.0012499999720603228,
        0.6577500104904175,
        0.2630000114440918
      ],
      "type": "VEC3",
      "bufferView": 0,
      "byteOffset": 2712
    },
    {
      "name": "sweethome3d_opening_on_hinge_1_door_1_0_indices",
      "componentType": 5123,
      "count": 36,
      "min": [
        0
      ],
      "max": [
        7
      ],
      "type": "SCALAR",
      "bufferView": 1,
      "byteOffset": 2544
    },
    {
      "name": "sweethome3d_opening_on_hinge_2_door_1_0_positions",
      "componentType": 5126,
      "count": 8,
      "min": [
        0.0012499999720603228,
        -0.8922500014305115,
        0.2529999911785126
      ],
      "max": [
        0.4975000023841858,
        0.6577500104904175,
        0.2630000114440918
      ],
      "type": "VEC3",
      "bufferView": 0,
      "byteOffset": 2808
    },
    {
      "name": "sweethome3d_opening_on_hinge_2_door_1_0_indices",
      "componentType": 5123,
      "count": 36,
      "min": [
        0
      ],
      "max": [
        7
      ],
      "type": "SCALAR",
      "bufferView": 1,
      "byteOffset": 2616
    },
    {
      "name": "sweethome3d_opening_on_hinge_2_handle_1_0_positions",
      "componentType": 5126,
      "count": 194,
      "min": [
        0.031700000166893005,
        -0.13529999554157257,
        0.26295900344848633
      ],
      "max": [
        0.06830000132322311,
        -0.09870000183582306,
        0.2913599908351898
      ],
      "type": "VEC3",
      "bufferView": 0,
      "byteOffset": 2904
    },
    {
      "name": "sweethome3d_opening_on_hinge_2_handle_1_0_indices",
      "componentType": 5123,
      "count": 1152,
      "min": [
        0
      ],
      "max": [
        193
      ],
      "type": "SCALAR",
      "bufferView": 1,
      "byteOffset": 2688
    }
  ],
  "asset": {
    "generator": "obj2gltf",
    "version": "2.0"
  },
  "buffers": [
    {
      "name": "wardrobe",
      "byteLength": 10224,
      "uri": "data:application/octet-stream;base64,"
    }
  ],
  "bufferViews": [
    {
      "name": "bufferView_0",
      "buffer": 0,
      "byteLength": 5232,
      "byteOffset": 0,
      "byteStride": 12,
      "target": 34962
    },
    {
      "name": "bufferView_1",
      "buffer": 0,
      "byteLength": 4992,
      "byteOffset": 5232,
      "target": 34963
    }
  ],
  "materials": [
    {
      "name": "white.001",
      "pbrMetallicRoughness": {
        "baseColorFactor": [
          0.5,
          0.5,
          0.5,
          1
        ],
        "metallicFactor": 0,
        "roughnessFactor": 1
      },
      "emissiveFactor": [
        0,
        0,
        0
      ],
      "alphaMode": "OPAQUE",
      "doubleSided": false
    },
    {
      "name": "white",
      "pbrMetallicRoughness": {
        "baseColorFactor": [
          0.5,
          0.5,
          0.5,
          1
        ],
        "metallicFactor": 0,
        "roughnessFactor": 1
      },
      "emissiveFactor": [
        0,
        0,
        0
      ],
      "alphaMode": "OPAQUE",
      "doubleSided": false
    }
  ],
  "meshes": [
    {
      "name": "sweethome3d_hinge_1_1",
      "primitives": [
        {
          "attributes": {
            "POSITION": 0
          },
          "indices": 1,
          "material": 0,
          "mode": 4
        }
      ]
    },
    {
      "name": "sweethome3d_hinge_2_1",
      "primitives": [
        {
          "attributes": {
            "POSITION": 2
          },
          "indices": 3,
          "material": 0,
          "mode": 4
        }
      ]
    },
    {
      "name": "Corps_1",
      "primitives": [
        {
          "attributes": {
            "POSITION": 4
          },
          "indices": 5,
          "material": 1,
          "mode": 4
        }
      ]
    },
    {
      "name": "sweethome3d_opening_on_hinge_1_handle_1",
      "primitives": [
        {
          "attributes": {
            "POSITION": 6
          },
          "indices": 7,
          "material": 1,
          "mode": 4
        }
      ]
    },
    {
      "name": "sweethome3d_opening_on_hinge_1_door_1",
      "primitives": [
        {
          "attributes": {
            "POSITION": 8
          },
          "indices": 9,
          "material": 1,
          "mode": 4
        }
      ]
    },
    {
      "name": "sweethome3d_opening_on_hinge_2_door_1",
      "primitives": [
        {
          "attributes": {
            "POSITION": 10
          },
          "indices": 11,
          "material": 1,
          "mode": 4
        }
      ]
    },
    {
      "name": "sweethome3d_opening_on_hinge_2_handle_1",
      "primitives": [
        {
          "attributes": {
            "POSITION": 12
          },
          "indices": 13,
          "material": 1,
          "mode": 4
        }
      ]
    }
  ],
  "nodes": [
    {
      "name": "sweethome3d_hinge_1",
      "mesh": 0
    },
    {
      "name": "sweethome3d_hinge_2",
      "mesh": 1
    },
    {
      "name": "Corps",
      "mesh": 2
    },
    {
      "name": "sweethome3d_opening_on_hinge_1_handle",
      "mesh": 3
    },
    {
      "name": "sweethome3d_opening_on_hinge_1_door",
      "mesh": 4
    },
    {
      "name": "sweethome3d_opening_on_hinge_2_door",
      "mesh": 5
    },
    {
      "name": "sweethome3d_opening_on_hinge_2_handle",
      "mesh": 6
    }
  ],
  "scene": 0,
  "scenes": [
    {
      "nodes": [
        0,
        1,
        2,
        3,
        4,
        5,
        6
      ]
    }
  ]
}
