{
  "accessors": [
    {
      "name": "Base_2_1_0_positions",
      "componentType": 5126,
      "count": 18,
      "min": [
        -0.4044969975948334,
        0.000014000000192027073,
        0.9550340175628662
      ],
      "max": [
        -0.2817249894142151,
        0.011257000267505646,
        1.077828049659729
      ],
      "type": "VEC3",
      "bufferView": 0,
      "byteOffset": 0
    },
    {
      "name": "Base_2_1_0_indices",
      "componentType": 5123,
      "count": 96,
      "min": [
        0
      ],
      "max": [
        17
      ],
      "type": "SCALAR",
      "bufferView": 1,
      "byteOffset": 0
    },
    {
      "name": "Base_1_0_positions",
      "componentType": 5126,
      "count": 18,
      "min": [
        0.21967199444770813,
        0.00003099999958067201,
        -1.090682029724121
      ],
      "max": [
        0.3422969877719879,
        0.011119999922811985,
        -0.9680500030517578
      ],
      "type": "VEC3",
      "bufferView": 0,
      "byteOffset": 216
    },
    {
      "name": "Base_1_0_indices",
      "componentType": 5123,
      "count": 96,
      "min": [
        0
      ],
      "max": [
        17
      ],
      "type": "SCALAR",
      "bufferView": 1,
      "byteOffset": 192
    },
    {
      "name": "Baignore_1_0_positions",
      "componentType": 5126,
      "count": 2541,
      "min": [
        -0.7919800281524658,
        0.03010999970138073,
        -1.5572600364685059
      ],
      "max": [
        0.7062699794769287,
        1.0605900287628174,
        1.5543299913406372
      ],
      "type": "VEC3",
      "bufferView": 0,
      "byteOffset": 432
    },
    {
      "name": "Baignore_1_0_indices",
      "componentType": 5123,
      "count": 15234,
      "min": [
        0
      ],
      "max": [
        2540
      ],
      "type": "SCALAR",
      "bufferView": 1,
      "byteOffset": 384
    },
    {
      "name": "Base_1_1_0_positions",
      "componentType": 5126,
      "count": 18,
      "min": [
        0.21927900612354279,
        0.00003400000059627928,
        0.9592850208282471
      ],
      "max": [
        0.3422049880027771,
        0.011238000355660915,
        1.0822299718856812
      ],
      "type": "VEC3",
      "bufferView": 0,
      "byteOffset": 30924
    },
    {
      "name": "Base_1_1_0_indices",
      "componentType": 5123,
      "count": 96,
      "min": [
        0
      ],
      "max": [
        17
      ],
      "type": "SCALAR",
      "bufferView": 1,
      "byteOffset": 30852
    },
    {
      "name": "Pied1_2_1_0_positions",
      "componentType": 5126,
      "count": 68,
      "min": [
        -0.3939099907875061,
        0.003710000077262521,
        0.8961300253868103
      ],
      "max": [
        -0.22901000082492828,
        0.16867999732494354,
        1.0653899908065796
      ],
      "type": "VEC3",
      "bufferView": 0,
      "byteOffset": 31140
    },
    {
      "name": "Pied1_2_1_0_indices",
      "componentType": 5123,
      "count": 396,
      "min": [
        0
      ],
      "max": [
        67
      ],
      "type": "SCALAR",
      "bufferView": 1,
      "byteOffset": 31044
    },
    {
      "name": "Base_3_1_0_positions",
      "componentType": 5126,
      "count": 18,
      "min": [
        -0.4076780080795288,
        0.000003999999989900971,
        -1.0911409854888916
      ],
      "max": [
        -0.2869400084018707,
        0.011219999752938747,
        -0.9703940153121948
      ],
      "type": "VEC3",
      "bufferView": 0,
      "byteOffset": 31956
    },
    {
      "name": "Base_3_1_0_indices",
      "componentType": 5123,
      "count": 96,
      "min": [
        0
      ],
      "max": [
        17
      ],
      "type": "SCALAR",
      "bufferView": 1,
      "byteOffset": 31836
    },
    {
      "name": "Pied1_3_1_0_positions",
      "componentType": 5126,
      "count": 68,
      "min": [
        -0.39579999446868896,
        -0.000019999999494757503,
        -1.0730400085449219
      ],
      "max": [
        -0.2311599999666214,
        0.16463999450206757,
        -0.9011099934577942
      ],
      "type": "VEC3",
      "bufferView": 0,
      "byteOffset": 32172
    },
    {
      "name": "Pied1_3_1_0_indices",
      "componentType": 5123,
      "count": 396,
      "min": [
        0
      ],
      "max": [
        67
      ],
      "type": "SCALAR",
      "bufferView": 1,
      "byteOffset": 32028
    },
    {
      "name": "Pied1_1_0_positions",
      "componentType": 5126,
      "count": 68,
      "min": [
        0.16715000569820404,
        0.002219999907538295,
        -1.0767899751663208
      ],
      "max": [
        0.33133000135421753,
        0.16529999673366547,
        -0.9039700031280518
      ],
      "type": "VEC3",
      "bufferView": 0,
      "byteOffset": 32988
    },
    {
      "name": "Pied1_1_0_indices",
      "componentType": 5123,
      "count": 396,
      "min": [
        0
      ],
      "max": [
        67
      ],
      "type": "SCALAR",
      "bufferView": 1,
      "byteOffset": 32820
    },
    {
      "name": "Pied1_1_1_0_positions",
      "componentType": 5126,
      "count": 68,
      "min": [
        0.16035999357700348,
        0.00343999988399446,
        0.8978000283241272
      ],
      "max": [
        0.32986998558044434,
        0.16629000008106232,
        1.0694400072097778
      ],
      "type": "VEC3",
      "bufferView": 0,
      "byteOffset": 33804
    },
    {
      "name": "Pied1_1_1_0_indices",
      "componentType": 5123,
      "count": 396,
      "min": [
        0
      ],
      "max": [
        67
      ],
      "type": "SCALAR",
      "bufferView": 1,
      "byteOffset": 33612
    }
  ],
  "asset": {
    "generator": "obj2gltf",
    "version": "2.0"
  },
  "buffers": [
    {
      "name": "bath",
      "byteLength": 69024,
      "uri": "data:application/octet-stream;base64,"
    }
  ],
  "bufferViews": [
    {
      "name": "bufferView_0",
      "buffer": 0,
      "byteLength": 34620,
      "byteOffset": 0,
      "byteStride": 12,
      "target": 34962
    },
    {
      "name": "bufferView_1",
      "buffer": 0,
      "byteLength": 34404,
      "byteOffset": 34620,
      "target": 34963
    }
  ],
  "materials": [
    {
      "name": "white",
      "pbrMetallicRoughness": {
        "baseColorFactor": [
          0.5,
          0.5,
          0.5,
          1
        ],
        "metallicFactor": 0,
        "roughnessFactor": 1
      },
      "emissiveFactor": [
        0,
        0,
        0
      ],
      "alphaMode": "OPAQUE",
      "doubleSided": false
    }
  ],
  "meshes": [
    {
      "name": "Base_2_1",
      "primitives": [
        {
          "attributes": {
            "POSITION": 0
          },
          "indices": 1,
          "material": 0,
          "mode": 4
        }
      ]
    },
    {
      "name": "Base_1",
      "primitives": [
        {
          "attributes": {
            "POSITION": 2
          },
          "indices": 3,
          "material": 0,
          "mode": 4
        }
      ]
    },
    {
      "name": "Baignore_1",
      "primitives": [
        {
          "attributes": {
            "POSITION": 4
          },
          "indices": 5,
          "material": 0,
          "mode": 4
        }
      ]
    },
    {
      "name": "Base_1_1",
      "primitives": [
        {
          "attributes": {
            "POSITION": 6
          },
          "indices": 7,
          "material": 0,
          "mode": 4
        }
      ]
    },
    {
      "name": "Pied1_2_1",
      "primitives": [
        {
          "attributes": {
            "POSITION": 8
          },
          "indices": 9,
          "material": 0,
          "mode": 4
        }
      ]
    },
    {
      "name": "Base_3_1",
      "primitives": [
        {
          "attributes": {
            "POSITION": 10
          },
          "indices": 11,
          "material": 0,
          "mode": 4
        }
      ]
    },
    {
      "name": "Pied1_3_1",
      "primitives": [
        {
          "attributes": {
            "POSITION": 12
          },
          "indices": 13,
          "material": 0,
          "mode": 4
        }
      ]
    },
    {
      "name": "Pied1_1",
      "primitives": [
        {
          "attributes": {
            "POSITION": 14
          },
          "indices": 15,
          "material": 0,
          "mode": 4
        }
      ]
    },
    {
      "name": "Pied1_1_1",
      "primitives": [
        {
          "attributes": {
            "POSITION": 16
          },
          "indices": 17,
          "material": 0,
          "mode": 4
        }
      ]
    }
  ],
  "nodes": [
    {
      "name": "Base_2",
      "mesh": 0
    },
    {
      "name": "Base",
      "mesh": 1
    },
    {
      "name": "Baignore",
      "mesh": 2
    },
    {
      "name": "Base_1",
      "mesh": 3
    },
    {
      "name": "Pied1_2",
      "mesh": 4
    },
    {
      "name": "Base_3",
      "mesh": 5
    },
    {
      "name": "Pied1_3",
      "mesh": 6
    },
    {
      "name": "Pied1",
      "mesh": 7
    },
    {
      "name": "Pied1_1",
      "mesh": 8
    }
  ],
  "scene": 0,
  "scenes": [
    {
      "nodes": [
        0,
        1,
        2,
        3,
        4,
        5,
        6,
        7,
        8
      ]
    }
  ]
}
