{
  "accessors": [
    {
      "name": "sweethome3d_opening_on_rail_4_handle1_1_0_positions",
      "componentType": 5126,
      "count": 146,
      "min": [
        0.06469999998807907,
        -0.37342599034309387,
        0.24246500432491302
      ],
      "max": [
        0.10130000114440918,
        -0.33682599663734436,
        0.26385998725891113
      ],
      "type": "VEC3",
      "bufferView": 0,
      "byteOffset": 0
    },
    {
      "name": "sweethome3d_opening_on_rail_4_handle1_1_0_indices",
      "componentType": 5123,
      "count": 864,
      "min": [
        0
      ],
      "max": [
        145
      ],
      "type": "SCALAR",
      "bufferView": 1,
      "byteOffset": 0
    },
    {
      "name": "sweethome3d_unique_rail_1_0_positions",
      "componentType": 5126,
      "count": 8,
      "min": [
        0.3779999911785126,
        -0.012439999729394913,
        -0.22499999403953552
      ],
      "max": [
        0.3840000033378601,
        0.2150000035762787,
        0.23999999463558197
      ],
      "type": "VEC3",
      "bufferView": 0,
      "byteOffset": 1752
    },
    {
      "name": "sweethome3d_unique_rail_1_0_indices",
      "componentType": 5123,
      "count": 24,
      "min": [
        0
      ],
      "max": [
        7
      ],
      "type": "SCALAR",
      "bufferView": 1,
      "byteOffset": 1728
    },
    {
      "name": "sweethome3d_opening_on_rail_2_handle_1_0_positions",
      "componentType": 5126,
      "count": 146,
      "min": [
        0.6608229875564575,
        0.08266899734735489,
        0.24246500432491302
      ],
      "max": [
        0.697422981262207,
        0.119268998503685,
        0.26385998725891113
      ],
      "type": "VEC3",
      "bufferView": 0,
      "byteOffset": 1848
    },
    {
      "name": "sweethome3d_opening_on_rail_2_handle_1_0_indices",
      "componentType": 5123,
      "count": 864,
      "min": [
        0
      ],
      "max": [
        145
      ],
      "type": "SCALAR",
      "bufferView": 1,
      "byteOffset": 1776
    },
    {
      "name": "sweethome3d_opening_on_rail_4_handle2_1_0_positions",
      "componentType": 5126,
      "count": 146,
      "min": [
        0.6608229875564575,
        -0.37342599034309387,
        0.24246500432491302
      ],
      "max": [
        0.697422981262207,
        -0.33682599663734436,
        0.26385998725891113
      ],
      "type": "VEC3",
      "bufferView": 0,
      "byteOffset": 3600
    },
    {
      "name": "sweethome3d_opening_on_rail_4_handle2_1_0_indices",
      "componentType": 5123,
      "count": 864,
      "min": [
        0
      ],
      "max": [
        145
      ],
      "type": "SCALAR",
      "bufferView": 1,
      "byteOffset": 3504
    },
    {
      "name": "sweethome3d_opening_on_rail_1_drawer_1_0_positions",
      "componentType": 5126,
      "count": 16,
      "min": [
        -0.2094999998807907,
        -0.012439999729394913,
        -0.2175000011920929
      ],
      "max": [
        0.37549999356269836,
        0.2075600028038025,
        0.24250000715255737
      ],
      "type": "VEC3",
      "bufferView": 0,
      "byteOffset": 5352
    },
    {
      "name": "sweethome3d_opening_on_rail_1_drawer_1_0_indices",
      "componentType": 5123,
      "count": 84,
      "min": [
        0
      ],
      "max": [
        15
      ],
      "type": "SCALAR",
      "bufferView": 1,
      "byteOffset": 5232
    },
    {
      "name": "sweethome3d_opening_on_rail_1_handle_1_0_positions",
      "componentType": 5126,
      "count": 146,
      "min": [
        0.06469999998807907,
        0.08266899734735489,
        0.24246500432491302
      ],
      "max": [
        0.10130000114440918,
        0.119268998503685,
        0.26385998725891113
      ],
      "type": "VEC3",
      "bufferView": 0,
      "byteOffset": 5544
    },
    {
      "name": "sweethome3d_opening_on_rail_1_handle_1_0_indices",
      "componentType": 5123,
      "count": 864,
      "min": [
        0
      ],
      "max": [
        145
      ],
      "type": "SCALAR",
      "bufferView": 1,
      "byteOffset": 5400
    },
    {
      "name": "sweethome3d_opening_on_rail_4_drawer_1_0_positions",
      "componentType": 5126,
      "count": 16,
      "min": [
        -0.20837000012397766,
        -0.4684399962425232,
        -0.2175000011920929
      ],
      "max": [
        0.9716200232505798,
        -0.2484399974346161,
        0.24250000715255737
      ],
      "type": "VEC3",
      "bufferView": 0,
      "byteOffset": 7296
    },
    {
      "name": "sweethome3d_opening_on_rail_4_drawer_1_0_indices",
      "componentType": 5123,
      "count": 84,
      "min": [
        0
      ],
      "max": [
        15
      ],
      "type": "SCALAR",
      "bufferView": 1,
      "byteOffset": 7128
    },
    {
      "name": "Corps_1_0_positions",
      "componentType": 5126,
      "count": 16,
      "min": [
        -0.23475000262260437,
        -0.5649999976158142,
        -0.23999999463558197
      ],
      "max": [
        0.9952499866485596,
        0.23499999940395355,
        0.23999999463558197
      ],
      "type": "VEC3",
      "bufferView": 0,
      "byteOffset": 7488
    },
    {
      "name": "Corps_1_0_indices",
      "componentType": 5123,
      "count": 84,
      "min": [
        0
      ],
      "max": [
        15
      ],
      "type": "SCALAR",
      "bufferView": 1,
      "byteOffset": 7296
    },
    {
      "name": "sweethome3d_opening_on_rail_3_drawer_1_0_positions",
      "componentType": 5126,
      "count": 16,
      "min": [
        -0.2097499966621399,
        -0.23844000697135925,
        -0.2175000011920929
      ],
      "max": [
        0.9702500104904175,
        -0.01844000071287155,
        0.24250000715255737
      ],
      "type": "VEC3",
      "bufferView": 0,
      "byteOffset": 7680
    },
    {
      "name": "sweethome3d_opening_on_rail_3_drawer_1_0_indices",
      "componentType": 5123,
      "count": 84,
      "min": [
        0
      ],
      "max": [
        15
      ],
      "type": "SCALAR",
      "bufferView": 1,
      "byteOffset": 7464
    },
    {
      "name": "sweethome3d_opening_on_rail_3_handle2_1_0_positions",
      "componentType": 5126,
      "count": 146,
      "min": [
        0.6608229875564575,
        -0.14336800575256348,
        0.24246500432491302
      ],
      "max": [
        0.697422981262207,
        -0.10676799714565277,
        0.26385998725891113
      ],
      "type": "VEC3",
      "bufferView": 0,
      "byteOffset": 7872
    },
    {
      "name": "sweethome3d_opening_on_rail_3_handle2_1_0_indices",
      "componentType": 5123,
      "count": 864,
      "min": [
        0
      ],
      "max": [
        145
      ],
      "type": "SCALAR",
      "bufferView": 1,
      "byteOffset": 7632
    },
    {
      "name": "sweethome3d_opening_on_rail_3_handle1_1_0_positions",
      "componentType": 5126,
      "count": 146,
      "min": [
        0.06469999998807907,
        -0.14336800575256348,
        0.24246500432491302
      ],
      "max": [
        0.10130000114440918,
        -0.10676799714565277,
        0.26385998725891113
      ],
      "type": "VEC3",
      "bufferView": 0,
      "byteOffset": 9624
    },
    {
      "name": "sweethome3d_opening_on_rail_3_handle1_1_0_indices",
      "componentType": 5123,
      "count": 864,
      "min": [
        0
      ],
      "max": [
        145
      ],
      "type": "SCALAR",
      "bufferView": 1,
      "byteOffset": 9360
    },
    {
      "name": "sweethome3d_opening_on_rail_2_drawer_1_0_positions",
      "componentType": 5126,
      "count": 16,
      "min": [
        0.3866199851036072,
        -0.012439999729394913,
        -0.2175000011920929
      ],
      "max": [
        0.9716200232505798,
        0.2075600028038025,
        0.24250000715255737
      ],
      "type": "VEC3",
      "bufferView": 0,
      "byteOffset": 11376
    },
    {
      "name": "sweethome3d_opening_on_rail_2_drawer_1_0_indices",
      "componentType": 5123,
      "count": 84,
      "min": [
        0
      ],
      "max": [
        15
      ],
      "type": "SCALAR",
      "bufferView": 1,
      "byteOffset": 11088
    }
  ],
  "asset": {
    "generator": "obj2gltf",
    "version": "2.0"
  },
  "buffers": [
    {
      "name": "chest",
      "byteLength": 22824,
      "uri": "data:application/octet-stream;base64,"
    }
  ],
  "bufferViews": [
    {
      "name": "bufferView_0",
      "buffer": 0,
      "byteLength": 11568,
      "byteOffset": 0,
      "byteStride": 12,
      "target": 34962
    },
    {
      "name": "bufferView_1",
      "buffer": 0,
      "byteLength": 11256,
      "byteOffset": 11568,
      "target": 34963
    }
  ],
  "materials": [
    {
      "name": "amber",
      "pbrMetallicRoughness": {
        "baseColorFactor": [
          0.5,
          0.5,
          0.5,
          1
        ],
        "metallicFactor": 0,
        "roughnessFactor": 1
      },
      "emissiveFactor": [
        0,
        0,
        0
      ],
      "alphaMode": "OPAQUE",
      "doubleSided": false
    }
  ],
  "meshes": [
    {
      "name": "sweethome3d_opening_on_rail_4_handle1_1",
      "primitives": [
        {
          "attributes": {
            "POSITION": 0
          },
          "indices": 1,
          "material": 0,
          "mode": 4
        }
      ]
    },
    {
      "name": "sweethome3d_unique_rail_1",
      "primitives": [
        {
          "attributes": {
            "POSITION": 2
          },
          "indices": 3,
          "material": 0,
          "mode": 4
        }
      ]
    },
    {
      "name": "sweethome3d_opening_on_rail_2_handle_1",
      "primitives": [
        {
          "attributes": {
            "POSITION": 4
          },
          "indices": 5,
          "material": 0,
          "mode": 4
        }
      ]
    },
    {
      "name": "sweethome3d_opening_on_rail_4_handle2_1",
      "primitives": [
        {
          "attributes": {
            "POSITION": 6
          },
          "indices": 7,
          "material": 0,
          "mode": 4
        }
      ]
    },
    {
      "name": "sweethome3d_opening_on_rail_1_drawer_1",
      "primitives": [
        {
          "attributes": {
            "POSITION": 8
          },
          "indices": 9,
          "material": 0,
          "mode": 4
        }
      ]
    },
    {
      "name": "sweethome3d_opening_on_rail_1_handle_1",
      "primitives": [
        {
          "attributes": {
            "POSITION": 10
          },
          "indices": 11,
          "material": 0,
          "mode": 4
        }
      ]
    },
    {
      "name": "sweethome3d_opening_on_rail_4_drawer_1",
      "primitives": [
        {
          "attributes": {
            "POSITION": 12
          },
          "indices": 13,
          "material": 0,
          "mode": 4
        }
      ]
    },
    {
      "name": "Corps_1",
      "primitives": [
        {
          "attributes": {
            "POSITION": 14
          },
          "indices": 15,
          "material": 0,
          "mode": 4
        }
      ]
    },
    {
      "name": "sweethome3d_opening_on_rail_3_drawer_1",
      "primitives": [
        {
          "attributes": {
            "POSITION": 16
          },
          "indices": 17,
          "material": 0,
          "mode": 4
        }
      ]
    },
    {
      "name": "sweethome3d_opening_on_rail_3_handle2_1",
      "primitives": [
        {
          "attributes": {
            "POSITION": 18
          },
          "indices": 19,
          "material": 0,
          "mode": 4
        }
      ]
    },
    {
      "name": "sweethome3d_opening_on_rail_3_handle1_1",
      "primitives": [
        {
          "attributes": {
            "POSITION": 20
          },
          "indices": 21,
          "material": 0,
          "mode": 4
        }
      ]
    },
    {
      "name": "sweethome3d_opening_on_rail_2_drawer_1",
      "primitives": [
        {
          "attributes": {
            "POSITION": 22
          },
          "indices": 23,
          "material": 0,
          "mode": 4
        }
      ]
    }
  ],
  "nodes": [
    {
      "name": "sweethome3d_opening_on_rail_4_handle1",
      "mesh": 0
    },
    {
      "name": "sweethome3d_unique_rail",
      "mesh": 1
    },
    {
      "name": "sweethome3d_opening_on_rail_2_handle",
      "mesh": 2
    },
    {
      "name": "sweethome3d_opening_on_rail_4_handle2",
      "mesh": 3
    },
    {
      "name": "sweethome3d_opening_on_rail_1_drawer",
      "mesh": 4
    },
    {
      "name": "sweethome3d_opening_on_rail_1_handle",
      "mesh": 5
    },
    {
      "name": "sweethome3d_opening_on_rail_4_drawer",
      "mesh": 6
    },
    {
      "name": "Corps",
      "mesh": 7
    },
    {
      "name": "sweethome3d_opening_on_rail_3_drawer",
      "mesh": 8
    },
    {
      "name": "sweethome3d_opening_on_rail_3_handle2",
      "mesh": 9
    },
    {
      "name": "sweethome3d_opening_on_rail_3_handle1",
      "mesh": 10
    },
    {
      "name": "sweethome3d_opening_on_rail_2_drawer",
      "mesh": 11
    }
  ],
  "scene": 0,
  "scenes": [
    {
      "nodes": [
        0,
        1,
        2,
        3,
        4,
        5,
        6,
        7,
        8,
        9,
        10,
        11
      ]
    }
  ]
}
