{
  "accessors": [
    {
      "name": "sweethome3d_hinge_1_1_0_positions",
      "componentType": 5126,
      "count": 10,
      "min": [
        -0.25,
        -0.3664270043373108,
        0.2995699942111969
      ],
      "max": [
        0.25,
        -0.36357301473617554,
        0.30228298902511597
      ],
      "type": "VEC3",
      "bufferView": 0,
      "byteOffset": 0
    },
    {
      "name": "sweethome3d_hinge_1_1_0_indices",
      "componentType": 5123,
      "count": 48,
      "min": [
        0
      ],
      "max": [
        9
      ],
      "type": "SCALAR",
      "bufferView": 1,
      "byteOffset": 0
    },
    {
      "name": "Cylinder_9_1_0_positions",
      "componentType": 5126,
      "count": 32,
      "min": [
        0.09693600237369537,
        0.3047490119934082,
        0.31797000765800476
      ],
      "max": [
        0.14693599939346313,
        0.35474899411201477,
        0.3279710114002228
      ],
      "type": "VEC3",
      "bufferView": 0,
      "byteOffset": 120
    },
    {
      "name": "Cylinder_9_1_0_indices",
      "componentType": 5123,
      "count": 180,
      "min": [
        0
      ],
      "max": [
        31
      ],
      "type": "SCALAR",
      "bufferView": 1,
      "byteOffset": 96
    },
    {
      "name": "PanneauCommande_1_0_positions",
      "componentType": 5126,
      "count": 64,
      "min": [
        -0.30000001192092896,
        0.27649998664855957,
        0.30000001192092896
      ],
      "max": [
        0.30000001192092896,
        0.3865000009536743,
        0.3199999928474426
      ],
      "type": "VEC3",
      "bufferView": 0,
      "byteOffset": 504
    },
    {
      "name": "PanneauCommande_1_0_indices",
      "componentType": 5123,
      "count": 372,
      "min": [
        0
      ],
      "max": [
        63
      ],
      "type": "SCALAR",
      "bufferView": 1,
      "byteOffset": 456
    },
    {
      "name": "Corps_1_0_positions",
      "componentType": 5126,
      "count": 24,
      "min": [
        -0.30000001192092896,
        -0.4634999930858612,
        -0.29899999499320984
      ],
      "max": [
        0.30000001192092896,
        0.3865000009536743,
        0.3009999990463257
      ],
      "type": "VEC3",
      "bufferView": 0,
      "byteOffset": 1272
    },
    {
      "name": "Corps_1_0_indices",
      "componentType": 5123,
      "count": 132,
      "min": [
        0
      ],
      "max": [
        23
      ],
      "type": "SCALAR",
      "bufferView": 1,
      "byteOffset": 1200
    },
    {
      "name": "sweethome3d_opening_on_hinge_1_Porte_1_0_positions",
      "componentType": 5126,
      "count": 8,
      "min": [
        -0.30000001192092896,
        -0.36607998609542847,
        0.3012700080871582
      ],
      "max": [
        0.30000001192092896,
        0.2740800082683563,
        0.3547300100326538
      ],
      "type": "VEC3",
      "bufferView": 0,
      "byteOffset": 1560
    },
    {
      "name": "sweethome3d_opening_on_hinge_1_Porte_1_0_indices",
      "componentType": 5123,
      "count": 36,
      "min": [
        0
      ],
      "max": [
        7
      ],
      "type": "SCALAR",
      "bufferView": 1,
      "byteOffset": 1464
    },
    {
      "name": "Cylinder_9_1_1_0_positions",
      "componentType": 5126,
      "count": 32,
      "min": [
        0.1890459954738617,
        0.3047490119934082,
        0.31797000765800476
      ],
      "max": [
        0.23904600739479065,
        0.35474899411201477,
        0.3279710114002228
      ],
      "type": "VEC3",
      "bufferView": 0,
      "byteOffset": 1656
    },
    {
      "name": "Cylinder_9_1_1_0_indices",
      "componentType": 5123,
      "count": 180,
      "min": [
        0
      ],
      "max": [
        31
      ],
      "type": "SCALAR",
      "bufferView": 1,
      "byteOffset": 1536
    }
  ],
  "asset": {
    "generator": "obj2gltf",
    "version": "2.0"
  },
  "buffers": [
    {
      "name": "dishwasher",
      "byteLength": 3936,
      "uri": "data:application/octet-stream;base64,"
    }
  ],
  "bufferViews": [
    {
      "name": "bufferView_0",
      "buffer": 0,
      "byteLength": 2040,
      "byteOffset": 0,
      "byteStride": 12,
      "target": 34962
    },
    {
      "name": "bufferView_1",
      "buffer": 0,
      "byteLength": 1896,
      "byteOffset": 2040,
      "target": 34963
    }
  ],
  "materials": [
    {
      "name": "white",
      "pbrMetallicRoughness": {
        "baseColorFactor": [
          0.5,
          0.5,
          0.5,
          1
        ],
        "metallicFactor": 0,
        "roughnessFactor": 1
      },
      "emissiveFactor": [
        0,
        0,
        0
      ],
      "alphaMode": "OPAQUE",
      "doubleSided": false
    },
    {
      "name": "flwhite1",
      "pbrMetallicRoughness": {
        "baseColorFactor": [
          0.5,
          0.5,
          0.5,
          1
        ],
        "metallicFactor": 0,
        "roughnessFactor": 1
      },
      "emissiveFactor": [
        0,
        0,
        0
      ],
      "alphaMode": "OPAQUE",
      "doubleSided": false
    }
  ],
  "meshes": [
    {
      "name": "sweethome3d_hinge_1_1",
      "primitives": [
        {
          "attributes": {
            "POSITION": 0
          },
          "indices": 1,
          "material": 0,
          "mode": 4
        }
      ]
    },
    {
      "name": "Cylinder_9_1",
      "primitives": [
        {
          "attributes": {
            "POSITION": 2
          },
          "indices": 3,
          "material": 1,
          "mode": 4
        }
      ]
    },
    {
      "name": "PanneauCommande_1",
      "primitives": [
        {
          "attributes": {
            "POSITION": 4
          },
          "indices": 5,
          "material": 0,
          "mode": 4
        }
      ]
    },
    {
      "name": "Corps_1",
      "primitives": [
        {
          "attributes": {
            "POSITION": 6
          },
          "indices": 7,
          "material": 0,
          "mode": 4
        }
      ]
    },
    {
      "name": "sweethome3d_opening_on_hinge_1_Porte_1",
      "primitives": [
        {
          "attributes": {
            "POSITION": 8
          },
          "indices": 9,
          "material": 0,
          "mode": 4
        }
      ]
    },
    {
      "name": "Cylinder_9_1_1",
      "primitives": [
        {
          "attributes": {
            "POSITION": 10
          },
          "indices": 11,
          "material": 1,
          "mode": 4
        }
      ]
    }
  ],
  "nodes": [
    {
      "name": "sweethome3d_hinge_1",
      "mesh": 0
    },
    {
      "name": "Cylinder_9",
      "mesh": 1
    },
    {
      "name": "PanneauCommande",
      "mesh": 2
    },
    {
      "name": "Corps",
      "mesh": 3
    },
    {
      "name": "sweethome3d_opening_on_hinge_1_Porte",
      "mesh": 4
    },
    {
      "name": "Cylinder_9_1",
      "mesh": 5
    }
  ],
  "scene": 0,
  "scenes": [
    {
      "nodes": [
        0,
        1,
        2,
        3,
        4,
        5
      ]
    }
  ]
}
