{
  "accessors": [
    {
      "name": "Foot_Shape.001_1_0_positions",
      "componentType": 5126,
      "count": 161,
      "min": [
        -21.7499942779541,
        -42.55763244628906,
        -15.007494926452637
      ],
      "max": [
        21.7499942779541,
        -39.402347564697266,
        15.00749683380127
      ],
      "type": "VEC3",
      "bufferView": 0,
      "byteOffset": 0
    },
    {
      "name": "Foot_Shape.001_1_0_indices",
      "componentType": 5123,
      "count": 915,
      "min": [
        0
      ],
      "max": [
        160
      ],
      "type": "SCALAR",
      "bufferView": 2,
      "byteOffset": 0
    },
    {
      "name": "Bottom_Cube.003_1_0_positions",
      "componentType": 5126,
      "count": 18,
      "min": [
        -60.485984802246094,
        -37.68886184692383,
        1.1079139709472656
      ],
      "max": [
        60.514015197753906,
        -36.74153518676758,
        1.3079140186309814
      ],
      "type": "VEC3",
      "bufferView": 0,
      "byteOffset": 1932
    },
    {
      "name": "Bottom_Cube.003_1_0_indices",
      "componentType": 5123,
      "count": 60,
      "min": [
        0
      ],
      "max": [
        17
      ],
      "type": "SCALAR",
      "bufferView": 2,
      "byteOffset": 1832
    },
    {
      "name": "Top_Cube.002_1_0_positions",
      "componentType": 5126,
      "count": 10,
      "min": [
        -60.48598861694336,
        36.308448791503906,
        1.107923984527588
      ],
      "max": [
        60.51401138305664,
        36.758453369140625,
        1.3079240322113037
      ],
      "type": "VEC3",
      "bufferView": 0,
      "byteOffset": 2148
    },
    {
      "name": "Top_Cube.002_1_0_indices",
      "componentType": 5123,
      "count": 24,
      "min": [
        0
      ],
      "max": [
        9
      ],
      "type": "SCALAR",
      "bufferView": 2,
      "byteOffset": 1952
    },
    {
      "name": "Screen_Cube.001_1_0_positions",
      "componentType": 5126,
      "count": 4,
      "min": [
        -54.985984802246094,
        -31.34154510498047,
        0.9079239964485168
      ],
      "max": [
        55.014007568359375,
        31.558452606201172,
        0.9079239964485168
      ],
      "type": "VEC3",
      "bufferView": 0,
      "byteOffset": 2268
    },
    {
      "name": "Screen_Cube.001_1_0_texcoords",
      "componentType": 5126,
      "count": 4,
      "min": [
        0,
        0
      ],
      "max": [
        1,
        1
      ],
      "type": "VEC2",
      "bufferView": 1,
      "byteOffset": 0
    },
    {
      "name": "Screen_Cube.001_1_0_indices",
      "componentType": 5123,
      "count": 6,
      "min": [
        0
      ],
      "max": [
        3
      ],
      "type": "SCALAR",
      "bufferView": 2,
      "byteOffset": 2000
    },
    {
      "name": "Frame_Shape_1_0_positions",
      "componentType": 5126,
      "count": 66,
      "min": [
        -60.485984802246094,
        -39.40550994873047,
        -5.870996952056885
      ],
      "max": [
        60.514007568359375,
        36.758453369140625,
        1.3079240322113037
      ],
      "type": "VEC3",
      "bufferView": 0,
      "byteOffset": 2316
    },
    {
      "name": "Frame_Shape_1_0_indices",
      "componentType": 5123,
      "count": 372,
      "min": [
        0
      ],
      "max": [
        65
      ],
      "type": "SCALAR",
      "bufferView": 2,
      "byteOffset": 2012
    },
    {
      "name": "LED_Cylinder_1_0_positions",
      "componentType": 5126,
      "count": 12,
      "min": [
        -0.2705869972705841,
        -38.53668975830078,
        1.1082969903945923
      ],
      "max": [
        0.2694129943847656,
        -38.069034576416016,
        1.1590759754180908
      ],
      "type": "VEC3",
      "bufferView": 0,
      "byteOffset": 3108
    },
    {
      "name": "LED_Cylinder_1_0_indices",
      "componentType": 5123,
      "count": 48,
      "min": [
        0
      ],
      "max": [
        11
      ],
      "type": "SCALAR",
      "bufferView": 2,
      "byteOffset": 2756
    }
  ],
  "asset": {
    "generator": "obj2gltf",
    "version": "2.0"
  },
  "buffers": [
    {
      "name": "flatTV",
      "byteLength": 6136,
      "uri": "data:application/octet-stream;base64,"
    }
  ],
  "bufferViews": [
    {
      "name": "bufferView_0",
      "buffer": 0,
      "byteLength": 3252,
      "byteOffset": 0,
      "byteStride": 12,
      "target": 34962
    },
    {
      "name": "bufferView_1",
      "buffer": 0,
      "byteLength": 32,
      "byteOffset": 3252,
      "byteStride": 8,
      "target": 34962
    },
    {
      "name": "bufferView_2",
      "buffer": 0,
      "byteLength": 2852,
      "byteOffset": 3284,
      "target": 34963
    }
  ],
  "materials": [
    {
      "name": "black",
      "pbrMetallicRoughness": {
        "baseColorFactor": [
          0.5,
          0.5,
          0.5,
          1
        ],
        "metallicFactor": 0,
        "roughnessFactor": 1
      },
      "emissiveFactor": [
        0,
        0,
        0
      ],
      "alphaMode": "OPAQUE",
      "doubleSided": false
    },
    {
      "name": "silver",
      "pbrMetallicRoughness": {
        "baseColorFactor": [
          0.5,
          0.5,
          0.5,
          1
        ],
        "metallicFactor": 0,
        "roughnessFactor": 1
      },
      "emissiveFactor": [
        0,
        0,
        0
      ],
      "alphaMode": "OPAQUE",
      "doubleSided": false
    },
    {
      "name": "fldkgrey",
      "pbrMetallicRoughness": {
        "baseColorFactor": [
          0.5,
          0.5,
          0.5,
          1
        ],
        "metallicFactor": 0,
        "roughnessFactor": 1
      },
      "emissiveFactor": [
        0,
        0,
        0
      ],
      "alphaMode": "OPAQUE",
      "doubleSided": false
    },
    {
      "name": "dkdkgrey",
      "pbrMetallicRoughness": {
        "baseColorFactor": [
          0.5,
          0.5,
          0.5,
          1
        ],
        "metallicFactor": 0,
        "roughnessFactor": 1
      },
      "emissiveFactor": [
        0,
        0,
        0
      ],
      "alphaMode": "OPAQUE",
      "doubleSided": false
    },
    {
      "name": "red",
      "pbrMetallicRoughness": {
        "baseColorFactor": [
          0.5,
          0.5,
          0.5,
          1
        ],
        "metallicFactor": 0,
        "roughnessFactor": 1
      },
      "emissiveFactor": [
        0,
        0,
        0
      ],
      "alphaMode": "OPAQUE",
      "doubleSided": false
    }
  ],
  "meshes": [
    {
      "name": "Foot_Shape.001_1",
      "primitives": [
        {
          "attributes": {
            "POSITION": 0
          },
          "indices": 1,
          "material": 0,
          "mode": 4
        }
      ]
    },
    {
      "name": "Bottom_Cube.003_1",
      "primitives": [
        {
          "attributes": {
            "POSITION": 2
          },
          "indices": 3,
          "material": 1,
          "mode": 4
        }
      ]
    },
    {
      "name": "Top_Cube.002_1",
      "primitives": [
        {
          "attributes": {
            "POSITION": 4
          },
          "indices": 5,
          "material": 1,
          "mode": 4
        }
      ]
    },
    {
      "name": "Screen_Cube.001_1",
      "primitives": [
        {
          "attributes": {
            "POSITION": 6,
            "TEXCOORD_0": 7
          },
          "indices": 8,
          "material": 2,
          "mode": 4
        }
      ]
    },
    {
      "name": "Frame_Shape_1",
      "primitives": [
        {
          "attributes": {
            "POSITION": 9
          },
          "indices": 10,
          "material": 3,
          "mode": 4
        }
      ]
    },
    {
      "name": "LED_Cylinder_1",
      "primitives": [
        {
          "attributes": {
            "POSITION": 11
          },
          "indices": 12,
          "material": 4,
          "mode": 4
        }
      ]
    }
  ],
  "nodes": [
    {
      "name": "Foot_Shape.001",
      "mesh": 0
    },
    {
      "name": "Bottom_Cube.003",
      "mesh": 1
    },
    {
      "name": "Top_Cube.002",
      "mesh": 2
    },
    {
      "name": "Screen_Cube.001",
      "mesh": 3
    },
    {
      "name": "Frame_Shape",
      "mesh": 4
    },
    {
      "name": "LED_Cylinder",
      "mesh": 5
    }
  ],
  "scene": 0,
  "scenes": [
    {
      "nodes": [
        0,
        1,
        2,
        3,
        4,
        5
      ]
    }
  ]
}
