{
  "accessors": [
    {
      "name": "sweethome3d_hinge_2_2_1_0_positions",
      "componentType": 5126,
      "count": 8,
      "min": [
        0.2848980128765106,
        -0.38068699836730957,
        0.2999489903450012
      ],
      "max": [
        0.29857200384140015,
        -0.37568700313568115,
        0.3183029890060425
      ],
      "type": "VEC3",
      "bufferView": 0,
      "byteOffset": 0
    },
    {
      "name": "sweethome3d_hinge_2_2_1_0_indices",
      "componentType": 5123,
      "count": 36,
      "min": [
        0
      ],
      "max": [
        7
      ],
      "type": "SCALAR",
      "bufferView": 1,
      "byteOffset": 0
    },
    {
      "name": "sweethome3d_hinge_1_2_1_0_positions",
      "componentType": 5126,
      "count": 8,
      "min": [
        0.2848980128765106,
        0.4294140040874481,
        0.2999489903450012
      ],
      "max": [
        0.29857200384140015,
        0.43441399931907654,
        0.3183029890060425
      ],
      "type": "VEC3",
      "bufferView": 0,
      "byteOffset": 96
    },
    {
      "name": "sweethome3d_hinge_1_2_1_0_indices",
      "componentType": 5123,
      "count": 36,
      "min": [
        0
      ],
      "max": [
        7
      ],
      "type": "SCALAR",
      "bufferView": 1,
      "byteOffset": 72
    },
    {
      "name": "Corps_1_0_positions",
      "componentType": 5126,
      "count": 40,
      "min": [
        -0.30000001192092896,
        -0.43217000365257263,
        -0.2980000078678131
      ],
      "max": [
        0.30000001192092896,
        1.417829990386963,
        0.3019999861717224
      ],
      "type": "VEC3",
      "bufferView": 0,
      "byteOffset": 192
    },
    {
      "name": "Corps_1_0_indices",
      "componentType": 5123,
      "count": 228,
      "min": [
        0
      ],
      "max": [
        39
      ],
      "type": "SCALAR",
      "bufferView": 1,
      "byteOffset": 144
    },
    {
      "name": "sweethome3d_opening_on_hinge_2_handle_1_0_positions",
      "componentType": 5126,
      "count": 163,
      "min": [
        -0.20014099776744843,
        0.14319400489330292,
        0.33598101139068604
      ],
      "max": [
        -0.1848589926958084,
        0.32921600341796875,
        0.36726000905036926
      ],
      "type": "VEC3",
      "bufferView": 0,
      "byteOffset": 672
    },
    {
      "name": "sweethome3d_opening_on_hinge_2_handle_1_0_indices",
      "componentType": 5123,
      "count": 966,
      "min": [
        0
      ],
      "max": [
        162
      ],
      "type": "SCALAR",
      "bufferView": 1,
      "byteOffset": 600
    },
    {
      "name": "sweethome3d_opening_on_hinge_1_door_1_0_positions",
      "componentType": 5126,
      "count": 64,
      "min": [
        -0.30001598596572876,
        0.4286699891090393,
        0.30619001388549805
      ],
      "max": [
        0.29998400807380676,
        1.4153300523757935,
        0.34588998556137085
      ],
      "type": "VEC3",
      "bufferView": 0,
      "byteOffset": 2628
    },
    {
      "name": "sweethome3d_opening_on_hinge_1_door_1_0_indices",
      "componentType": 5123,
      "count": 372,
      "min": [
        0
      ],
      "max": [
        63
      ],
      "type": "SCALAR",
      "bufferView": 1,
      "byteOffset": 2532
    },
    {
      "name": "sweethome3d_opening_on_hinge_1_handle_1_0_positions",
      "componentType": 5126,
      "count": 163,
      "min": [
        -0.20014099776744843,
        0.5239890217781067,
        0.33598101139068604
      ],
      "max": [
        -0.1848589926958084,
        0.7100110054016113,
        0.36726000905036926
      ],
      "type": "VEC3",
      "bufferView": 0,
      "byteOffset": 3396
    },
    {
      "name": "sweethome3d_opening_on_hinge_1_handle_1_0_indices",
      "componentType": 5123,
      "count": 966,
      "min": [
        0
      ],
      "max": [
        162
      ],
      "type": "SCALAR",
      "bufferView": 1,
      "byteOffset": 3276
    },
    {
      "name": "sweethome3d_opening_on_hinge_2_door_1_0_positions",
      "componentType": 5126,
      "count": 64,
      "min": [
        -0.30001598596572876,
        -0.3813300132751465,
        0.30619001388549805
      ],
      "max": [
        0.29998400807380676,
        0.41866999864578247,
        0.34588998556137085
      ],
      "type": "VEC3",
      "bufferView": 0,
      "byteOffset": 5352
    },
    {
      "name": "sweethome3d_opening_on_hinge_2_door_1_0_indices",
      "componentType": 5123,
      "count": 372,
      "min": [
        0
      ],
      "max": [
        63
      ],
      "type": "SCALAR",
      "bufferView": 1,
      "byteOffset": 5208
    },
    {
      "name": "sweethome3d_hinge_1_1_Gond_3_1_0_positions",
      "componentType": 5126,
      "count": 8,
      "min": [
        0.2848980128765106,
        1.4088579416275024,
        0.2999489903450012
      ],
      "max": [
        0.29857200384140015,
        1.4138580560684204,
        0.3183029890060425
      ],
      "type": "VEC3",
      "bufferView": 0,
      "byteOffset": 6120
    },
    {
      "name": "sweethome3d_hinge_1_1_Gond_3_1_0_indices",
      "componentType": 5123,
      "count": 36,
      "min": [
        0
      ],
      "max": [
        7
      ],
      "type": "SCALAR",
      "bufferView": 1,
      "byteOffset": 5952
    },
    {
      "name": "sweethome3d_hinge_2_1_1_0_positions",
      "componentType": 5126,
      "count": 8,
      "min": [
        0.2848980128765106,
        0.4133790135383606,
        0.2999489903450012
      ],
      "max": [
        0.29857200384140015,
        0.418379008769989,
        0.3183029890060425
      ],
      "type": "VEC3",
      "bufferView": 0,
      "byteOffset": 6216
    },
    {
      "name": "sweethome3d_hinge_2_1_1_0_indices",
      "componentType": 5123,
      "count": 36,
      "min": [
        0
      ],
      "max": [
        7
      ],
      "type": "SCALAR",
      "bufferView": 1,
      "byteOffset": 6024
    }
  ],
  "asset": {
    "generator": "obj2gltf",
    "version": "2.0"
  },
  "buffers": [
    {
      "name": "fridgeFreezer",
      "byteLength": 12408,
      "uri": "data:application/octet-stream;base64,"
    }
  ],
  "bufferViews": [
    {
      "name": "bufferView_0",
      "buffer": 0,
      "byteLength": 6312,
      "byteOffset": 0,
      "byteStride": 12,
      "target": 34962
    },
    {
      "name": "bufferView_1",
      "buffer": 0,
      "byteLength": 6096,
      "byteOffset": 6312,
      "target": 34963
    }
  ],
  "materials": [
    {
      "name": "silver",
      "pbrMetallicRoughness": {
        "baseColorFactor": [
          0.5,
          0.5,
          0.5,
          1
        ],
        "metallicFactor": 0,
        "roughnessFactor": 1
      },
      "emissiveFactor": [
        0,
        0,
        0
      ],
      "alphaMode": "OPAQUE",
      "doubleSided": false
    },
    {
      "name": "white",
      "pbrMetallicRoughness": {
        "baseColorFactor": [
          0.5,
          0.5,
          0.5,
          1
        ],
        "metallicFactor": 0,
        "roughnessFactor": 1
      },
      "emissiveFactor": [
        0,
        0,
        0
      ],
      "alphaMode": "OPAQUE",
      "doubleSided": false
    }
  ],
  "meshes": [
    {
      "name": "sweethome3d_hinge_2_2_1",
      "primitives": [
        {
          "attributes": {
            "POSITION": 0
          },
          "indices": 1,
          "material": 0,
          "mode": 4
        }
      ]
    },
    {
      "name": "sweethome3d_hinge_1_2_1",
      "primitives": [
        {
          "attributes": {
            "POSITION": 2
          },
          "indices": 3,
          "material": 0,
          "mode": 4
        }
      ]
    },
    {
      "name": "Corps_1",
      "primitives": [
        {
          "attributes": {
            "POSITION": 4
          },
          "indices": 5,
          "material": 1,
          "mode": 4
        }
      ]
    },
    {
      "name": "sweethome3d_opening_on_hinge_2_handle_1",
      "primitives": [
        {
          "attributes": {
            "POSITION": 6
          },
          "indices": 7,
          "material": 0,
          "mode": 4
        }
      ]
    },
    {
      "name": "sweethome3d_opening_on_hinge_1_door_1",
      "primitives": [
        {
          "attributes": {
            "POSITION": 8
          },
          "indices": 9,
          "material": 1,
          "mode": 4
        }
      ]
    },
    {
      "name": "sweethome3d_opening_on_hinge_1_handle_1",
      "primitives": [
        {
          "attributes": {
            "POSITION": 10
          },
          "indices": 11,
          "material": 0,
          "mode": 4
        }
      ]
    },
    {
      "name": "sweethome3d_opening_on_hinge_2_door_1",
      "primitives": [
        {
          "attributes": {
            "POSITION": 12
          },
          "indices": 13,
          "material": 1,
          "mode": 4
        }
      ]
    },
    {
      "name": "sweethome3d_hinge_1_1_Gond_3_1",
      "primitives": [
        {
          "attributes": {
            "POSITION": 14
          },
          "indices": 15,
          "material": 0,
          "mode": 4
        }
      ]
    },
    {
      "name": "sweethome3d_hinge_2_1_1",
      "primitives": [
        {
          "attributes": {
            "POSITION": 16
          },
          "indices": 17,
          "material": 0,
          "mode": 4
        }
      ]
    }
  ],
  "nodes": [
    {
      "name": "sweethome3d_hinge_2_2",
      "mesh": 0
    },
    {
      "name": "sweethome3d_hinge_1_2",
      "mesh": 1
    },
    {
      "name": "Corps",
      "mesh": 2
    },
    {
      "name": "sweethome3d_opening_on_hinge_2_handle",
      "mesh": 3
    },
    {
      "name": "sweethome3d_opening_on_hinge_1_door",
      "mesh": 4
    },
    {
      "name": "sweethome3d_opening_on_hinge_1_handle",
      "mesh": 5
    },
    {
      "name": "sweethome3d_opening_on_hinge_2_door",
      "mesh": 6
    },
    {
      "name": "sweethome3d_hinge_1_1_Gond_3",
      "mesh": 7
    },
    {
      "name": "sweethome3d_hinge_2_1",
      "mesh": 8
    }
  ],
  "scene": 0,
  "scenes": [
    {
      "nodes": [
        0,
        1,
        2,
        3,
        4,
        5,
        6,
        7,
        8
      ]
    }
  ]
}
