{
  "accessors": [
    {
      "name": "sweethome3d_window_pane_1_0_positions",
      "componentType": 5126,
      "count": 41,
      "min": [
        -44.9913215637207,
        -0.043480001389980316,
        -0.25
      ],
      "max": [
        45.0086784362793,
        44.956520080566406,
        0.25
      ],
      "type": "VEC3",
      "bufferView": 0,
      "byteOffset": 0
    },
    {
      "name": "sweethome3d_window_pane_1_0_indices",
      "componentType": 5123,
      "count": 234,
      "min": [
        0
      ],
      "max": [
        40
      ],
      "type": "SCALAR",
      "bufferView": 1,
      "byteOffset": 0
    },
    {
      "name": "Border_1_0_positions",
      "componentType": 5126,
      "count": 78,
      "min": [
        -45.49121856689453,
        -0.5,
        -7.5
      ],
      "max": [
        45.50878143310547,
        45.5,
        7.5
      ],
      "type": "VEC3",
      "bufferView": 0,
      "byteOffset": 492
    },
    {
      "name": "Border_1_0_indices",
      "componentType": 5123,
      "count": 468,
      "min": [
        0
      ],
      "max": [
        77
      ],
      "type": "SCALAR",
      "bufferView": 1,
      "byteOffset": 468
    },
    {
      "name": "Montant_vertical_1_0_positions",
      "componentType": 5126,
      "count": 14,
      "min": [
        -1,
        -0.4426099956035614,
        -1
      ],
      "max": [
        1,
        45.17070007324219,
        1
      ],
      "type": "VEC3",
      "bufferView": 0,
      "byteOffset": 1428
    },
    {
      "name": "Montant_vertical_1_0_indices",
      "componentType": 5123,
      "count": 72,
      "min": [
        0
      ],
      "max": [
        13
      ],
      "type": "SCALAR",
      "bufferView": 1,
      "byteOffset": 1404
    },
    {
      "name": "Montant_1_1_0_positions",
      "componentType": 5126,
      "count": 17,
      "min": [
        -32.70248031616211,
        -0.5,
        -1
      ],
      "max": [
        0.9652100205421448,
        32.69552993774414,
        1
      ],
      "type": "VEC3",
      "bufferView": 0,
      "byteOffset": 1596
    },
    {
      "name": "Montant_1_1_0_indices",
      "componentType": 5123,
      "count": 90,
      "min": [
        0
      ],
      "max": [
        16
      ],
      "type": "SCALAR",
      "bufferView": 1,
      "byteOffset": 1548
    },
    {
      "name": "Montant_2_1_0_positions",
      "componentType": 5126,
      "count": 17,
      "min": [
        -0.7525399923324585,
        -0.5,
        -1
      ],
      "max": [
        32.9151496887207,
        32.69552993774414,
        1
      ],
      "type": "VEC3",
      "bufferView": 0,
      "byteOffset": 1800
    },
    {
      "name": "Montant_2_1_0_indices",
      "componentType": 5123,
      "count": 90,
      "min": [
        0
      ],
      "max": [
        16
      ],
      "type": "SCALAR",
      "bufferView": 1,
      "byteOffset": 1728
    }
  ],
  "asset": {
    "generator": "obj2gltf",
    "version": "2.0"
  },
  "buffers": [
    {
      "name": "halfRoundWindow",
      "byteLength": 3912,
      "uri": "data:application/octet-stream;base64,"
    }
  ],
  "bufferViews": [
    {
      "name": "bufferView_0",
      "buffer": 0,
      "byteLength": 2004,
      "byteOffset": 0,
      "byteStride": 12,
      "target": 34962
    },
    {
      "name": "bufferView_1",
      "buffer": 0,
      "byteLength": 1908,
      "byteOffset": 2004,
      "target": 34963
    }
  ],
  "materials": [
    {
      "name": "flltgrey",
      "pbrMetallicRoughness": {
        "baseColorFactor": [
          0.5,
          0.5,
          0.5,
          1
        ],
        "metallicFactor": 0,
        "roughnessFactor": 1
      },
      "emissiveFactor": [
        0,
        0,
        0
      ],
      "alphaMode": "OPAQUE",
      "doubleSided": false
    },
    {
      "name": "white",
      "pbrMetallicRoughness": {
        "baseColorFactor": [
          0.5,
          0.5,
          0.5,
          1
        ],
        "metallicFactor": 0,
        "roughnessFactor": 1
      },
      "emissiveFactor": [
        0,
        0,
        0
      ],
      "alphaMode": "OPAQUE",
      "doubleSided": false
    }
  ],
  "meshes": [
    {
      "name": "sweethome3d_window_pane_1",
      "primitives": [
        {
          "attributes": {
            "POSITION": 0
          },
          "indices": 1,
          "material": 0,
          "mode": 4
        }
      ]
    },
    {
      "name": "Border_1",
      "primitives": [
        {
          "attributes": {
            "POSITION": 2
          },
          "indices": 3,
          "material": 1,
          "mode": 4
        }
      ]
    },
    {
      "name": "Montant_vertical_1",
      "primitives": [
        {
          "attributes": {
            "POSITION": 4
          },
          "indices": 5,
          "material": 1,
          "mode": 4
        }
      ]
    },
    {
      "name": "Montant_1_1",
      "primitives": [
        {
          "attributes": {
            "POSITION": 6
          },
          "indices": 7,
          "material": 1,
          "mode": 4
        }
      ]
    },
    {
      "name": "Montant_2_1",
      "primitives": [
        {
          "attributes": {
            "POSITION": 8
          },
          "indices": 9,
          "material": 1,
          "mode": 4
        }
      ]
    }
  ],
  "nodes": [
    {
      "name": "sweethome3d_window_pane",
      "mesh": 0
    },
    {
      "name": "Border",
      "mesh": 1
    },
    {
      "name": "Montant_vertical",
      "mesh": 2
    },
    {
      "name": "Montant_1",
      "mesh": 3
    },
    {
      "name": "Montant_2",
      "mesh": 4
    }
  ],
  "scene": 0,
  "scenes": [
    {
      "nodes": [
        0,
        1,
        2,
        3,
        4
      ]
    }
  ]
}
