{
  "accessors": [
    {
      "name": "LED_1_0_positions",
      "componentType": 5126,
      "count": 17,
      "min": [
        -0.09149999916553497,
        -0.5034999847412109,
        0.39484500885009766
      ],
      "max": [
        -0.08449999988079071,
        -0.4964999854564667,
        0.39755699038505554
      ],
      "type": "VEC3",
      "bufferView": 0,
      "byteOffset": 0
    },
    {
      "name": "LED_1_0_indices",
      "componentType": 5123,
      "count": 72,
      "min": [
        0
      ],
      "max": [
        16
      ],
      "type": "SCALAR",
      "bufferView": 1,
      "byteOffset": 0
    },
    {
      "name": "Buttons_1_0_positions",
      "componentType": 5126,
      "count": 68,
      "min": [
        -0.04749999940395355,
        -0.5034999847412109,
        0.39475101232528687
      ],
      "max": [
        0.09149999916553497,
        -0.4964999854564667,
        0.4013870060443878
      ],
      "type": "VEC3",
      "bufferView": 0,
      "byteOffset": 204
    },
    {
      "name": "Buttons_1_0_indices",
      "componentType": 5123,
      "count": 288,
      "min": [
        0
      ],
      "max": [
        67
      ],
      "type": "SCALAR",
      "bufferView": 1,
      "byteOffset": 144
    },
    {
      "name": "Light_1_0_positions",
      "componentType": 5126,
      "count": 28,
      "min": [
        -0.18000000715255737,
        -0.5200309753417969,
        0.2599009871482849
      ],
      "max": [
        0.18000000715255737,
        -0.5150309801101685,
        0.3249010145664215
      ],
      "type": "VEC3",
      "bufferView": 0,
      "byteOffset": 1020
    },
    {
      "name": "Light_1_0_indices",
      "componentType": 5123,
      "count": 120,
      "min": [
        0
      ],
      "max": [
        27
      ],
      "type": "SCALAR",
      "bufferView": 1,
      "byteOffset": 720
    },
    {
      "name": "Hood_1_0_positions",
      "componentType": 5126,
      "count": 94,
      "min": [
        -0.30000001192092896,
        -0.5199999809265137,
        -0.125
      ],
      "max": [
        0.30000001192092896,
        -0.41999998688697815,
        0.39500001072883606
      ],
      "type": "VEC3",
      "bufferView": 0,
      "byteOffset": 1356
    },
    {
      "name": "Hood_1_0_indices",
      "componentType": 5123,
      "count": 528,
      "min": [
        0
      ],
      "max": [
        93
      ],
      "type": "SCALAR",
      "bufferView": 1,
      "byteOffset": 960
    },
    {
      "name": "Filter_1_0_positions",
      "componentType": 5126,
      "count": 26,
      "min": [
        -0.27000001072883606,
        -0.5149999856948853,
        -0.06499999761581421
      ],
      "max": [
        0.27000001072883606,
        -0.5099999904632568,
        0.24500000476837158
      ],
      "type": "VEC3",
      "bufferView": 0,
      "byteOffset": 2484
    },
    {
      "name": "Filter_1_0_indices",
      "componentType": 5123,
      "count": 126,
      "min": [
        0
      ],
      "max": [
        25
      ],
      "type": "SCALAR",
      "bufferView": 1,
      "byteOffset": 2016
    },
    {
      "name": "Chimney_1_0_positions",
      "componentType": 5126,
      "count": 12,
      "min": [
        -0.11999999731779099,
        -0.41999998688697815,
        -0.125
      ],
      "max": [
        0.11999999731779099,
        0.41999998688697815,
        0.125
      ],
      "type": "VEC3",
      "bufferView": 0,
      "byteOffset": 2796
    },
    {
      "name": "Chimney_1_0_indices",
      "componentType": 5123,
      "count": 60,
      "min": [
        0
      ],
      "max": [
        11
      ],
      "type": "SCALAR",
      "bufferView": 1,
      "byteOffset": 2268
    }
  ],
  "asset": {
    "generator": "obj2gltf",
    "version": "2.0"
  },
  "buffers": [
    {
      "name": "hood",
      "byteLength": 5328,
      "uri": "data:application/octet-stream;base64,"
    }
  ],
  "bufferViews": [
    {
      "name": "bufferView_0",
      "buffer": 0,
      "byteLength": 2940,
      "byteOffset": 0,
      "byteStride": 12,
      "target": 34962
    },
    {
      "name": "bufferView_1",
      "buffer": 0,
      "byteLength": 2388,
      "byteOffset": 2940,
      "target": 34963
    }
  ],
  "materials": [
    {
      "name": "dkred",
      "pbrMetallicRoughness": {
        "baseColorFactor": [
          0.5,
          0.5,
          0.5,
          1
        ],
        "metallicFactor": 0,
        "roughnessFactor": 1
      },
      "emissiveFactor": [
        0,
        0,
        0
      ],
      "alphaMode": "OPAQUE",
      "doubleSided": false
    },
    {
      "name": "dkgrey",
      "pbrMetallicRoughness": {
        "baseColorFactor": [
          0.5,
          0.5,
          0.5,
          1
        ],
        "metallicFactor": 0,
        "roughnessFactor": 1
      },
      "emissiveFactor": [
        0,
        0,
        0
      ],
      "alphaMode": "OPAQUE",
      "doubleSided": false
    },
    {
      "name": "offwhite.warm",
      "pbrMetallicRoughness": {
        "baseColorFactor": [
          0.5,
          0.5,
          0.5,
          1
        ],
        "metallicFactor": 0,
        "roughnessFactor": 1
      },
      "emissiveFactor": [
        0,
        0,
        0
      ],
      "alphaMode": "OPAQUE",
      "doubleSided": false
    },
    {
      "name": "silver",
      "pbrMetallicRoughness": {
        "baseColorFactor": [
          0.5,
          0.5,
          0.5,
          1
        ],
        "metallicFactor": 0,
        "roughnessFactor": 1
      },
      "emissiveFactor": [
        0,
        0,
        0
      ],
      "alphaMode": "OPAQUE",
      "doubleSided": false
    },
    {
      "name": "dkdkgrey",
      "pbrMetallicRoughness": {
        "baseColorFactor": [
          0.5,
          0.5,
          0.5,
          1
        ],
        "metallicFactor": 0,
        "roughnessFactor": 1
      },
      "emissiveFactor": [
        0,
        0,
        0
      ],
      "alphaMode": "OPAQUE",
      "doubleSided": false
    }
  ],
  "meshes": [
    {
      "name": "LED_1",
      "primitives": [
        {
          "attributes": {
            "POSITION": 0
          },
          "indices": 1,
          "material": 0,
          "mode": 4
        }
      ]
    },
    {
      "name": "Buttons_1",
      "primitives": [
        {
          "attributes": {
            "POSITION": 2
          },
          "indices": 3,
          "material": 1,
          "mode": 4
        }
      ]
    },
    {
      "name": "Light_1",
      "primitives": [
        {
          "attributes": {
            "POSITION": 4
          },
          "indices": 5,
          "material": 2,
          "mode": 4
        }
      ]
    },
    {
      "name": "Hood_1",
      "primitives": [
        {
          "attributes": {
            "POSITION": 6
          },
          "indices": 7,
          "material": 1,
          "mode": 4
        }
      ]
    },
    {
      "name": "Filter_1",
      "primitives": [
        {
          "attributes": {
            "POSITION": 8
          },
          "indices": 9,
          "material": 3,
          "mode": 4
        }
      ]
    },
    {
      "name": "Chimney_1",
      "primitives": [
        {
          "attributes": {
            "POSITION": 10
          },
          "indices": 11,
          "material": 4,
          "mode": 4
        }
      ]
    }
  ],
  "nodes": [
    {
      "name": "LED",
      "mesh": 0
    },
    {
      "name": "Buttons",
      "mesh": 1
    },
    {
      "name": "Light",
      "mesh": 2
    },
    {
      "name": "Hood",
      "mesh": 3
    },
    {
      "name": "Filter",
      "mesh": 4
    },
    {
      "name": "Chimney",
      "mesh": 5
    }
  ],
  "scene": 0,
  "scenes": [
    {
      "nodes": [
        0,
        1,
        2,
        3,
        4,
        5
      ]
    }
  ]
}
