{
  "accessors": [
    {
      "name": "Tube_1_1_0_positions",
      "componentType": 5126,
      "count": 481,
      "min": [
        0.0006750000175088644,
        0.0011709999525919557,
        -0.00022200000239536166
      ],
      "max": [
        0.05067500099539757,
        0.6104099750518799,
        0.24977800250053406
      ],
      "type": "VEC3",
      "bufferView": 0,
      "byteOffset": 0
    },
    {
      "name": "Tube_1_1_0_indices",
      "componentType": 5123,
      "count": 2880,
      "min": [
        0
      ],
      "max": [
        480
      ],
      "type": "SCALAR",
      "bufferView": 1,
      "byteOffset": 0
    },
    {
      "name": "Tuyau_1_1_0_positions",
      "componentType": 5126,
      "count": 32,
      "min": [
        0.02850000001490116,
        0.06506399810314178,
        0.08399999886751175
      ],
      "max": [
        0.6414999961853027,
        0.14506399631500244,
        0.164000004529953
      ],
      "type": "VEC3",
      "bufferView": 0,
      "byteOffset": 5772
    },
    {
      "name": "Tuyau_1_1_0_indices",
      "componentType": 5123,
      "count": 180,
      "min": [
        0
      ],
      "max": [
        31
      ],
      "type": "SCALAR",
      "bufferView": 1,
      "byteOffset": 5760
    },
    {
      "name": "Tube_7_1_0_positions",
      "componentType": 5126,
      "count": 512,
      "min": [
        0.33067500591278076,
        0.0011709999525919557,
        -0.00022200000239536166
      ],
      "max": [
        0.38067498803138733,
        0.6104099750518799,
        0.24977800250053406
      ],
      "type": "VEC3",
      "bufferView": 0,
      "byteOffset": 6156
    },
    {
      "name": "Tube_7_1_0_indices",
      "componentType": 5123,
      "count": 2880,
      "min": [
        0
      ],
      "max": [
        511
      ],
      "type": "SCALAR",
      "bufferView": 1,
      "byteOffset": 6120
    },
    {
      "name": "Tube_10_1_0_positions",
      "componentType": 5126,
      "count": 512,
      "min": [
        0.4956749975681305,
        0.0011709999525919557,
        -0.00022200000239536166
      ],
      "max": [
        0.5456749796867371,
        0.6104099750518799,
        0.24977800250053406
      ],
      "type": "VEC3",
      "bufferView": 0,
      "byteOffset": 12300
    },
    {
      "name": "Tube_10_1_0_indices",
      "componentType": 5123,
      "count": 2880,
      "min": [
        0
      ],
      "max": [
        511
      ],
      "type": "SCALAR",
      "bufferView": 1,
      "byteOffset": 11880
    },
    {
      "name": "Tube_6_1_0_positions",
      "componentType": 5126,
      "count": 512,
      "min": [
        0.2756749987602234,
        0.0011709999525919557,
        -0.00022200000239536166
      ],
      "max": [
        0.32567501068115234,
        0.6104099750518799,
        0.24977800250053406
      ],
      "type": "VEC3",
      "bufferView": 0,
      "byteOffset": 18444
    },
    {
      "name": "Tube_6_1_0_indices",
      "componentType": 5123,
      "count": 2880,
      "min": [
        0
      ],
      "max": [
        511
      ],
      "type": "SCALAR",
      "bufferView": 1,
      "byteOffset": 17640
    },
    {
      "name": "Tube_5_1_0_positions",
      "componentType": 5126,
      "count": 512,
      "min": [
        0.2206750065088272,
        0.0011709999525919557,
        -0.00022200000239536166
      ],
      "max": [
        0.27067500352859497,
        0.6104099750518799,
        0.24977800250053406
      ],
      "type": "VEC3",
      "bufferView": 0,
      "byteOffset": 24588
    },
    {
      "name": "Tube_5_1_0_indices",
      "componentType": 5123,
      "count": 2880,
      "min": [
        0
      ],
      "max": [
        511
      ],
      "type": "SCALAR",
      "bufferView": 1,
      "byteOffset": 23400
    },
    {
      "name": "Tube_12_1_0_positions",
      "componentType": 5126,
      "count": 512,
      "min": [
        0.6056749820709229,
        0.0011709999525919557,
        -0.00022200000239536166
      ],
      "max": [
        0.6556749939918518,
        0.6104099750518799,
        0.24977800250053406
      ],
      "type": "VEC3",
      "bufferView": 0,
      "byteOffset": 30732
    },
    {
      "name": "Tube_12_1_0_indices",
      "componentType": 5123,
      "count": 2880,
      "min": [
        0
      ],
      "max": [
        511
      ],
      "type": "SCALAR",
      "bufferView": 1,
      "byteOffset": 29160
    },
    {
      "name": "Tube_9_1_0_positions",
      "componentType": 5126,
      "count": 512,
      "min": [
        0.4406749904155731,
        0.0011709999525919557,
        -0.00022200000239536166
      ],
      "max": [
        0.4906750023365021,
        0.6104099750518799,
        0.24977800250053406
      ],
      "type": "VEC3",
      "bufferView": 0,
      "byteOffset": 36876
    },
    {
      "name": "Tube_9_1_0_indices",
      "componentType": 5123,
      "count": 2880,
      "min": [
        0
      ],
      "max": [
        511
      ],
      "type": "SCALAR",
      "bufferView": 1,
      "byteOffset": 34920
    },
    {
      "name": "Tube_2_1_0_positions",
      "componentType": 5126,
      "count": 512,
      "min": [
        0.055674999952316284,
        0.0011709999525919557,
        -0.00022200000239536166
      ],
      "max": [
        0.10567499697208405,
        0.6104099750518799,
        0.24977800250053406
      ],
      "type": "VEC3",
      "bufferView": 0,
      "byteOffset": 43020
    },
    {
      "name": "Tube_2_1_0_indices",
      "componentType": 5123,
      "count": 2880,
      "min": [
        0
      ],
      "max": [
        511
      ],
      "type": "SCALAR",
      "bufferView": 1,
      "byteOffset": 40680
    },
    {
      "name": "Tube_3_1_0_positions",
      "componentType": 5126,
      "count": 512,
      "min": [
        0.11067499965429306,
        0.0011709999525919557,
        -0.00022200000239536166
      ],
      "max": [
        0.16067500412464142,
        0.6104099750518799,
        0.24977800250053406
      ],
      "type": "VEC3",
      "bufferView": 0,
      "byteOffset": 49164
    },
    {
      "name": "Tube_3_1_0_indices",
      "componentType": 5123,
      "count": 2880,
      "min": [
        0
      ],
      "max": [
        511
      ],
      "type": "SCALAR",
      "bufferView": 1,
      "byteOffset": 46440
    },
    {
      "name": "Tube_8_1_0_positions",
      "componentType": 5126,
      "count": 512,
      "min": [
        0.38567501306533813,
        0.0011709999525919557,
        -0.00022200000239536166
      ],
      "max": [
        0.4356749951839447,
        0.6104099750518799,
        0.24977800250053406
      ],
      "type": "VEC3",
      "bufferView": 0,
      "byteOffset": 55308
    },
    {
      "name": "Tube_8_1_0_indices",
      "componentType": 5123,
      "count": 2880,
      "min": [
        0
      ],
      "max": [
        511
      ],
      "type": "SCALAR",
      "bufferView": 1,
      "byteOffset": 52200
    },
    {
      "name": "Tuyau_1_0_positions",
      "componentType": 5126,
      "count": 32,
      "min": [
        0.02850000001490116,
        0.4650000035762787,
        0.08399999886751175
      ],
      "max": [
        0.6414999961853027,
        0.5450000166893005,
        0.164000004529953
      ],
      "type": "VEC3",
      "bufferView": 0,
      "byteOffset": 61452
    },
    {
      "name": "Tuyau_1_0_indices",
      "componentType": 5123,
      "count": 180,
      "min": [
        0
      ],
      "max": [
        31
      ],
      "type": "SCALAR",
      "bufferView": 1,
      "byteOffset": 57960
    },
    {
      "name": "Tube_1_0_positions",
      "componentType": 5126,
      "count": 512,
      "min": [
        0.055674999952316284,
        0.0011709999525919557,
        -0.00022200000239536166
      ],
      "max": [
        0.10567499697208405,
        0.6104099750518799,
        0.24977800250053406
      ],
      "type": "VEC3",
      "bufferView": 0,
      "byteOffset": 61836
    },
    {
      "name": "Tube_1_0_indices",
      "componentType": 5123,
      "count": 2880,
      "min": [
        0
      ],
      "max": [
        511
      ],
      "type": "SCALAR",
      "bufferView": 1,
      "byteOffset": 58320
    },
    {
      "name": "Tube_4_1_0_positions",
      "componentType": 5126,
      "count": 512,
      "min": [
        0.16567499935626984,
        0.0011709999525919557,
        -0.00022200000239536166
      ],
      "max": [
        0.2156749963760376,
        0.6104099750518799,
        0.24977800250053406
      ],
      "type": "VEC3",
      "bufferView": 0,
      "byteOffset": 67980
    },
    {
      "name": "Tube_4_1_0_indices",
      "componentType": 5123,
      "count": 2880,
      "min": [
        0
      ],
      "max": [
        511
      ],
      "type": "SCALAR",
      "bufferView": 1,
      "byteOffset": 64080
    },
    {
      "name": "Tube_11_1_0_positions",
      "componentType": 5126,
      "count": 512,
      "min": [
        0.5506749749183655,
        0.0011709999525919557,
        -0.00022200000239536166
      ],
      "max": [
        0.6006749868392944,
        0.6104099750518799,
        0.24977800250053406
      ],
      "type": "VEC3",
      "bufferView": 0,
      "byteOffset": 74124
    },
    {
      "name": "Tube_11_1_0_indices",
      "componentType": 5123,
      "count": 2880,
      "min": [
        0
      ],
      "max": [
        511
      ],
      "type": "SCALAR",
      "bufferView": 1,
      "byteOffset": 69840
    }
  ],
  "asset": {
    "generator": "obj2gltf",
    "version": "2.0"
  },
  "buffers": [
    {
      "name": "hotWaterRadiator",
      "byteLength": 155868,
      "uri": "data:application/octet-stream;base64,"
    }
  ],
  "bufferViews": [
    {
      "name": "bufferView_0",
      "buffer": 0,
      "byteLength": 80268,
      "byteOffset": 0,
      "byteStride": 12,
      "target": 34962
    },
    {
      "name": "bufferView_1",
      "buffer": 0,
      "byteLength": 75600,
      "byteOffset": 80268,
      "target": 34963
    }
  ],
  "materials": [
    {
      "name": "white",
      "pbrMetallicRoughness": {
        "baseColorFactor": [
          0.5,
          0.5,
          0.5,
          1
        ],
        "metallicFactor": 0,
        "roughnessFactor": 1
      },
      "emissiveFactor": [
        0,
        0,
        0
      ],
      "alphaMode": "OPAQUE",
      "doubleSided": false
    }
  ],
  "meshes": [
    {
      "name": "Tube_1_1",
      "primitives": [
        {
          "attributes": {
            "POSITION": 0
          },
          "indices": 1,
          "material": 0,
          "mode": 4
        }
      ]
    },
    {
      "name": "Tuyau_1_1",
      "primitives": [
        {
          "attributes": {
            "POSITION": 2
          },
          "indices": 3,
          "material": 0,
          "mode": 4
        }
      ]
    },
    {
      "name": "Tube_7_1",
      "primitives": [
        {
          "attributes": {
            "POSITION": 4
          },
          "indices": 5,
          "material": 0,
          "mode": 4
        }
      ]
    },
    {
      "name": "Tube_10_1",
      "primitives": [
        {
          "attributes": {
            "POSITION": 6
          },
          "indices": 7,
          "material": 0,
          "mode": 4
        }
      ]
    },
    {
      "name": "Tube_6_1",
      "primitives": [
        {
          "attributes": {
            "POSITION": 8
          },
          "indices": 9,
          "material": 0,
          "mode": 4
        }
      ]
    },
    {
      "name": "Tube_5_1",
      "primitives": [
        {
          "attributes": {
            "POSITION": 10
          },
          "indices": 11,
          "material": 0,
          "mode": 4
        }
      ]
    },
    {
      "name": "Tube_12_1",
      "primitives": [
        {
          "attributes": {
            "POSITION": 12
          },
          "indices": 13,
          "material": 0,
          "mode": 4
        }
      ]
    },
    {
      "name": "Tube_9_1",
      "primitives": [
        {
          "attributes": {
            "POSITION": 14
          },
          "indices": 15,
          "material": 0,
          "mode": 4
        }
      ]
    },
    {
      "name": "Tube_2_1",
      "primitives": [
        {
          "attributes": {
            "POSITION": 16
          },
          "indices": 17,
          "material": 0,
          "mode": 4
        }
      ]
    },
    {
      "name": "Tube_3_1",
      "primitives": [
        {
          "attributes": {
            "POSITION": 18
          },
          "indices": 19,
          "material": 0,
          "mode": 4
        }
      ]
    },
    {
      "name": "Tube_8_1",
      "primitives": [
        {
          "attributes": {
            "POSITION": 20
          },
          "indices": 21,
          "material": 0,
          "mode": 4
        }
      ]
    },
    {
      "name": "Tuyau_1",
      "primitives": [
        {
          "attributes": {
            "POSITION": 22
          },
          "indices": 23,
          "material": 0,
          "mode": 4
        }
      ]
    },
    {
      "name": "Tube_1",
      "primitives": [
        {
          "attributes": {
            "POSITION": 24
          },
          "indices": 25,
          "material": 0,
          "mode": 4
        }
      ]
    },
    {
      "name": "Tube_4_1",
      "primitives": [
        {
          "attributes": {
            "POSITION": 26
          },
          "indices": 27,
          "material": 0,
          "mode": 4
        }
      ]
    },
    {
      "name": "Tube_11_1",
      "primitives": [
        {
          "attributes": {
            "POSITION": 28
          },
          "indices": 29,
          "material": 0,
          "mode": 4
        }
      ]
    }
  ],
  "nodes": [
    {
      "name": "Tube_1",
      "mesh": 0
    },
    {
      "name": "Tuyau_1",
      "mesh": 1
    },
    {
      "name": "Tube_7",
      "mesh": 2
    },
    {
      "name": "Tube_10",
      "mesh": 3
    },
    {
      "name": "Tube_6",
      "mesh": 4
    },
    {
      "name": "Tube_5",
      "mesh": 5
    },
    {
      "name": "Tube_12",
      "mesh": 6
    },
    {
      "name": "Tube_9",
      "mesh": 7
    },
    {
      "name": "Tube_2",
      "mesh": 8
    },
    {
      "name": "Tube_3",
      "mesh": 9
    },
    {
      "name": "Tube_8",
      "mesh": 10
    },
    {
      "name": "Tuyau",
      "mesh": 11
    },
    {
      "name": "Tube",
      "mesh": 12
    },
    {
      "name": "Tube_4",
      "mesh": 13
    },
    {
      "name": "Tube_11",
      "mesh": 14
    }
  ],
  "scene": 0,
  "scenes": [
    {
      "nodes": [
        0,
        1,
        2,
        3,
        4,
        5,
        6,
        7,
        8,
        9,
        10,
        11,
        12,
        13,
        14
      ]
    }
  ]
}
