{
  "accessors": [
    {
      "name": "Panel_1_0_positions",
      "componentType": 5126,
      "count": 61,
      "min": [
        0.1525000035762787,
        -0.14000000059604645,
        0.16249999403953552
      ],
      "max": [
        0.2574999928474426,
        0.14000000059604645,
        0.20000000298023224
      ],
      "type": "VEC3",
      "bufferView": 0,
      "byteOffset": 0
    },
    {
      "name": "Panel_1_0_indices",
      "componentType": 5123,
      "count": 336,
      "min": [
        0
      ],
      "max": [
        60
      ],
      "type": "SCALAR",
      "bufferView": 1,
      "byteOffset": 0
    },
    {
      "name": "sweethome3d_hinge_1_1_1_0_positions",
      "componentType": 5126,
      "count": 16,
      "min": [
        -0.25352200865745544,
        -0.13249999284744263,
        0.1599999964237213
      ],
      "max": [
        -0.24439099431037903,
        0.13249999284744263,
        0.1901019960641861
      ],
      "type": "VEC3",
      "bufferView": 0,
      "byteOffset": 732
    },
    {
      "name": "sweethome3d_hinge_1_1_1_0_indices",
      "componentType": 5123,
      "count": 72,
      "min": [
        0
      ],
      "max": [
        15
      ],
      "type": "SCALAR",
      "bufferView": 1,
      "byteOffset": 672
    },
    {
      "name": "Button_1_0_positions",
      "componentType": 5126,
      "count": 64,
      "min": [
        0.18540599942207336,
        -0.03959399834275246,
        0.20000000298023224
      ],
      "max": [
        0.22459399700164795,
        -0.00040600000647827983,
        0.2199999988079071
      ],
      "type": "VEC3",
      "bufferView": 0,
      "byteOffset": 924
    },
    {
      "name": "Button_1_0_indices",
      "componentType": 5123,
      "count": 330,
      "min": [
        0
      ],
      "max": [
        63
      ],
      "type": "SCALAR",
      "bufferView": 1,
      "byteOffset": 816
    },
    {
      "name": "sweethome3d_window_pane_2_1_0_positions",
      "componentType": 5126,
      "count": 8,
      "min": [
        0.17000000178813934,
        0.05999999865889549,
        0.19900000095367432
      ],
      "max": [
        0.23999999463558197,
        0.10499999672174454,
        0.20000000298023224
      ],
      "type": "VEC3",
      "bufferView": 0,
      "byteOffset": 1692
    },
    {
      "name": "sweethome3d_window_pane_2_1_0_indices",
      "componentType": 5123,
      "count": 12,
      "min": [
        0
      ],
      "max": [
        7
      ],
      "type": "SCALAR",
      "bufferView": 1,
      "byteOffset": 1476
    },
    {
      "name": "Time_1_0_positions",
      "componentType": 5126,
      "count": 98,
      "min": [
        0.18295499682426453,
        0.07500000298023224,
        0.19699999690055847
      ],
      "max": [
        0.22966699302196503,
        0.09109900146722794,
        0.19699999690055847
      ],
      "type": "VEC3",
      "bufferView": 0,
      "byteOffset": 1788
    },
    {
      "name": "Time_1_0_indices",
      "componentType": 5123,
      "count": 168,
      "min": [
        0
      ],
      "max": [
        97
      ],
      "type": "SCALAR",
      "bufferView": 1,
      "byteOffset": 1500
    },
    {
      "name": "Feet_1_0_positions",
      "componentType": 5126,
      "count": 96,
      "min": [
        -0.20250000059604645,
        -0.1550000011920929,
        -0.12250000238418579
      ],
      "max": [
        0.20250000059604645,
        -0.14000000059604645,
        0.12250000238418579
      ],
      "type": "VEC3",
      "bufferView": 0,
      "byteOffset": 2964
    },
    {
      "name": "Feet_1_0_indices",
      "componentType": 5123,
      "count": 408,
      "min": [
        0
      ],
      "max": [
        95
      ],
      "type": "SCALAR",
      "bufferView": 1,
      "byteOffset": 1836
    },
    {
      "name": "Back_1_0_positions",
      "componentType": 5126,
      "count": 120,
      "min": [
        -0.22499999403953552,
        -0.10499999672174454,
        -0.24250000715255737
      ],
      "max": [
        0.11500000208616257,
        0.10499999672174454,
        -0.16249999403953552
      ],
      "type": "VEC3",
      "bufferView": 0,
      "byteOffset": 4116
    },
    {
      "name": "Back_1_0_indices",
      "componentType": 5123,
      "count": 708,
      "min": [
        0
      ],
      "max": [
        119
      ],
      "type": "SCALAR",
      "bufferView": 1,
      "byteOffset": 2652
    },
    {
      "name": "sweethome3d_opening_on_hinge_1_handle_1_0_positions",
      "componentType": 5126,
      "count": 52,
      "min": [
        0.125,
        -0.07500000298023224,
        0.20000000298023224
      ],
      "max": [
        0.15000000596046448,
        0.14000000059604645,
        0.23499999940395355
      ],
      "type": "VEC3",
      "bufferView": 0,
      "byteOffset": 5556
    },
    {
      "name": "sweethome3d_opening_on_hinge_1_handle_1_0_indices",
      "componentType": 5123,
      "count": 300,
      "min": [
        0
      ],
      "max": [
        51
      ],
      "type": "SCALAR",
      "bufferView": 1,
      "byteOffset": 4068
    },
    {
      "name": "sweethome3d_window_pane_on_hinge_1_1_0_positions",
      "componentType": 5126,
      "count": 8,
      "min": [
        -0.22462500631809235,
        -0.07500000298023224,
        0.16224999725818634
      ],
      "max": [
        0.08537500351667404,
        0.10000000149011612,
        0.20000000298023224
      ],
      "type": "VEC3",
      "bufferView": 0,
      "byteOffset": 6180
    },
    {
      "name": "sweethome3d_window_pane_on_hinge_1_1_0_indices",
      "componentType": 5123,
      "count": 12,
      "min": [
        0
      ],
      "max": [
        7
      ],
      "type": "SCALAR",
      "bufferView": 1,
      "byteOffset": 4668
    },
    {
      "name": "Plate_1_0_positions",
      "componentType": 5126,
      "count": 128,
      "min": [
        -0.21299999952316284,
        -0.10350000113248825,
        -0.15549999475479126
      ],
      "max": [
        0.10300000011920929,
        -0.09849999845027924,
        0.16050000488758087
      ],
      "type": "VEC3",
      "bufferView": 0,
      "byteOffset": 6276
    },
    {
      "name": "Plate_1_0_indices",
      "componentType": 5123,
      "count": 756,
      "min": [
        0
      ],
      "max": [
        127
      ],
      "type": "SCALAR",
      "bufferView": 1,
      "byteOffset": 4692
    },
    {
      "name": "Oven_OVen_1_0_positions",
      "componentType": 5126,
      "count": 44,
      "min": [
        -0.2574999928474426,
        -0.14000000059604645,
        -0.16249999403953552
      ],
      "max": [
        0.2574999928474426,
        0.14000000059604645,
        0.16249999403953552
      ],
      "type": "VEC3",
      "bufferView": 0,
      "byteOffset": 7812
    },
    {
      "name": "Oven_OVen_1_0_indices",
      "componentType": 5123,
      "count": 252,
      "min": [
        0
      ],
      "max": [
        43
      ],
      "type": "SCALAR",
      "bufferView": 1,
      "byteOffset": 6204
    },
    {
      "name": "sweethome3d_opening_on_hinge_1_door_1_0_positions",
      "componentType": 5126,
      "count": 63,
      "min": [
        -0.2574999928474426,
        -0.14000000059604645,
        0.16249999403953552
      ],
      "max": [
        0.15000000596046448,
        0.14000000059604645,
        0.20000000298023224
      ],
      "type": "VEC3",
      "bufferView": 0,
      "byteOffset": 8340
    },
    {
      "name": "sweethome3d_opening_on_hinge_1_door_1_0_indices",
      "componentType": 5123,
      "count": 327,
      "min": [
        0
      ],
      "max": [
        62
      ],
      "type": "SCALAR",
      "bufferView": 1,
      "byteOffset": 6708
    }
  ],
  "asset": {
    "generator": "obj2gltf",
    "version": "2.0"
  },
  "buffers": [
    {
      "name": "oven",
      "byteLength": 16460,
      "uri": "data:application/octet-stream;base64,"
    }
  ],
  "bufferViews": [
    {
      "name": "bufferView_0",
      "buffer": 0,
      "byteLength": 9096,
      "byteOffset": 0,
      "byteStride": 12,
      "target": 34962
    },
    {
      "name": "bufferView_1",
      "buffer": 0,
      "byteLength": 7364,
      "byteOffset": 9096,
      "target": 34963
    }
  ],
  "materials": [
    {
      "name": "dkgrey",
      "pbrMetallicRoughness": {
        "baseColorFactor": [
          0.5,
          0.5,
          0.5,
          1
        ],
        "metallicFactor": 0,
        "roughnessFactor": 1
      },
      "emissiveFactor": [
        0,
        0,
        0
      ],
      "alphaMode": "OPAQUE",
      "doubleSided": false
    },
    {
      "name": "silver",
      "pbrMetallicRoughness": {
        "baseColorFactor": [
          0.5,
          0.5,
          0.5,
          1
        ],
        "metallicFactor": 0,
        "roughnessFactor": 1
      },
      "emissiveFactor": [
        0,
        0,
        0
      ],
      "alphaMode": "OPAQUE",
      "doubleSided": false
    },
    {
      "name": "dkdkgrey",
      "pbrMetallicRoughness": {
        "baseColorFactor": [
          0.5,
          0.5,
          0.5,
          1
        ],
        "metallicFactor": 0,
        "roughnessFactor": 1
      },
      "emissiveFactor": [
        0,
        0,
        0
      ],
      "alphaMode": "OPAQUE",
      "doubleSided": false
    },
    {
      "name": "sky_blue",
      "pbrMetallicRoughness": {
        "baseColorFactor": [
          0.5,
          0.5,
          0.5,
          1
        ],
        "metallicFactor": 0,
        "roughnessFactor": 1
      },
      "emissiveFactor": [
        0,
        0,
        0
      ],
      "alphaMode": "OPAQUE",
      "doubleSided": false
    },
    {
      "name": "fldkgrey",
      "pbrMetallicRoughness": {
        "baseColorFactor": [
          0.5,
          0.5,
          0.5,
          1
        ],
        "metallicFactor": 0,
        "roughnessFactor": 1
      },
      "emissiveFactor": [
        0,
        0,
        0
      ],
      "alphaMode": "OPAQUE",
      "doubleSided": false
    },
    {
      "name": "ltgrey",
      "pbrMetallicRoughness": {
        "baseColorFactor": [
          0.5,
          0.5,
          0.5,
          1
        ],
        "metallicFactor": 0,
        "roughnessFactor": 1
      },
      "emissiveFactor": [
        0,
        0,
        0
      ],
      "alphaMode": "OPAQUE",
      "doubleSided": false
    },
    {
      "name": "grey",
      "pbrMetallicRoughness": {
        "baseColorFactor": [
          0.5,
          0.5,
          0.5,
          1
        ],
        "metallicFactor": 0,
        "roughnessFactor": 1
      },
      "emissiveFactor": [
        0,
        0,
        0
      ],
      "alphaMode": "OPAQUE",
      "doubleSided": false
    }
  ],
  "meshes": [
    {
      "name": "Panel_1",
      "primitives": [
        {
          "attributes": {
            "POSITION": 0
          },
          "indices": 1,
          "material": 0,
          "mode": 4
        }
      ]
    },
    {
      "name": "sweethome3d_hinge_1_1_1",
      "primitives": [
        {
          "attributes": {
            "POSITION": 2
          },
          "indices": 3,
          "material": 1,
          "mode": 4
        }
      ]
    },
    {
      "name": "Button_1",
      "primitives": [
        {
          "attributes": {
            "POSITION": 4
          },
          "indices": 5,
          "material": 0,
          "mode": 4
        }
      ]
    },
    {
      "name": "sweethome3d_window_pane_2_1",
      "primitives": [
        {
          "attributes": {
            "POSITION": 6
          },
          "indices": 7,
          "material": 2,
          "mode": 4
        }
      ]
    },
    {
      "name": "Time_1",
      "primitives": [
        {
          "attributes": {
            "POSITION": 8
          },
          "indices": 9,
          "material": 3,
          "mode": 4
        }
      ]
    },
    {
      "name": "Feet_1",
      "primitives": [
        {
          "attributes": {
            "POSITION": 10
          },
          "indices": 11,
          "material": 4,
          "mode": 4
        }
      ]
    },
    {
      "name": "Back_1",
      "primitives": [
        {
          "attributes": {
            "POSITION": 12
          },
          "indices": 13,
          "material": 5,
          "mode": 4
        }
      ]
    },
    {
      "name": "sweethome3d_opening_on_hinge_1_handle_1",
      "primitives": [
        {
          "attributes": {
            "POSITION": 14
          },
          "indices": 15,
          "material": 5,
          "mode": 4
        }
      ]
    },
    {
      "name": "sweethome3d_window_pane_on_hinge_1_1",
      "primitives": [
        {
          "attributes": {
            "POSITION": 16
          },
          "indices": 17,
          "material": 6,
          "mode": 4
        }
      ]
    },
    {
      "name": "Plate_1",
      "primitives": [
        {
          "attributes": {
            "POSITION": 18
          },
          "indices": 19,
          "material": 1,
          "mode": 4
        }
      ]
    },
    {
      "name": "Oven_OVen_1",
      "primitives": [
        {
          "attributes": {
            "POSITION": 20
          },
          "indices": 21,
          "material": 4,
          "mode": 4
        }
      ]
    },
    {
      "name": "sweethome3d_opening_on_hinge_1_door_1",
      "primitives": [
        {
          "attributes": {
            "POSITION": 22
          },
          "indices": 23,
          "material": 0,
          "mode": 4
        }
      ]
    }
  ],
  "nodes": [
    {
      "name": "Panel",
      "mesh": 0
    },
    {
      "name": "sweethome3d_hinge_1_1",
      "mesh": 1
    },
    {
      "name": "Button",
      "mesh": 2
    },
    {
      "name": "sweethome3d_window_pane_2",
      "mesh": 3
    },
    {
      "name": "Time",
      "mesh": 4
    },
    {
      "name": "Feet",
      "mesh": 5
    },
    {
      "name": "Back",
      "mesh": 6
    },
    {
      "name": "sweethome3d_opening_on_hinge_1_handle",
      "mesh": 7
    },
    {
      "name": "sweethome3d_window_pane_on_hinge_1",
      "mesh": 8
    },
    {
      "name": "Plate",
      "mesh": 9
    },
    {
      "name": "Oven_OVen",
      "mesh": 10
    },
    {
      "name": "sweethome3d_opening_on_hinge_1_door",
      "mesh": 11
    }
  ],
  "scene": 0,
  "scenes": [
    {
      "nodes": [
        0,
        1,
        2,
        3,
        4,
        5,
        6,
        7,
        8,
        9,
        10,
        11
      ]
    }
  ]
}
