{
  "accessors": [
    {
      "name": "Plateau_1_0_positions",
      "componentType": 5126,
      "count": 66,
      "min": [
        -1,
        0.550000011920929,
        -1
      ],
      "max": [
        1,
        0.6499999761581421,
        1
      ],
      "type": "VEC3",
      "bufferView": 0,
      "byteOffset": 0
    },
    {
      "name": "Plateau_1_0_indices",
      "componentType": 5123,
      "count": 384,
      "min": [
        0
      ],
      "max": [
        65
      ],
      "type": "SCALAR",
      "bufferView": 1,
      "byteOffset": 0
    },
    {
      "name": "Pied_1_0_positions",
      "componentType": 5126,
      "count": 34,
      "min": [
        -0.10000000149011612,
        -0.4000000059604645,
        -0.10000000149011612
      ],
      "max": [
        0.10000000149011612,
        0.6000000238418579,
        0.10000000149011612
      ],
      "type": "VEC3",
      "bufferView": 0,
      "byteOffset": 792
    },
    {
      "name": "Pied_1_0_indices",
      "componentType": 5123,
      "count": 192,
      "min": [
        0
      ],
      "max": [
        33
      ],
      "type": "SCALAR",
      "bufferView": 1,
      "byteOffset": 768
    },
    {
      "name": "Socle_1_0_positions",
      "componentType": 5126,
      "count": 66,
      "min": [
        -0.4000000059604645,
        -0.4350000023841858,
        -0.4000000059604645
      ],
      "max": [
        0.4000000059604645,
        -0.36500000953674316,
        0.4000000059604645
      ],
      "type": "VEC3",
      "bufferView": 0,
      "byteOffset": 1200
    },
    {
      "name": "Socle_1_0_indices",
      "componentType": 5123,
      "count": 384,
      "min": [
        0
      ],
      "max": [
        65
      ],
      "type": "SCALAR",
      "bufferView": 1,
      "byteOffset": 1152
    }
  ],
  "asset": {
    "generator": "obj2gltf",
    "version": "2.0"
  },
  "buffers": [
    {
      "name": "roundTable",
      "byteLength": 3912,
      "uri": "data:application/octet-stream;base64,"
    }
  ],
  "bufferViews": [
    {
      "name": "bufferView_0",
      "buffer": 0,
      "byteLength": 1992,
      "byteOffset": 0,
      "byteStride": 12,
      "target": 34962
    },
    {
      "name": "bufferView_1",
      "buffer": 0,
      "byteLength": 1920,
      "byteOffset": 1992,
      "target": 34963
    }
  ],
  "materials": [
    {
      "name": "amber",
      "pbrMetallicRoughness": {
        "baseColorFactor": [
          0.5,
          0.5,
          0.5,
          1
        ],
        "metallicFactor": 0,
        "roughnessFactor": 1
      },
      "emissiveFactor": [
        0,
        0,
        0
      ],
      "alphaMode": "OPAQUE",
      "doubleSided": false
    }
  ],
  "meshes": [
    {
      "name": "Plateau_1",
      "primitives": [
        {
          "attributes": {
            "POSITION": 0
          },
          "indices": 1,
          "material": 0,
          "mode": 4
        }
      ]
    },
    {
      "name": "Pied_1",
      "primitives": [
        {
          "attributes": {
            "POSITION": 2
          },
          "indices": 3,
          "material": 0,
          "mode": 4
        }
      ]
    },
    {
      "name": "Socle_1",
      "primitives": [
        {
          "attributes": {
            "POSITION": 4
          },
          "indices": 5,
          "material": 0,
          "mode": 4
        }
      ]
    }
  ],
  "nodes": [
    {
      "name": "Plateau",
      "mesh": 0
    },
    {
      "name": "Pied",
      "mesh": 1
    },
    {
      "name": "Socle",
      "mesh": 2
    }
  ],
  "scene": 0,
  "scenes": [
    {
      "nodes": [
        0,
        1,
        2
      ]
    }
  ]
}
