{
  "accessors": [
    {
      "name": "sweethome3d_hinge_1_2_1_0_positions",
      "componentType": 5126,
      "count": 18,
      "min": [
        -0.42100000381469727,
        -0.14614999294281006,
        0.01850000023841858
      ],
      "max": [
        -0.4009999930858612,
        -0.08231999725103378,
        0.03849999979138374
      ],
      "type": "VEC3",
      "bufferView": 0,
      "byteOffset": 0
    },
    {
      "name": "sweethome3d_hinge_1_2_1_0_indices",
      "componentType": 5123,
      "count": 96,
      "min": [
        0
      ],
      "max": [
        17
      ],
      "type": "SCALAR",
      "bufferView": 1,
      "byteOffset": 0
    },
    {
      "name": "sweethome3d_opening_on_hinge_1_door_1_0_positions",
      "componentType": 5126,
      "count": 72,
      "min": [
        -0.4115000069141388,
        -1.0201900005340576,
        -0.020059999078512192
      ],
      "max": [
        0.4115000069141388,
        1.0189000368118286,
        0.019999999552965164
      ],
      "type": "VEC3",
      "bufferView": 0,
      "byteOffset": 216
    },
    {
      "name": "sweethome3d_opening_on_hinge_1_door_1_0_indices",
      "componentType": 5123,
      "count": 423,
      "min": [
        0
      ],
      "max": [
        71
      ],
      "type": "SCALAR",
      "bufferView": 1,
      "byteOffset": 192
    },
    {
      "name": "sweethome3d_hinge_1_1_1_0_positions",
      "componentType": 5126,
      "count": 18,
      "min": [
        -0.42100000381469727,
        -0.8399999737739563,
        0.01850000023841858
      ],
      "max": [
        -0.4009999930858612,
        -0.776170015335083,
        0.03849999979138374
      ],
      "type": "VEC3",
      "bufferView": 0,
      "byteOffset": 1080
    },
    {
      "name": "sweethome3d_hinge_1_1_1_0_indices",
      "componentType": 5123,
      "count": 96,
      "min": [
        0
      ],
      "max": [
        17
      ],
      "type": "SCALAR",
      "bufferView": 1,
      "byteOffset": 1040
    },
    {
      "name": "sweethome3d_opening_on_hinge_1_handleOut_1_0_positions",
      "componentType": 5126,
      "count": 232,
      "min": [
        0.24796999990940094,
        -0.029419999569654465,
        -0.07766000181436539
      ],
      "max": [
        0.37700000405311584,
        -0.005640000104904175,
        -0.009239999577403069
      ],
      "type": "VEC3",
      "bufferView": 0,
      "byteOffset": 1296
    },
    {
      "name": "sweethome3d_opening_on_hinge_1_handleOut_1_0_indices",
      "componentType": 5123,
      "count": 1380,
      "min": [
        0
      ],
      "max": [
        231
      ],
      "type": "SCALAR",
      "bufferView": 1,
      "byteOffset": 1232
    },
    {
      "name": "sweethome3d_opening_on_hinge_1_handleIn_1_0_positions",
      "componentType": 5126,
      "count": 232,
      "min": [
        0.24796999990940094,
        -0.029419999569654465,
        0.006430000066757202
      ],
      "max": [
        0.37700000405311584,
        -0.005640000104904175,
        0.07485000044107437
      ],
      "type": "VEC3",
      "bufferView": 0,
      "byteOffset": 4080
    },
    {
      "name": "sweethome3d_opening_on_hinge_1_handleIn_1_0_indices",
      "componentType": 5123,
      "count": 1380,
      "min": [
        0
      ],
      "max": [
        231
      ],
      "type": "SCALAR",
      "bufferView": 1,
      "byteOffset": 3992
    },
    {
      "name": "frame_1_0_positions",
      "componentType": 5126,
      "count": 220,
      "min": [
        -0.45803698897361755,
        -1.0198800563812256,
        -0.07552800327539444
      ],
      "max": [
        0.4580000042915344,
        1.065000057220459,
        0.019500000402331352
      ],
      "type": "VEC3",
      "bufferView": 0,
      "byteOffset": 6864
    },
    {
      "name": "frame_1_0_indices",
      "componentType": 5123,
      "count": 1299,
      "min": [
        0
      ],
      "max": [
        219
      ],
      "type": "SCALAR",
      "bufferView": 1,
      "byteOffset": 6752
    },
    {
      "name": "sweethome3d_hinge_1_3_1_0_positions",
      "componentType": 5126,
      "count": 18,
      "min": [
        -0.42100000381469727,
        0.538860023021698,
        0.01850000023841858
      ],
      "max": [
        -0.4009999930858612,
        0.6026899814605713,
        0.03849999979138374
      ],
      "type": "VEC3",
      "bufferView": 0,
      "byteOffset": 9504
    },
    {
      "name": "sweethome3d_hinge_1_3_1_0_indices",
      "componentType": 5123,
      "count": 96,
      "min": [
        0
      ],
      "max": [
        17
      ],
      "type": "SCALAR",
      "bufferView": 1,
      "byteOffset": 9352
    }
  ],
  "asset": {
    "generator": "obj2gltf",
    "version": "2.0"
  },
  "buffers": [
    {
      "name": "roundedDoor",
      "byteLength": 19264,
      "uri": "data:application/octet-stream;base64,"
    }
  ],
  "bufferViews": [
    {
      "name": "bufferView_0",
      "buffer": 0,
      "byteLength": 9720,
      "byteOffset": 0,
      "byteStride": 12,
      "target": 34962
    },
    {
      "name": "bufferView_1",
      "buffer": 0,
      "byteLength": 9544,
      "byteOffset": 9720,
      "target": 34963
    }
  ],
  "materials": [
    {
      "name": "white",
      "pbrMetallicRoughness": {
        "baseColorFactor": [
          0.5,
          0.5,
          0.5,
          1
        ],
        "metallicFactor": 0,
        "roughnessFactor": 1
      },
      "emissiveFactor": [
        0,
        0,
        0
      ],
      "alphaMode": "OPAQUE",
      "doubleSided": false
    },
    {
      "name": "yellowbrt",
      "pbrMetallicRoughness": {
        "baseColorFactor": [
          0.5,
          0.5,
          0.5,
          1
        ],
        "metallicFactor": 0,
        "roughnessFactor": 1
      },
      "emissiveFactor": [
        0,
        0,
        0
      ],
      "alphaMode": "OPAQUE",
      "doubleSided": false
    }
  ],
  "meshes": [
    {
      "name": "sweethome3d_hinge_1_2_1",
      "primitives": [
        {
          "attributes": {
            "POSITION": 0
          },
          "indices": 1,
          "material": 0,
          "mode": 4
        }
      ]
    },
    {
      "name": "sweethome3d_opening_on_hinge_1_door_1",
      "primitives": [
        {
          "attributes": {
            "POSITION": 2
          },
          "indices": 3,
          "material": 0,
          "mode": 4
        }
      ]
    },
    {
      "name": "sweethome3d_hinge_1_1_1",
      "primitives": [
        {
          "attributes": {
            "POSITION": 4
          },
          "indices": 5,
          "material": 0,
          "mode": 4
        }
      ]
    },
    {
      "name": "sweethome3d_opening_on_hinge_1_handleOut_1",
      "primitives": [
        {
          "attributes": {
            "POSITION": 6
          },
          "indices": 7,
          "material": 1,
          "mode": 4
        }
      ]
    },
    {
      "name": "sweethome3d_opening_on_hinge_1_handleIn_1",
      "primitives": [
        {
          "attributes": {
            "POSITION": 8
          },
          "indices": 9,
          "material": 1,
          "mode": 4
        }
      ]
    },
    {
      "name": "frame_1",
      "primitives": [
        {
          "attributes": {
            "POSITION": 10
          },
          "indices": 11,
          "material": 0,
          "mode": 4
        }
      ]
    },
    {
      "name": "sweethome3d_hinge_1_3_1",
      "primitives": [
        {
          "attributes": {
            "POSITION": 12
          },
          "indices": 13,
          "material": 0,
          "mode": 4
        }
      ]
    }
  ],
  "nodes": [
    {
      "name": "sweethome3d_hinge_1_2",
      "mesh": 0
    },
    {
      "name": "sweethome3d_opening_on_hinge_1_door",
      "mesh": 1
    },
    {
      "name": "sweethome3d_hinge_1_1",
      "mesh": 2
    },
    {
      "name": "sweethome3d_opening_on_hinge_1_handleOut",
      "mesh": 3
    },
    {
      "name": "sweethome3d_opening_on_hinge_1_handleIn",
      "mesh": 4
    },
    {
      "name": "frame",
      "mesh": 5
    },
    {
      "name": "sweethome3d_hinge_1_3",
      "mesh": 6
    }
  ],
  "scene": 0,
  "scenes": [
    {
      "nodes": [
        0,
        1,
        2,
        3,
        4,
        5,
        6
      ]
    }
  ]
}
