{
  "accessors": [
    {
      "name": "Accoudoir_1_0_positions",
      "componentType": 5126,
      "count": 658,
      "min": [
        1.3980870246887207,
        -0.901449978351593,
        -0.88823002576828
      ],
      "max": [
        1.7161070108413696,
        0.244609996676445,
        0.9692500233650208
      ],
      "type": "VEC3",
      "bufferView": 0,
      "byteOffset": 0
    },
    {
      "name": "Accoudoir_1_0_indices",
      "componentType": 5123,
      "count": 3936,
      "min": [
        0
      ],
      "max": [
        657
      ],
      "type": "SCALAR",
      "bufferView": 1,
      "byteOffset": 0
    },
    {
      "name": "Assise_&_Dossier_1_1_0_positions",
      "componentType": 5126,
      "count": 735,
      "min": [
        -0.025496000424027443,
        -0.7158799767494202,
        -1.0353399515151978
      ],
      "max": [
        1.5444040298461914,
        1.0933619737625122,
        1.0592299699783325
      ],
      "type": "VEC3",
      "bufferView": 0,
      "byteOffset": 7896
    },
    {
      "name": "Assise_&_Dossier_1_1_0_indices",
      "componentType": 5123,
      "count": 4002,
      "min": [
        0
      ],
      "max": [
        734
      ],
      "type": "SCALAR",
      "bufferView": 1,
      "byteOffset": 7872
    },
    {
      "name": "Accoudoir_1_1_0_positions",
      "componentType": 5126,
      "count": 658,
      "min": [
        -1.6721609830856323,
        -0.901449978351593,
        -0.88823002576828
      ],
      "max": [
        -1.3541409969329834,
        0.244609996676445,
        0.9692500233650208
      ],
      "type": "VEC3",
      "bufferView": 0,
      "byteOffset": 16716
    },
    {
      "name": "Accoudoir_1_1_0_indices",
      "componentType": 5123,
      "count": 3936,
      "min": [
        0
      ],
      "max": [
        657
      ],
      "type": "SCALAR",
      "bufferView": 1,
      "byteOffset": 15876
    },
    {
      "name": "Assise_&_Dossier_1_0_positions",
      "componentType": 5126,
      "count": 690,
      "min": [
        -1.5383210182189941,
        -0.7158799767494202,
        -1.0353399515151978
      ],
      "max": [
        0.041099000722169876,
        1.0933619737625122,
        1.0592299699783325
      ],
      "type": "VEC3",
      "bufferView": 0,
      "byteOffset": 24612
    },
    {
      "name": "Assise_&_Dossier_1_0_indices",
      "componentType": 5123,
      "count": 3720,
      "min": [
        0
      ],
      "max": [
        689
      ],
      "type": "SCALAR",
      "bufferView": 1,
      "byteOffset": 23748
    }
  ],
  "asset": {
    "generator": "obj2gltf",
    "version": "2.0"
  },
  "buffers": [
    {
      "name": "sofa",
      "byteLength": 64080,
      "uri": "data:application/octet-stream;base64,"
    }
  ],
  "bufferViews": [
    {
      "name": "bufferView_0",
      "buffer": 0,
      "byteLength": 32892,
      "byteOffset": 0,
      "byteStride": 12,
      "target": 34962
    },
    {
      "name": "bufferView_1",
      "buffer": 0,
      "byteLength": 31188,
      "byteOffset": 32892,
      "target": 34963
    }
  ],
  "materials": [
    {
      "name": "iris",
      "pbrMetallicRoughness": {
        "baseColorFactor": [
          0.5,
          0.5,
          0.5,
          1
        ],
        "metallicFactor": 0,
        "roughnessFactor": 1
      },
      "emissiveFactor": [
        0,
        0,
        0
      ],
      "alphaMode": "OPAQUE",
      "doubleSided": false
    }
  ],
  "meshes": [
    {
      "name": "Accoudoir_1",
      "primitives": [
        {
          "attributes": {
            "POSITION": 0
          },
          "indices": 1,
          "material": 0,
          "mode": 4
        }
      ]
    },
    {
      "name": "Assise_&_Dossier_1_1",
      "primitives": [
        {
          "attributes": {
            "POSITION": 2
          },
          "indices": 3,
          "material": 0,
          "mode": 4
        }
      ]
    },
    {
      "name": "Accoudoir_1_1",
      "primitives": [
        {
          "attributes": {
            "POSITION": 4
          },
          "indices": 5,
          "material": 0,
          "mode": 4
        }
      ]
    },
    {
      "name": "Assise_&_Dossier_1",
      "primitives": [
        {
          "attributes": {
            "POSITION": 6
          },
          "indices": 7,
          "material": 0,
          "mode": 4
        }
      ]
    }
  ],
  "nodes": [
    {
      "name": "Accoudoir",
      "mesh": 0
    },
    {
      "name": "Assise_&_Dossier_1",
      "mesh": 1
    },
    {
      "name": "Accoudoir_1",
      "mesh": 2
    },
    {
      "name": "Assise_&_Dossier",
      "mesh": 3
    }
  ],
  "scene": 0,
  "scenes": [
    {
      "nodes": [
        0,
        1,
        2,
        3
      ]
    }
  ]
}
