{
  "accessors": [
    {
      "name": "Pied_1_1_0_positions",
      "componentType": 5126,
      "count": 16,
      "min": [
        -0.8999999761581421,
        -0.6000000238418579,
        0.75
      ],
      "max": [
        -0.800000011920929,
        0.6000000238418579,
        0.8500000238418579
      ],
      "type": "VEC3",
      "bufferView": 0,
      "byteOffset": 0
    },
    {
      "name": "Pied_1_1_0_indices",
      "componentType": 5123,
      "count": 84,
      "min": [
        0
      ],
      "max": [
        15
      ],
      "type": "SCALAR",
      "bufferView": 1,
      "byteOffset": 0
    },
    {
      "name": "Pied_1_0_positions",
      "componentType": 5126,
      "count": 16,
      "min": [
        0.800000011920929,
        -0.6000000238418579,
        0.75
      ],
      "max": [
        0.8999999761581421,
        0.6000000238418579,
        0.8500000238418579
      ],
      "type": "VEC3",
      "bufferView": 0,
      "byteOffset": 192
    },
    {
      "name": "Pied_1_0_indices",
      "componentType": 5123,
      "count": 84,
      "min": [
        0
      ],
      "max": [
        15
      ],
      "type": "SCALAR",
      "bufferView": 1,
      "byteOffset": 168
    },
    {
      "name": "Pied_2_1_0_positions",
      "componentType": 5126,
      "count": 16,
      "min": [
        -0.8999999761581421,
        -0.6000000238418579,
        -0.8500000238418579
      ],
      "max": [
        -0.800000011920929,
        0.6000000238418579,
        -0.75
      ],
      "type": "VEC3",
      "bufferView": 0,
      "byteOffset": 384
    },
    {
      "name": "Pied_2_1_0_indices",
      "componentType": 5123,
      "count": 84,
      "min": [
        0
      ],
      "max": [
        15
      ],
      "type": "SCALAR",
      "bufferView": 1,
      "byteOffset": 336
    },
    {
      "name": "Pied_3_1_0_positions",
      "componentType": 5126,
      "count": 16,
      "min": [
        0.800000011920929,
        -0.6000000238418579,
        -0.8500000238418579
      ],
      "max": [
        0.8999999761581421,
        0.6000000238418579,
        -0.75
      ],
      "type": "VEC3",
      "bufferView": 0,
      "byteOffset": 576
    },
    {
      "name": "Pied_3_1_0_indices",
      "componentType": 5123,
      "count": 84,
      "min": [
        0
      ],
      "max": [
        15
      ],
      "type": "SCALAR",
      "bufferView": 1,
      "byteOffset": 504
    },
    {
      "name": "Plateau_1_0_positions",
      "componentType": 5126,
      "count": 8,
      "min": [
        -1,
        0.6000000238418579,
        -1
      ],
      "max": [
        1,
        0.699999988079071,
        1
      ],
      "type": "VEC3",
      "bufferView": 0,
      "byteOffset": 768
    },
    {
      "name": "Plateau_1_0_indices",
      "componentType": 5123,
      "count": 36,
      "min": [
        0
      ],
      "max": [
        7
      ],
      "type": "SCALAR",
      "bufferView": 1,
      "byteOffset": 672
    }
  ],
  "asset": {
    "generator": "obj2gltf",
    "version": "2.0"
  },
  "buffers": [
    {
      "name": "squareTable",
      "byteLength": 1608,
      "uri": "data:application/octet-stream;base64,"
    }
  ],
  "bufferViews": [
    {
      "name": "bufferView_0",
      "buffer": 0,
      "byteLength": 864,
      "byteOffset": 0,
      "byteStride": 12,
      "target": 34962
    },
    {
      "name": "bufferView_1",
      "buffer": 0,
      "byteLength": 744,
      "byteOffset": 864,
      "target": 34963
    }
  ],
  "materials": [
    {
      "name": "flblonde",
      "pbrMetallicRoughness": {
        "baseColorFactor": [
          0.5,
          0.5,
          0.5,
          1
        ],
        "metallicFactor": 0,
        "roughnessFactor": 1
      },
      "emissiveFactor": [
        0,
        0,
        0
      ],
      "alphaMode": "OPAQUE",
      "doubleSided": false
    }
  ],
  "meshes": [
    {
      "name": "Pied_1_1",
      "primitives": [
        {
          "attributes": {
            "POSITION": 0
          },
          "indices": 1,
          "material": 0,
          "mode": 4
        }
      ]
    },
    {
      "name": "Pied_1",
      "primitives": [
        {
          "attributes": {
            "POSITION": 2
          },
          "indices": 3,
          "material": 0,
          "mode": 4
        }
      ]
    },
    {
      "name": "Pied_2_1",
      "primitives": [
        {
          "attributes": {
            "POSITION": 4
          },
          "indices": 5,
          "material": 0,
          "mode": 4
        }
      ]
    },
    {
      "name": "Pied_3_1",
      "primitives": [
        {
          "attributes": {
            "POSITION": 6
          },
          "indices": 7,
          "material": 0,
          "mode": 4
        }
      ]
    },
    {
      "name": "Plateau_1",
      "primitives": [
        {
          "attributes": {
            "POSITION": 8
          },
          "indices": 9,
          "material": 0,
          "mode": 4
        }
      ]
    }
  ],
  "nodes": [
    {
      "name": "Pied_1",
      "mesh": 0
    },
    {
      "name": "Pied",
      "mesh": 1
    },
    {
      "name": "Pied_2",
      "mesh": 2
    },
    {
      "name": "Pied_3",
      "mesh": 3
    },
    {
      "name": "Plateau",
      "mesh": 4
    }
  ],
  "scene": 0,
  "scenes": [
    {
      "nodes": [
        0,
        1,
        2,
        3,
        4
      ]
    }
  ]
}
