{
  "accessors": [
    {
      "name": "Tube_1_1_0_positions",
      "componentType": 5126,
      "count": 158,
      "min": [
        -0.15505899488925934,
        -0.4506399929523468,
        -0.15384000539779663
      ],
      "max": [
        0.15393100678920746,
        -0.0028699999675154686,
        0.15514999628067017
      ],
      "type": "VEC3",
      "bufferView": 0,
      "byteOffset": 0
    },
    {
      "name": "Tube_1_1_0_indices",
      "componentType": 5123,
      "count": 936,
      "min": [
        0
      ],
      "max": [
        157
      ],
      "type": "SCALAR",
      "bufferView": 1,
      "byteOffset": 0
    },
    {
      "name": "Assise_1_0_positions",
      "componentType": 5126,
      "count": 66,
      "min": [
        -0.20000000298023224,
        -0.008999999612569809,
        -0.20000000298023224
      ],
      "max": [
        0.20000000298023224,
        0.008999999612569809,
        0.20000000298023224
      ],
      "type": "VEC3",
      "bufferView": 0,
      "byteOffset": 1896
    },
    {
      "name": "Assise_1_0_indices",
      "componentType": 5123,
      "count": 384,
      "min": [
        0
      ],
      "max": [
        65
      ],
      "type": "SCALAR",
      "bufferView": 1,
      "byteOffset": 1872
    },
    {
      "name": "Tube_1_0_positions",
      "componentType": 5126,
      "count": 158,
      "min": [
        -0.15514999628067017,
        -0.4506399929523468,
        -0.15384000539779663
      ],
      "max": [
        0.15384000539779663,
        -0.0028699999675154686,
        0.15514999628067017
      ],
      "type": "VEC3",
      "bufferView": 0,
      "byteOffset": 2688
    },
    {
      "name": "Tube_1_0_indices",
      "componentType": 5123,
      "count": 936,
      "min": [
        0
      ],
      "max": [
        157
      ],
      "type": "SCALAR",
      "bufferView": 1,
      "byteOffset": 2640
    }
  ],
  "asset": {
    "generator": "obj2gltf",
    "version": "2.0"
  },
  "buffers": [
    {
      "name": "stool",
      "byteLength": 9096,
      "uri": "data:application/octet-stream;base64,"
    }
  ],
  "bufferViews": [
    {
      "name": "bufferView_0",
      "buffer": 0,
      "byteLength": 4584,
      "byteOffset": 0,
      "byteStride": 12,
      "target": 34962
    },
    {
      "name": "bufferView_1",
      "buffer": 0,
      "byteLength": 4512,
      "byteOffset": 4584,
      "target": 34963
    }
  ],
  "materials": [
    {
      "name": "dkgrey",
      "pbrMetallicRoughness": {
        "baseColorFactor": [
          0.5,
          0.5,
          0.5,
          1
        ],
        "metallicFactor": 0,
        "roughnessFactor": 1
      },
      "emissiveFactor": [
        0,
        0,
        0
      ],
      "alphaMode": "OPAQUE",
      "doubleSided": false
    },
    {
      "name": "amber",
      "pbrMetallicRoughness": {
        "baseColorFactor": [
          0.5,
          0.5,
          0.5,
          1
        ],
        "metallicFactor": 0,
        "roughnessFactor": 1
      },
      "emissiveFactor": [
        0,
        0,
        0
      ],
      "alphaMode": "OPAQUE",
      "doubleSided": false
    }
  ],
  "meshes": [
    {
      "name": "Tube_1_1",
      "primitives": [
        {
          "attributes": {
            "POSITION": 0
          },
          "indices": 1,
          "material": 0,
          "mode": 4
        }
      ]
    },
    {
      "name": "Assise_1",
      "primitives": [
        {
          "attributes": {
            "POSITION": 2
          },
          "indices": 3,
          "material": 1,
          "mode": 4
        }
      ]
    },
    {
      "name": "Tube_1",
      "primitives": [
        {
          "attributes": {
            "POSITION": 4
          },
          "indices": 5,
          "material": 0,
          "mode": 4
        }
      ]
    }
  ],
  "nodes": [
    {
      "name": "Tube_1",
      "mesh": 0
    },
    {
      "name": "Assise",
      "mesh": 1
    },
    {
      "name": "Tube",
      "mesh": 2
    }
  ],
  "scene": 0,
  "scenes": [
    {
      "nodes": [
        0,
        1,
        2
      ]
    }
  ]
}
