{
  "accessors": [
    {
      "name": "Lavabo_1_0_positions",
      "componentType": 5126,
      "count": 3906,
      "min": [
        -0.9262300133705139,
        -0.9900760054588318,
        -0.6583499908447266
      ],
      "max": [
        0.88714998960495,
        0.5962399840354919,
        0.6461300253868103
      ],
      "type": "VEC3",
      "bufferView": 0,
      "byteOffset": 0
    },
    {
      "name": "Lavabo_1_0_indices",
      "componentType": 5123,
      "count": 23424,
      "min": [
        0
      ],
      "max": [
        3905
      ],
      "type": "SCALAR",
      "bufferView": 1,
      "byteOffset": 0
    },
    {
      "name": "Robinet_gauche_1_0_positions",
      "componentType": 5126,
      "count": 18,
      "min": [
        -0.2732110023498535,
        0.5799999833106995,
        -0.5649999976158142
      ],
      "max": [
        -0.15678900480270386,
        0.6899999976158142,
        -0.45500001311302185
      ],
      "type": "VEC3",
      "bufferView": 0,
      "byteOffset": 46872
    },
    {
      "name": "Robinet_gauche_1_0_indices",
      "componentType": 5123,
      "count": 96,
      "min": [
        0
      ],
      "max": [
        17
      ],
      "type": "SCALAR",
      "bufferView": 1,
      "byteOffset": 46848
    },
    {
      "name": "Robinet_1_0_positions",
      "componentType": 5126,
      "count": 102,
      "min": [
        -0.043299999088048935,
        0.5849199891090393,
        -0.5597400069236755
      ],
      "max": [
        0.043299999088048935,
        0.9973300099372864,
        -0.13850000500679016
      ],
      "type": "VEC3",
      "bufferView": 0,
      "byteOffset": 47088
    },
    {
      "name": "Robinet_1_0_indices",
      "componentType": 5123,
      "count": 600,
      "min": [
        0
      ],
      "max": [
        101
      ],
      "type": "SCALAR",
      "bufferView": 1,
      "byteOffset": 47040
    },
    {
      "name": "Robinet_droit_1_0_positions",
      "componentType": 5126,
      "count": 18,
      "min": [
        0.15841899812221527,
        0.5799999833106995,
        -0.5649999976158142
      ],
      "max": [
        0.2715809941291809,
        0.6899999976158142,
        -0.45500001311302185
      ],
      "type": "VEC3",
      "bufferView": 0,
      "byteOffset": 48312
    },
    {
      "name": "Robinet_droit_1_0_indices",
      "componentType": 5123,
      "count": 96,
      "min": [
        0
      ],
      "max": [
        17
      ],
      "type": "SCALAR",
      "bufferView": 1,
      "byteOffset": 48240
    }
  ],
  "asset": {
    "generator": "obj2gltf",
    "version": "2.0"
  },
  "buffers": [
    {
      "name": "washbasin",
      "byteLength": 96960,
      "uri": "data:application/octet-stream;base64,"
    }
  ],
  "bufferViews": [
    {
      "name": "bufferView_0",
      "buffer": 0,
      "byteLength": 48528,
      "byteOffset": 0,
      "byteStride": 12,
      "target": 34962
    },
    {
      "name": "bufferView_1",
      "buffer": 0,
      "byteLength": 48432,
      "byteOffset": 48528,
      "target": 34963
    }
  ],
  "materials": [
    {
      "name": "white",
      "pbrMetallicRoughness": {
        "baseColorFactor": [
          0.5,
          0.5,
          0.5,
          1
        ],
        "metallicFactor": 0,
        "roughnessFactor": 1
      },
      "emissiveFactor": [
        0,
        0,
        0
      ],
      "alphaMode": "OPAQUE",
      "doubleSided": false
    },
    {
      "name": "silver",
      "pbrMetallicRoughness": {
        "baseColorFactor": [
          0.5,
          0.5,
          0.5,
          1
        ],
        "metallicFactor": 0,
        "roughnessFactor": 1
      },
      "emissiveFactor": [
        0,
        0,
        0
      ],
      "alphaMode": "OPAQUE",
      "doubleSided": false
    }
  ],
  "meshes": [
    {
      "name": "Lavabo_1",
      "primitives": [
        {
          "attributes": {
            "POSITION": 0
          },
          "indices": 1,
          "material": 0,
          "mode": 4
        }
      ]
    },
    {
      "name": "Robinet_gauche_1",
      "primitives": [
        {
          "attributes": {
            "POSITION": 2
          },
          "indices": 3,
          "material": 1,
          "mode": 4
        }
      ]
    },
    {
      "name": "Robinet_1",
      "primitives": [
        {
          "attributes": {
            "POSITION": 4
          },
          "indices": 5,
          "material": 1,
          "mode": 4
        }
      ]
    },
    {
      "name": "Robinet_droit_1",
      "primitives": [
        {
          "attributes": {
            "POSITION": 6
          },
          "indices": 7,
          "material": 1,
          "mode": 4
        }
      ]
    }
  ],
  "nodes": [
    {
      "name": "Lavabo",
      "mesh": 0
    },
    {
      "name": "Robinet_gauche",
      "mesh": 1
    },
    {
      "name": "Robinet",
      "mesh": 2
    },
    {
      "name": "Robinet_droit",
      "mesh": 3
    }
  ],
  "scene": 0,
  "scenes": [
    {
      "nodes": [
        0,
        1,
        2,
        3
      ]
    }
  ]
}
