{
  "accessors": [
    {
      "name": "sweethome3d_opening_on_hinge_1_handle_1_0_positions",
      "componentType": 5126,
      "count": 92,
      "min": [
        0.3651700019836426,
        1.3447200059890747,
        0.006550000049173832
      ],
      "max": [
        0.38683000206947327,
        1.473580002784729,
        0.07485000044107437
      ],
      "type": "VEC3",
      "bufferView": 0,
      "byteOffset": 0
    },
    {
      "name": "sweethome3d_opening_on_hinge_1_handle_1_0_indices",
      "componentType": 5123,
      "count": 540,
      "min": [
        0
      ],
      "max": [
        91
      ],
      "type": "SCALAR",
      "bufferView": 1,
      "byteOffset": 0
    },
    {
      "name": "sweethome3d_hinge_1_2_1_0_positions",
      "componentType": 5126,
      "count": 18,
      "min": [
        -0.43299999833106995,
        1.5529999732971191,
        -0.007000000216066837
      ],
      "max": [
        -0.4129999876022339,
        1.593000054359436,
        0.013000000268220901
      ],
      "type": "VEC3",
      "bufferView": 0,
      "byteOffset": 1104
    },
    {
      "name": "sweethome3d_hinge_1_2_1_0_indices",
      "componentType": 5123,
      "count": 96,
      "min": [
        0
      ],
      "max": [
        17
      ],
      "type": "SCALAR",
      "bufferView": 1,
      "byteOffset": 1080
    },
    {
      "name": "sweethome3d_hinge_1_3_1_0_positions",
      "componentType": 5126,
      "count": 18,
      "min": [
        -0.43299999833106995,
        1.0920000076293945,
        -0.007000000216066837
      ],
      "max": [
        -0.4129999876022339,
        1.1319999694824219,
        0.013000000268220901
      ],
      "type": "VEC3",
      "bufferView": 0,
      "byteOffset": 1320
    },
    {
      "name": "sweethome3d_hinge_1_3_1_0_indices",
      "componentType": 5123,
      "count": 96,
      "min": [
        0
      ],
      "max": [
        17
      ],
      "type": "SCALAR",
      "bufferView": 1,
      "byteOffset": 1272
    },
    {
      "name": "frame_1_0_positions",
      "componentType": 5126,
      "count": 17,
      "min": [
        -0.45500001311302185,
        0.8740000128746033,
        -0.27421000599861145
      ],
      "max": [
        0.45500001311302185,
        2.2139999866485596,
        -0.004209999926388264
      ],
      "type": "VEC3",
      "bufferView": 0,
      "byteOffset": 1536
    },
    {
      "name": "frame_1_0_indices",
      "componentType": 5123,
      "count": 99,
      "min": [
        0
      ],
      "max": [
        16
      ],
      "type": "SCALAR",
      "bufferView": 1,
      "byteOffset": 1464
    },
    {
      "name": "sweethome3d_window_pane_on_hinge_1_1_0_positions",
      "componentType": 5126,
      "count": 8,
      "min": [
        -0.3449999988079071,
        1.0140000581741333,
        -0.02250000089406967
      ],
      "max": [
        0.3449999988079071,
        2.0840001106262207,
        -0.012500000186264515
      ],
      "type": "VEC3",
      "bufferView": 0,
      "byteOffset": 1740
    },
    {
      "name": "sweethome3d_window_pane_on_hinge_1_1_0_indices",
      "componentType": 5123,
      "count": 36,
      "min": [
        0
      ],
      "max": [
        7
      ],
      "type": "SCALAR",
      "bufferView": 1,
      "byteOffset": 1664
    },
    {
      "name": "sweethome3d_hinge_1_1_1_0_positions",
      "componentType": 5126,
      "count": 18,
      "min": [
        -0.4330799877643585,
        2.0143299102783203,
        -0.007000000216066837
      ],
      "max": [
        -0.41308000683784485,
        2.0543301105499268,
        0.013000000268220901
      ],
      "type": "VEC3",
      "bufferView": 0,
      "byteOffset": 1836
    },
    {
      "name": "sweethome3d_hinge_1_1_1_0_indices",
      "componentType": 5123,
      "count": 96,
      "min": [
        0
      ],
      "max": [
        17
      ],
      "type": "SCALAR",
      "bufferView": 1,
      "byteOffset": 1736
    },
    {
      "name": "sweethome3d_opening_on_hinge_1_1_0_positions",
      "componentType": 5126,
      "count": 24,
      "min": [
        -0.41499999165534973,
        0.9340000152587891,
        -0.04749999940395355
      ],
      "max": [
        0.41499999165534973,
        2.1640000343322754,
        0.012500000186264515
      ],
      "type": "VEC3",
      "bufferView": 0,
      "byteOffset": 2052
    },
    {
      "name": "sweethome3d_opening_on_hinge_1_1_0_indices",
      "componentType": 5123,
      "count": 144,
      "min": [
        0
      ],
      "max": [
        23
      ],
      "type": "SCALAR",
      "bufferView": 1,
      "byteOffset": 1928
    }
  ],
  "asset": {
    "generator": "obj2gltf",
    "version": "2.0"
  },
  "buffers": [
    {
      "name": "window85x123",
      "byteLength": 4556,
      "uri": "data:application/octet-stream;base64,"
    }
  ],
  "bufferViews": [
    {
      "name": "bufferView_0",
      "buffer": 0,
      "byteLength": 2340,
      "byteOffset": 0,
      "byteStride": 12,
      "target": 34962
    },
    {
      "name": "bufferView_1",
      "buffer": 0,
      "byteLength": 2216,
      "byteOffset": 2340,
      "target": 34963
    }
  ],
  "materials": [
    {
      "name": "white",
      "pbrMetallicRoughness": {
        "baseColorFactor": [
          0.5,
          0.5,
          0.5,
          1
        ],
        "metallicFactor": 0,
        "roughnessFactor": 1
      },
      "emissiveFactor": [
        0,
        0,
        0
      ],
      "alphaMode": "OPAQUE",
      "doubleSided": false
    },
    {
      "name": "flltgrey",
      "pbrMetallicRoughness": {
        "baseColorFactor": [
          0.5,
          0.5,
          0.5,
          1
        ],
        "metallicFactor": 0,
        "roughnessFactor": 1
      },
      "emissiveFactor": [
        0,
        0,
        0
      ],
      "alphaMode": "OPAQUE",
      "doubleSided": false
    }
  ],
  "meshes": [
    {
      "name": "sweethome3d_opening_on_hinge_1_handle_1",
      "primitives": [
        {
          "attributes": {
            "POSITION": 0
          },
          "indices": 1,
          "material": 0,
          "mode": 4
        }
      ]
    },
    {
      "name": "sweethome3d_hinge_1_2_1",
      "primitives": [
        {
          "attributes": {
            "POSITION": 2
          },
          "indices": 3,
          "material": 0,
          "mode": 4
        }
      ]
    },
    {
      "name": "sweethome3d_hinge_1_3_1",
      "primitives": [
        {
          "attributes": {
            "POSITION": 4
          },
          "indices": 5,
          "material": 0,
          "mode": 4
        }
      ]
    },
    {
      "name": "frame_1",
      "primitives": [
        {
          "attributes": {
            "POSITION": 6
          },
          "indices": 7,
          "material": 0,
          "mode": 4
        }
      ]
    },
    {
      "name": "sweethome3d_window_pane_on_hinge_1_1",
      "primitives": [
        {
          "attributes": {
            "POSITION": 8
          },
          "indices": 9,
          "material": 1,
          "mode": 4
        }
      ]
    },
    {
      "name": "sweethome3d_hinge_1_1_1",
      "primitives": [
        {
          "attributes": {
            "POSITION": 10
          },
          "indices": 11,
          "material": 0,
          "mode": 4
        }
      ]
    },
    {
      "name": "sweethome3d_opening_on_hinge_1_1",
      "primitives": [
        {
          "attributes": {
            "POSITION": 12
          },
          "indices": 13,
          "material": 0,
          "mode": 4
        }
      ]
    }
  ],
  "nodes": [
    {
      "name": "sweethome3d_opening_on_hinge_1_handle",
      "mesh": 0
    },
    {
      "name": "sweethome3d_hinge_1_2",
      "mesh": 1
    },
    {
      "name": "sweethome3d_hinge_1_3",
      "mesh": 2
    },
    {
      "name": "frame",
      "mesh": 3
    },
    {
      "name": "sweethome3d_window_pane_on_hinge_1",
      "mesh": 4
    },
    {
      "name": "sweethome3d_hinge_1_1",
      "mesh": 5
    },
    {
      "name": "sweethome3d_opening_on_hinge_1",
      "mesh": 6
    }
  ],
  "scene": 0,
  "scenes": [
    {
      "nodes": [
        0,
        1,
        2,
        3,
        4,
        5,
        6
      ]
    }
  ]
}
